<?xml version="1.0" standalone="no"?>
<!DOCTYPE svg PUBLIC "-//W3C//DTD SVG 20010904//EN"
 "http://www.w3.org/TR/2001/REC-SVG-20010904/DTD/svg10.dtd">
<svg version="1.0" xmlns="http://www.w3.org/2000/svg"
 width="860.000000pt" height="984.000000pt" viewBox="0 0 860.000000 984.000000"
 preserveAspectRatio="xMidYMid meet">
<metadata>
Created by potrace 1.16, written by Peter Selinger 2001-2019
</metadata>
<g transform="translate(0.000000,984.000000) scale(0.100000,-0.100000)"
fill="#000000" stroke="none">
<path d="M4135 9433 c-100 -9 -333 -56 -460 -92 -636 -180 -1137 -612 -1362
-1173 -39 -96 -113 -371 -113 -419 0 -11 -20 -21 -67 -34 -141 -37 -230 -96
-272 -180 -32 -65 -40 -195 -40 -660 0 -445 9 -615 36 -676 23 -50 92 -118
152 -148 140 -72 359 -60 402 21 8 15 14 212 20 682 13 1116 12 1102 130 1359
184 399 447 665 854 862 362 176 571 215 1065 199 299 -9 499 -59 770 -190
392 -190 672 -464 849 -834 112 -234 118 -270 132 -735 12 -396 5 -1383 -12
-1610 -13 -189 -48 -355 -119 -567 -188 -566 -515 -962 -951 -1149 -107 -47
-287 -99 -339 -99 -44 0 -58 13 -99 99 -44 91 -74 126 -133 155 -84 40 -170
48 -481 44 -319 -5 -351 -11 -436 -78 -93 -73 -121 -155 -121 -350 0 -228 33
-300 182 -394 l57 -36 387 7 386 6 49 39 c58 46 93 92 133 176 l29 61 71 17
c294 71 515 161 711 292 375 248 664 679 820 1223 47 162 70 282 95 489 11 96
23 194 26 216 l5 42 67 17 c93 23 154 59 217 127 43 46 55 67 62 105 4 27 8
309 8 628 0 647 1 637 -67 711 -55 59 -95 83 -207 120 l-96 31 -12 64 c-43
218 -105 402 -185 549 -257 472 -708 822 -1274 989 -265 79 -620 117 -869 94z"/>
<path d="M4150 8918 c-144 -7 -261 -32 -444 -95 -284 -97 -447 -189 -607 -341
-206 -195 -359 -463 -398 -697 -49 -289 -60 -1511 -17 -1950 48 -494 178 -844
426 -1150 115 -141 309 -305 360 -305 12 0 34 8 48 19 53 37 153 82 214 96
171 39 659 46 808 12 172 -40 284 -108 337 -204 l34 -62 62 23 c174 65 331
171 487 327 350 351 512 803 540 1513 12 299 12 1066 0 1361 -13 306 -45 458
-139 643 -126 249 -387 497 -655 623 -106 49 -277 111 -383 138 -167 43 -431
62 -673 49z"/>
<path d="M2585 4013 c-366 -149 -1077 -458 -1224 -532 -196 -99 -415 -309
-566 -541 -268 -413 -444 -950 -486 -1478 -13 -167 -9 -199 29 -234 73 -69
370 -175 750 -269 832 -204 1852 -299 3207 -299 1479 1 2569 112 3410 350 306
87 498 162 557 218 38 35 41 64 28 232 -15 206 -35 332 -81 518 -163 663 -506
1225 -887 1455 -43 26 -143 77 -222 113 -170 78 -852 371 -1030 442 -145 59
-137 63 -139 -65 -4 -291 -162 -752 -365 -1066 l-56 -87 -43 6 c-248 35 -498
148 -725 327 -70 55 -69 55 -169 13 -143 -61 -404 -58 -560 4 -42 17 -82 29
-89 26 -8 -3 -48 -32 -91 -64 -173 -131 -368 -226 -568 -276 -168 -43 -180
-38 -262 96 -185 303 -311 685 -332 1001 -4 64 -12 121 -17 126 -5 5 -35 -3
-69 -16z m1740 -1480 c87 -45 138 -134 138 -240 0 -187 -174 -301 -355 -233
-61 23 -129 86 -153 142 -25 61 -20 136 15 204 33 67 66 101 125 134 34 18 52
21 115 17 50 -2 88 -11 115 -24z m12 -819 c106 -62 151 -198 107 -327 -19 -57
-103 -138 -161 -155 -123 -37 -257 28 -319 153 -86 177 69 379 276 360 32 -4
72 -16 97 -31z"/>
</g>
</svg>
