<?xml version="1.0" standalone="no"?>
<!DOCTYPE svg PUBLIC "-//W3C//DTD SVG 20010904//EN"
 "http://www.w3.org/TR/2001/REC-SVG-20010904/DTD/svg10.dtd">
<svg version="1.0" xmlns="http://www.w3.org/2000/svg"
 width="860.000000pt" height="599.000000pt" viewBox="0 0 860.000000 599.000000"
 preserveAspectRatio="xMidYMid meet">
<metadata>
Created by potrace 1.16, written by Peter Selinger 2001-2019
</metadata>
<g transform="translate(0.000000,599.000000) scale(0.100000,-0.100000)"
fill="#000000" stroke="none">
<path d="M1198 5570 c-56 -17 -97 -51 -122 -102 l-26 -52 0 -1865 0 -1866 24
-52 c17 -36 38 -60 67 -80 l43 -28 1253 -3 1253 -2 0 -28 c0 -15 -4 -83 -10
-152 -6 -69 -14 -183 -20 -254 -8 -116 -13 -136 -44 -202 -52 -110 -95 -149
-288 -265 -144 -86 -172 -107 -185 -136 -12 -31 -12 -38 2 -59 l15 -24 1140 0
1140 0 15 24 c14 21 14 28 2 59 -13 29 -41 50 -185 136 -193 116 -236 155
-288 265 -31 66 -36 86 -44 202 -6 71 -14 185 -20 254 -6 69 -10 137 -10 152
l0 28 1253 2 1253 3 43 28 c29 20 50 44 67 80 l24 52 0 1866 0 1865 -26 52
c-19 39 -38 59 -72 80 l-47 27 -3090 2 c-1699 1 -3102 -2 -3117 -7z m6050
-1972 l2 -1678 -2950 0 -2950 0 0 1673 c0 921 3 1677 7 1680 3 4 1330 6 2947
5 l2941 -3 3 -1677z"/>
<path d="M3518 4661 c-28 -8 -48 -36 -48 -66 0 -56 20 -64 182 -73 l144 -7
-269 -305 c-148 -168 -282 -320 -298 -338 l-29 -33 -276 222 c-152 122 -289
229 -304 237 -21 12 -35 14 -53 7 -39 -15 -796 -734 -804 -763 -8 -34 26 -76
65 -80 35 -4 20 -16 466 403 158 149 290 271 295 273 4 1 137 -101 296 -228
158 -127 299 -233 312 -236 13 -4 33 0 46 9 12 8 161 172 332 366 170 193 311
351 314 351 3 0 6 -58 6 -129 1 -147 10 -171 70 -171 64 0 66 10 68 279 3 316
31 286 -273 286 -127 0 -236 -2 -242 -4z"/>
<path d="M5800 4147 c0 -414 3 -517 13 -510 6 6 185 140 397 298 212 158 388
291 392 294 13 12 -123 151 -207 214 -145 108 -353 193 -527 215 l-68 9 0
-520z"/>
<path d="M5500 4560 c-351 -75 -643 -340 -754 -685 -117 -362 -21 -766 246
-1034 93 -94 173 -150 291 -206 110 -53 205 -79 345 -96 117 -14 247 -2 377
36 78 23 215 79 215 89 0 2 -75 121 -166 263 -92 142 -194 301 -228 353 -33
52 -84 131 -113 175 l-53 80 0 523 0 522 -37 -1 c-21 0 -76 -9 -123 -19z"/>
<path d="M6268 3805 l-418 -312 126 -194 c70 -107 189 -292 266 -411 77 -120
144 -218 149 -218 15 0 123 96 170 151 293 346 360 812 171 1200 l-47 96 -417
-312z"/>
<path d="M3630 3790 c-20 -20 -20 -33 -20 -614 0 -571 1 -595 19 -617 19 -24
21 -24 188 -21 92 2 176 5 185 8 10 3 21 17 25 32 3 14 7 288 7 608 1 559 0
583 -18 603 -18 20 -29 21 -193 21 -160 0 -175 -2 -193 -20z"/>
<path d="M2415 3588 c-11 -6 -23 -16 -27 -22 -4 -6 -8 -232 -8 -503 l0 -492
28 -21 c26 -21 32 -22 192 -15 128 5 169 11 183 23 16 14 17 51 17 507 0 408
-2 494 -14 511 -13 17 -29 19 -183 22 -114 1 -174 -2 -188 -10z"/>
<path d="M3130 3383 c-100 -4 -115 -8 -127 -36 -11 -25 -10 -740 2 -777 9 -27
26 -30 213 -33 161 -2 164 -2 183 22 18 22 19 43 19 401 0 456 9 424 -127 426
-48 0 -122 -1 -163 -3z"/>
<path d="M1781 3144 c-20 -26 -21 -39 -21 -294 0 -241 2 -270 18 -288 16 -20
29 -21 194 -24 153 -3 179 -1 194 13 14 15 16 51 18 297 1 262 0 281 -18 301
-18 20 -29 21 -192 21 l-173 0 -20 -26z"/>
</g>
</svg>
