<?xml version="1.0" standalone="no"?>
<!DOCTYPE svg PUBLIC "-//W3C//DTD SVG 20010904//EN"
 "http://www.w3.org/TR/2001/REC-SVG-20010904/DTD/svg10.dtd">
<svg version="1.0" xmlns="http://www.w3.org/2000/svg"
 width="500.000000pt" height="500.000000pt" viewBox="0 0 500.000000 500.000000"
 preserveAspectRatio="xMidYMid meet">
<metadata>
Created by potrace 1.16, written by Peter Selinger 2001-2019
</metadata>
<g transform="translate(0.000000,500.000000) scale(0.100000,-0.100000)"
fill="#000000" stroke="none">
<path d="M2145 4507 c-107 -36 -223 -127 -255 -202 -33 -74 -45 -176 -30 -257
15 -87 38 -135 85 -181 l36 -35 -43 -25 c-49 -29 -142 -135 -194 -221 -59 -98
-81 -187 -123 -503 -42 -309 -42 -322 -1 -404 l23 -46 -28 -82 -27 -81 -118 0
-118 0 -4 348 c-4 330 -5 350 -26 403 -24 59 -70 111 -115 128 -19 7 -196 11
-514 11 -480 0 -486 0 -524 -22 -21 -12 -50 -38 -63 -57 -50 -75 -51 -86 -51
-546 l0 -430 27 -41 c63 -97 109 -114 304 -114 l154 0 0 -89 c0 -141 16 -151
304 -187 65 -8 123 -17 127 -20 5 -3 -21 -32 -57 -66 -179 -168 -303 -412
-275 -540 25 -111 85 -139 344 -159 84 -7 153 -13 154 -14 2 -1 12 -36 23 -79
51 -199 196 -375 382 -460 213 -99 443 -83 658 46 140 84 245 229 295 408 l21
75 194 6 c333 11 464 45 576 151 77 72 241 263 264 307 27 51 57 87 66 78 4
-4 -4 -20 -18 -35 -14 -15 -34 -40 -44 -57 -10 -16 -25 -39 -35 -50 -32 -37
-89 -162 -105 -232 -37 -156 13 -343 93 -351 18 -2 45 4 62 12 l30 16 40 -78
c55 -105 119 -174 223 -243 147 -96 245 -124 418 -117 134 5 241 41 361 120
100 66 132 99 187 193 56 95 79 160 98 267 13 75 14 106 4 177 -13 96 -42 192
-71 233 l-20 27 38 24 c51 32 64 50 65 86 2 60 -114 186 -222 241 -116 59
-358 79 -550 46 -72 -12 -87 -12 -99 -1 -12 12 -12 19 -3 40 7 14 12 39 12 55
0 41 -97 223 -211 395 -118 180 -180 298 -164 314 4 3 62 6 129 8 81 1 136 7
159 16 73 31 126 141 135 279 8 146 -29 208 -148 248 -90 30 -269 31 -356 1
-75 -25 -293 -144 -366 -200 l-56 -42 -133 41 c-74 22 -181 51 -239 65 -58 14
-121 31 -141 36 l-36 11 -12 112 c-7 61 -19 143 -28 181 -20 93 -81 219 -134
279 -34 38 -39 50 -28 57 8 5 17 9 20 9 15 0 113 97 137 134 43 67 53 97 59
177 5 62 1 91 -16 150 -20 63 -31 80 -86 136 -90 90 -167 125 -289 129 -58 3
-105 -1 -131 -9z m222 -158 c101 -49 161 -167 134 -267 -19 -73 -51 -113 -117
-147 -50 -25 -70 -30 -134 -30 -67 0 -81 4 -133 33 -79 46 -112 103 -112 192
1 102 50 176 145 219 62 28 159 28 217 0z m-105 -676 c42 -17 129 -106 158
-162 28 -56 48 -143 60 -266 15 -151 19 -172 35 -189 18 -17 183 -72 365 -121
74 -20 142 -38 151 -41 14 -4 15 -13 7 -61 -5 -32 -10 -59 -12 -61 -5 -4 -292
42 -479 77 -102 19 -169 37 -192 51 -40 25 -109 125 -153 222 -58 126 -102
328 -102 469 0 84 2 90 23 99 26 11 87 3 139 -17z m-271 -180 c28 -241 126
-487 246 -614 78 -83 97 -94 200 -117 l78 -18 3 -42 c3 -38 1 -42 -20 -42
-124 2 -701 31 -709 36 -6 4 -19 25 -29 48 -17 40 -17 46 6 211 13 94 30 223
39 289 20 151 65 275 126 348 l44 52 2 -29 c2 -17 8 -71 14 -122z m-837 -296
c18 -13 35 -76 36 -134 l0 -33 -490 0 -490 0 0 74 c0 66 3 77 22 90 20 14 80
16 463 16 348 0 445 -3 459 -13z m2790 -92 c17 -7 18 -16 13 -97 -12 -186 -48
-205 -328 -172 l-57 7 -11 -52 c-14 -67 -14 -176 0 -204 20 -37 171 -269 204
-312 50 -66 145 -230 151 -262 4 -19 0 -42 -10 -61 -23 -44 -20 -67 12 -115
16 -23 32 -47 35 -54 8 -14 -182 -118 -193 -106 -4 4 -30 43 -58 85 -29 42
-61 80 -73 83 -36 12 -72 -13 -108 -74 -61 -107 -216 -305 -308 -393 -91 -87
-113 -99 -205 -114 -41 -7 -45 -2 -23 36 8 14 14 50 15 81 0 62 8 75 64 112
82 54 190 198 253 335 107 236 125 461 73 905 -16 134 -18 182 -10 192 16 20
177 128 228 154 24 12 63 26 85 31 48 10 222 6 251 -5z m-2754 -441 c0 -281
-4 -304 -60 -344 -27 -19 -46 -20 -458 -20 -378 0 -432 2 -446 16 -14 13 -16
56 -16 310 l0 294 490 0 490 0 0 -256z m2103 49 c34 -280 40 -396 27 -504 -22
-190 -62 -311 -156 -465 -47 -80 -122 -164 -143 -164 -3 0 -3 73 0 162 4 90 7
244 8 342 1 154 -2 191 -20 259 -45 164 -151 268 -309 304 l-80 18 0 33 c0 32
2 34 26 28 14 -4 62 -11 107 -16 45 -5 124 -15 175 -21 l93 -12 -6 -73 c-7
-69 -6 -74 19 -99 19 -19 35 -25 58 -23 50 5 65 37 78 163 6 61 13 122 16 137
5 25 55 67 80 68 6 0 17 -55 27 -137z m-963 -144 c220 -7 341 -15 376 -24 104
-30 170 -104 206 -234 21 -78 23 -224 8 -631 -12 -330 -14 -346 -46 -366 -34
-23 -139 -29 -189 -11 -66 23 -65 19 -54 431 6 203 8 383 5 401 -8 41 -38 81
-78 101 -18 9 -88 22 -162 30 -72 7 -197 20 -278 29 -136 14 -315 52 -359 76
-25 13 -25 19 13 127 l33 93 100 -6 c55 -3 246 -10 425 -16z m-551 -298 c126
-41 297 -73 496 -91 284 -25 267 -15 263 -168 l-3 -107 -582 -3 -583 -2 0 205
0 205 145 0 c141 0 147 -1 264 -39z m-523 -308 c-2 -2 -125 19 -272 47 -148
27 -273 50 -277 50 -4 0 -7 34 -7 75 l0 75 209 0 c115 0 220 4 233 9 13 5 44
26 68 46 l45 38 3 -168 c1 -92 1 -170 -2 -172z m1272 -381 c-6 -240 -1 -279
39 -324 l18 -20 -765 5 c-693 5 -942 13 -1002 33 -18 5 -20 12 -15 49 8 58 32
105 99 200 83 117 185 217 259 254 l62 31 655 0 655 0 -5 -228z m2067 139 c55
-20 155 -79 155 -91 0 -6 -72 -40 -325 -155 -89 -40 -315 -148 -504 -239 -189
-92 -350 -165 -358 -162 -18 7 -17 116 2 191 23 85 61 149 128 211 142 131
325 224 522 263 28 5 111 8 185 7 106 -3 148 -8 195 -25z m155 -357 c43 -115
51 -218 25 -319 -48 -186 -179 -330 -358 -393 -63 -21 -83 -24 -186 -20 -151
6 -218 31 -318 123 -80 73 -124 136 -153 220 -25 73 -25 72 6 79 15 4 80 34
146 66 65 33 121 60 124 60 2 0 4 -11 4 -25 0 -68 86 -156 167 -171 56 -11
119 4 162 39 60 49 76 82 76 158 0 57 -4 73 -32 117 l-32 52 87 41 c48 23 114
52 147 64 l60 23 26 -28 c15 -15 37 -54 49 -86z m-437 -94 c59 -47 53 -138
-13 -183 -74 -51 -182 25 -165 116 6 28 15 38 58 60 64 32 87 33 120 7z
m-2675 -174 c-1 -60 39 -128 96 -161 116 -68 248 -28 303 92 15 33 23 66 21
84 l-5 29 159 0 158 0 -6 -42 c-10 -63 -78 -222 -114 -268 -46 -58 -103 -104
-178 -143 -90 -47 -159 -61 -273 -55 -108 6 -178 29 -267 88 -104 69 -207 240
-226 373 l-7 47 169 0 170 0 0 -44z m312 6 c0 -40 -20 -67 -67 -91 -69 -35
-166 34 -148 106 5 22 9 23 110 23 l105 0 0 -38z"/>
</g>
</svg>
