<?xml version="1.0" standalone="no"?>
<!DOCTYPE svg PUBLIC "-//W3C//DTD SVG 20010904//EN"
 "http://www.w3.org/TR/2001/REC-SVG-20010904/DTD/svg10.dtd">
<svg version="1.0" xmlns="http://www.w3.org/2000/svg"
 width="512.000000pt" height="512.000000pt" viewBox="0 0 512.000000 512.000000"
 preserveAspectRatio="xMidYMid meet">
<metadata>
Created by potrace 1.16, written by Peter Selinger 2001-2019
</metadata>
<g transform="translate(0.000000,512.000000) scale(0.100000,-0.100000)"
fill="#000000" stroke="none">
<path d="M1258 5020 c-20 -11 -50 -36 -65 -57 l-28 -36 0 -2367 0 -2367 28
-36 c16 -21 46 -46 67 -57 39 -20 61 -20 1300 -20 1239 0 1261 0 1300 20 21
11 51 36 67 57 l28 36 0 2367 0 2367 -28 36 c-16 21 -46 46 -67 57 -39 20 -60
20 -1302 20 -1233 -1 -1264 -1 -1300 -20z m1329 -166 c3 -9 2 -24 -4 -33 -9
-14 -38 -16 -223 -16 -185 0 -214 2 -223 16 -6 9 -7 24 -4 33 6 14 32 16 227
16 195 0 221 -2 227 -16z m1185 -321 c17 -15 18 -89 18 -1939 l0 -1923 -22
-15 c-20 -14 -151 -16 -1209 -16 -1154 0 -1187 1 -1210 19 l-24 19 -3 1889
c-1 1038 0 1902 3 1920 12 68 -88 63 1232 63 1099 0 1198 -1 1215 -17z"/>
<path d="M2440 4234 c-195 -42 -359 -202 -405 -395 -67 -287 111 -576 396
-644 115 -27 169 -19 169 24 0 36 -17 51 -60 51 -53 0 -149 27 -200 57 -139
82 -230 236 -230 388 2 268 258 483 521 436 272 -49 440 -321 354 -575 -23
-67 -14 -96 29 -96 38 0 48 16 71 114 68 287 -120 580 -410 641 -86 18 -150
18 -235 -1z"/>
<path d="M2667 3918 c-13 -18 -55 -76 -92 -128 -37 -52 -69 -97 -71 -99 -2 -2
-19 10 -39 28 -60 52 -135 31 -135 -37 0 -35 9 -46 87 -110 71 -58 91 -66 125
-53 29 11 258 334 258 365 0 40 -28 66 -70 66 -32 0 -43 -6 -63 -32z"/>
<path d="M2848 3377 c-20 -19 -54 -42 -75 -53 -56 -28 -73 -44 -73 -70 0 -44
34 -49 103 -16 34 16 81 46 105 67 36 31 43 43 40 69 -3 26 -7 31 -33 33 -22
2 -40 -6 -67 -30z"/>
<path d="M1589 2857 c-46 -35 -47 -101 -2 -137 22 -17 41 -20 119 -20 l94 0 0
-876 c0 -571 3 -873 10 -869 5 3 36 -9 68 -26 l58 -32 62 36 c35 20 67 37 72
37 5 0 37 -16 71 -37 l63 -36 71 38 72 38 62 -37 c34 -20 66 -36 71 -36 5 0
37 16 71 36 l62 37 72 -38 71 -38 63 36 c34 21 66 37 71 37 5 0 36 -16 68 -36
l60 -35 69 37 69 38 62 -37 c35 -20 69 -37 76 -37 36 0 36 4 36 912 l0 888 91
0 c87 0 92 1 120 29 16 16 29 39 29 51 0 29 -26 76 -45 84 -9 3 -445 6 -968 6
-733 -1 -956 -3 -968 -13z m541 -672 c0 -29 4 -35 21 -35 25 0 89 -61 89 -84
0 -26 -77 -22 -85 4 -13 40 -98 38 -108 -2 -9 -34 9 -55 65 -74 80 -25 106
-41 123 -74 33 -63 5 -139 -59 -160 -33 -11 -36 -15 -36 -51 0 -38 -1 -39 -35
-39 -34 0 -35 1 -35 39 0 34 -4 40 -30 49 -39 14 -80 56 -80 82 0 17 6 20 38
20 29 0 39 -5 47 -22 14 -33 67 -45 100 -24 25 16 32 49 17 73 -4 6 -34 21
-67 34 -33 12 -72 30 -87 41 -66 46 -54 144 22 176 35 15 40 21 40 50 0 29 3
32 30 32 28 0 30 -3 30 -35z m1048 23 c16 -16 15 -23 -4 -42 -13 -14 -60 -16
-364 -16 -304 0 -351 2 -364 16 -19 19 -20 26 -4 42 17 17 719 17 736 0z m0
-240 c16 -16 15 -23 -4 -42 -13 -14 -60 -16 -364 -16 -304 0 -351 2 -364 16
-19 19 -20 26 -4 42 17 17 719 17 736 0z m-325 -249 c6 -9 7 -24 4 -33 -6 -14
-30 -16 -205 -16 -141 0 -201 3 -210 12 -16 16 -15 23 4 42 24 24 392 19 407
-5z m321 -235 c19 -19 20 -26 4 -42 -17 -17 -719 -17 -736 0 -16 16 -15 23 4
42 13 14 60 16 364 16 304 0 351 -2 364 -16z"/>
</g>
</svg>
