<?xml version="1.0" standalone="no"?>
<!DOCTYPE svg PUBLIC "-//W3C//DTD SVG 20010904//EN"
 "http://www.w3.org/TR/2001/REC-SVG-20010904/DTD/svg10.dtd">
<svg version="1.0" xmlns="http://www.w3.org/2000/svg"
 width="980.000000pt" height="754.000000pt" viewBox="0 0 980.000000 754.000000"
 preserveAspectRatio="xMidYMid meet">
<metadata>
Created by potrace 1.16, written by Peter Selinger 2001-2019
</metadata>
<g transform="translate(0.000000,754.000000) scale(0.100000,-0.100000)"
fill="#000000" stroke="none">
<path d="M181 7529 c-79 -23 -148 -93 -171 -174 -8 -29 -10 -857 -8 -3105 l3
-3065 22 -41 c28 -53 91 -107 142 -122 29 -9 807 -12 3108 -12 l3069 0 -23
113 c-13 61 -28 174 -34 250 l-12 137 -2889 0 -2888 0 2 2763 3 2762 3893 3
3892 2 0 -1759 0 -1758 108 -7 c59 -4 159 -16 222 -27 63 -11 130 -23 148 -26
l32 -6 -2 1944 c-3 1848 -4 1946 -21 1984 -23 50 -70 100 -122 128 l-40 22
-4200 2 c-2684 1 -4212 -2 -4234 -8z"/>
<path d="M2810 6261 c-359 -79 -643 -337 -753 -687 -89 -281 -45 -593 119
-847 54 -84 195 -227 274 -279 144 -94 337 -165 463 -169 18 -1 -22 -7 -88
-15 -276 -32 -478 -90 -707 -205 -326 -163 -619 -429 -812 -739 l-46 -74 0
-493 0 -493 1755 0 1755 0 0 493 0 493 -46 74 c-107 171 -283 372 -440 501
-221 181 -498 320 -774 390 -109 27 -308 58 -388 60 -23 1 -7 6 44 14 322 50
603 256 751 550 165 327 126 747 -96 1042 -138 184 -309 301 -537 369 -122 36
-346 43 -474 15z"/>
<path d="M5030 5405 l0 -125 1130 0 1130 0 0 125 0 125 -1130 0 -1130 0 0
-125z"/>
<path d="M5030 4645 l0 -125 1128 2 1127 3 3 123 3 122 -1131 0 -1130 0 0
-125z"/>
<path d="M5030 3895 l0 -125 1130 0 1130 0 0 125 0 125 -1130 0 -1130 0 0
-125z"/>
<path d="M5030 3145 l0 -125 375 0 375 0 0 125 0 125 -375 0 -375 0 0 -125z"/>
<path d="M8010 3260 c-637 -67 -1176 -490 -1383 -1087 -306 -879 185 -1839
1076 -2104 393 -116 824 -79 1192 104 419 208 741 606 854 1058 210 837 -259
1687 -1079 1956 -193 63 -464 93 -660 73z m710 -1795 l-575 -575 -432 432
-433 433 142 142 143 143 287 -287 288 -288 432 433 433 432 145 -145 145
-145 -575 -575z"/>
</g>
</svg>
