<?xml version="1.0" standalone="no"?>
<!DOCTYPE svg PUBLIC "-//W3C//DTD SVG 20010904//EN"
 "http://www.w3.org/TR/2001/REC-SVG-20010904/DTD/svg10.dtd">
<svg version="1.0" xmlns="http://www.w3.org/2000/svg"
 width="500.000000pt" height="500.000000pt" viewBox="0 0 500.000000 500.000000"
 preserveAspectRatio="xMidYMid meet">
<metadata>
Created by potrace 1.16, written by Peter Selinger 2001-2019
</metadata>
<g transform="translate(0.000000,500.000000) scale(0.100000,-0.100000)"
fill="#000000" stroke="none">
<path d="M1265 4744 c-157 -25 -338 -95 -479 -187 -113 -74 -269 -230 -343
-343 -69 -106 -137 -259 -166 -374 -19 -73 -22 -112 -21 -275 0 -174 3 -198
27 -288 89 -324 321 -609 616 -756 174 -88 337 -131 491 -131 l66 0 20 -180
20 -180 -81 -25 c-44 -14 -114 -44 -155 -66 -41 -23 -91 -49 -110 -59 -75 -39
-203 -192 -274 -330 -112 -216 -131 -433 -59 -664 72 -231 270 -458 486 -556
140 -63 198 -75 372 -75 140 0 169 3 235 24 186 58 309 137 431 278 120 136
175 240 215 408 36 146 17 377 -41 502 -14 30 -25 57 -25 58 0 2 39 25 88 51
48 26 105 59 127 74 60 40 260 150 273 150 6 0 21 -15 34 -32 37 -53 129 -150
175 -186 75 -58 190 -113 290 -139 83 -22 120 -26 243 -27 127 0 157 3 245 27
55 14 103 23 106 19 4 -4 42 -97 85 -206 57 -149 74 -201 64 -204 -25 -9 -63
-56 -88 -112 -35 -75 -36 -182 -3 -257 28 -64 93 -126 169 -161 80 -38 184
-38 262 -1 71 33 154 118 175 177 32 96 12 237 -44 308 -53 68 -190 128 -277
123 l-46 -3 -68 169 c-37 94 -74 186 -83 206 l-16 36 58 41 c65 45 142 129
221 242 91 128 137 268 147 445 9 175 -29 333 -118 480 -127 212 -263 329
-464 397 -147 50 -231 62 -368 55 -147 -7 -329 -64 -439 -136 -74 -49 -187
-160 -234 -231 l-26 -39 -87 47 c-47 25 -111 61 -141 78 -30 18 -99 56 -153
86 -70 37 -97 57 -93 68 2 8 16 43 31 78 64 154 94 354 76 522 -6 60 -20 144
-31 186 -11 43 -18 80 -15 82 3 3 33 11 67 17 35 7 145 35 245 62 l182 50 50
-53 c44 -47 57 -54 120 -68 88 -20 126 -20 208 1 55 14 74 24 110 62 24 25 56
70 71 101 23 47 27 68 27 140 0 93 -9 117 -74 203 -42 56 -79 80 -158 103
-109 32 -239 -6 -305 -87 -65 -82 -82 -118 -87 -193 l-6 -70 -170 -48 c-93
-26 -209 -58 -257 -71 l-87 -25 -42 77 c-149 277 -431 498 -738 578 -80 21
-123 26 -261 28 -91 2 -178 1 -195 -1z m301 -175 c152 -21 248 -61 471 -195
46 -28 144 -124 197 -194 23 -30 65 -102 93 -160 87 -182 108 -272 106 -460
-1 -167 -30 -289 -100 -430 -64 -128 -117 -201 -204 -286 -86 -82 -130 -112
-259 -177 -141 -70 -263 -99 -430 -100 -193 -2 -279 19 -475 114 -178 87 -281
181 -382 349 -78 130 -103 185 -131 289 -22 83 -25 116 -25 251 0 231 33 338
179 580 76 126 223 246 431 349 131 65 354 95 529 70z m2323 -1550 c53 -11 60
-14 161 -63 97 -48 185 -119 253 -203 65 -82 67 -86 106 -195 61 -176 61 -335
-3 -512 -48 -131 -55 -142 -143 -232 -92 -95 -168 -147 -279 -191 -398 -158
-856 86 -960 512 -23 92 -23 258 0 345 28 106 99 240 169 316 107 117 285 214
431 234 68 10 195 4 265 -11z m-1204 -230 c26 -20 135 -77 178 -93 38 -14 47
-22 42 -35 -92 -221 -99 -458 -19 -669 13 -35 21 -68 18 -73 -3 -5 -47 -30
-97 -54 -51 -25 -159 -84 -241 -131 -122 -70 -151 -83 -158 -71 -15 28 -126
157 -155 180 -44 37 -182 113 -253 141 -96 37 -174 56 -272 63 l-87 6 -5 36
c-12 76 -37 303 -34 305 2 1 52 14 111 28 268 66 547 260 694 485 l15 23 127
-67 c69 -36 131 -70 136 -74z m-784 -944 c175 -61 332 -193 409 -345 63 -124
81 -189 87 -315 7 -130 -14 -228 -74 -360 -33 -72 -118 -195 -134 -195 -4 0
-29 -18 -55 -41 -215 -178 -513 -218 -760 -99 -101 49 -228 144 -276 207 -46
61 -103 191 -130 296 -36 141 -15 336 50 462 11 22 28 57 37 78 26 55 137 170
217 223 84 56 192 102 268 114 30 5 107 7 171 5 92 -3 132 -9 190 -30z"/>
<path d="M1354 4239 c-156 -37 -277 -210 -260 -372 12 -120 89 -232 195 -284
77 -38 191 -39 266 -3 71 34 148 116 176 187 35 91 32 189 -8 275 -37 80 -97
142 -167 174 -60 27 -144 37 -202 23z"/>
<path d="M1133 3511 c-84 -34 -210 -118 -260 -175 -40 -46 -88 -143 -97 -196
-9 -53 19 -89 98 -128 138 -68 256 -98 438 -111 252 -18 476 17 646 100 88 42
106 55 117 84 13 29 12 40 -1 87 -43 146 -194 284 -383 349 -83 29 -97 25
-183 -41 l-78 -60 -77 60 c-92 71 -111 73 -220 31z"/>
<path d="M3658 2826 c-60 -22 -86 -43 -124 -101 -29 -44 -37 -66 -41 -118 -6
-71 5 -116 46 -186 59 -100 200 -133 308 -71 90 52 132 149 119 274 -6 62 -20
91 -65 139 -58 63 -168 92 -243 63z"/>
<path d="M3539 2290 c-59 -17 -157 -78 -205 -125 -50 -49 -94 -137 -94 -185 0
-49 76 -90 225 -121 155 -34 397 -34 535 -1 113 27 204 67 220 97 15 27 0 90
-36 152 -50 87 -191 180 -287 190 -50 5 -54 4 -107 -40 l-56 -45 -54 44 c-57
45 -84 52 -141 34z"/>
<path d="M1574 1700 c-67 -34 -110 -84 -128 -149 -20 -72 -20 -110 0 -181 17
-62 43 -96 106 -138 36 -23 52 -27 118 -27 72 0 81 3 129 35 73 49 106 117
106 220 0 151 -84 248 -222 257 -55 3 -76 0 -109 -17z"/>
<path d="M1495 1178 c-100 -36 -230 -124 -268 -181 -33 -50 -52 -128 -38 -154
15 -29 115 -79 211 -105 75 -20 106 -23 275 -22 212 0 286 14 411 75 80 40 89
55 74 119 -16 68 -52 118 -121 168 -55 40 -201 112 -229 112 -7 0 -40 -22 -74
-49 l-61 -49 -60 49 c-63 51 -72 54 -120 37z"/>
</g>
</svg>
