<?xml version="1.0" standalone="no"?>
<!DOCTYPE svg PUBLIC "-//W3C//DTD SVG 20010904//EN"
 "http://www.w3.org/TR/2001/REC-SVG-20010904/DTD/svg10.dtd">
<svg version="1.0" xmlns="http://www.w3.org/2000/svg"
 width="256.000000pt" height="256.000000pt" viewBox="0 0 256.000000 256.000000"
 preserveAspectRatio="xMidYMid meet">
<metadata>
Created by potrace 1.16, written by Peter Selinger 2001-2019
</metadata>
<g transform="translate(0.000000,256.000000) scale(0.100000,-0.100000)"
fill="#000000" stroke="none">
<path d="M648 2425 c-171 -47 -310 -195 -353 -376 -29 -124 -13 -244 50 -376
19 -39 35 -74 35 -78 0 -3 -31 -45 -70 -93 -41 -50 -70 -96 -70 -110 0 -12
-29 -81 -65 -152 -98 -195 -95 -176 -95 -670 0 -318 3 -429 12 -438 17 -17
1319 -17 1336 0 7 7 12 40 12 80 l0 68 340 0 340 0 0 -68 c0 -40 5 -73 12 -80
16 -16 200 -16 216 0 7 7 12 40 12 80 l0 68 48 0 c26 0 53 5 60 12 19 19 17
1241 -1 1257 -10 8 -203 12 -662 13 -575 3 -649 5 -658 19 -7 11 0 35 26 90
87 181 87 345 1 510 -42 79 -136 174 -208 208 -102 50 -220 63 -318 36z m213
-81 c229 -67 354 -330 270 -568 -33 -94 -80 -165 -166 -252 -164 -165 -247
-164 -415 5 -191 192 -238 407 -135 611 85 169 273 255 446 204z m-233 -982
c34 -18 64 -37 67 -42 3 -5 -18 -39 -46 -75 -45 -55 -55 -63 -68 -52 -37 28
-241 209 -241 213 0 3 21 31 46 63 l47 57 66 -65 c37 -36 95 -81 129 -99z
m510 102 c23 -29 42 -54 42 -57 0 -6 -227 -208 -246 -220 -13 -8 -118 119
-109 133 3 5 33 24 67 42 34 18 91 62 127 99 36 36 69 63 72 60 3 -3 24 -29
47 -57z m1262 -144 l0 -160 -508 0 -507 0 -53 105 c-28 58 -52 115 -52 127 0
11 -11 36 -26 55 l-25 33 585 0 586 0 0 -160z m-1967 -107 c67 -59 125 -112
129 -117 3 -5 14 -38 22 -73 15 -60 15 -80 -5 -310 l-21 -246 94 -94 c51 -51
100 -93 108 -93 8 0 57 42 108 93 l94 94 -21 249 -21 249 19 69 c11 38 22 69
23 70 2 1 58 50 125 109 67 59 123 107 125 107 2 0 35 -64 74 -142 l69 -142 3
-418 3 -418 -601 0 -601 0 3 418 3 418 69 142 c39 78 72 142 74 142 2 0 58
-48 125 -107z m387 -34 c30 -38 54 -78 52 -87 -2 -9 -8 -34 -13 -54 l-10 -38
-89 0 -90 0 -6 28 c-3 15 -9 39 -14 53 -7 22 0 36 49 97 31 40 58 72 61 72 3
0 30 -32 60 -71z m1580 -259 l0 -160 -479 0 -479 0 -4 143 c-3 78 -8 150 -12
160 -8 16 19 17 483 17 l491 0 0 -160z m-1556 -22 c3 -13 12 -108 20 -213 l15
-190 -59 -60 -60 -60 -60 60 -59 60 15 190 c21 261 9 235 104 235 75 0 80 -1
84 -22z m1556 -378 l0 -160 -480 0 -480 0 0 160 0 160 480 0 480 0 0 -160z"/>
<path d="M2155 1431 c-45 -20 -70 -60 -70 -112 0 -42 5 -53 33 -81 28 -28 39
-33 82 -33 43 0 54 5 82 33 28 28 33 39 33 82 0 42 -5 54 -31 81 -33 33 -92
46 -129 30z"/>
<path d="M1532 1348 c-16 -16 -15 -43 2 -57 9 -8 79 -11 231 -9 195 3 219 5
229 21 8 12 8 22 0 35 -10 15 -34 17 -230 20 -162 2 -223 -1 -232 -10z"/>
<path d="M2155 1031 c-45 -20 -70 -60 -70 -112 0 -42 5 -53 33 -81 28 -28 39
-33 82 -33 43 0 54 5 82 33 28 28 33 39 33 82 0 42 -5 54 -31 81 -33 33 -92
46 -129 30z"/>
<path d="M1532 948 c-16 -16 -15 -43 2 -57 9 -8 79 -11 231 -9 195 3 219 5
229 21 8 12 8 22 0 35 -10 15 -34 17 -230 20 -162 2 -223 -1 -232 -10z"/>
<path d="M2155 631 c-45 -20 -70 -60 -70 -112 0 -42 5 -53 33 -81 28 -28 39
-33 82 -33 43 0 54 5 82 33 28 28 33 39 33 82 0 42 -5 54 -31 81 -33 33 -92
46 -129 30z"/>
<path d="M1532 548 c-16 -16 -15 -43 2 -57 9 -8 79 -11 231 -9 195 3 219 5
229 20 8 13 8 23 0 35 -10 16 -34 18 -230 21 -162 2 -223 -1 -232 -10z"/>
</g>
</svg>
