<?xml version="1.0" standalone="no"?>
<!DOCTYPE svg PUBLIC "-//W3C//DTD SVG 20010904//EN"
 "http://www.w3.org/TR/2001/REC-SVG-20010904/DTD/svg10.dtd">
<svg version="1.0" xmlns="http://www.w3.org/2000/svg"
 width="500.000000pt" height="500.000000pt" viewBox="0 0 500.000000 500.000000"
 preserveAspectRatio="xMidYMid meet">
<metadata>
Created by potrace 1.16, written by Peter Selinger 2001-2019
</metadata>
<g transform="translate(0.000000,500.000000) scale(0.100000,-0.100000)"
fill="#000000" stroke="none">
<path d="M2376 4934 c-32 -8 -95 -35 -139 -62 -142 -83 -231 -189 -273 -324
l-18 -58 -278 0 -278 0 0 -195 0 -195 -455 0 -455 0 0 -2025 0 -2025 2020 0
2020 0 0 2025 0 2025 -455 0 -455 0 0 195 0 195 -278 0 -278 0 -18 58 c-42
135 -131 241 -273 324 -125 74 -253 95 -387 62z m266 -199 c64 -23 151 -108
185 -181 21 -46 27 -78 31 -156 l5 -98 278 0 279 0 0 -300 0 -300 -920 0 -920
0 0 300 0 300 279 0 278 0 5 98 c6 125 34 190 113 267 52 50 86 67 170 89 37
9 169 -2 217 -19z m-1260 -1027 l3 -203 1115 0 1115 0 3 203 2 202 353 -2 352
-3 3 -1832 2 -1833 -1830 0 -1830 0 0 1828 c0 1006 3 1832 7 1835 3 4 163 7
354 7 l349 0 2 -202z"/>
<path d="M1512 2855 l-203 -206 -67 59 c-37 33 -76 69 -86 81 l-20 22 -63 -63
c-35 -34 -63 -66 -63 -71 0 -4 66 -75 146 -157 l146 -149 276 275 276 275 -70
70 -70 69 -202 -205z"/>
<path d="M2130 2635 l0 -95 905 0 905 0 0 95 0 95 -905 0 -905 0 0 -95z"/>
<path d="M1511 1984 l-204 -205 -78 78 c-43 43 -84 80 -90 82 -13 4 -129 -108
-129 -125 0 -12 273 -307 289 -312 5 -2 133 120 285 271 l274 274 -72 72 -71
71 -204 -206z"/>
<path d="M2130 1770 l0 -100 905 0 906 0 -3 98 -3 97 -902 3 -903 2 0 -100z"/>
<path d="M1509 1110 c-106 -110 -196 -199 -200 -198 -4 2 -44 38 -88 82 l-81
78 -38 -28 c-21 -16 -53 -45 -70 -65 l-31 -36 76 -84 c101 -113 216 -229 225
-229 5 0 131 123 282 274 l274 274 -67 66 c-37 36 -72 66 -78 66 -6 0 -98 -90
-204 -200z"/>
<path d="M2130 890 l0 -100 903 2 902 3 3 98 3 97 -906 0 -905 0 0 -100z"/>
</g>
</svg>
