<?xml version="1.0" standalone="no"?>
<!DOCTYPE svg PUBLIC "-//W3C//DTD SVG 20010904//EN"
 "http://www.w3.org/TR/2001/REC-SVG-20010904/DTD/svg10.dtd">
<svg version="1.0" xmlns="http://www.w3.org/2000/svg"
 width="512.000000pt" height="512.000000pt" viewBox="0 0 512.000000 512.000000"
 preserveAspectRatio="xMidYMid meet">

<g transform="translate(0.000000,512.000000) scale(0.100000,-0.100000)"
fill="#000000" stroke="none">
<path d="M323 4465 c-29 -8 -72 -24 -95 -36 -58 -29 -140 -109 -171 -167 -60
-110 -57 -24 -57 -1702 0 -1678 -3 -1592 57 -1702 31 -57 113 -138 171 -167
105 -54 -19 -51 2332 -51 2380 0 2231 -4 2342 57 57 31 138 113 167 171 53
104 51 36 51 1692 0 1656 2 1588 -51 1692 -29 58 -110 140 -167 171 -112 61
39 57 -2347 56 -1846 0 -2188 -2 -2232 -14z m4432 -206 c53 -15 129 -91 144
-144 15 -57 15 -3053 0 -3110 -15 -53 -91 -129 -144 -144 -57 -16 -4333 -16
-4390 0 -53 15 -129 91 -144 144 -15 56 -16 3053 0 3109 14 50 83 123 134 141
34 12 363 14 2200 15 1550 0 2171 -3 2200 -11z"/>
<path d="M2801 3618 c-201 -17 -384 -108 -532 -266 -115 -124 -182 -252 -215
-414 -20 -99 -14 -290 11 -383 19 -68 92 -229 121 -263 l19 -23 81 61 82 60
-43 84 c-104 201 -99 437 12 625 74 124 197 225 341 279 90 33 266 42 362 18
124 -31 206 -80 306 -181 l92 -93 86 55 86 55 -44 56 c-122 159 -289 268 -478
311 -101 23 -176 28 -287 19z"/>
<path d="M2960 2766 c-41 -30 -75 -58 -74 -63 0 -4 17 -42 37 -83 38 -78 67
-197 67 -276 0 -201 -122 -421 -294 -533 -102 -67 -191 -94 -321 -99 -201 -7
-348 50 -487 190 l-77 78 -80 -56 c-45 -30 -81 -58 -81 -62 0 -20 111 -138
173 -186 163 -123 322 -177 529 -177 181 0 331 47 483 152 165 114 282 281
336 484 29 106 31 306 5 410 -21 83 -111 275 -129 275 -6 -1 -46 -25 -87 -54z"/>
</g>
</svg>
