<?xml version="1.0" standalone="no"?>
<!DOCTYPE svg PUBLIC "-//W3C//DTD SVG 20010904//EN"
 "http://www.w3.org/TR/2001/REC-SVG-20010904/DTD/svg10.dtd">
<svg version="1.0" xmlns="http://www.w3.org/2000/svg"
 width="128.000000pt" height="128.000000pt" viewBox="0 0 128.000000 128.000000"
 preserveAspectRatio="xMidYMid meet">

<g transform="translate(0.000000,128.000000) scale(0.100000,-0.100000)"
fill="#000000" stroke="none">
<path d="M543 1262 c-107 -38 -177 -111 -208 -216 -31 -105 -11 -192 69 -301
14 -19 12 -26 -34 -90 -27 -39 -49 -75 -50 -81 0 -17 25 -24 86 -24 l54 0 30
-61 c21 -40 36 -59 46 -57 10 2 33 45 57 105 23 57 44 103 47 103 3 0 24 -46
47 -103 24 -60 47 -103 57 -105 10 -2 25 17 46 57 l30 61 54 0 c61 0 86 7 86
24 -1 6 -23 42 -50 81 -46 64 -48 71 -34 90 90 122 106 229 51 348 -66 144
-240 220 -384 169z m213 -52 c170 -73 212 -311 79 -445 -107 -106 -283 -106
-390 0 -53 54 -78 115 -78 195 0 204 199 332 389 250z m-183 -560 c9 0 17 -2
17 -5 0 -12 -54 -135 -60 -135 -3 0 -16 20 -28 45 -21 43 -23 45 -67 45 -25 0
-45 2 -45 5 0 2 14 24 31 49 l31 44 52 -24 c28 -13 59 -24 69 -24z m290 -2
c15 -20 27 -39 27 -42 0 -3 -20 -6 -45 -6 -44 0 -46 -2 -67 -45 -12 -25 -25
-45 -28 -45 -6 0 -60 123 -60 135 0 3 8 5 18 5 9 0 40 11 67 24 28 13 52 21
56 17 3 -3 17 -23 32 -43z"/>
<path d="M600 1123 c-24 -46 -27 -48 -84 -58 -34 -6 -61 -16 -64 -24 -2 -7 15
-30 38 -50 l43 -37 -11 -49 c-9 -39 -8 -53 2 -63 11 -11 22 -9 65 12 l51 26
51 -26 c43 -21 54 -23 65 -12 10 10 11 24 2 63 l-11 49 43 37 c23 20 40 43 38
50 -3 8 -30 18 -64 24 -57 10 -60 12 -84 58 -14 26 -32 47 -40 47 -8 0 -26
-21 -40 -47z m55 -43 c10 -32 34 -50 66 -50 35 0 37 -9 5 -39 -20 -19 -23 -29
-19 -59 6 -32 4 -35 -13 -27 -10 5 -35 9 -54 9 -19 0 -44 -4 -54 -9 -17 -8
-19 -5 -13 27 4 30 1 40 -19 59 -32 30 -30 39 5 39 32 0 56 18 66 50 3 11 10
20 15 20 5 0 12 -9 15 -20z"/>
<path d="M530 770 c0 -15 7 -20 25 -20 18 0 25 5 25 20 0 15 -7 20 -25 20 -18
0 -25 -5 -25 -20z"/>
<path d="M620 770 c0 -13 7 -20 20 -20 13 0 20 7 20 20 0 13 -7 20 -20 20 -13
0 -20 -7 -20 -20z"/>
<path d="M700 770 c0 -15 7 -20 25 -20 18 0 25 5 25 20 0 15 -7 20 -25 20 -18
0 -25 -5 -25 -20z"/>
<path d="M25 955 l-25 -24 0 -251 0 -250 93 -118 92 -117 5 -95 5 -95 109 -3
c81 -2 112 1 118 10 4 7 8 90 8 183 l0 170 -140 140 -140 140 0 143 c0 138 -1
144 -25 167 -13 14 -36 25 -50 25 -14 0 -37 -11 -50 -25z m75 -34 c5 -11 10
-82 10 -159 0 -108 3 -142 14 -151 12 -10 10 -16 -10 -36 -17 -17 -24 -35 -24
-61 0 -32 9 -46 74 -112 66 -67 76 -74 91 -62 14 12 9 21 -55 85 -56 56 -71
78 -68 96 2 16 11 25 27 27 19 3 44 -17 122 -94 l99 -99 0 -158 0 -158 -72 3
-73 3 -3 80 -3 81 -94 121 -95 122 0 233 c0 236 3 258 37 258 7 0 17 -9 23
-19z"/>
<path d="M1155 955 c-24 -23 -25 -29 -25 -167 l0 -143 -140 -140 -140 -140 0
-170 c0 -93 4 -176 8 -183 6 -9 37 -12 118 -10 l109 3 5 95 5 95 93 117 92
118 0 250 0 251 -25 24 c-13 14 -36 25 -50 25 -14 0 -37 -11 -50 -25z m73 -27
c9 -9 12 -77 12 -246 l0 -233 -95 -122 -94 -121 -3 -81 -3 -80 -72 -3 -73 -3
0 158 0 158 99 99 c78 77 103 97 122 94 16 -2 25 -11 27 -27 3 -18 -12 -40
-68 -96 -64 -64 -69 -73 -55 -85 15 -12 25 -5 91 62 65 66 74 80 74 112 0 26
-7 44 -24 61 -20 20 -22 26 -10 36 11 9 14 43 14 151 0 77 5 148 10 159 12 22
30 25 48 7z"/>
</g>
</svg>
