<?xml version="1.0" standalone="no"?>
<!DOCTYPE svg PUBLIC "-//W3C//DTD SVG 20010904//EN"
 "http://www.w3.org/TR/2001/REC-SVG-20010904/DTD/svg10.dtd">
<svg version="1.0" xmlns="http://www.w3.org/2000/svg"
 width="200.000000pt" height="200.000000pt" viewBox="0 0 200.000000 200.000000"
 preserveAspectRatio="xMidYMid meet">

<g transform="translate(0.000000,200.000000) scale(0.100000,-0.100000)"
fill="#000000" stroke="none">
<path d="M495 1751 c-11 -5 -31 -21 -45 -36 l-25 -27 0 -529 0 -529 32 -32
c30 -30 39 -33 108 -36 l75 -4 0 -130 0 -130 29 -29 29 -29 262 0 262 0 29 29
29 29 0 130 0 130 75 4 c65 3 78 7 104 32 17 16 33 42 36 57 6 25 11 29 41 29
24 0 43 8 59 25 l25 24 0 431 0 431 -25 24 c-16 17 -35 25 -59 25 -30 0 -35 4
-41 29 -3 15 -20 41 -36 57 l-30 29 -457 2 c-251 1 -466 -2 -477 -6z m940 -56
l25 -24 0 -511 0 -511 -25 -24 -24 -25 -451 0 -451 0 -24 25 -25 24 0 511 0
511 25 24 24 25 451 0 451 0 24 -25z m133 -107 c17 -17 17 -839 0 -856 -7 -7
-25 -12 -40 -12 l-28 0 0 440 0 440 28 0 c15 0 33 -5 40 -12z m-708 -1148 l0
-120 50 0 50 0 0 120 0 120 40 0 40 0 0 -150 0 -150 -167 0 c-221 0 -213 -6
-213 172 l0 128 100 0 100 0 0 -120z m80 10 l0 -110 -30 0 -30 0 0 110 0 110
30 0 30 0 0 -110z m220 84 l0 -25 -32 22 c-18 12 -35 24 -37 26 -2 2 12 3 32
3 33 0 37 -3 37 -26z m100 -101 c0 -116 -2 -129 -22 -150 -12 -13 -30 -23 -40
-23 -17 0 -18 11 -18 150 l0 150 40 0 40 0 0 -127z m-125 71 c21 -14 25 -24
25 -65 l0 -49 -50 32 c-48 32 -50 34 -50 82 l0 48 25 -16 c14 -9 36 -23 50
-32z m0 -120 c21 -14 25 -24 25 -65 l0 -49 -50 32 c-48 32 -50 34 -50 82 l0
48 25 -16 c14 -9 36 -23 50 -32z m-20 -108 c19 -15 18 -15 -17 -16 -34 0 -38
3 -38 25 0 27 10 26 55 -9z"/>
<path d="M596 1584 c-23 -23 -23 -245 0 -268 13 -14 60 -16 364 -16 304 0 351
2 364 16 13 12 16 40 16 134 0 94 -3 122 -16 134 -13 14 -60 16 -364 16 -304
0 -351 -2 -364 -16z m719 -134 l0 -125 -355 0 -355 0 -3 114 c-1 63 0 121 2
128 4 11 73 13 358 11 l353 -3 0 -125z"/>
<path d="M740 1485 c0 -8 -6 -12 -13 -9 -10 3 -14 -4 -14 -26 0 -22 4 -29 14
-26 7 3 13 -1 13 -9 0 -8 5 -15 10 -15 6 0 10 7 10 15 0 8 6 12 13 9 10 -3 14
4 14 26 0 22 -4 29 -14 26 -7 -3 -13 1 -13 9 0 8 -4 15 -10 15 -5 0 -10 -7
-10 -15z"/>
<path d="M880 1485 c0 -8 -6 -12 -13 -9 -10 3 -14 -4 -14 -26 0 -22 4 -29 14
-26 7 3 13 -1 13 -9 0 -8 5 -15 10 -15 6 0 10 7 10 15 0 8 6 12 13 9 10 -3 14
4 14 26 0 22 -4 29 -14 26 -7 -3 -13 1 -13 9 0 8 -4 15 -10 15 -5 0 -10 -7
-10 -15z"/>
<path d="M1020 1485 c0 -8 -6 -12 -13 -9 -10 3 -14 -4 -14 -26 0 -22 4 -29 14
-26 7 3 13 -1 13 -9 0 -8 5 -15 10 -15 6 0 10 7 10 15 0 8 6 12 13 9 10 -3 14
4 14 26 0 22 -4 29 -14 26 -7 -3 -13 1 -13 9 0 8 -4 15 -10 15 -5 0 -10 -7
-10 -15z"/>
<path d="M1160 1485 c0 -8 -6 -12 -13 -9 -10 3 -14 -4 -14 -26 0 -22 4 -29 14
-26 7 3 13 -1 13 -9 0 -8 5 -15 10 -15 6 0 10 7 10 15 0 8 6 12 13 9 10 -3 14
4 14 26 0 22 -4 29 -14 26 -7 -3 -13 1 -13 9 0 8 -4 15 -10 15 -5 0 -10 -7
-10 -15z"/>
<path d="M596 1204 c-24 -23 -24 -445 0 -468 23 -24 445 -24 468 0 24 23 24
445 0 468 -23 24 -445 24 -468 0z m144 -54 l0 -50 -70 0 -70 0 0 43 c0 24 3
47 7 50 3 4 35 7 70 7 l63 0 0 -50z m160 -60 l0 -110 -70 0 -70 0 0 40 c0 22
-4 40 -10 40 -5 0 -10 -18 -10 -40 l0 -40 -70 0 -70 0 0 50 0 50 140 0 c87 0
140 4 140 10 0 6 -27 10 -60 10 l-60 0 0 50 0 50 70 0 70 0 0 -110z m158 58
l3 -48 -60 0 c-34 0 -61 -4 -61 -10 0 -6 27 -10 60 -10 l60 0 0 -50 0 -50 -70
0 -70 0 0 110 0 111 68 -3 67 -3 3 -47z m-318 -228 c0 -22 5 -40 10 -40 6 0
10 18 10 40 l0 40 70 0 70 0 0 -50 0 -50 -150 0 -150 0 0 50 0 50 70 0 70 0 0
-40z m320 -10 l0 -50 -70 0 -70 0 0 50 0 50 70 0 70 0 0 -50z m-160 -120 l0
-50 -70 0 -70 0 0 40 c0 22 -4 40 -10 40 -5 0 -10 -18 -10 -40 l0 -41 -67 3
-68 3 -3 48 -3 47 150 0 151 0 0 -50z m158 3 l-3 -48 -67 -3 -68 -3 0 51 0 50
71 0 70 0 -3 -47z"/>
<path d="M1176 1204 c-14 -13 -16 -49 -16 -234 0 -255 -2 -250 90 -250 92 0
90 -5 90 250 0 185 -2 221 -16 234 -21 22 -127 22 -148 0z m142 -56 l3 -48
-70 0 -71 0 0 43 c0 24 3 47 7 51 4 4 34 6 68 4 l60 -3 3 -47z m2 -118 l0 -50
-70 0 -70 0 0 50 0 50 70 0 70 0 0 -50z m0 -120 l0 -50 -70 0 -70 0 0 50 0 50
70 0 70 0 0 -50z m-2 -117 l-3 -48 -65 0 -65 0 -3 48 -3 47 71 0 71 0 -3 -47z"/>
</g>
</svg>
