<?xml version="1.0" standalone="no"?>
<!DOCTYPE svg PUBLIC "-//W3C//DTD SVG 20010904//EN"
 "http://www.w3.org/TR/2001/REC-SVG-20010904/DTD/svg10.dtd">
<svg version="1.0" xmlns="http://www.w3.org/2000/svg"
 width="512.000000pt" height="512.000000pt" viewBox="0 0 512.000000 512.000000"
 preserveAspectRatio="xMidYMid meet">

<g transform="translate(0.000000,512.000000) scale(0.100000,-0.100000)"
fill="#000000" stroke="none">
<path d="M1362 4761 c-202 -198 -422 -415 -489 -483 l-123 -125 0 -350 c0
-339 1 -351 21 -377 26 -33 79 -36 109 -6 19 19 20 33 20 325 l0 305 308 0
c169 0 775 0 1347 0 l1040 0 45 22 c80 42 85 54 88 256 3 171 2 178 -20 211
-13 19 -36 44 -51 55 -28 21 -33 21 -928 24 l-899 2 0 175 0 175 1043 0 c1133
0 1097 2 1186 -54 50 -32 108 -99 134 -154 l22 -47 5 -972 c5 -905 6 -974 22
-993 24 -28 81 -27 108 2 20 22 20 30 20 978 0 1039 2 1008 -56 1122 -36 71
-132 169 -203 207 -118 63 -77 61 -1284 61 l-1099 0 -366 -359z m308 -414 c-6
-21 -27 -56 -47 -78 -56 -61 -96 -69 -370 -69 -128 0 -233 3 -233 8 0 4 147
152 327 328 l328 321 3 -236 c2 -152 -1 -250 -8 -274z m1910 -12 l0 -135 -906
0 c-498 0 -904 3 -902 8 41 80 52 115 56 185 l5 77 873 0 874 0 0 -135z"/>
<path d="M45 3809 c-44 -25 -45 -33 -45 -271 l0 -229 25 -24 c13 -14 36 -25
50 -25 14 0 37 11 50 25 24 23 25 30 25 145 0 66 4 120 9 120 5 0 153 -147
328 -326 175 -179 330 -332 345 -340 36 -19 88 -18 118 2 14 9 94 85 178 168
l152 151 180 -180 179 -180 -11 -45 c-20 -78 -14 -274 10 -372 100 -407 472
-688 877 -665 55 4 129 14 165 23 87 22 217 83 295 138 159 114 297 322 336
508 6 29 13 59 16 67 2 9 89 -71 236 -217 l233 -232 48 0 49 0 169 167 169
167 317 -317 317 -317 -132 0 c-130 0 -132 0 -152 -26 -27 -35 -26 -57 3 -91
l24 -28 213 -3 c231 -3 250 -1 279 28 19 19 20 34 20 250 l0 231 -25 24 c-31
32 -69 32 -100 0 -24 -23 -25 -30 -25 -147 l0 -123 -327 326 c-181 180 -339
334 -353 343 -31 21 -89 21 -120 0 -14 -9 -94 -85 -178 -168 l-152 -151 -253
253 -252 252 -22 102 c-39 178 -130 338 -261 459 -292 269 -722 303 -1054 83
-108 -72 -266 -255 -302 -348 -2 -6 -87 71 -188 172 l-184 182 -48 0 -49 0
-169 -167 -169 -167 -317 317 -317 317 132 0 c130 0 132 0 152 26 27 35 26 57
-3 91 l-24 28 -224 2 c-151 2 -229 -1 -243 -8z m2643 -484 c240 -80 416 -272
477 -519 21 -85 21 -259 1 -336 -69 -260 -239 -447 -483 -528 -68 -22 -95 -26
-208 -26 -113 0 -140 4 -207 26 -121 40 -204 92 -294 183 -66 66 -90 99 -128
176 -63 128 -80 200 -80 334 0 134 17 206 80 334 76 154 225 289 384 347 148
53 316 56 458 9z"/>
<path d="M2220 3103 c-32 -12 -50 -37 -50 -70 0 -54 24 -69 122 -75 48 -3 98
-12 115 -22 31 -15 73 -60 73 -77 0 -5 -61 -9 -135 -9 -122 0 -137 -2 -155
-20 -30 -30 -27 -83 6 -109 24 -19 40 -21 155 -21 71 0 129 -4 129 -9 0 -16
-51 -62 -85 -77 -19 -7 -65 -14 -103 -14 -87 0 -122 -22 -122 -77 0 -31 17
-52 183 -226 101 -106 196 -196 210 -201 50 -18 107 38 91 88 -4 11 -60 77
-125 146 l-118 125 52 24 c69 33 142 109 164 171 18 49 18 50 61 50 32 0 49 6
67 25 53 52 16 125 -63 125 -39 0 -42 2 -62 46 -11 26 -20 50 -20 55 0 5 29 9
65 9 73 0 105 20 105 64 0 80 -22 86 -307 85 -131 0 -245 -3 -253 -6z"/>
<path d="M784 2662 c-33 -22 -34 -43 -34 -1139 0 -1197 -3 -1144 61 -1264 38
-71 136 -167 207 -203 114 -58 56 -56 1542 -56 1486 0 1428 -2 1542 56 71 36
169 132 207 203 62 118 61 96 61 976 0 793 0 801 -20 823 -28 29 -82 30 -109
0 -20 -21 -21 -35 -23 -837 -3 -815 -3 -816 -25 -863 -26 -55 -84 -122 -134
-154 -91 -57 -23 -55 -1520 -52 l-1374 3 -62 29 c-73 33 -143 103 -176 173
l-22 48 -5 1118 c-5 1093 -5 1119 -24 1133 -21 15 -74 19 -92 6z"/>
<path d="M1245 1475 c-14 -13 -25 -36 -25 -50 0 -14 11 -37 25 -50 l24 -25
1291 0 1291 0 24 25 c32 31 32 69 0 100 l-24 25 -1291 0 -1291 0 -24 -25z"/>
<path d="M1245 1025 c-14 -13 -25 -36 -25 -50 0 -14 11 -37 25 -50 l24 -25
1291 0 1291 0 24 25 c32 31 32 69 0 100 l-24 25 -1291 0 -1291 0 -24 -25z"/>
<path d="M1245 575 c-14 -13 -25 -36 -25 -50 0 -14 11 -37 25 -50 l24 -25
1291 0 1291 0 24 25 c32 31 32 69 0 100 l-24 25 -1291 0 -1291 0 -24 -25z"/>
</g>
</svg>
