<?xml version="1.0" standalone="no"?>
<!DOCTYPE svg PUBLIC "-//W3C//DTD SVG 20010904//EN"
 "http://www.w3.org/TR/2001/REC-SVG-20010904/DTD/svg10.dtd">
<svg version="1.0" xmlns="http://www.w3.org/2000/svg"
 width="512.000000pt" height="512.000000pt" viewBox="0 0 512.000000 512.000000"
 preserveAspectRatio="xMidYMid meet">

<g transform="translate(0.000000,512.000000) scale(0.100000,-0.100000)"
fill="#000000" stroke="none">
<path d="M4060 4859 c-14 -5 -69 -53 -122 -107 l-98 -97 -100 100 -100 100
-54 0 -53 0 -103 -99 -103 -98 -91 90 c-145 145 -169 145 -321 7 l-102 -93
-84 85 c-94 94 -122 113 -172 113 -41 0 -66 -18 -172 -122 l-80 -78 -85 86
c-96 96 -123 114 -176 114 -51 0 -89 -26 -174 -120 l-72 -81 -98 95 c-147 143
-175 143 -322 -2 l-98 -96 -100 99 -100 100 -55 0 -55 0 -151 -150 c-82 -82
-155 -158 -161 -169 -15 -28 -14 -3926 2 -3958 17 -32 279 -296 312 -314 15
-8 44 -14 64 -14 35 0 47 9 143 105 l105 105 96 -95 c141 -140 162 -140 312 1
l101 94 96 -94 c143 -140 167 -140 324 6 l94 87 84 -85 c94 -95 122 -114 173
-114 39 0 94 40 191 139 l59 61 96 -94 c144 -142 180 -141 325 4 l89 89 97
-94 c146 -142 175 -141 321 3 l98 96 98 -96 c155 -153 170 -151 368 44 79 77
150 155 158 173 14 30 16 239 16 1982 -1 1817 -2 1950 -18 1980 -20 37 -305
313 -324 313 -7 0 -22 2 -33 5 -11 2 -31 0 -45 -6z m-2935 -399 c138 -139 170
-139 309 -1 50 50 96 91 101 91 5 0 51 -41 101 -91 133 -132 171 -135 288 -22
39 38 84 79 99 93 l28 24 87 -86 c98 -97 116 -108 167 -108 51 0 69 11 168
108 l87 87 88 -87 c96 -94 116 -108 161 -108 52 0 82 19 173 107 l88 86 94
-91 c146 -141 176 -142 316 -6 53 52 101 94 106 94 5 0 50 -41 99 -90 96 -97
131 -115 188 -99 20 5 64 41 122 99 49 49 94 90 100 90 5 0 35 -26 67 -57 l58
-57 0 -1876 0 -1876 -58 -57 c-32 -31 -62 -57 -67 -57 -6 0 -53 43 -105 95
-140 141 -174 140 -314 -5 -48 -50 -90 -90 -94 -90 -3 0 -48 41 -98 91 -138
137 -166 137 -310 0 -52 -50 -98 -91 -102 -91 -4 0 -48 40 -97 90 -143 144
-173 144 -318 2 l-97 -96 -88 86 c-96 94 -116 108 -161 108 -52 0 -82 -19
-173 -107 l-88 -86 -94 91 c-146 141 -176 142 -316 6 -53 -52 -101 -94 -106
-94 -5 0 -50 41 -99 90 -138 139 -170 139 -309 1 -50 -50 -96 -91 -101 -91 -5
0 -35 26 -67 57 l-58 57 0 1875 0 1875 57 58 c32 32 62 58 68 58 6 0 51 -41
100 -90z"/>
<path d="M1243 4089 c-36 -10 -80 -58 -90 -97 -9 -36 17 -101 50 -126 28 -21
33 -21 963 -24 1033 -3 973 -6 1014 61 24 39 25 78 4 123 -35 73 26 69 -994
71 -538 1 -928 -2 -947 -8z"/>
<path d="M3543 4089 c-51 -15 -83 -61 -83 -120 0 -42 5 -55 34 -87 l34 -37
169 -3 c194 -3 224 5 257 71 34 69 -6 156 -82 177 -45 12 -285 12 -329 -1z"/>
<path d="M1195 3547 c-61 -61 -53 -154 17 -197 32 -20 48 -20 836 -20 726 0
807 2 832 16 56 34 77 112 45 174 -32 63 5 60 -886 60 l-811 0 -33 -33z"/>
<path d="M3518 3564 c-35 -19 -58 -63 -58 -111 1 -47 18 -78 56 -104 26 -17
48 -19 194 -19 148 0 168 2 198 20 70 43 78 136 17 197 l-33 33 -173 0 c-134
-1 -180 -4 -201 -16z"/>
<path d="M1212 3050 c-70 -43 -78 -136 -17 -197 l33 -33 692 0 692 0 33 33
c61 61 53 154 -17 197 -32 19 -49 20 -708 20 -659 0 -676 -1 -708 -20z"/>
<path d="M3516 3051 c-16 -11 -35 -30 -42 -43 -18 -31 -17 -93 1 -128 27 -53
56 -60 246 -60 l171 0 33 33 c61 61 53 154 -17 197 -30 18 -50 20 -198 20
-146 0 -168 -2 -194 -19z"/>
<path d="M1223 2545 c-63 -27 -91 -114 -54 -172 11 -18 32 -40 48 -50 26 -17
78 -18 958 -18 1037 0 974 -4 1009 69 21 45 20 84 -4 123 -40 67 17 63 -1002
63 -762 -1 -929 -3 -955 -15z"/>
<path d="M3534 2550 c-72 -29 -99 -139 -48 -199 34 -41 77 -51 224 -51 147 0
190 10 224 51 36 42 42 89 20 136 -31 63 -64 73 -244 72 -85 0 -164 -4 -176
-9z"/>
<path d="M1224 1905 c-93 -48 -81 -199 18 -232 102 -34 195 64 157 164 -26 68
-110 101 -175 68z"/>
<path d="M1729 1897 c-45 -30 -61 -63 -56 -116 6 -56 34 -93 83 -109 33 -11
45 -11 82 4 76 29 105 112 62 181 -38 63 -112 80 -171 40z"/>
<path d="M2242 1903 c-45 -22 -65 -64 -60 -125 11 -106 124 -149 208 -79 66
54 45 173 -35 207 -44 18 -72 17 -113 -3z"/>
<path d="M2754 1901 c-45 -27 -64 -59 -64 -107 0 -120 147 -175 224 -83 49 58
28 162 -40 194 -43 20 -83 19 -120 -4z"/>
<path d="M3275 1906 c-44 -19 -65 -56 -65 -115 0 -39 6 -56 26 -80 72 -86 224
-36 224 74 0 44 -38 105 -75 121 -42 17 -71 17 -110 0z"/>
<path d="M3783 1905 c-60 -26 -85 -92 -59 -160 21 -53 54 -77 110 -77 56 -1
100 24 121 68 31 65 3 143 -60 170 -42 17 -71 17 -112 -1z"/>
<path d="M1223 1265 c-63 -27 -91 -114 -54 -172 45 -71 13 -68 626 -68 524 0
551 1 578 19 35 24 57 65 57 108 0 45 -19 78 -59 105 l-34 23 -541 0 c-437 -1
-547 -3 -573 -15z"/>
<path d="M3534 1270 c-11 -4 -33 -22 -47 -40 -57 -68 -24 -176 61 -200 48 -13
276 -13 324 0 76 21 116 108 82 177 -31 63 -64 73 -244 72 -85 0 -164 -4 -176
-9z"/>
</g>
</svg>
