<?xml version="1.0" standalone="no"?>
<!DOCTYPE svg PUBLIC "-//W3C//DTD SVG 20010904//EN"
 "http://www.w3.org/TR/2001/REC-SVG-20010904/DTD/svg10.dtd">
<svg version="1.0" xmlns="http://www.w3.org/2000/svg"
 width="512.000000pt" height="512.000000pt" viewBox="0 0 512.000000 512.000000"
 preserveAspectRatio="xMidYMid meet">

<g transform="translate(0.000000,512.000000) scale(0.100000,-0.100000)"
fill="#000000" stroke="none">
<path d="M215 4956 c-54 -25 -100 -71 -122 -123 -11 -27 -13 -415 -13 -2268 0
-1997 2 -2240 16 -2273 20 -49 70 -100 119 -123 38 -18 98 -19 1459 -19 1035
0 1429 3 1457 11 50 16 105 61 132 112 22 42 22 44 25 630 l3 587 853 0 853 0
21 23 22 23 0 1027 c0 1014 0 1027 -20 1047 -20 20 -33 20 -880 20 l-860 0 0
583 c0 564 -1 583 -21 627 -27 60 -54 88 -114 116 l-50 24 -1415 0 -1415 0
-50 -24z m2863 -137 c17 -6 37 -19 42 -29 6 -12 10 -229 10 -584 l0 -566 -105
0 -105 0 0 340 c0 327 -1 341 -20 360 -20 20 -33 20 -1215 20 l-1196 0 -24
-25 -25 -24 0 -1739 0 -1739 21 -27 20 -26 1199 0 1199 0 20 26 c20 26 21 38
21 361 l0 334 103 -3 102 -3 0 -577 0 -577 -23 -23 -23 -23 -1400 0 -1401 0
-24 28 -24 28 2 2214 c3 2139 4 2214 22 2233 10 12 30 23 45 25 68 9 2748 5
2779 -4z m-318 -904 l0 -285 -680 0 -681 0 -24 -25 c-31 -30 -33 -77 -5 -105
20 -20 33 -20 1500 -20 l1480 0 6 -27 c26 -118 61 -195 125 -281 77 -101 209
-185 344 -219 l65 -16 0 -377 0 -377 -65 -16 c-135 -34 -267 -118 -344 -219
-64 -86 -99 -163 -125 -280 l-6 -28 -1480 0 c-1467 0 -1480 0 -1500 -20 -28
-28 -26 -75 5 -105 l24 -25 681 0 680 0 0 -285 0 -285 -1080 0 -1080 0 0 1640
0 1640 1080 0 1080 0 0 -285z m2128 -629 l2 -189 -37 6 c-143 24 -311 192
-338 340 l-7 37 188 -2 189 -3 3 -189z m0 -1453 l-3 -188 -189 -3 -188 -2 7
37 c17 90 101 213 189 276 38 27 135 66 164 67 l22 0 -2 -187z"/>
<path d="M1231 4634 c-28 -35 -26 -69 4 -99 l24 -25 421 0 c407 0 421 1 440
20 12 12 20 33 20 55 0 22 -8 43 -20 55 -19 19 -33 20 -444 20 l-425 0 -20
-26z"/>
<path d="M1595 711 c-137 -62 -152 -254 -26 -336 128 -85 300 7 301 162 0 53
-14 90 -48 127 -59 63 -151 82 -227 47z m109 -163 c21 -30 4 -60 -32 -56 -34
4 -44 45 -16 65 24 18 30 17 48 -9z"/>
<path d="M2535 3119 c-93 -85 -171 -229 -207 -378 -17 -71 -19 -107 -15 -211
7 -184 58 -324 167 -461 83 -105 128 -122 175 -67 33 39 28 65 -26 127 -58 66
-104 145 -135 236 -24 69 -28 95 -28 195 0 173 40 284 156 430 66 82 69 105
22 148 -36 32 -58 28 -109 -19z"/>
<path d="M3579 3131 c-16 -16 -29 -39 -29 -50 0 -11 27 -53 60 -94 175 -217
207 -467 91 -702 -22 -44 -62 -105 -89 -135 -60 -67 -68 -89 -47 -129 17 -33
50 -47 90 -37 34 9 136 139 180 230 56 116 77 212 78 351 0 132 -15 217 -60
319 -57 131 -175 276 -224 276 -11 0 -34 -13 -50 -29z"/>
<path d="M809 3131 c-31 -25 -32 -83 -1 -114 l23 -22 580 0 581 0 19 24 c28
35 25 85 -7 110 -26 21 -35 21 -599 21 -545 0 -574 -1 -596 -19z"/>
<path d="M3060 3107 c0 -32 -1 -33 -59 -44 -114 -21 -191 -77 -232 -167 -27
-59 -26 -176 2 -233 27 -55 112 -113 213 -144 l76 -24 0 -132 c0 -110 -3 -133
-15 -133 -31 0 -125 42 -180 81 -31 22 -58 39 -60 37 -1 -2 -22 -29 -46 -62
l-43 -59 34 -29 c62 -52 174 -101 283 -123 25 -5 27 -9 27 -55 l0 -50 50 0 50
0 0 50 c0 49 0 49 38 55 157 27 252 106 272 229 17 105 -11 191 -79 245 -43
34 -147 85 -197 95 -30 7 -32 10 -38 68 -3 33 -6 94 -6 133 l0 73 43 -10 c23
-5 66 -22 96 -39 30 -16 58 -29 61 -29 4 0 26 27 50 61 34 49 40 63 29 71 -44
30 -164 80 -217 90 -61 11 -62 12 -62 45 0 32 -1 33 -45 33 -44 0 -45 -1 -45
-33z m0 -308 c0 -134 3 -131 -72 -93 -83 43 -80 162 5 199 66 29 67 28 67
-106z m173 -351 c46 -23 72 -74 63 -123 -9 -48 -68 -95 -120 -95 l-26 0 0 126
0 125 23 -7 c12 -3 39 -15 60 -26z"/>
<path d="M1153 2630 c-47 -19 -57 -87 -18 -125 l24 -25 409 0 c399 0 410 1
436 21 37 29 37 89 0 118 -26 20 -37 21 -428 20 -220 0 -411 -4 -423 -9z"/>
<path d="M823 2108 c-12 -6 -27 -23 -34 -39 -15 -37 2 -82 37 -98 18 -8 191
-11 588 -11 555 0 564 0 590 21 37 29 37 89 0 118 -26 21 -35 21 -593 20 -375
0 -573 -4 -588 -11z"/>
</g>
</svg>
