<?xml version="1.0" standalone="no"?>
<!DOCTYPE svg PUBLIC "-//W3C//DTD SVG 20010904//EN"
 "http://www.w3.org/TR/2001/REC-SVG-20010904/DTD/svg10.dtd">
<svg version="1.0" xmlns="http://www.w3.org/2000/svg"
 width="512.000000pt" height="512.000000pt" viewBox="0 0 512.000000 512.000000"
 preserveAspectRatio="xMidYMid meet">

<g transform="translate(0.000000,512.000000) scale(0.100000,-0.100000)"
fill="#000000" stroke="none">
<path d="M2872 5023 c-11 -10 -23 -32 -27 -49 -10 -52 24 -81 120 -100 102
-21 228 -65 330 -117 390 -195 665 -570 739 -1006 18 -105 21 -301 6 -403 -7
-47 -7 -75 1 -92 23 -50 87 -58 128 -17 27 27 36 107 35 301 0 114 -5 193 -17
255 -117 605 -552 1073 -1134 1221 -114 29 -154 30 -181 7z"/>
<path d="M2793 4638 c-55 -59 -15 -108 112 -138 171 -41 342 -137 470 -264
125 -124 225 -301 266 -472 22 -91 30 -246 19 -382 -5 -58 -3 -65 19 -83 31
-25 64 -24 96 4 22 19 27 34 37 129 28 254 -47 538 -203 763 -59 85 -198 223
-284 282 -135 91 -328 169 -450 180 -54 5 -62 3 -82 -19z"/>
<path d="M2739 4292 c-25 -21 -30 -71 -9 -97 7 -8 38 -22 69 -30 245 -67 411
-212 489 -427 24 -66 27 -88 28 -222 1 -142 2 -150 24 -168 28 -23 71 -23 100
0 59 48 51 282 -14 456 -72 191 -225 356 -408 440 -137 64 -237 81 -279 48z"/>
<path d="M761 3818 c-65 -25 -134 -90 -163 -156 -20 -43 -22 -68 -26 -279 l-4
-233 1187 0 1186 0 -3 238 c-3 226 -4 239 -27 282 -32 61 -76 107 -136 138
l-50 27 -955 2 c-947 2 -955 2 -1009 -19z m1220 -267 c28 -35 25 -85 -7 -110
-25 -20 -40 -21 -218 -21 -153 0 -196 3 -213 15 -45 32 -36 115 16 134 15 6
108 9 214 8 185 -2 189 -2 208 -26z"/>
<path d="M570 1960 l0 -1030 1185 0 1185 0 0 100 0 99 -357 3 -358 3 -46 27
c-51 30 -92 84 -108 143 -15 54 -15 1292 0 1355 14 64 51 114 106 147 l48 28
358 3 357 3 0 74 0 75 -1185 0 -1185 0 0 -1030z"/>
<path d="M2242 2657 l-22 -23 0 -653 0 -652 25 -24 24 -25 1114 0 c1099 0
1114 0 1135 20 11 11 24 35 27 52 3 18 5 316 3 661 l-3 629 -24 19 c-23 18
-55 19 -1140 19 l-1118 0 -21 -23z m989 -316 c18 -22 19 -43 19 -357 0 -321
-1 -335 -20 -354 -19 -19 -33 -20 -360 -20 -336 0 -339 0 -360 22 -19 21 -20
33 -20 351 0 213 4 335 11 348 6 11 20 24 32 29 12 5 170 8 350 7 l329 -2 19
-24z m1018 -95 c32 -29 29 -88 -5 -115 -26 -20 -38 -21 -386 -21 -215 0 -367
4 -378 10 -39 21 -45 97 -9 127 24 19 46 20 405 19 331 -1 353 -2 373 -20z m0
-380 c32 -29 29 -88 -5 -115 -26 -20 -38 -21 -386 -21 -215 0 -367 4 -378 10
-39 21 -45 97 -9 127 24 19 46 20 405 19 331 -1 353 -2 373 -20z"/>
<path d="M2650 1985 l0 -225 225 0 225 0 0 225 0 225 -225 0 -225 0 0 -225z"/>
<path d="M574 765 c-3 -8 -4 -115 -2 -237 3 -221 3 -224 31 -280 16 -32 48
-75 73 -97 86 -75 27 -72 1095 -69 l954 3 53 30 c59 32 91 66 125 129 21 39
22 56 25 289 l3 247 -1176 0 c-1026 0 -1176 -2 -1181 -15z m1230 -219 c95 -40
103 -178 14 -231 -85 -50 -198 18 -198 117 0 53 75 128 128 128 12 0 38 -6 56
-14z"/>
</g>
</svg>
