<?xml version="1.0" standalone="no"?>
<!DOCTYPE svg PUBLIC "-//W3C//DTD SVG 20010904//EN"
 "http://www.w3.org/TR/2001/REC-SVG-20010904/DTD/svg10.dtd">
<svg version="1.0" xmlns="http://www.w3.org/2000/svg"
 width="512.000000pt" height="512.000000pt" viewBox="0 0 512.000000 512.000000"
 preserveAspectRatio="xMidYMid meet">

<g transform="translate(0.000000,512.000000) scale(0.100000,-0.100000)"
fill="#000000" stroke="none">
<path d="M155 4988 c-49 -17 -92 -55 -114 -101 l-21 -43 0 -1781 0 -1780 23
-44 c16 -29 40 -54 72 -74 l48 -30 1255 -5 1254 -5 168 -325 c93 -179 188
-356 212 -394 88 -140 226 -240 373 -271 103 -22 686 -21 769 0 143 37 288
149 353 272 59 109 65 151 70 450 l5 271 167 4 c154 3 169 5 208 27 24 14 55
42 70 64 l28 40 0 1803 0 1802 -30 43 c-16 23 -48 52 -70 63 l-40 21 -2385 2
c-1647 1 -2394 -2 -2415 -9z m4783 -144 l22 -15 0 -1764 0 -1764 -22 -15 c-18
-13 -53 -16 -169 -16 l-147 0 -4 188 c-3 168 -6 191 -25 228 -24 45 -89 108
-122 119 l-21 6 0 1304 0 1304 -26 20 -27 21 -1897 0 c-1854 0 -1898 0 -1921
-19 l-24 -19 -3 -1350 -2 -1349 21 -27 20 -26 1245 0 1244 0 0 -101 0 -101
-40 35 c-61 56 -135 89 -210 95 -73 5 -115 -8 -168 -53 -63 -53 -89 -146 -67
-243 l7 -32 -1199 0 c-1069 0 -1201 2 -1221 16 l-22 15 0 1764 0 1764 22 15
c20 14 262 16 2378 16 2116 0 2358 -2 2378 -16z m-628 -1774 l0 -1249 -31 -16
c-17 -9 -32 -15 -33 -13 -70 96 -128 130 -220 131 -44 0 -73 -6 -104 -22 l-43
-22 -31 26 c-56 48 -108 68 -173 68 -34 0 -71 -6 -83 -12 l-22 -12 0 273 c0
266 -1 274 -24 324 -27 59 -90 116 -145 132 -131 40 -268 -32 -306 -162 -12
-39 -15 -118 -15 -378 l0 -328 -1195 0 -1195 0 0 1255 0 1255 1810 0 1810 0 0
-1250z m-914 -554 l34 -34 0 -525 c0 -495 1 -526 18 -548 26 -31 78 -31 104 0
16 20 18 43 18 185 0 185 9 214 74 236 31 10 42 9 73 -7 57 -27 63 -48 63
-215 0 -135 2 -150 20 -168 26 -26 74 -26 100 0 18 18 20 33 20 143 0 140 8
164 63 190 31 16 42 17 73 7 61 -20 74 -55 74 -197 0 -119 0 -122 26 -142 33
-26 55 -26 85 -2 21 17 25 31 30 106 5 80 8 90 33 111 53 46 143 25 165 -38 7
-20 11 -187 11 -487 -1 -488 -7 -566 -50 -651 -33 -65 -116 -142 -195 -181
l-70 -34 -332 -3 c-364 -4 -409 1 -500 55 -62 36 -134 110 -175 180 -78 130
-418 801 -427 842 -11 49 -7 66 22 99 26 28 76 29 135 2 49 -22 135 -107 172
-170 38 -64 56 -80 93 -80 70 0 66 -34 69 669 l3 633 33 29 c46 42 93 40 138
-5z"/>
<path d="M4666 3549 l-26 -20 0 -458 c0 -508 -1 -501 63 -501 78 1 77 -3 77
505 l0 446 -25 24 c-30 30 -54 31 -89 4z"/>
<path d="M1243 4019 c-27 -10 -36 -25 -43 -73 -5 -38 -7 -40 -55 -51 -67 -15
-106 -37 -142 -79 -63 -71 -69 -168 -17 -253 38 -62 125 -106 285 -147 94 -24
120 -35 147 -62 21 -21 32 -42 32 -61 0 -35 -31 -86 -64 -108 -29 -20 -128
-31 -181 -21 -42 8 -107 63 -125 105 -32 77 -140 52 -140 -32 0 -37 60 -118
110 -149 25 -15 69 -33 98 -40 51 -12 52 -14 52 -48 0 -51 24 -80 66 -80 47 0
74 29 74 79 0 37 2 39 37 46 68 12 113 37 156 85 91 101 90 238 -2 330 -48 48
-64 55 -303 125 -67 19 -92 32 -112 56 -33 38 -33 60 -1 98 36 42 114 59 190
42 46 -10 60 -19 96 -62 34 -41 46 -49 75 -49 21 0 42 8 54 20 58 58 -19 170
-140 201 -48 12 -50 14 -50 49 0 62 -45 99 -97 79z"/>
<path d="M1810 4023 c-50 -19 -68 -84 -32 -116 17 -16 102 -17 1015 -17 984 0
997 0 1017 20 25 25 26 61 1 91 l-19 24 -984 2 c-540 1 -990 -1 -998 -4z"/>
<path d="M1786 3559 c-32 -25 -35 -70 -6 -99 20 -20 33 -20 930 -20 897 0 910
0 930 20 26 26 26 74 0 100 -20 20 -33 20 -924 20 -899 0 -903 0 -930 -21z"/>
<path d="M1771 3104 c-26 -33 -26 -55 -2 -85 l19 -24 1056 -3 1057 -2 24 24
c30 30 32 65 5 94 l-21 22 -1059 0 -1059 0 -20 -26z"/>
<path d="M3210 2874 c-115 -31 -233 -129 -284 -238 -14 -29 -31 -86 -37 -125
-11 -67 -11 -74 8 -99 25 -34 74 -41 101 -14 11 11 21 40 25 70 20 171 164
294 327 279 76 -7 139 -36 190 -87 51 -51 77 -107 89 -191 9 -68 26 -89 73
-89 64 0 83 60 53 173 -21 83 -50 133 -111 197 -114 120 -277 166 -434 124z"/>
<path d="M939 2679 c-15 -6 -33 -23 -39 -40 -11 -27 -10 -34 7 -57 l20 -27
757 -3 c745 -2 756 -2 776 18 25 25 26 61 1 91 l-19 24 -739 2 c-464 1 -748
-2 -764 -8z"/>
<path d="M919 2222 c-31 -26 -31 -78 0 -104 22 -17 61 -18 850 -18 l828 0 21
23 c29 30 28 62 -3 92 l-24 25 -824 0 c-787 0 -826 -1 -848 -18z"/>
</g>
</svg>
