<svg width="2365" height="484" viewBox="0 0 2365 484" fill="none" xmlns="http://www.w3.org/2000/svg">
<path d="M0 114.762C0 98.8853 12.8853 86 28.7619 86H327.167C343.043 86 355.929 98.8853 355.929 114.762C355.929 130.638 343.043 143.524 327.167 143.524H28.7619C12.8853 143.524 0 130.638 0 114.762ZM327.167 208.238H28.7619C12.8853 208.238 0 221.123 0 237C0 252.877 12.8853 265.762 28.7619 265.762H327.167C343.043 265.762 355.929 252.877 355.929 237C355.929 221.123 343.058 208.238 327.167 208.238ZM327.167 330.476H28.7619C12.8853 330.476 0 343.362 0 359.238C0 375.115 12.8853 388 28.7619 388H327.167C343.043 388 355.929 375.115 355.929 359.238C355.929 343.362 343.058 330.476 327.167 330.476Z" fill="#5C5B59"/>
<path d="M543.508 267.742H464.987V236.051H543.508C558.714 236.051 571.027 233.629 580.447 228.784C589.867 223.94 596.73 217.212 601.036 208.599C605.477 199.987 607.697 190.163 607.697 179.129C607.697 169.036 605.477 159.549 601.036 150.667C596.73 141.786 589.867 134.654 580.447 129.271C571.027 123.754 558.714 120.995 543.508 120.995H474.071V383H435.113V89.1023H543.508C565.712 89.1023 584.484 92.9375 599.825 100.608C615.166 108.278 626.806 118.909 634.746 132.501C642.685 145.957 646.655 161.366 646.655 178.725C646.655 197.565 642.685 213.645 634.746 226.968C626.806 240.29 615.166 250.45 599.825 257.448C584.484 264.311 565.712 267.742 543.508 267.742ZM816.615 345.657V233.225C816.615 224.613 814.866 217.144 811.367 210.82C808.003 204.36 802.889 199.381 796.026 195.882C789.163 192.384 780.685 190.634 770.593 190.634C761.173 190.634 752.897 192.249 745.765 195.479C738.767 198.708 733.25 202.947 729.213 208.195C725.31 213.444 723.359 219.096 723.359 225.151H686.016C686.016 217.346 688.035 209.608 692.072 201.938C696.109 194.268 701.895 187.337 709.431 181.147C717.102 174.822 726.252 169.843 736.883 166.21C747.649 162.442 759.625 160.558 772.813 160.558C788.692 160.558 802.687 163.25 814.798 168.632C827.044 174.015 836.598 182.156 843.461 193.056C850.459 203.822 853.958 217.346 853.958 233.629V335.363C853.958 342.629 854.563 350.367 855.774 358.576C857.12 366.784 859.071 373.849 861.628 379.77V383H822.671C820.787 378.694 819.306 372.975 818.23 365.843C817.153 358.576 816.615 351.847 816.615 345.657ZM823.074 250.585L823.478 276.825H785.731C775.101 276.825 765.613 277.7 757.27 279.449C748.927 281.064 741.929 283.554 736.278 286.918C730.626 290.282 726.319 294.521 723.359 299.635C720.398 304.614 718.918 310.468 718.918 317.196C718.918 324.059 720.466 330.316 723.561 335.968C726.656 341.62 731.299 346.128 737.489 349.492C743.813 352.722 751.551 354.337 760.702 354.337C772.14 354.337 782.233 351.915 790.98 347.07C799.727 342.226 806.657 336.305 811.77 329.307C817.019 322.31 819.845 315.514 820.248 308.92L836.195 326.885C835.253 332.537 832.696 338.794 828.524 345.657C824.353 352.52 818.768 359.114 811.77 365.439C804.908 371.629 796.699 376.81 787.144 380.981C777.725 385.019 767.094 387.037 755.252 387.037C740.449 387.037 727.463 384.144 716.294 378.357C705.259 372.571 696.647 364.833 690.457 355.144C684.401 345.321 681.374 334.353 681.374 322.242C681.374 310.535 683.661 300.24 688.237 291.359C692.812 282.343 699.406 274.874 708.018 268.953C716.631 262.898 726.992 258.322 739.103 255.227C751.215 252.132 764.739 250.585 779.676 250.585H823.074ZM970.831 360.392L1031.59 164.595H1071.56L983.951 416.709C981.932 422.092 979.241 427.879 975.877 434.069C972.647 440.393 968.476 446.382 963.362 452.034C958.248 457.686 952.058 462.261 944.792 465.76C937.659 469.393 929.114 471.21 919.156 471.21C916.196 471.21 912.428 470.806 907.852 469.999C903.277 469.191 900.047 468.518 898.164 467.98L897.962 437.702C899.038 437.837 900.72 437.971 903.008 438.106C905.43 438.375 907.112 438.51 908.054 438.51C916.532 438.51 923.732 437.366 929.653 435.078C935.574 432.925 940.553 429.224 944.59 423.976C948.761 418.863 952.327 411.798 955.288 402.782L970.831 360.392ZM926.221 164.595L982.942 334.152L992.631 373.513L965.784 387.239L885.447 164.595H926.221ZM1110.92 89.1023H1208.21C1230.28 89.1023 1248.92 92.4665 1264.12 99.1949C1279.46 105.923 1291.1 115.881 1299.04 129.069C1307.12 142.122 1311.15 158.203 1311.15 177.312C1311.15 190.769 1308.4 203.082 1302.88 214.251C1297.5 225.286 1289.69 234.705 1279.46 242.51C1269.37 250.181 1257.26 255.9 1243.13 259.668L1232.23 263.907H1140.79L1140.39 232.216H1209.42C1223.42 232.216 1235.06 229.794 1244.34 224.949C1253.63 219.97 1260.62 213.309 1265.33 204.966C1270.04 196.623 1272.4 187.405 1272.4 177.312C1272.4 166.008 1270.18 156.117 1265.74 147.64C1261.3 139.162 1254.3 132.635 1244.74 128.06C1235.32 123.35 1223.15 120.995 1208.21 120.995H1149.87V383H1110.92V89.1023ZM1282.69 383L1211.24 249.777L1251.81 249.575L1324.27 380.578V383H1282.69ZM1350.11 276.22V271.577C1350.11 255.833 1352.4 241.232 1356.97 227.775C1361.55 214.184 1368.14 202.409 1376.76 192.451C1385.37 182.358 1395.8 174.553 1408.04 169.036C1420.29 163.384 1434.02 160.558 1449.22 160.558C1464.56 160.558 1478.36 163.384 1490.6 169.036C1502.98 174.553 1513.48 182.358 1522.09 192.451C1530.84 202.409 1537.5 214.184 1542.07 227.775C1546.65 241.232 1548.94 255.833 1548.94 271.577V276.22C1548.94 291.964 1546.65 306.565 1542.07 320.022C1537.5 333.479 1530.84 345.254 1522.09 355.346C1513.48 365.304 1503.05 373.109 1490.8 378.761C1478.69 384.278 1464.97 387.037 1449.63 387.037C1434.28 387.037 1420.49 384.278 1408.25 378.761C1396 373.109 1385.5 365.304 1376.76 355.346C1368.14 345.254 1361.55 333.479 1356.97 320.022C1352.4 306.565 1350.11 291.964 1350.11 276.22ZM1387.45 271.577V276.22C1387.45 287.12 1388.73 297.414 1391.29 307.103C1393.85 316.658 1397.68 325.136 1402.8 332.537C1408.04 339.938 1414.57 345.792 1422.38 350.098C1430.18 354.27 1439.26 356.355 1449.63 356.355C1459.85 356.355 1468.8 354.27 1476.47 350.098C1484.28 345.792 1490.74 339.938 1495.85 332.537C1500.96 325.136 1504.8 316.658 1507.36 307.103C1510.05 297.414 1511.39 287.12 1511.39 276.22V271.577C1511.39 260.812 1510.05 250.652 1507.36 241.097C1504.8 231.409 1500.9 222.863 1495.65 215.462C1490.53 207.926 1484.07 202.005 1476.27 197.699C1468.6 193.393 1459.58 191.24 1449.22 191.24C1438.99 191.24 1429.98 193.393 1422.17 197.699C1414.5 202.005 1408.04 207.926 1402.8 215.462C1397.68 222.863 1393.85 231.409 1391.29 241.097C1388.73 250.652 1387.45 260.812 1387.45 271.577ZM1651.07 344.244L1707.19 164.595H1731.82L1726.97 200.323L1669.85 383H1645.83L1651.07 344.244ZM1613.33 164.595L1661.17 346.263L1664.6 383H1639.37L1575.99 164.595H1613.33ZM1785.51 344.85L1831.13 164.595H1868.27L1804.89 383H1779.86L1785.51 344.85ZM1737.27 164.595L1792.17 341.216L1798.43 383H1774.61L1715.87 199.919L1711.02 164.595H1737.27ZM2056.6 89.1023V383H2017.64V89.1023H2056.6ZM2206.98 383H2145.61L2146.02 351.309H2206.98C2227.97 351.309 2245.46 346.936 2259.46 338.189C2273.45 329.307 2283.95 316.927 2290.95 301.048C2298.08 285.034 2301.65 266.329 2301.65 244.933V226.968C2301.65 210.147 2299.63 195.21 2295.59 182.156C2291.55 168.969 2285.63 157.867 2277.83 148.851C2270.02 139.7 2260.47 132.77 2249.16 128.06C2238 123.35 2225.14 120.995 2210.61 120.995H2144.4V89.1023H2210.61C2229.85 89.1023 2247.42 92.3319 2263.29 98.7912C2279.17 105.116 2292.83 114.334 2304.27 126.445C2315.84 138.422 2324.72 152.955 2330.91 170.045C2337.11 187.001 2340.2 206.11 2340.2 227.371V244.933C2340.2 266.194 2337.11 285.371 2330.91 302.461C2324.72 319.416 2315.78 333.882 2304.07 345.859C2292.5 357.836 2278.5 367.054 2262.08 373.513C2245.8 379.838 2227.43 383 2206.98 383ZM2166.4 89.1023V383H2127.45V89.1023H2166.4Z" fill="#5C5B59"/>
</svg>
