<svg width="674" height="674" viewBox="0 0 674 674" fill="none" xmlns="http://www.w3.org/2000/svg">
<path opacity="0.3" d="M337.001 280.833C368.021 280.833 393.167 255.687 393.167 224.667C393.167 193.647 368.021 168.5 337.001 168.5C305.981 168.5 280.834 193.647 280.834 224.667C280.834 255.687 305.981 280.833 337.001 280.833Z" fill="#868685"/>
<path opacity="0.3" d="M337 421.25C261.175 421.25 174.117 457.478 168.5 477.698V505.5H505.5V477.417C499.883 457.478 412.825 421.25 337 421.25Z" fill="#868685"/>
<path d="M337.001 337C399.065 337 449.334 286.731 449.334 224.667C449.334 162.603 399.065 112.333 337.001 112.333C274.936 112.333 224.667 162.603 224.667 224.667C224.667 286.731 274.936 337 337.001 337ZM337.001 168.5C367.892 168.5 393.167 193.775 393.167 224.667C393.167 255.558 367.892 280.833 337.001 280.833C306.109 280.833 280.834 255.558 280.834 224.667C280.834 193.775 306.109 168.5 337.001 168.5ZM337.001 365.083C262.018 365.083 112.334 402.715 112.334 477.417V561.667H561.667V477.417C561.667 402.715 411.983 365.083 337.001 365.083ZM505.501 505.5H168.501V477.698C174.117 457.478 261.176 421.25 337.001 421.25C412.826 421.25 499.884 457.478 505.501 477.417V505.5Z" fill="#868685"/>
</svg>
