<svg width="18" height="17" viewBox="0 0 18 17" fill="none" xmlns="http://www.w3.org/2000/svg">
<path d="M5.59811 13.595C4.66345 13.595 3.90723 14.3597 3.90723 15.2943C3.90723 16.229 4.66345 16.9937 5.59811 16.9937C6.53276 16.9937 7.29748 16.229 7.29748 15.2943C7.29748 14.3597 6.53276 13.595 5.59811 13.595ZM14.095 13.595C13.1603 13.595 12.4041 14.3597 12.4041 15.2943C12.4041 16.229 13.1603 16.9937 14.095 16.9937C15.0296 16.9937 15.7943 16.229 15.7943 15.2943C15.7943 14.3597 15.0296 13.595 14.095 13.595ZM12.8629 9.34653C13.5002 9.34653 14.061 8.99816 14.3499 8.47136L17.3917 2.9569C17.7061 2.39611 17.2983 1.69937 16.6525 1.69937H4.07717L3.27847 0H0.5V1.69937H2.19937L5.25823 8.14848L4.11116 10.2217C3.49089 11.3603 4.30659 12.7453 5.59811 12.7453H15.7943V11.0459H5.59811L6.53276 9.34653H12.8629ZM4.88437 3.39874H15.208L12.8629 7.64716H6.89812L4.88437 3.39874Z" fill="#5B5A5A"/>
</svg>
