<svg width="72" height="73" viewBox="0 0 72 73" fill="none" xmlns="http://www.w3.org/2000/svg">
<path d="M0.5 8C0.5 3.85786 3.85786 0.5 8 0.5H64C68.1421 0.5 71.5 3.85786 71.5 8V43C71.5 47.1421 68.1421 50.5 64 50.5H8C3.85786 50.5 0.5 47.1421 0.5 43V8Z" fill="white" stroke="#E5E5E5"/>
<path opacity="0.5" d="M1 5C1 2.79086 2.79086 1 5 1H37V50H5C2.79086 50 1 48.2091 1 46V5Z" fill="#F1F7ED"/>
<path d="M30 51H41L43 71H28L30 51Z" fill="#808080"/>
<path d="M30 51H36V71H28L30 51Z" fill="#999999"/>
<path d="M21 70C21 68.3431 22.3431 67 24 67H47C48.6569 67 50 68.3431 50 70C50 71.6569 48.6569 73 47 73H24C22.3431 73 21 71.6569 21 70Z" fill="#72AC47"/>
<path d="M21 70C21 68.3431 22.3431 67 24 67H36V73H24C22.3431 73 21 71.6569 21 70Z" fill="#80B459"/>
<path d="M8 8V40C8 41.1046 8.89543 42 10 42H62" stroke="#E3EEDA" stroke-width="2"/>
<path d="M9 41L17 32.5H27L37 23.5L46.5 21L57 9.5" stroke="#FE4747" stroke-width="2"/>
</svg>
