<svg width="72" height="73" viewBox="0 0 72 73" fill="none" xmlns="http://www.w3.org/2000/svg">
<path d="M0 4C0 1.79086 1.79086 0 4 0H68C70.2091 0 72 1.79086 72 4V47C72 49.2091 70.2091 51 68 51H4C1.79086 51 0 49.2091 0 47V4Z" fill="#72AC47"/>
<path d="M0 4C0 1.79086 1.79086 0 4 0H36V51H4C1.79086 51 0 49.2091 0 47V4Z" fill="#80B459"/>
<path d="M30 51H41L43 71H28L30 51Z" fill="#808080"/>
<path d="M30 51H36V71H28L30 51Z" fill="#999999"/>
<path d="M21 70C21 68.3431 22.3431 67 24 67H47C48.6569 67 50 68.3431 50 70C50 71.6569 48.6569 73 47 73H24C22.3431 73 21 71.6569 21 70Z" fill="#72AC47"/>
<path d="M21 70C21 68.3431 22.3431 67 24 67H36V73H24C22.3431 73 21 71.6569 21 70Z" fill="#80B459"/>
<path d="M8 8V40C8 41.1046 8.89543 42 10 42H62" stroke="#E3EEDA" stroke-width="2"/>
<path d="M9 17.5H20.5385L26.9487 27L38.4872 22L59 33.5" stroke="white" stroke-width="2"/>
</svg>
