<svg width="24" height="12" viewBox="0 0 24 12" fill="none" xmlns="http://www.w3.org/2000/svg">
<path d="M4.33333 6.70833C5.3875 6.70833 6.25 5.84583 6.25 4.79167C6.25 3.7375 5.3875 2.875 4.33333 2.875C3.27917 2.875 2.41667 3.7375 2.41667 4.79167C2.41667 5.84583 3.27917 6.70833 4.33333 6.70833ZM5.41625 7.7625C5.06167 7.705 4.70708 7.66667 4.33333 7.66667C3.38458 7.66667 2.48375 7.86792 1.66917 8.2225C0.96 8.52917 0.5 9.21917 0.5 9.99542V11.5H4.8125V9.95708C4.8125 9.16167 5.03292 8.41417 5.41625 7.7625ZM19.6667 6.70833C20.7208 6.70833 21.5833 5.84583 21.5833 4.79167C21.5833 3.7375 20.7208 2.875 19.6667 2.875C18.6125 2.875 17.75 3.7375 17.75 4.79167C17.75 5.84583 18.6125 6.70833 19.6667 6.70833ZM23.5 9.99542C23.5 9.21917 23.04 8.52917 22.3308 8.2225C21.5163 7.86792 20.6154 7.66667 19.6667 7.66667C19.2929 7.66667 18.9383 7.705 18.5838 7.7625C18.9671 8.41417 19.1875 9.16167 19.1875 9.95708V11.5H23.5V9.99542ZM16.0633 7.33125C14.9421 6.83292 13.5621 6.46875 12 6.46875C10.4379 6.46875 9.05792 6.8425 7.93667 7.33125C6.90167 7.79125 6.25 8.82625 6.25 9.95708V11.5H17.75V9.95708C17.75 8.82625 17.0983 7.79125 16.0633 7.33125ZM8.23375 9.58333C8.32 9.36292 8.35833 9.20958 9.10583 8.92208C10.0354 8.55792 11.0129 8.38542 12 8.38542C12.9871 8.38542 13.9646 8.55792 14.8942 8.92208C15.6321 9.20958 15.6704 9.36292 15.7662 9.58333H8.23375ZM12 1.91667C12.5271 1.91667 12.9583 2.34792 12.9583 2.875C12.9583 3.40208 12.5271 3.83333 12 3.83333C11.4729 3.83333 11.0417 3.40208 11.0417 2.875C11.0417 2.34792 11.4729 1.91667 12 1.91667ZM12 0C10.4092 0 9.125 1.28417 9.125 2.875C9.125 4.46583 10.4092 5.75 12 5.75C13.5908 5.75 14.875 4.46583 14.875 2.875C14.875 1.28417 13.5908 0 12 0Z" fill="#5B5A5A"/>
</svg>
