<svg width="24" height="16" viewBox="0 0 24 16" fill="none" xmlns="http://www.w3.org/2000/svg">
<path d="M6 8C4.35 8 3 6.65 3 5C3 3.35 4.35 2 6 2C7.65 2 9 3.35 9 5C9 6.65 7.65 8 6 8ZM6 4C5.45 4 5 4.45 5 5C5 5.55 5.45 6 6 6C6.55 6 7 5.55 7 5C7 4.45 6.55 4 6 4ZM12 14H0V12.47C0 9.97 3.97 8.89 6 8.89C8.03 8.89 12 9.97 12 12.47V14ZM2.31 12H9.69C9 11.44 7.31 10.88 6 10.88C4.69 10.88 2.99 11.44 2.31 12Z" fill="#F1F7ED"/>
<path d="M21 13H14V11H21V13ZM24 9H14V7H24V9ZM24 5H14V3H24V5Z" fill="white"/>
</svg>
