<svg width="486" height="486" viewBox="0 0 486 486" fill="none" xmlns="http://www.w3.org/2000/svg">
<path d="M0 76.0908C0 54.4123 17.5942 36.8181 39.2727 36.8181H446.727C468.406 36.8181 486 54.4123 486 76.0908C486 97.7694 468.406 115.364 446.727 115.364H39.2727C17.5942 115.364 0 97.7694 0 76.0908ZM446.727 203.727H39.2727C17.5942 203.727 0 221.321 0 243C0 264.678 17.5942 282.273 39.2727 282.273H446.727C468.406 282.273 486 264.678 486 243C486 221.321 468.425 203.727 446.727 203.727ZM446.727 370.636H39.2727C17.5942 370.636 0 388.23 0 409.909C0 431.588 17.5942 449.182 39.2727 449.182H446.727C468.406 449.182 486 431.588 486 409.909C486 388.23 468.425 370.636 446.727 370.636Z" fill="#72AC47"/>
</svg>
