<svg width="90" height="30" viewBox="0 0 90 30" fill="none" xmlns="http://www.w3.org/2000/svg">
<g clip-path="url(#clip0_320_7494)">
<path d="M86.3876 18.0425L88.8419 19.691C88.0453 20.8731 86.14 22.9011 82.846 22.9011C78.7555 22.9011 75.7091 19.7127 75.7091 15.6566C75.7091 11.3403 78.7878 8.41211 82.5016 8.41211C86.2369 8.41211 88.0669 11.4053 88.6589 13.0213L88.9819 13.8455L79.3583 17.8582C80.0903 19.3114 81.2313 20.0489 82.846 20.0489C84.4607 20.0489 85.5802 19.2463 86.3876 18.0425ZM78.8416 15.4289L85.2681 12.7393C84.9128 11.8392 83.8579 11.1993 82.5985 11.1993C80.9945 11.1993 78.7663 12.6308 78.8416 15.4289Z" fill="#FF302F"/>
<path d="M54.083 15.6566C54.083 19.832 50.8536 22.9011 46.8923 22.9011C42.9309 22.9011 39.7015 19.832 39.7015 15.6566C39.7015 11.4596 42.9309 8.41211 46.8923 8.41211C50.8536 8.41211 54.083 11.4487 54.083 15.6566ZM50.929 15.6566C50.929 13.0538 49.056 11.2644 46.8815 11.2644C44.7071 11.2644 42.834 13.0538 42.834 15.6566C42.834 18.2377 44.7071 20.0489 46.8815 20.0489C49.0667 20.0489 50.929 18.2269 50.929 15.6566Z" fill="#FFBA40"/>
<path d="M66.1825 8.97616H69.175V21.8601C69.175 27.2067 66.0425 29.4083 62.3395 29.4083C58.8518 29.4083 56.7527 27.044 55.9669 25.1245L58.7119 23.9749C59.207 25.157 60.4019 26.556 62.3395 26.556C64.7185 26.556 66.1825 25.0702 66.1825 22.2939V21.2528H66.0748C65.3644 22.1204 64.008 22.9012 62.2857 22.9012C58.6903 22.9012 55.3964 19.7453 55.3964 15.6784C55.3964 11.5898 58.6903 8.40137 62.2857 8.40137C63.9973 8.40137 65.3644 9.17137 66.0748 10.0173H66.1825V8.97616ZM66.3978 15.6784C66.3978 13.119 64.7077 11.2536 62.5548 11.2536C60.3804 11.2536 58.5504 13.119 58.5504 15.6784C58.5504 18.2053 60.3804 20.0381 62.5548 20.0381C64.7077 20.049 66.3978 18.2053 66.3978 15.6784Z" fill="#3686F7"/>
<path d="M38.3776 15.6235C38.3776 19.7989 35.1482 22.868 31.1868 22.868C27.2255 22.868 23.9961 19.788 23.9961 15.6235C23.9961 11.4265 27.2255 8.36816 31.1868 8.36816C35.1482 8.36816 38.3776 11.4265 38.3776 15.6235ZM35.2343 15.6235C35.2343 13.0207 33.3613 11.2313 31.1868 11.2313C29.0124 11.2313 27.1394 13.0207 27.1394 15.6235C27.1394 18.2046 29.0124 20.0158 31.1868 20.0158C33.3613 20.0158 35.2343 18.2046 35.2343 15.6235Z" fill="#FF302F"/>
<path d="M71.0696 1.02637H74.1698V22.2393H71.0696V1.02637Z" fill="#20B15A"/>
<path d="M12.1766 19.7232C7.66627 19.7232 4.13548 16.0575 4.13548 11.5135C4.13548 6.96937 7.66627 3.30374 12.1766 3.30374C14.6094 3.30374 16.3856 4.26895 17.6989 5.50529L19.8625 3.32543C18.0326 1.55768 15.589 0.212891 12.1766 0.212891C5.99776 0.212891 0.798462 5.28839 0.798462 11.5135C0.798462 17.7385 5.99776 22.814 12.1766 22.814C15.5136 22.814 18.0326 21.7078 20.0025 19.6473C22.0262 17.6084 22.6506 14.7453 22.6506 12.4244C22.6506 11.6978 22.5645 10.9495 22.4676 10.3964H12.1766V13.4113H19.5073C19.292 15.2984 18.7 16.589 17.828 17.4674C16.7731 18.5411 15.1046 19.7232 12.1766 19.7232Z" fill="#3686F7"/>
</g>
<defs>
<clipPath id="clip0_320_7494">
<rect width="88.4735" height="29.2474" fill="white" transform="translate(0.6698 0.167969)"/>
</clipPath>
</defs>
</svg>
