<svg width="134" height="30" viewBox="0 0 134 30" fill="none" xmlns="http://www.w3.org/2000/svg">
<g clip-path="url(#clip0_320_7502)">
<path fill-rule="evenodd" clip-rule="evenodd" d="M71.3304 20.5107C69.8882 21.9544 68.1628 22.6801 66.1632 22.6801C64.5461 22.6801 63.172 22.355 61.7695 21.5511V18.2414C62.8978 18.9963 64.3153 19.7151 65.713 19.7151C68.6299 19.7151 70.3659 17.7348 70.3659 14.9286C70.3659 12.1201 68.5704 10.0812 65.6524 10.0812C64.3492 10.0812 63.2929 10.5436 62.4678 11.4698C61.5832 12.4733 61.1259 13.9076 61.1259 15.8039V28.873H60.9062C59.2985 28.873 57.9961 27.5878 57.9961 26.0023V15.3137C57.9961 10.7778 60.8069 7.11575 65.6382 7.11575C68.0237 7.11575 69.9611 7.92035 71.4301 9.53693C72.8113 11.0475 73.4958 12.9612 73.4958 15.2643C73.4958 17.3137 72.7735 19.0662 71.3304 20.5107ZM105.218 20.4C103.782 21.9214 101.933 22.6801 99.6916 22.6801C97.3254 22.6801 95.3975 21.8755 93.93 20.259C92.5496 18.7298 91.8647 16.8145 91.8647 14.532C91.8647 10.4919 95.0257 7.11575 99.1855 7.11575C100.79 7.11575 102.183 7.44987 103.591 8.21134V11.5548C102.462 10.8 101.045 10.0812 99.6475 10.0812C96.7307 10.0812 94.9938 12.0611 94.9938 14.8684C94.9938 17.6373 96.8315 19.7151 99.707 19.7151C101.009 19.7151 102.081 19.2337 102.939 18.264C103.792 17.3005 104.235 15.8848 104.235 13.983V3.58072C104.235 1.99483 105.538 0.710039 107.145 0.710039H107.364V14.471C107.364 16.8945 106.654 18.8782 105.218 20.4ZM114.057 5.6468C113.728 6.00967 113.258 6.17673 112.683 6.17673C111.609 6.17673 110.84 5.39505 110.84 4.34336C110.84 3.26681 111.594 2.5403 112.683 2.5403C113.731 2.5403 114.526 3.30644 114.526 4.34336C114.526 4.85619 114.374 5.29598 114.057 5.6468ZM129.96 13.983C129.96 12.7658 129.493 11.8023 128.555 11.0723C127.71 10.4153 126.655 10.0812 125.371 10.0812C122.539 10.0812 120.72 12.2658 120.72 14.9593C120.72 17.5518 122.648 19.7151 125.342 19.7151C127.215 19.7151 128.217 18.6354 129.286 17.2904V21.1685C128.742 21.571 128.115 22.0096 127.476 22.2672C126.801 22.5449 125.996 22.6801 125.066 22.6801C120.561 22.6801 117.59 18.9994 117.59 14.746C117.59 12.5619 118.278 10.7561 119.662 9.34812C121.131 7.85586 123.058 7.11575 125.418 7.11575C129.89 7.11575 133.09 9.64921 133.09 14.227V22.3752H132.871C131.263 22.3752 129.96 21.09 129.96 19.5041V13.983ZM87.1142 13.1085C86.7188 11.9018 86.2229 11.3081 85.0823 10.6799C82.3699 9.18494 79.7004 10.4577 78.4586 13.0968L87.1142 13.1085ZM84.7259 22.6347C82.7267 23.0539 80.765 22.7306 78.8513 21.6755C76.9841 20.6471 75.734 19.1175 75.1074 17.0965C73.8404 13.009 76.4359 8.45416 80.6102 7.35119C82.6795 6.80456 84.6633 7.05204 86.5482 8.09091C89.6789 9.81743 90.8198 12.4876 90.6206 15.9283L78.0108 15.9034C78.1967 17.3067 79.0786 18.4046 80.3184 19.0876C81.5751 19.7803 82.7307 19.9458 83.8023 19.6179C84.9929 19.2492 85.9586 18.2908 86.7439 17.3988L89.3138 19.2457C88.2658 21.0958 86.8389 22.191 84.7259 22.6347V22.6347ZM111.118 7.42112H114.248V22.3752H114.028C112.421 22.3752 111.118 21.09 111.118 19.5041V7.42112ZM4.96054 22.3751C1.89919 22.3751 0.380127 20.321 0.380127 17.4527V6.57021C0.380127 4.98471 1.68336 3.69953 3.29064 3.69953H3.5104V7.42104H8.79856V10.3865H3.5104V17.7961C3.5104 19.0561 4.0803 19.41 5.30082 19.41H8.79856V22.3751H4.96054ZM23.1377 20.485C21.5914 21.9473 19.7329 22.6801 17.5738 22.6801C15.4348 22.6801 13.5869 21.9466 12.0407 20.485C10.4893 19.0172 9.71582 17.1493 9.71582 14.8983C9.71582 10.5066 13.1155 7.11606 17.5738 7.11606C19.7136 7.11606 21.5666 7.855 23.1223 9.32745C24.6835 10.8042 25.4633 12.6667 25.4633 14.8983C25.4633 17.1493 24.689 19.0172 23.1377 20.485ZM37.7709 11.0194C37.3117 11.7789 36.9557 12.3236 36.7052 12.6527C36.4291 13.0105 36.1566 13.2964 35.8864 13.4942C38.0616 14.1873 38.8717 15.6737 38.8717 17.8882V22.3751H38.652C37.0447 22.3751 35.7415 21.0899 35.7415 19.504V18.1928C35.7415 16.7588 35.0897 15.786 33.5493 15.786H30.7069V22.3751H30.4872C28.8799 22.3751 27.5779 21.0899 27.5779 19.504V3.58064C27.5779 1.99476 28.8799 0.709961 30.4872 0.709961H30.7069V12.7902H31.6321C32.6486 12.7902 33.3166 12.4472 33.7002 11.7984L36.3291 7.42182L39.8953 7.41832L37.7709 11.0194ZM53.9276 20.485C52.381 21.9473 50.5225 22.6801 48.3634 22.6801C46.2248 22.6801 44.3769 21.9466 42.8303 20.485C41.2789 19.0172 40.5054 17.1493 40.5054 14.8983C40.5054 10.5066 43.9051 7.11606 48.3634 7.11606C50.5036 7.11606 52.3562 7.855 53.9123 9.32745C55.4735 10.8042 56.2529 12.6667 56.2529 14.8983C56.2529 17.1493 55.479 19.0172 53.9276 20.485ZM51.6685 11.418C50.8056 10.5279 49.7104 10.0812 48.3634 10.0812C45.4832 10.0812 43.759 12.1527 43.759 14.8983C43.759 17.6058 45.5242 19.715 48.3634 19.715C51.2038 19.715 52.9682 17.6058 52.9682 14.8983C52.9682 13.4608 52.5303 12.3073 51.6685 11.418ZM20.8786 11.418C20.016 10.5279 18.9204 10.0812 17.5738 10.0812C14.6936 10.0812 12.9694 12.1527 12.9694 14.8983C12.9694 17.6058 14.7346 19.715 17.5738 19.715C20.4138 19.715 22.1782 17.6058 22.1782 14.8983C22.1782 13.4608 21.7407 12.3073 20.8786 11.418Z" fill="#42B549"/>
</g>
<defs>
<clipPath id="clip0_320_7502">
<rect width="132.71" height="28.4379" fill="white" transform="translate(0.380127 0.572266)"/>
</clipPath>
</defs>
</svg>
