<svg width="89" height="27" viewBox="0 0 89 27" fill="none" xmlns="http://www.w3.org/2000/svg">
<g clip-path="url(#clip0_320_7504)">
<path d="M24.1735 6.81859C20.8903 6.81859 18.3847 8.97045 17.3479 12.4134C15.7927 10.0894 14.6695 7.50718 13.8919 4.83887H10.3495V13.9628C10.3495 15.7704 8.88074 17.2336 7.06634 17.2336C5.25194 17.2336 3.78315 15.7704 3.78315 13.9628V4.92494H0.327148V14.0489C0.327148 17.7501 3.35115 20.8488 7.15274 20.8488C10.9543 20.8488 13.9783 17.8361 13.9783 14.0489V12.4995C14.6695 13.9628 15.5335 15.34 16.4839 16.6311L14.3239 26.7018H17.9527L19.5079 19.3855C20.8903 20.3323 22.5319 20.8488 24.2599 20.8488C28.1479 20.8488 31.2583 17.7501 31.2583 13.8767C31.1719 10.0033 28.0615 6.81859 24.1735 6.81859ZM24.1735 17.3197C22.7047 17.2336 21.3223 16.7172 20.1991 15.7704L20.4583 14.3932V14.3071C20.7175 12.8438 21.5815 10.3476 24.0871 10.3476C25.9879 10.2616 27.5431 11.8109 27.6295 13.7046C27.7159 15.5982 26.1607 17.1476 24.2599 17.2336L24.1735 17.3197Z" fill="#6FDA44"/>
<path d="M56.8327 6.81904C52.9447 6.81904 49.8343 9.91773 49.8343 13.7911C49.8343 17.6645 52.9447 20.7631 56.8327 20.7631C60.7207 20.7631 63.8311 17.6645 63.8311 13.7911C63.8311 9.91773 60.7207 6.81904 56.8327 6.81904ZM56.8327 17.9227C54.5863 17.9227 52.6855 16.1151 52.6855 13.7911C52.6855 11.4671 54.4999 9.6595 56.8327 9.6595C59.0791 9.6595 60.9799 11.4671 60.9799 13.705C60.9799 16.029 59.1655 17.9227 56.8327 17.9227ZM72.3847 10.176C70.3975 10.176 68.7559 11.8114 68.7559 13.7911V20.4188H65.7319V7.24941H68.7559V9.31521C69.6199 8.02409 71.0887 7.24941 72.6439 7.24941H73.5943V10.176H72.3847ZM41.9719 7.24941L44.2183 16.3733L46.7239 7.24941H49.6615L45.8599 20.4188H42.8359L40.5031 11.2088L38.1703 20.4188H35.1463L31.3447 7.24941H34.2823L36.7879 16.3733L39.1207 7.24941H41.9719ZM82.4071 13.2746C84.6535 12.0696 85.9495 9.74558 85.9495 7.16334H83.0119C83.0119 9.40128 81.1975 11.1228 79.0375 11.1228H78.6055V0.879883H75.5815V20.4188H78.6055V14.2215H78.9511C79.2967 14.2215 79.6423 14.3936 79.8151 14.6518L84.0487 20.4188H87.6775L82.4071 13.2746Z" fill="black"/>
</g>
<defs>
<clipPath id="clip0_320_7504">
<rect width="88.4735" height="25.8224" fill="white" transform="translate(0.327148 0.879883)"/>
</clipPath>
</defs>
</svg>
