<svg width="126" height="28" viewBox="0 0 126 28" fill="none" xmlns="http://www.w3.org/2000/svg">
<g clip-path="url(#clip0_320_7507)">
<path d="M14.0859 14.4541H26.8064V27.1574H14.0859V14.4541Z" fill="#FFB900"/>
<path d="M0.0372314 14.4541H12.7577V27.1574H0.0372314V14.4541Z" fill="#00A4EF"/>
<path d="M44.279 15.8218L43.5319 17.9355H43.4697C43.3452 17.4589 43.1169 16.7336 42.7434 15.8632L38.7384 5.81251H34.8164V21.8315H37.4103V11.9466C37.4103 11.3249 37.4103 10.6203 37.3896 9.7499C37.3688 9.31472 37.3273 8.98315 37.3066 8.73447H37.3688C37.4933 9.35616 37.6386 9.81207 37.7423 10.1022L42.5566 21.79H44.3827L49.1555 9.99858C49.2593 9.72918 49.363 9.19038 49.4668 8.73447H49.529C49.4668 9.91569 49.4253 10.9726 49.4045 11.615V21.7693H52.1644V5.77106H48.3877L44.279 15.8218ZM54.7791 10.2887H57.4768V21.7693H54.7791V10.2887ZM56.1487 5.43949C55.6921 5.43949 55.3186 5.60528 55.0074 5.8954C54.6961 6.18552 54.5301 6.55854 54.5301 7.01445C54.5301 7.44963 54.6961 7.82265 55.0074 8.11277C55.3186 8.4029 55.6921 8.54796 56.1487 8.54796C56.6052 8.54796 56.9995 8.38217 57.29 8.11277C57.6013 7.82265 57.7673 7.44963 57.7673 7.01445C57.7673 6.57926 57.6013 6.20625 57.29 5.8954C57.0202 5.60528 56.626 5.43949 56.1487 5.43949ZM67.0431 10.1851C66.545 10.0815 66.0263 10.0193 65.5282 10.0193C64.3039 10.0193 63.1833 10.2887 62.2495 10.8275C61.3157 11.3663 60.5687 12.1123 60.0914 13.0449C59.5934 13.9981 59.3444 15.0965 59.3444 16.3606C59.3444 17.4589 59.5934 18.4329 60.0707 19.324C60.5479 20.1944 61.212 20.8989 62.1043 21.3756C62.9551 21.8522 63.9511 22.1009 65.0717 22.1009C66.3583 22.1009 67.4581 21.8315 68.3297 21.3341L68.3504 21.3134V18.8266L68.2466 18.9095C67.8524 19.1996 67.3958 19.4483 66.9393 19.5934C66.462 19.7592 66.0263 19.8421 65.6527 19.8421C64.5737 19.8421 63.7229 19.5312 63.1211 18.8474C62.4986 18.1842 62.1873 17.2724 62.1873 16.1326C62.1873 14.9514 62.4986 14.0189 63.1418 13.335C63.7851 12.6511 64.6359 12.2988 65.6735 12.2988C66.545 12.2988 67.4373 12.589 68.2466 13.1692L68.3504 13.2521V10.6203L68.3297 10.5995C67.9769 10.4545 67.5826 10.2887 67.0431 10.1851ZM75.9454 10.1022C75.2813 10.1022 74.6588 10.3094 74.1192 10.7446C73.6627 11.1176 73.3514 11.6564 73.0817 12.2988H73.0609V10.2887H70.3633V21.7693H73.0609V15.9047C73.0609 14.91 73.2684 14.081 73.725 13.4801C74.1815 12.8584 74.7625 12.5475 75.4681 12.5475C75.7171 12.5475 75.9661 12.6097 76.2774 12.6511C76.5679 12.734 76.7754 12.8169 76.9207 12.9205L77.0244 13.0034V10.3094L76.9622 10.2887C76.7754 10.1644 76.4019 10.1022 75.9454 10.1022ZM83.2913 10.04C81.4029 10.04 79.8881 10.5995 78.8298 11.6979C77.7507 12.7962 77.2319 14.309 77.2319 16.2155C77.2319 17.9977 77.7715 19.4483 78.809 20.5052C79.8466 21.5414 81.2577 22.0802 83.0215 22.0802C84.8684 22.0802 86.3417 21.5206 87.4 20.4016C88.4791 19.2825 88.9979 17.7905 88.9979 15.9461C88.9979 14.1225 88.4998 12.6719 87.483 11.615C86.5077 10.5581 85.0759 10.04 83.2913 10.04ZM85.4494 18.8681C84.9514 19.5105 84.1628 19.8213 83.1875 19.8213C82.2122 19.8213 81.4237 19.5105 80.8634 18.8266C80.3031 18.1842 80.0333 17.2517 80.0333 16.0705C80.0333 14.8478 80.3239 13.9152 80.8634 13.2521C81.4237 12.589 82.1915 12.2574 83.1668 12.2574C84.1213 12.2574 84.8684 12.5682 85.4079 13.2107C85.9474 13.8531 86.238 14.7856 86.238 16.0083C86.1965 17.2517 85.9682 18.2257 85.4494 18.8681ZM95.0157 15.055C94.1649 14.7027 93.6254 14.4333 93.3764 14.2054C93.1689 13.9981 93.0651 13.708 93.0651 13.335C93.0651 13.0242 93.1896 12.7133 93.5009 12.5061C93.8122 12.2988 94.1649 12.1952 94.6837 12.1952C95.1402 12.1952 95.6175 12.2781 96.074 12.4025C96.5306 12.5268 96.9456 12.7133 97.2776 12.962L97.3814 13.0449V10.5167L97.3191 10.4959C97.0079 10.3716 96.5928 10.2473 96.0948 10.1436C95.5968 10.0607 95.1402 10.0193 94.7667 10.0193C93.4801 10.0193 92.4218 10.3301 91.5918 11.014C90.7617 11.6564 90.3675 12.5268 90.3675 13.5422C90.3675 14.081 90.4505 14.5577 90.6372 14.9514C90.824 15.3451 91.0938 15.7182 91.4673 16.029C91.8408 16.3191 92.3803 16.6507 93.1274 16.9615C93.7499 17.2309 94.2272 17.4382 94.5177 17.604C94.8082 17.7698 94.995 17.9563 95.1402 18.1013C95.244 18.2671 95.3063 18.4743 95.3063 18.7437C95.3063 19.5105 94.7252 19.8835 93.5424 19.8835C93.0859 19.8835 92.6086 19.8006 92.0483 19.6141C91.488 19.4276 90.9692 19.1582 90.5335 18.8474L90.4297 18.7645V21.3963L90.492 21.417C90.8862 21.6035 91.3635 21.7279 91.9446 21.8729C92.5256 21.9765 93.0444 22.0594 93.5009 22.0594C94.8912 22.0594 96.0325 21.7486 96.8418 21.0647C97.6719 20.4016 98.1077 19.5519 98.1077 18.4536C98.1077 17.6869 97.9002 17.003 97.4436 16.4849C96.8418 15.9876 96.0948 15.4695 95.0157 15.055ZM105.225 10.04C103.337 10.04 101.822 10.5995 100.764 11.6979C99.7055 12.7962 99.166 14.309 99.166 16.2155C99.166 17.9977 99.7055 19.4483 100.743 20.5052C101.781 21.5414 103.192 22.0802 104.956 22.0802C106.802 22.0802 108.276 21.5206 109.334 20.4016C110.413 19.2825 110.932 17.7905 110.932 15.9461C110.932 14.1225 110.434 12.6719 109.417 11.615C108.442 10.5581 107.01 10.04 105.225 10.04ZM107.363 18.8681C106.865 19.5105 106.076 19.8213 105.101 19.8213C104.105 19.8213 103.337 19.5105 102.777 18.8266C102.216 18.1842 101.947 17.2517 101.947 16.0705C101.947 14.8478 102.237 13.9152 102.777 13.2521C103.337 12.589 104.105 12.2574 105.08 12.2574C106.014 12.2574 106.782 12.5682 107.321 13.2107C107.861 13.8531 108.151 14.7856 108.151 16.0083C108.151 17.2517 107.882 18.2257 107.363 18.8681ZM125.354 12.5061V10.2887H122.636V6.89011L122.553 6.91083L119.979 7.67759L119.917 7.69831V10.2887H115.85V8.83808C115.85 8.17494 116.016 7.65687 116.307 7.3253C116.597 6.99373 117.033 6.82794 117.572 6.82794C117.946 6.82794 118.34 6.91083 118.776 7.09734L118.88 7.15951V4.8178L118.817 4.79707C118.444 4.67274 117.946 4.58984 117.303 4.58984C116.493 4.58984 115.788 4.77635 115.144 5.0872C114.501 5.43949 114.024 5.91612 113.671 6.55854C113.318 7.18023 113.132 7.88482 113.132 8.69302V10.2887H111.243V12.4854H113.132V21.7693H115.85V12.5061H119.917V18.4122C119.917 20.8368 121.059 22.0594 123.341 22.0594C123.715 22.0594 124.109 21.9973 124.482 21.9351C124.877 21.8522 125.167 21.7486 125.333 21.6657L125.354 21.645V19.4276L125.25 19.5105C125.084 19.6141 124.939 19.697 124.69 19.7592C124.482 19.8213 124.296 19.8421 124.15 19.8421C123.611 19.8421 123.237 19.7177 122.968 19.4069C122.719 19.1168 122.594 18.6401 122.594 17.9355V12.5061H125.354Z" fill="#737373"/>
<path d="M14.0859 0.424805H26.8064V13.1281H14.0859V0.424805Z" fill="#7FBA00"/>
<path d="M0.0373535 0.424805H12.7579V13.1281H0.0373535V0.424805Z" fill="#F25022"/>
</g>
<defs>
<clipPath id="clip0_320_7507">
<rect width="125.337" height="26.7328" fill="white" transform="translate(0.0373535 0.424805)"/>
</clipPath>
</defs>
</svg>
