<svg width="109" height="35" viewBox="0 0 109 35" fill="none" xmlns="http://www.w3.org/2000/svg">
<g clip-path="url(#clip0_320_7513)">
<path d="M23.6995 7.93601C23.6819 7.77819 23.5415 7.70806 23.4361 7.70806C23.3308 7.70806 21.0308 7.5327 21.0308 7.5327C21.0308 7.5327 19.4331 5.93698 19.2399 5.77916C19.0643 5.60381 18.7308 5.65641 18.5903 5.69148C18.5727 5.69148 18.2392 5.7967 17.6949 5.97205C17.1506 4.4114 16.2201 2.99103 14.5521 2.99103H14.3941C13.9376 2.39482 13.3406 2.11426 12.849 2.11426C8.98642 2.11426 7.12534 6.9365 6.54594 9.39146C5.03601 9.86491 3.96501 10.1805 3.84211 10.2332C2.99935 10.4962 2.9818 10.5137 2.87645 11.3028C2.78867 11.899 0.593994 28.8558 0.593994 28.8558L17.6773 32.0472L26.9476 30.0482C26.9652 30.0131 23.7171 8.09383 23.6995 7.93601ZM16.7468 6.21754C16.3254 6.34029 15.8162 6.49811 15.3071 6.67347V6.35783C15.3071 5.41091 15.1842 4.63936 14.9559 4.02562C15.8338 4.13083 16.3781 5.09528 16.7468 6.21754ZM13.8849 4.21851C14.1132 4.81471 14.2712 5.65641 14.2712 6.81375V6.9891C13.3231 7.2872 12.3223 7.5853 11.2864 7.91848C11.8658 5.70901 12.9719 4.62182 13.8849 4.21851ZM12.7613 3.13131C12.9368 3.13131 13.1124 3.20145 13.2529 3.30666C12.0063 3.88533 10.6895 5.34077 10.1452 8.28672C9.32001 8.54975 8.52992 8.77772 7.77496 9.02321C8.40702 6.77868 9.98719 3.13131 12.7613 3.13131Z" fill="#95BF47"/>
<path d="M14.5522 12.7934L13.4285 16.1777C13.4285 16.1777 12.4102 15.6341 11.1987 15.6341C9.39029 15.6341 9.3025 16.7739 9.3025 17.0545C9.3025 18.5976 13.3407 19.1938 13.3407 22.8236C13.3407 25.6819 11.5323 27.5231 9.09181 27.5231C6.14218 27.5231 4.66736 25.6994 4.66736 25.6994L5.45744 23.1042C5.45744 23.1042 7.00249 24.4369 8.30173 24.4369C9.16204 24.4369 9.51319 23.7705 9.51319 23.2795C9.51319 21.263 6.21241 21.1753 6.21241 17.8436C6.21241 15.0554 8.21395 12.355 12.2697 12.355C13.7796 12.3374 14.5522 12.7934 14.5522 12.7934Z" fill="white"/>
<path d="M37.7631 19.1586C36.8325 18.6676 36.3585 18.2292 36.3585 17.6505C36.3585 16.914 37.0257 16.4406 38.0616 16.4406C39.273 16.4406 40.344 16.9316 40.344 16.9316L41.1868 14.3538C41.1868 14.3538 40.4143 13.7576 38.1318 13.7576C34.9539 13.7576 32.7417 15.5813 32.7417 18.1415C32.7417 19.5969 33.7776 20.7017 35.147 21.4908C36.2707 22.1045 36.657 22.5604 36.657 23.2268C36.657 23.9107 36.0951 24.4718 35.0593 24.4718C33.5318 24.4718 32.0745 23.6827 32.0745 23.6827L31.1791 26.2604C31.1791 26.2604 32.5134 27.1547 34.7608 27.1547C38.0264 27.1547 40.3967 25.5414 40.3967 22.6481C40.3616 21.0699 39.1852 19.9827 37.7631 19.1586ZM50.7907 13.7226C49.1754 13.7226 47.9112 14.4941 46.9456 15.6515L46.9105 15.6339L48.3151 8.3392H44.6807L41.1341 26.9267H44.7685L45.9799 20.5789C46.454 18.1766 47.7006 16.6861 48.8593 16.6861C49.6845 16.6861 50.0006 17.2472 50.0006 18.0363C50.0006 18.5273 49.9655 19.1586 49.8426 19.6495L48.4731 26.9267H52.1075L53.5296 19.4216C53.6876 18.6325 53.793 17.6856 53.793 17.0368C53.7754 14.9501 52.7044 13.7226 50.7907 13.7226ZM62.0098 13.7226C57.6205 13.7226 54.7235 17.668 54.7235 22.0694C54.7235 24.8751 56.4617 27.1547 59.7274 27.1547C64.0289 27.1547 66.9259 23.3144 66.9259 18.8078C66.9434 16.1951 65.4335 13.7226 62.0098 13.7226ZM60.219 24.3841C58.9724 24.3841 58.4632 23.332 58.4632 21.9993C58.4632 19.9126 59.5342 16.5282 61.5182 16.5282C62.7999 16.5282 63.2388 17.6505 63.2388 18.7202C63.2388 20.9472 62.1327 24.3841 60.219 24.3841ZM76.2488 13.7226C73.7908 13.7226 72.4038 15.897 72.4038 15.897H72.3687L72.5793 13.9505H69.3488C69.1908 15.2657 68.8923 17.2823 68.6114 18.7728L66.1007 32.0822H69.7351L70.7534 26.6988H70.8412C70.8412 26.6988 71.5961 27.1722 72.9656 27.1722C77.2496 27.1722 80.0412 22.7884 80.0412 18.3695C80.0237 15.9145 78.9176 13.7226 76.2488 13.7226ZM72.7725 24.4192C71.8244 24.4192 71.2625 23.8756 71.2625 23.8756L71.8595 20.4912C72.2809 18.2116 73.4748 16.7211 74.7389 16.7211C75.8626 16.7211 76.1962 17.7557 76.1962 18.7202C76.2137 21.0699 74.8091 24.4192 72.7725 24.4192ZM85.2206 8.51456C84.0619 8.51456 83.1313 9.44393 83.1313 10.6188C83.1313 11.6885 83.8161 12.4425 84.8519 12.4425H84.8871C86.0283 12.4425 86.9939 11.6709 87.0115 10.3382C87.0291 9.26858 86.3092 8.51456 85.2206 8.51456ZM80.129 26.9092H83.7634L86.2214 14.0031H82.5695L80.129 26.9092ZM95.4917 13.9856H92.9634L93.0864 13.3894C93.297 12.1444 94.0344 11.0572 95.2635 11.0572C95.9131 11.0572 96.4222 11.2501 96.4222 11.2501L97.1245 8.39181C97.1245 8.39181 96.51 8.07617 95.1406 8.07617C93.8589 8.07617 92.5596 8.44441 91.5764 9.28611C90.3298 10.3382 89.7505 11.8638 89.4695 13.4069L89.3642 14.0031H87.6611L87.1168 16.7562H88.8199L86.8886 26.9267H90.523L92.4543 16.7562H94.965L95.4917 13.9856ZM104.253 14.0031C104.253 14.0031 101.97 19.7372 100.97 22.8761H100.934C100.864 21.859 100.039 14.0031 100.039 14.0031H96.2116L98.4062 25.822C98.4413 26.085 98.4238 26.2429 98.3184 26.4182C97.8971 27.2424 97.1772 28.0315 96.3345 28.6101C95.6497 29.1011 94.8772 29.4343 94.2627 29.6447L95.281 32.731C96.0184 32.5731 97.5635 31.9594 98.8452 30.7495C100.496 29.2063 102.041 26.804 103.621 23.5424L108.063 13.9856H104.253V14.0031Z" fill="black"/>
<path d="M23.4361 7.67278C23.3308 7.67278 21.0308 7.49743 21.0308 7.49743C21.0308 7.49743 19.433 5.9017 19.2399 5.74389C19.1697 5.67374 19.0819 5.63867 19.0117 5.63867L17.73 32.047L27.0003 30.048C27.0003 30.048 23.7522 8.09363 23.7346 7.93581C23.6644 7.77799 23.5415 7.70785 23.4361 7.67278Z" fill="#5E8E3E"/>
</g>
<defs>
<clipPath id="clip0_320_7513">
<rect width="107.451" height="33.668" fill="white" transform="translate(0.611694 0.957031)"/>
</clipPath>
</defs>
</svg>
