<svg width="104" height="50" viewBox="0 0 104 50" fill="none" xmlns="http://www.w3.org/2000/svg">
<path d="M55.1131 15.5283H49.5856V34.8481H55.1131V15.5283Z" fill="#32325D"/>
<path fill-rule="evenodd" clip-rule="evenodd" d="M43.6614 17.1619L43.3091 15.528H38.5522V34.8478H44.0578V21.7545C45.3571 20.0544 47.5594 20.3635 48.2421 20.6064V15.528C47.5373 15.2631 44.9607 14.7773 43.6614 17.1619Z" fill="#32325D"/>
<path fill-rule="evenodd" clip-rule="evenodd" d="M91.4719 25.2658C91.4719 19.6134 88.7412 15.1533 83.5219 15.1533C78.2806 15.1533 75.1094 19.6134 75.1094 25.2217C75.1094 31.8677 78.8532 35.2238 84.2266 35.2238C86.8473 35.2238 88.8293 34.6276 90.3268 33.7886V29.3727C88.8293 30.1234 87.1115 30.587 84.9313 30.587C82.7951 30.587 80.9012 29.8363 80.659 27.2309H91.4279C91.4279 26.9439 91.4719 25.7957 91.4719 25.2658ZM80.5929 23.1683C80.5929 20.6732 82.1125 19.6355 83.4999 19.6355C84.8432 19.6355 86.2747 20.6732 86.2747 23.1683H80.5929Z" fill="#32325D"/>
<path fill-rule="evenodd" clip-rule="evenodd" d="M66.6088 15.1533C64.4506 15.1533 63.0632 16.169 62.2924 16.8755L62.0062 15.5066H57.1613V41.2515L62.6668 40.0813L62.6888 33.8327C63.4817 34.4068 64.6488 35.2238 66.5868 35.2238C70.5288 35.2238 74.1184 32.0443 74.1184 25.045C74.0964 18.6419 70.4627 15.1533 66.6088 15.1533ZM65.2875 30.3662C63.9882 30.3662 63.2174 29.9026 62.6888 29.3285L62.6668 21.1369C63.2394 20.4966 64.0322 20.055 65.2875 20.055C67.2915 20.055 68.6789 22.3071 68.6789 25.1996C68.6789 28.1583 67.3135 30.3662 65.2875 30.3662Z" fill="#32325D"/>
<path fill-rule="evenodd" clip-rule="evenodd" d="M17.7633 21.1369C17.7633 20.2758 18.468 19.9446 19.6352 19.9446C21.3089 19.9446 23.423 20.4524 25.0967 21.3577V16.169C23.2689 15.4404 21.463 15.1533 19.6352 15.1533C15.1647 15.1533 12.1917 17.4938 12.1917 21.4019C12.1917 27.4959 20.5601 26.5244 20.5601 29.1518C20.5601 30.1675 19.6792 30.4987 18.446 30.4987C16.6181 30.4987 14.2838 29.748 12.4339 28.7323V33.9873C14.482 34.8705 16.5521 35.2458 18.446 35.2458C23.0266 35.2458 26.1758 32.9716 26.1758 29.0194C26.1538 22.4396 17.7633 23.6098 17.7633 21.1369Z" fill="#32325D"/>
<path fill-rule="evenodd" clip-rule="evenodd" d="M32.6505 10.7373L27.277 11.8854L27.255 29.5713C27.255 32.8391 29.6995 35.2458 32.9588 35.2458C34.7646 35.2458 36.0859 34.9146 36.8127 34.5171V30.035C36.108 30.322 32.6284 31.3377 32.6284 28.0699V20.2316H36.8127V15.5286H32.6284L32.6505 10.7373Z" fill="#32325D"/>
<path fill-rule="evenodd" clip-rule="evenodd" d="M49.5856 13.8503L55.1131 12.658V8.17578L49.5856 9.34601V13.8503Z" fill="#32325D"/>
</svg>
