<?xml version="1.0" encoding="iso-8859-1"?>
<!-- Generator: Adobe Illustrator 19.0.0, SVG Export Plug-In . SVG Version: 6.00 Build 0)  -->
<svg version="1.1" id="Layer_1" xmlns="http://www.w3.org/2000/svg" xmlns:xlink="http://www.w3.org/1999/xlink" x="0px" y="0px"
	 viewBox="0 0 512 512" style="enable-background:new 0 0 512 512;" xml:space="preserve">
<g>
	<g>
		<polygon points="107.995,143.298 107.995,211.809 123.684,211.809 123.684,158.988 388.315,158.988 388.315,211.809 
			404.004,211.809 404.004,143.298 		"/>
	</g>
</g>
<g>
	<g>
		<path d="M428.585,232.206H83.414v15.69h25.165c5.276,59.989,46.487,109.815,101.922,127.765v50.05h37.655V512h15.69v-86.29H301.5
			v-32.948h-15.69v17.259h-59.62v-30.212c9.631,1.978,19.602,3.017,29.81,3.017c77.204,0,140.779-59.422,147.42-134.93h25.165
			v-15.69H428.585z M255.999,367.136c-68.547,0-125.083-52.396-131.67-119.241h263.339
			C381.082,314.74,324.547,367.136,255.999,367.136z"/>
	</g>
</g>
<g>
	<g>
		<rect x="163.956" y="203.964" width="184.091" height="15.69"/>
	</g>
</g>
<g>
	<g>
		<polygon points="169.707,119.241 169.707,15.69 192.718,15.69 192.718,105.12 208.408,105.12 208.408,0 154.017,0 
			154.017,119.241 138.851,119.241 138.851,134.93 223.574,134.93 223.574,119.241 		"/>
	</g>
</g>
<g>
	<g>
		<polygon points="319.281,119.241 319.281,15.69 342.292,15.69 342.292,105.12 357.982,105.12 357.982,0 303.591,0 
			303.591,119.241 288.425,119.241 288.425,134.93 373.148,134.93 373.148,119.241 		"/>
	</g>
</g>
<g>
</g>
<g>
</g>
<g>
</g>
<g>
</g>
<g>
</g>
<g>
</g>
<g>
</g>
<g>
</g>
<g>
</g>
<g>
</g>
<g>
</g>
<g>
</g>
<g>
</g>
<g>
</g>
<g>
</g>
</svg>
