<?xml version="1.0" encoding="iso-8859-1"?>
<!-- Generator: Adobe Illustrator 16.0.0, SVG Export Plug-In . SVG Version: 6.00 Build 0)  -->
<!DOCTYPE svg PUBLIC "-//W3C//DTD SVG 1.1//EN" "http://www.w3.org/Graphics/SVG/1.1/DTD/svg11.dtd">
<svg version="1.1" id="Capa_1" xmlns="http://www.w3.org/2000/svg" xmlns:xlink="http://www.w3.org/1999/xlink" x="0px" y="0px"
	 width="545.865px" height="545.865px" viewBox="0 0 545.865 545.865" style="enable-background:new 0 0 545.865 545.865;"
	 xml:space="preserve">
<g>
	<g>
		<path d="M339.272,471.25c22.166,0,40.201-18.025,40.201-40.191V113.067c0-22.166-18.035-40.201-40.201-40.201h-132.68
			c-22.156,0-40.191,18.035-40.191,40.191v318.001c0,22.156,18.025,40.191,40.191,40.191H339.272z M173.574,431.068V113.058
			c0-18.207,14.812-33.02,33.019-33.02h132.689c18.207,0,33.029,14.812,33.029,33.029v318.001c0,18.207-14.812,33.02-33.029,33.02
			H206.593C188.386,464.078,173.574,449.266,173.574,431.068z"/>
		<path d="M342.304,545.865c38.375,0,69.596-31.221,69.596-69.596V69.605C411.899,31.231,380.679,0,342.304,0H203.562
			c-38.375,0-69.596,31.222-69.596,69.596V476.26c0,38.375,31.221,69.596,69.596,69.596h138.742V545.865z M148.3,476.26V69.596
			c0-30.466,24.786-55.252,55.252-55.252h138.742c30.467,0,55.252,24.795,55.252,55.262V476.26
			c0,30.467-24.785,55.252-55.252,55.252H203.562C173.095,531.521,148.3,506.727,148.3,476.26z"/>
		<path d="M360.491,408.902V121.492c0-1.979-1.605-3.586-3.586-3.586H188.95c-1.979,0-3.586,1.606-3.586,3.586v287.411
			c0,1.979,1.606,3.586,3.586,3.586h167.955C358.886,412.488,360.491,410.881,360.491,408.902z M343.757,405.316H202.099
			c-5.279,0-9.562-4.285-9.562-9.562V134.64c0-5.278,4.284-9.562,9.562-9.562h141.658c5.279,0,9.562,4.284,9.562,9.562v261.114
			C353.319,401.041,349.036,405.316,343.757,405.316z"/>
		<path d="M287.808,47.545c-5.068,0-9.189,2.62-9.189,5.852c0,3.232,4.283,5.853,9.562,5.853h16.801
			c5.278,0,8.166-4.428,3.758-7.334c-0.86-0.564-1.76-1.071-2.658-1.501C301.338,48.1,292.885,47.545,287.808,47.545z"/>
		<path d="M261.252,47.545c-3.825,0-7.239,0-9.782,0c-5.499,0-10.098,2.324-13.512,4.896c-4.217,3.184-2.372,6.809,2.917,6.809
			h20.377c5.279,0,9.562-2.62,9.562-5.853C270.814,50.165,266.531,47.545,261.252,47.545z"/>
	</g>
</g>
<g>
</g>
<g>
</g>
<g>
</g>
<g>
</g>
<g>
</g>
<g>
</g>
<g>
</g>
<g>
</g>
<g>
</g>
<g>
</g>
<g>
</g>
<g>
</g>
<g>
</g>
<g>
</g>
<g>
</g>
</svg>
