<?xml version="1.0" encoding="iso-8859-1"?>
<!-- Generator: Adobe Illustrator 19.0.0, SVG Export Plug-In . SVG Version: 6.00 Build 0)  -->
<svg version="1.1" id="Layer_1" xmlns="http://www.w3.org/2000/svg" xmlns:xlink="http://www.w3.org/1999/xlink" x="0px" y="0px"
	 viewBox="0 0 197.595 197.595" style="enable-background:new 0 0 197.595 197.595;" xml:space="preserve">
<g>
	<g>
		<g>
			<path d="M161.198,111.917V54.964v-3.548v-33.89c0-8.85-7.198-16.05-16.046-16.05c-8.848,0-16.046,7.2-16.046,16.05v33.889v3.548
				v56.954c-17.168,6.56-28.526,22.866-28.526,41.36c0,24.436,19.995,44.318,44.573,44.318s44.573-19.882,44.573-44.318
				C189.724,134.783,178.365,118.478,161.198,111.917z M136.237,30.003h7.132c1.969,0,3.566-1.597,3.566-3.566
				s-1.597-3.566-3.566-3.566h-7.132v-5.346c0-4.916,3.999-8.917,8.914-8.917s8.915,4.001,8.915,8.918v30.306h-17.829V30.003z
				 M145.151,190.465c-20.645,0-37.441-16.682-37.441-37.187c0-16.252,10.464-30.491,26.038-35.432
				c1.482-0.47,2.488-1.844,2.488-3.399v-9.562h7.132c1.969,0,3.566-1.597,3.566-3.566s-1.597-3.566-3.566-3.566h-7.132V79.925
				h7.132c1.969,0,3.566-1.597,3.566-3.566s-1.597-3.566-3.566-3.566h-7.132V54.981h17.829v59.466c0,1.555,1.006,2.929,2.488,3.399
				c15.574,4.941,26.038,19.18,26.038,35.432C182.592,173.783,165.796,190.465,145.151,190.465z"/>
			<path d="M39.96,8.608c-17.695,0-32.092,14.398-32.092,32.093S22.265,72.793,39.96,72.793c17.695,0,32.092-14.397,32.092-32.092
				S57.655,8.608,39.96,8.608z M39.96,65.661c-13.764,0-24.961-11.197-24.961-24.961c0-13.764,11.197-24.96,24.961-24.96
				c13.764,0,24.961,11.197,24.961,24.961C64.921,54.465,53.724,65.661,39.96,65.661z"/>
			<path d="M93.447,37.135H79.184c-1.969,0-3.566,1.597-3.566,3.566s1.597,3.566,3.566,3.566h14.263
				c1.969,0,3.566-1.597,3.566-3.566S95.416,37.135,93.447,37.135z"/>
			<path d="M39.96,76.359c-1.969,0-3.566,1.597-3.566,3.566v14.263c0,1.969,1.597,3.566,3.566,3.566
				c1.969,0,3.566-1.597,3.566-3.566V79.925C43.526,77.955,41.929,76.359,39.96,76.359z"/>
			<path d="M72.141,65.229c-1.393-1.393-3.649-1.393-5.042,0c-1.393,1.391-1.393,3.649,0,5.042l10.084,10.086
				c0.696,0.696,1.609,1.045,2.521,1.045s1.825-0.348,2.521-1.045c1.393-1.391,1.393-3.649,0-5.042L72.141,65.229z"/>
			<path d="M69.62,17.218c0.912,0,1.825-0.348,2.521-1.045L82.226,6.087c1.393-1.393,1.393-3.651,0-5.042
				c-1.393-1.393-3.649-1.393-5.042,0L67.099,11.131c-1.393,1.393-1.393,3.651,0,5.042C67.796,16.87,68.708,17.218,69.62,17.218z"/>
		</g>
	</g>
</g>
<g>
</g>
<g>
</g>
<g>
</g>
<g>
</g>
<g>
</g>
<g>
</g>
<g>
</g>
<g>
</g>
<g>
</g>
<g>
</g>
<g>
</g>
<g>
</g>
<g>
</g>
<g>
</g>
<g>
</g>
</svg>
