<svg width="512" height="512" viewBox="0 0 512 512" fill="none" xmlns="http://www.w3.org/2000/svg">
<path fill-rule="evenodd" clip-rule="evenodd" d="M255.971 495.432C387.866 495.432 495.435 387.869 495.435 255.973C495.435 124.079 387.866 16.569 255.971 16.569C124.133 16.569 16.5664 124.08 16.5664 255.973C16.5654 387.869 124.133 495.432 255.971 495.432Z" fill="#72AC47"/>
<path fill-rule="evenodd" clip-rule="evenodd" d="M153.505 472.453C72.5644 434.057 16.5664 351.543 16.5664 255.973C16.5664 226.659 21.8364 198.576 31.4774 172.619L214.828 88.204L259.28 479.797L153.505 472.453Z" fill="#72AC47"/>
<path fill-rule="evenodd" clip-rule="evenodd" d="M213.818 264.828C244.256 264.828 274.75 264.828 305.242 264.828C305.242 270.267 305.242 275.646 305.242 281.084C293.584 294.48 279.177 311.746 259.615 317.016C240.275 310.85 225.983 294.37 213.818 281.084C213.818 275.646 213.818 270.268 213.818 264.828Z" fill="#DEDEDE"/>
<path fill-rule="evenodd" clip-rule="evenodd" d="M213.818 264.828H305.242C274.862 313.988 242.742 312.979 213.818 264.828Z" fill="#C0C0C0"/>
<path fill-rule="evenodd" clip-rule="evenodd" d="M217.52 145.098C278.507 105.47 318.025 106.645 324.92 173.519C329.514 184.672 325.479 200.311 324.244 213.373C304.012 317.575 219.986 328.116 196.556 217.746C194.146 203.899 192.912 189.551 193.247 175.703C200.423 165.223 210.345 155.636 217.52 145.098Z" fill="#DEDEDE"/>
<path d="M218.359 193.92C228.393 191.511 243.471 192.745 247.62 195.772C249.189 197.062 250.31 198.742 250.478 201.042C250.703 201.042 250.926 201.042 251.152 201.042C250.87 209.281 247.675 213.542 244.593 217.969C238.034 226.152 217.35 222.79 212.081 217.129C205.132 207.149 206.028 197.397 218.359 193.92Z" stroke="#AAD8B0" stroke-width="0.4819" stroke-miterlimit="10"/>
<path d="M303.115 193.92C292.912 191.511 277.552 192.689 273.347 195.772C271.724 197.062 270.602 198.742 270.433 201.042C270.207 201.042 269.985 201.042 269.762 201.042C270.041 209.281 273.293 213.542 276.432 217.969C283.102 226.152 304.123 222.79 309.503 217.129C316.624 207.149 315.669 197.397 303.115 193.92Z" stroke="#AAD8B0" stroke-width="0.4819" stroke-miterlimit="10"/>
<path fill-rule="evenodd" clip-rule="evenodd" d="M196.778 196.724C203.392 193.306 211.071 191.737 218.864 190.502C230.69 188.653 241.901 189.214 252.16 193.528C254.121 194.48 254.738 200.141 251.88 200.927C251.543 201.04 250.926 201.04 250.478 201.04C249.806 195.435 245.097 194.031 239.661 193.305C229.85 191.958 219.257 192.296 212.924 196.275C208.998 198.966 207.318 202.553 207.821 206.98C206.028 206.98 204.291 206.98 202.497 206.98C201.432 206.363 200.647 202.441 200.087 201.993C199.078 201.266 197.788 201.21 196.556 201.097L193.865 200.702L193.698 196.501L196.778 196.724Z" fill="#545454"/>
<path fill-rule="evenodd" clip-rule="evenodd" d="M325.76 196.893C318.975 193.472 310.346 191.737 302.386 190.502C290.39 188.653 279.012 189.214 268.529 193.528C266.511 194.48 265.894 200.141 268.808 200.927C269.2 201.04 269.82 201.04 270.265 201.04C270.882 195.435 275.703 194.031 281.308 193.305C291.23 191.958 301.995 192.296 308.439 196.275C312.477 198.966 314.157 202.553 313.652 206.98C315.447 206.98 317.239 206.98 319.031 206.98C320.156 206.363 320.939 202.441 321.5 201.993C322.565 201.266 323.966 201.21 325.254 201.097C325.534 199.807 325.816 198.35 325.76 196.893Z" fill="#545454"/>
<path fill-rule="evenodd" clip-rule="evenodd" d="M253.784 196.555C258.045 195.436 262.362 195.436 266.846 196.555C266.846 197.116 266.846 197.676 266.846 198.238C262.754 197.007 258.382 197.116 253.784 198.181C253.784 197.62 253.784 197.115 253.784 196.555Z" fill="#545454"/>
<path fill-rule="evenodd" clip-rule="evenodd" d="M273.011 182.767C290.22 174.246 305.355 176.32 318.303 189.55C303.506 181.701 288.371 181.532 273.011 189.55C270.041 191.176 269.032 185.066 273.011 182.767Z" fill="#4C4C4C"/>
<path fill-rule="evenodd" clip-rule="evenodd" d="M246.273 182.767C229.122 174.246 213.987 176.32 201.039 189.55C215.836 181.701 230.914 181.532 246.273 189.55C249.245 191.176 250.31 185.066 246.273 182.767Z" fill="#4C4C4C"/>
<path fill-rule="evenodd" clip-rule="evenodd" d="M253.953 240.781C257.43 241.119 260.232 242.633 261.802 244.202C264.772 242.241 267.238 241.063 269.875 240.95L253.953 240.781ZM272.171 240.276C273.572 240.276 274.75 240.781 274.75 241.455C274.75 242.128 273.572 242.688 272.171 242.688C270.771 242.688 269.593 242.127 269.593 241.455C269.593 241.342 269.65 241.232 269.706 241.119C269.762 241.063 269.818 241.007 269.875 240.95C270.264 240.502 271.162 240.276 272.171 240.276ZM251.486 239.941C252.664 239.941 253.673 240.276 253.953 240.781L254.009 240.893C254.065 240.95 254.065 241.063 254.065 241.119C254.065 241.79 252.945 242.35 251.487 242.35C250.087 242.35 248.91 241.789 248.91 241.119C248.909 240.446 250.086 239.941 251.486 239.941Z" fill="#C0C0C0"/>
<path fill-rule="evenodd" clip-rule="evenodd" d="M235.119 259.225C240.219 259.616 244.199 261.467 249.301 261.633C256.476 261.86 262.811 262.531 270.376 261.86C274.919 261.411 280.689 259.672 285.007 259.393C280.075 260.063 275.367 262.532 270.433 263.204C263.484 263.878 256.252 263.372 249.301 262.925C244.593 262.193 239.884 259.953 235.119 259.225Z" fill="#C0C0C0"/>
<path fill-rule="evenodd" clip-rule="evenodd" d="M245.825 262.98C249.805 264.267 251.599 265.445 255.804 266.341C259.223 266.788 262.645 266.845 265.95 266.341C269.985 265.614 271.89 264.267 275.591 263.089C272.006 264.997 270.154 267.015 266.173 268.583C262.698 268.976 259.224 269.144 255.525 268.583C251.432 266.902 249.637 265.055 245.825 262.98Z" fill="#C0C0C0"/>
<path fill-rule="evenodd" clip-rule="evenodd" d="M274.411 200.702C286.633 190.84 298.236 191.623 309.28 200.702C298.236 209.729 286.633 210.512 274.411 200.702Z" fill="white"/>
<path fill-rule="evenodd" clip-rule="evenodd" d="M297.564 194.202C298.742 195.546 299.468 197.284 299.468 199.246C299.468 203.45 296.05 206.814 291.846 206.814C287.642 206.814 284.224 203.45 284.224 199.246C284.224 197.341 284.951 195.602 286.128 194.258C289.995 193.415 293.808 193.415 297.564 194.202Z" fill="#A9A9A9"/>
<path fill-rule="evenodd" clip-rule="evenodd" d="M291.846 194.258C294.593 194.258 296.836 196.501 296.836 199.246C296.836 202.05 294.593 204.236 291.846 204.236C289.099 204.236 286.856 202.049 286.856 199.246C286.855 196.501 289.099 194.258 291.846 194.258Z" fill="#505050"/>
<path fill-rule="evenodd" clip-rule="evenodd" d="M293.92 195.041C294.763 195.041 295.433 195.715 295.433 196.555C295.433 197.398 294.763 198.068 293.92 198.068C293.08 198.068 292.406 197.398 292.406 196.555C292.406 195.715 293.08 195.041 293.92 195.041Z" fill="#FEFEFE"/>
<path fill-rule="evenodd" clip-rule="evenodd" d="M212.361 200.702C224.525 190.84 236.183 191.623 247.171 200.702C236.184 209.729 224.525 210.512 212.361 200.702Z" fill="white"/>
<path fill-rule="evenodd" clip-rule="evenodd" d="M235.456 194.202C236.635 195.546 237.361 197.284 237.361 199.246C237.361 203.45 233.943 206.814 229.796 206.814C225.591 206.814 222.172 203.45 222.172 199.246C222.172 197.341 222.845 195.602 224.022 194.258C227.889 193.415 231.7 193.415 235.456 194.202Z" fill="#A9A9A9"/>
<path fill-rule="evenodd" clip-rule="evenodd" d="M229.796 194.258C232.541 194.258 234.729 196.501 234.729 199.246C234.729 202.05 232.541 204.236 229.796 204.236C226.993 204.236 224.807 202.049 224.807 199.246C224.807 196.501 226.993 194.258 229.796 194.258Z" fill="#505050"/>
<path fill-rule="evenodd" clip-rule="evenodd" d="M231.756 195.041C232.597 195.041 233.271 195.715 233.271 196.555C233.271 197.398 232.597 198.068 231.756 198.068C230.914 198.068 230.242 197.398 230.242 196.555C230.242 195.715 230.914 195.041 231.756 195.041Z" fill="#FEFEFE"/>
<path fill-rule="evenodd" clip-rule="evenodd" d="M326.993 189.324L333.381 189.045L331.812 216.399C335.176 238.764 319.707 232.038 321.442 225.873L326.993 189.324Z" fill="#D2D2D2"/>
<path fill-rule="evenodd" clip-rule="evenodd" d="M191.733 189.324L184.951 189.38L188.202 216.568C185.848 239.102 201.039 231.646 198.966 225.593L191.733 189.324Z" fill="#D2D2D2"/>
<path fill-rule="evenodd" clip-rule="evenodd" d="M213.818 272.229C223.235 290.782 237.922 305.524 257.989 316.959C233.157 321.051 216.676 331.699 209.614 350.424C203.616 324.359 203.562 298.293 213.818 272.229Z" fill="#F3F3F3"/>
<path fill-rule="evenodd" clip-rule="evenodd" d="M305.243 272.285C295.828 290.838 281.085 305.469 261.016 316.902C285.847 320.994 302.442 331.699 309.559 350.423C315.56 324.359 315.446 298.35 305.243 272.285Z" fill="#F3F3F3"/>
<path fill-rule="evenodd" clip-rule="evenodd" d="M234.336 323.852C253.841 311.969 267.071 312.979 284.446 323.799C281.084 331.647 276.485 338.373 271.779 345.043C278.954 369.816 282.876 395.713 283.998 422.508L272.562 494.875C267.071 495.209 261.579 495.432 256.027 495.432C252.551 495.432 249.077 495.323 245.601 495.209L234.279 422.73C234.839 396.107 238.986 370.154 247.171 345.042C242.406 338.426 238.034 331.477 234.336 323.852Z" fill="#545454"/>
<path fill-rule="evenodd" clip-rule="evenodd" d="M220.209 333.83C224.412 329.795 229.066 326.377 234.336 323.851C237.754 331.085 242.238 338.089 247.171 345.042C239.267 370.937 233.997 396.722 234.279 422.282C228.784 393.416 223.909 363.877 220.209 333.83Z" fill="#F3F3F3"/>
<path fill-rule="evenodd" clip-rule="evenodd" d="M298.181 333.104C293.977 329.012 289.325 326.321 284.39 323.852C280.915 331.086 276.432 338.09 271.498 345.043C279.402 370.938 283.27 396.947 283.998 422.508C289.437 393.639 294.48 363.09 298.181 333.104Z" fill="#F3F3F3"/>
<path fill-rule="evenodd" clip-rule="evenodd" d="M306.869 276.6C295.49 349.582 283.102 421.948 271.724 494.875C278.394 494.482 285.007 493.752 291.454 492.801C319.03 424.975 347.621 344.199 306.869 276.6Z" fill="#333333"/>
<path fill-rule="evenodd" clip-rule="evenodd" d="M89.3234 329.738C127.383 317.125 166.789 304.459 204.849 291.845C178.728 346.499 196.554 417.408 228 493.357C169.312 486.41 117.125 459.113 79.3464 417.63C79.1214 389.492 83.9424 359.277 89.3234 329.738Z" fill="#272727"/>
<path fill-rule="evenodd" clip-rule="evenodd" d="M429.344 330.131C391.342 317.52 352.382 304.906 314.38 292.352C340.39 346.778 322.172 417.352 290.949 492.858C339.493 485.794 383.325 464.1 417.855 432.43L429.344 330.131Z" fill="#616161"/>
<path fill-rule="evenodd" clip-rule="evenodd" d="M439.325 410.008C438.762 384.057 434.335 357.149 429.344 330.131C391.342 317.52 352.382 304.906 314.38 292.352C336.464 345.043 322.003 417.239 290.949 492.858C350.252 484.223 402.495 453.787 439.325 410.008Z" fill="#272727"/>
<path fill-rule="evenodd" clip-rule="evenodd" d="M212.361 276.041C223.74 349.078 234.279 422.113 245.601 495.209C239.042 494.932 232.597 494.369 226.152 493.584C198.573 425.592 171.443 343.865 212.361 276.041Z" fill="#333333"/>
<path fill-rule="evenodd" clip-rule="evenodd" d="M333.829 427.666L397.62 428.338L397.394 449.244C377.946 463.482 356.307 474.861 332.989 482.765L333.829 427.666Z" fill="#272727"/>
<path fill-rule="evenodd" clip-rule="evenodd" d="M333.83 427.666L397.621 428.338L397.565 435.625L333.718 434.953L333.83 427.666Z" fill="#333333"/>
<path fill-rule="evenodd" clip-rule="evenodd" d="M198.74 228.394C198.74 228.394 175.646 176.937 184.278 132.431C184.278 132.431 189.492 88.4839 236.912 80.4129C236.912 80.4129 284.894 67.1259 301.654 93.6959C301.654 93.6959 344.48 95.9949 343.863 133.552C343.863 133.552 342.125 194.314 320.771 228.393C320.771 228.393 330.019 180.971 315.558 169.987C315.558 169.987 322.506 142.857 305.131 141.679C305.131 141.679 281.923 159.727 255.523 163.988C255.523 163.988 273.346 155.075 280.466 140.501C280.466 140.445 243.414 167.575 211.296 173.293C211.296 173.293 222.731 162.588 228.392 145.098C228.392 145.098 211.296 168.306 200.589 176.154L198.74 228.394Z" fill="#151515"/>
</svg>
