<svg width="400" height="400" viewBox="0 0 400 400" fill="none" xmlns="http://www.w3.org/2000/svg">
<path fill-rule="evenodd" clip-rule="evenodd" d="M200 400C310.457 400 400 310.457 400 200C400 89.5431 310.457 0 200 0C89.5431 0 0 89.5431 0 200C0 310.457 89.5431 400 200 400Z" fill="#AAD8B0"/>
<g filter="url(#filter0_d_280_2717)">
<path d="M219.089 204.366C265.187 215.949 300 268.689 300 332H100C100 268.689 134.813 215.949 180.911 204.366C151.529 196.056 130 169.042 130 137C130 98.3401 161.34 67 200 67C238.66 67 270 98.3401 270 137C270 169.042 248.471 196.056 219.089 204.366H219.089Z" fill="black"/>
</g>
<path d="M219.089 204.366C265.187 215.949 300 268.689 300 332H100C100 268.689 134.813 215.949 180.911 204.366C151.529 196.056 130 169.042 130 137C130 98.3401 161.34 67 200 67C238.66 67 270 98.3401 270 137C270 169.042 248.471 196.056 219.089 204.366H219.089Z" fill="#DCF0E6"/>
<defs>
<filter id="filter0_d_280_2717" x="96" y="67" width="208" height="273" filterUnits="userSpaceOnUse" color-interpolation-filters="sRGB">
<feFlood flood-opacity="0" result="BackgroundImageFix"/>
<feColorMatrix in="SourceAlpha" type="matrix" values="0 0 0 0 0 0 0 0 0 0 0 0 0 0 0 0 0 0 127 0" result="hardAlpha"/>
<feOffset dy="4"/>
<feGaussianBlur stdDeviation="2"/>
<feColorMatrix type="matrix" values="0 0 0 0 0 0 0 0 0 0 0 0 0 0 0 0 0 0 0.5 0"/>
<feBlend mode="normal" in2="BackgroundImageFix" result="effect1_dropShadow_280_2717"/>
<feBlend mode="normal" in="SourceGraphic" in2="effect1_dropShadow_280_2717" result="shape"/>
</filter>
</defs>
</svg>
