<?xml version="1.0" standalone="no"?>
<!DOCTYPE svg PUBLIC "-//W3C//DTD SVG 20010904//EN"
 "http://www.w3.org/TR/2001/REC-SVG-20010904/DTD/svg10.dtd">
<svg version="1.0" xmlns="http://www.w3.org/2000/svg"
 width="1143.000000pt" height="818.000000pt" viewBox="0 0 1143.000000 818.000000"
 preserveAspectRatio="xMidYMid meet">
<metadata>
Created by potrace 1.16, written by Peter Selinger 2001-2019
</metadata>
<g transform="translate(0.000000,818.000000) scale(0.100000,-0.100000)"
fill="#000000" stroke="none">
<path d="M715 8165 c-366 -81 -637 -364 -700 -733 -13 -76 -15 -489 -12 -3382
2 -3178 3 -3297 21 -3365 43 -163 113 -289 226 -408 120 -128 278 -219 443
-257 l92 -21 4960 3 4960 3 85 28 c314 105 532 338 613 654 l22 88 0 3315 0
3315 -24 90 c-90 345 -352 599 -692 670 -62 13 -677 15 -5002 14 -4058 0
-4943 -3 -4992 -14z m9198 -947 c-3364 -2985 -3978 -3526 -4025 -3551 -107
-55 -241 -56 -347 -2 -27 14 -926 803 -2226 1955 -1199 1062 -2187 1938 -2195
1946 -12 12 626 14 4594 14 l4607 0 -408 -362z m-7648 -1482 c869 -769 1588
-1406 1597 -1415 17 -15 -85 -119 -1617 -1651 l-1635 -1635 0 3084 0 3083 38
-33 c20 -19 748 -664 1617 -1433z m8553 -3156 l-3 -1540 -1633 1633 -1633
1633 1633 1447 1633 1448 3 -1541 c1 -847 1 -2233 0 -3080z m-6106 988 c199
-176 385 -339 412 -360 71 -56 236 -134 341 -160 131 -33 371 -33 500 1 101
26 225 80 304 133 29 20 223 187 432 372 208 185 382 336 387 336 4 0 747
-740 1652 -1645 l1645 -1645 -4670 0 -4670 0 1645 1645 c905 905 1648 1645
1652 1645 4 0 170 -145 370 -322z"/>
</g>
</svg>
