<?xml version="1.0" standalone="no"?>
<!DOCTYPE svg PUBLIC "-//W3C//DTD SVG 20010904//EN"
 "http://www.w3.org/TR/2001/REC-SVG-20010904/DTD/svg10.dtd">
<svg version="1.0" xmlns="http://www.w3.org/2000/svg"
 width="820.000000pt" height="820.000000pt" viewBox="0 0 820.000000 820.000000"
 preserveAspectRatio="xMidYMid meet">
<metadata>
Created by potrace 1.16, written by Peter Selinger 2001-2019
</metadata>
<g transform="translate(0.000000,820.000000) scale(0.100000,-0.100000)"
fill="#000000" stroke="none">
<path d="M3790 8190 c-1227 -96 -2330 -721 -3043 -1725 -393 -552 -635 -1191
-724 -1905 -25 -205 -25 -715 0 -920 60 -487 178 -893 377 -1308 104 -215 162
-316 285 -502 678 -1019 1775 -1682 2985 -1804 502 -51 988 -15 1465 109 768
200 1497 644 2013 1228 379 429 650 890 827 1407 240 701 285 1493 125 2215
-166 747 -530 1423 -1060 1969 -670 689 -1530 1111 -2490 1222 -161 18 -599
26 -760 14z m796 -249 c727 -98 1365 -371 1940 -828 147 -117 468 -439 591
-594 832 -1045 1069 -2408 640 -3674 -139 -410 -361 -811 -643 -1165 -135
-169 -420 -455 -584 -586 -598 -477 -1246 -748 -2010 -840 -180 -22 -615 -25
-800 -6 -1336 140 -2488 935 -3087 2131 -194 386 -317 794 -380 1261 -23 169
-26 713 -5 880 68 546 227 1039 480 1485 81 142 247 387 358 525 205 256 523
553 799 745 532 371 1185 615 1805 674 63 6 131 13 150 15 19 2 161 3 315 1
210 -3 318 -9 431 -24z"/>
<path d="M4220 6555 c-391 -62 -678 -300 -800 -665 -50 -149 -61 -238 -67
-547 l-6 -293 -228 0 -229 0 0 -530 0 -530 230 0 230 0 0 -1180 0 -1180 605 0
605 0 0 1180 0 1180 324 0 324 0 6 43 c3 23 26 242 51 487 24 245 47 462 50
483 l5 37 -380 0 -380 0 0 204 c0 210 7 258 40 276 11 6 155 10 354 10 l336 0
0 520 0 520 -492 -1 c-357 -1 -516 -5 -578 -14z m850 -504 l0 -290 -257 -3
c-246 -3 -260 -4 -305 -26 -65 -33 -124 -96 -150 -162 -22 -53 -23 -70 -26
-402 l-3 -348 368 0 369 0 -28 -282 c-16 -156 -31 -293 -33 -305 l-5 -23 -335
0 -335 0 0 -1175 0 -1175 -375 0 -375 0 0 1175 0 1175 -230 0 -230 0 0 305 0
305 229 0 229 0 5 403 c3 335 7 414 21 477 80 342 285 551 611 620 79 16 137
19 473 19 l382 1 0 -289z"/>
</g>
</svg>
