<?xml version="1.0" standalone="no"?>
<!DOCTYPE svg PUBLIC "-//W3C//DTD SVG 20010904//EN"
 "http://www.w3.org/TR/2001/REC-SVG-20010904/DTD/svg10.dtd">
<svg version="1.0" xmlns="http://www.w3.org/2000/svg"
 width="830.000000pt" height="831.000000pt" viewBox="0 0 830.000000 831.000000"
 preserveAspectRatio="xMidYMid meet">
<metadata>
Created by potrace 1.16, written by Peter Selinger 2001-2019
</metadata>
<g transform="translate(0.000000,831.000000) scale(0.100000,-0.100000)"
fill="#000000" stroke="none">
<path d="M3775 8289 c-789 -78 -1488 -345 -2101 -802 -534 -398 -952 -899
-1245 -1491 -217 -438 -344 -867 -406 -1366 -25 -208 -25 -745 0 -950 85 -681
304 -1277 672 -1830 411 -617 992 -1122 1660 -1441 1226 -586 2684 -533 3855
141 1545 890 2348 2640 2014 4390 -210 1103 -866 2079 -1810 2692 -528 344
-1090 552 -1729 639 -121 17 -215 22 -485 24 -184 2 -375 -1 -425 -6z m779
-244 c1193 -126 2258 -788 2903 -1806 306 -482 493 -1007 575 -1609 19 -141
22 -210 22 -475 0 -265 -3 -334 -22 -475 -107 -791 -396 -1450 -900 -2055 -42
-49 -146 -160 -231 -245 -307 -305 -647 -548 -1026 -735 -1416 -696 -3094
-478 -4290 556 -146 126 -364 354 -489 509 -448 560 -726 1209 -827 1930 -31
222 -38 660 -14 890 30 295 90 582 174 838 540 1638 2088 2737 3797 2696 106
-3 253 -11 328 -19z"/>
<path d="M2423 6309 c-196 -33 -352 -172 -413 -368 -20 -62 -20 -94 -20 -1785
0 -1460 2 -1729 15 -1775 45 -169 172 -304 343 -363 l67 -23 1735 0 1735 0 72
26 c176 65 304 210 342 387 8 38 11 526 11 1750 0 1854 3 1747 -57 1871 -35
74 -139 181 -212 220 -134 71 31 65 -1861 67 -938 1 -1728 -2 -1757 -7z m3483
-261 c28 -15 70 -48 92 -73 78 -89 73 59 70 -1840 l-3 -1700 -22 -41 c-32 -61
-115 -131 -176 -149 -44 -13 -261 -15 -1723 -15 l-1673 0 -57 21 c-68 26 -129
83 -164 154 l-25 50 -3 1669 c-3 1834 -6 1739 57 1830 33 48 97 93 156 112 32
10 393 12 1730 11 l1690 -2 51 -27z"/>
<path d="M5196 5895 c-57 -20 -88 -46 -116 -96 -25 -43 -25 -48 -28 -296 -4
-282 1 -314 54 -373 61 -68 83 -71 390 -68 l271 3 40 27 c26 17 50 45 67 79
l26 53 0 258 c0 211 -3 265 -15 296 -20 47 -50 78 -100 105 -38 21 -56 22
-295 24 -201 2 -263 0 -294 -12z m464 -415 l0 -190 -185 0 -185 0 0 190 0 190
185 0 185 0 0 -190z"/>
<path d="M3978 5075 c-365 -69 -650 -340 -740 -701 -28 -113 -30 -311 -4 -423
62 -277 246 -510 501 -636 145 -72 222 -89 410 -89 137 -1 171 3 238 22 175
50 295 119 419 240 122 118 201 250 249 414 30 105 38 324 14 439 -34 171
-116 328 -239 457 -122 128 -275 219 -443 263 -103 27 -300 34 -405 14z m336
-245 c124 -31 228 -92 321 -185 122 -123 182 -243 206 -410 43 -309 -163 -634
-468 -740 -103 -36 -273 -45 -378 -21 -144 34 -296 129 -386 241 -176 220
-206 494 -83 745 40 81 60 109 138 185 102 102 188 151 316 185 101 26 234 26
334 0z"/>
<path d="M2402 3507 l3 -974 28 -40 c15 -22 46 -50 70 -64 l42 -24 1585 -3
c1751 -3 1643 -6 1708 61 65 68 62 9 62 1062 l0 955 -355 0 c-195 0 -355 -4
-355 -8 0 -5 14 -48 31 -98 28 -80 31 -101 31 -209 2 -440 -245 -828 -647
-1016 -234 -110 -533 -130 -780 -52 -293 93 -552 319 -680 596 -108 233 -133
497 -66 691 17 50 31 91 31 93 0 2 -160 3 -355 3 l-355 0 2 -973z m402 606
c24 -455 231 -828 595 -1075 358 -243 845 -296 1246 -134 506 204 845 696 845
1228 l0 108 85 0 85 0 0 -800 0 -800 -1515 0 -1515 0 0 800 0 800 83 0 84 0 7
-127z"/>
</g>
</svg>
