<?xml version="1.0" standalone="no"?>
<!DOCTYPE svg PUBLIC "-//W3C//DTD SVG 20010904//EN"
 "http://www.w3.org/TR/2001/REC-SVG-20010904/DTD/svg10.dtd">
<svg version="1.0" xmlns="http://www.w3.org/2000/svg"
 width="829.000000pt" height="829.000000pt" viewBox="0 0 829.000000 829.000000"
 preserveAspectRatio="xMidYMid meet">
<metadata>
Created by potrace 1.16, written by Peter Selinger 2001-2019
</metadata>
<g transform="translate(0.000000,829.000000) scale(0.100000,-0.100000)"
fill="#000000" stroke="none">
<path d="M3855 8283 c-27 -2 -111 -10 -185 -19 -1208 -140 -2277 -790 -2959
-1799 -362 -536 -595 -1155 -675 -1795 -111 -885 62 -1775 497 -2555 82 -148
267 -421 383 -565 195 -242 491 -529 740 -717 436 -330 970 -583 1503 -712
265 -65 480 -96 782 -113 447 -24 927 31 1361 156 1560 452 2713 1775 2948
3379 34 236 43 401 37 700 -6 299 -24 473 -73 717 -219 1092 -858 2040 -1789
2653 -581 382 -1241 608 -1948 666 -116 10 -498 12 -622 4z m775 -257 c626
-87 1153 -282 1659 -613 505 -331 947 -798 1248 -1323 698 -1213 690 -2719
-20 -3920 -835 -1411 -2437 -2151 -4049 -1870 -1230 214 -2298 1028 -2844
2165 -434 905 -501 1938 -188 2898 231 707 672 1347 1255 1819 590 478 1285
766 2059 853 170 19 718 13 880 -9z"/>
<path d="M2462 6460 c-266 -70 -435 -275 -449 -545 -21 -381 272 -654 677
-632 251 14 444 132 538 329 48 99 62 161 62 271 0 282 -186 517 -460 581 -93
22 -275 20 -368 -4z m263 -220 c134 -20 236 -89 291 -197 27 -53 29 -67 29
-163 0 -96 -3 -110 -28 -158 -69 -132 -199 -202 -372 -202 -225 0 -381 135
-393 340 -5 89 6 136 50 210 54 89 150 149 275 170 67 11 70 11 148 0z"/>
<path d="M5163 5175 c-155 -28 -309 -92 -418 -175 -37 -28 -68 -50 -71 -50 -2
0 -4 41 -4 90 l0 90 -582 0 -583 0 0 -1515 0 -1515 582 0 582 0 3 908 3 908
38 76 c42 86 115 160 194 198 66 32 188 39 268 16 77 -23 152 -96 185 -181 48
-129 49 -153 50 -1067 l0 -858 586 0 585 0 -3 973 c-4 964 -4 973 -27 1097
-66 358 -211 623 -433 793 -144 109 -314 182 -498 212 -115 18 -356 19 -457 0z
m329 -225 c436 -41 720 -310 812 -765 32 -163 36 -265 36 -1057 l0 -798 -344
0 -345 0 -4 788 c-4 853 -3 830 -61 985 -91 241 -289 367 -556 354 -110 -6
-170 -22 -270 -72 -77 -38 -205 -171 -252 -261 -75 -142 -72 -96 -76 -991 l-3
-803 -344 0 -343 0 1 1280 2 1280 343 0 342 0 0 -147 c0 -172 10 -206 73 -236
29 -15 46 -17 74 -10 38 9 45 16 163 168 90 116 254 223 399 260 52 13 132 25
231 34 8 0 63 -4 122 -9z"/>
<path d="M2060 3620 l0 -1520 585 0 585 0 0 1520 0 1520 -585 0 -585 0 0
-1520z m930 0 l0 -1280 -345 0 -345 0 0 1280 0 1280 345 0 345 0 0 -1280z"/>
</g>
</svg>
