<?xml version="1.0" standalone="no"?>
<!DOCTYPE svg PUBLIC "-//W3C//DTD SVG 20010904//EN"
 "http://www.w3.org/TR/2001/REC-SVG-20010904/DTD/svg10.dtd">
<svg version="1.0" xmlns="http://www.w3.org/2000/svg"
 width="829.000000pt" height="829.000000pt" viewBox="0 0 829.000000 829.000000"
 preserveAspectRatio="xMidYMid meet">
<metadata>
Created by potrace 1.16, written by Peter Selinger 2001-2019
</metadata>
<g transform="translate(0.000000,829.000000) scale(0.100000,-0.100000)"
fill="#000000" stroke="none">
<path d="M3885 8284 c-394 -31 -704 -91 -1045 -203 -475 -157 -901 -388 -1300
-707 -173 -138 -486 -451 -624 -624 -499 -626 -793 -1331 -893 -2140 -25 -206
-25 -716 0 -920 97 -781 360 -1442 815 -2044 554 -733 1366 -1278 2242 -1504
352 -92 587 -122 980 -129 338 -6 514 6 785 52 1196 203 2256 936 2874 1989
274 467 456 999 532 1556 30 222 37 688 15 927 -119 1250 -784 2363 -1826
3058 -556 370 -1147 586 -1835 671 -124 15 -604 27 -720 18z m616 -249 c486
-47 923 -170 1354 -380 410 -201 748 -447 1080 -786 291 -298 502 -592 691
-964 397 -784 516 -1663 343 -2529 -267 -1330 -1221 -2436 -2504 -2901 -892
-323 -1870 -308 -2755 42 -1169 462 -2050 1465 -2355 2682 -76 304 -104 523
-112 866 -4 206 -2 309 11 435 88 926 477 1752 1131 2405 561 562 1253 929
2030 1079 118 22 328 50 445 59 133 10 503 5 641 -8z"/>
<path d="M6550 6273 c-243 -148 -408 -224 -586 -273 l-81 -22 -64 52 c-452
367 -1113 335 -1525 -75 -217 -216 -334 -496 -334 -801 l0 -104 -29 0 c-53 0
-264 40 -399 75 -561 148 -1081 487 -1452 948 -47 58 -89 105 -94 103 -23 -6
-145 -241 -179 -343 -50 -151 -60 -233 -54 -415 6 -204 49 -361 141 -518 l34
-57 -87 48 c-47 27 -90 49 -95 49 -4 0 -6 -89 -3 -197 4 -171 8 -211 30 -296
50 -190 153 -371 292 -514 l82 -83 -36 6 c-20 3 -44 8 -53 11 -10 2 -18 2 -18
0 0 -25 111 -320 142 -377 112 -210 309 -397 520 -495 40 -18 86 -37 101 -40
15 -4 30 -11 32 -16 9 -13 -193 -106 -324 -149 -324 -108 -570 -122 -1070 -61
-140 17 -256 29 -258 27 -6 -5 41 -37 287 -193 334 -213 506 -300 775 -393
501 -172 1079 -206 1630 -95 801 161 1493 657 1921 1377 273 459 417 949 440
1498 l7 160 36 27 c65 48 261 246 330 333 77 96 335 479 328 486 -3 3 -92 -34
-198 -81 -106 -48 -215 -96 -242 -106 l-49 -20 21 33 c54 81 108 206 162 372
32 100 59 184 59 189 0 14 -15 6 -140 -70z m-1235 -253 c93 -24 226 -85 299
-137 28 -21 81 -66 119 -102 l67 -64 103 21 c56 12 143 35 192 51 50 16 91 28
93 26 1 -1 -21 -26 -50 -55 -66 -65 -137 -113 -406 -274 -117 -70 -211 -130
-209 -133 7 -6 594 65 677 82 l65 13 -69 -63 c-38 -35 -99 -85 -135 -111 l-66
-48 0 -210 c-1 -116 -7 -254 -14 -306 -43 -315 -130 -612 -261 -888 -360 -756
-999 -1291 -1778 -1486 -225 -56 -385 -77 -647 -83 -179 -4 -262 -2 -375 11
-240 28 -486 88 -694 168 l-81 32 93 13 c207 30 430 102 637 205 153 76 271
154 468 309 l157 124 -237 12 c-187 9 -254 16 -313 33 -101 29 -221 88 -301
148 -76 58 -185 174 -218 232 l-22 40 53 0 c29 0 82 5 118 10 82 13 590 151
590 161 0 4 -98 26 -217 49 -300 57 -364 74 -468 125 -176 86 -327 235 -413
408 -38 77 -80 202 -71 211 2 3 40 -4 84 -15 89 -21 311 -38 510 -39 l129 0
-190 128 c-228 153 -268 186 -344 279 -76 94 -122 177 -159 288 -56 168 -62
348 -16 513 l16 57 98 -96 c231 -225 482 -405 761 -545 285 -143 539 -226 854
-279 147 -25 491 -53 503 -41 4 4 -4 48 -17 99 -17 68 -24 129 -27 232 -4 125
-2 151 20 236 93 358 381 621 745 679 84 13 255 4 347 -20z"/>
</g>
</svg>
