<?xml version="1.0" standalone="no"?>
<!DOCTYPE svg PUBLIC "-//W3C//DTD SVG 20010904//EN"
 "http://www.w3.org/TR/2001/REC-SVG-20010904/DTD/svg10.dtd">
<svg version="1.0" xmlns="http://www.w3.org/2000/svg"
 width="825.000000pt" height="831.000000pt" viewBox="0 0 825.000000 831.000000"
 preserveAspectRatio="xMidYMid meet">
<metadata>
Created by potrace 1.16, written by Peter Selinger 2001-2019
</metadata>
<g transform="translate(0.000000,831.000000) scale(0.100000,-0.100000)"
fill="#000000" stroke="none">
<path d="M3885 8304 c-372 -38 -645 -92 -935 -186 -1333 -432 -2349 -1526
-2685 -2892 -80 -326 -110 -594 -109 -976 0 -295 11 -436 55 -690 74 -430 235
-884 447 -1262 l71 -126 -365 -1083 c-200 -595 -363 -1084 -360 -1086 2 -2
506 157 1120 353 l1116 357 188 -90 c789 -383 1643 -499 2515 -342 1497 269
2739 1403 3157 2880 150 530 189 1131 109 1684 -232 1612 -1418 2938 -2984
3338 -368 94 -560 118 -975 122 -179 1 -343 1 -365 -1z m695 -700 c1461 -163
2666 -1292 2929 -2745 51 -281 66 -654 36 -932 -107 -1011 -645 -1900 -1490
-2462 -459 -305 -941 -480 -1510 -547 -141 -16 -547 -16 -690 1 -510 59 -981
218 -1399 474 l-108 67 -637 -204 c-350 -112 -637 -201 -639 -197 -1 4 90 282
203 618 l206 611 -80 121 c-788 1192 -744 2727 110 3865 332 442 749 784 1245
1023 566 272 1193 378 1824 307z"/>
<path d="M2749 6237 c-76 -22 -139 -66 -231 -160 -206 -212 -312 -440 -337
-730 -23 -267 38 -535 194 -849 84 -168 301 -507 464 -726 439 -586 920 -989
1466 -1227 495 -217 838 -323 1000 -312 124 9 278 37 355 63 244 85 470 254
545 408 46 95 82 223 96 350 15 125 5 173 -41 206 -39 28 -566 311 -748 402
-124 62 -152 73 -208 76 l-64 4 -48 -49 c-26 -27 -91 -101 -145 -165 -54 -64
-137 -157 -185 -207 -117 -121 -121 -122 -284 -46 -501 235 -859 540 -1159
987 -126 188 -189 306 -189 355 0 39 6 49 96 145 179 191 241 278 266 373 13
49 11 58 -106 370 -48 127 -119 315 -157 420 -39 104 -84 209 -101 232 -47 69
-47 69 -348 88 -55 3 -101 0 -131 -8z"/>
</g>
</svg>
