<?xml version="1.0" standalone="no"?>
<!DOCTYPE svg PUBLIC "-//W3C//DTD SVG 20010904//EN"
 "http://www.w3.org/TR/2001/REC-SVG-20010904/DTD/svg10.dtd">
<svg version="1.0" xmlns="http://www.w3.org/2000/svg"
 width="832.000000pt" height="831.000000pt" viewBox="0 0 832.000000 831.000000"
 preserveAspectRatio="xMidYMid meet">
<metadata>
Created by potrace 1.16, written by Peter Selinger 2001-2019
</metadata>
<g transform="translate(0.000000,831.000000) scale(0.100000,-0.100000)"
fill="#000000" stroke="none">
<path d="M3750 8295 c-1257 -130 -2364 -795 -3054 -1835 -381 -574 -595 -1169
-678 -1885 -19 -166 -16 -714 5 -885 120 -965 524 -1804 1188 -2470 668 -670
1496 -1072 2464 -1197 176 -22 733 -25 920 -5 1113 123 2108 667 2806 1534
192 239 356 498 496 783 389 793 511 1701 347 2592 -48 261 -116 497 -221 763
-215 543 -545 1038 -965 1445 -654 636 -1451 1020 -2373 1146 -198 27 -731 35
-935 14z m805 -241 c1064 -107 2036 -647 2700 -1499 416 -533 691 -1184 784
-1857 75 -536 38 -1088 -109 -1607 -383 -1353 -1472 -2407 -2835 -2741 -464
-114 -957 -143 -1422 -85 -1188 149 -2248 838 -2872 1867 -277 456 -458 974
-532 1522 -29 216 -37 633 -15 856 76 800 379 1532 885 2145 100 121 333 358
457 464 821 710 1881 1045 2959 935z"/>
<path d="M2285 5945 c-243 -52 -461 -221 -574 -442 -37 -74 -69 -189 -81 -290
-8 -68 -10 -408 -8 -1123 4 -1013 4 -1026 25 -1106 45 -166 116 -287 241 -406
86 -82 160 -130 266 -172 145 -58 46 -56 1999 -56 1986 0 1870 -4 2027 64 257
110 439 334 495 611 14 71 15 199 13 1165 l-3 1085 -23 75 c-91 299 -321 520
-612 590 -84 20 -110 20 -1895 19 -1452 0 -1822 -3 -1870 -14z m3668 -230
c211 -37 398 -198 468 -402 l24 -68 0 -1095 0 -1095 -33 -80 c-61 -151 -173
-270 -317 -335 -128 -58 -19 -55 -1950 -55 l-1780 0 -85 31 c-47 16 -112 47
-143 68 -81 54 -172 157 -213 243 -66 137 -65 115 -62 1269 l3 1039 26 72 c36
98 72 157 137 226 97 101 221 167 352 186 30 5 829 9 1775 9 1432 1 1733 -1
1798 -13z"/>
<path d="M3560 4244 l0 -1126 28 19 c16 10 401 263 855 563 626 413 823 548
814 556 -16 15 -1685 1114 -1692 1114 -3 0 -5 -507 -5 -1126z m712 375 c260
-172 493 -325 517 -342 l43 -30 -408 -270 c-225 -149 -460 -303 -521 -343
l-113 -73 0 684 c0 377 2 685 5 685 2 0 217 -140 477 -311z"/>
</g>
</svg>
