<svg width="117" height="116" viewBox="0 0 117 116" fill="none" xmlns="http://www.w3.org/2000/svg">
<path d="M0.27832 7C0.27832 3.13401 3.41233 0 7.27832 0H109.278C113.144 0 116.278 3.13401 116.278 7V109C116.278 112.866 113.144 116 109.278 116H7.27832C3.41233 116 0.27832 112.866 0.27832 109V7Z" fill="#5C5B59"/>
<path d="M88.8413 76.1599C87.6958 78.7941 86.34 81.219 84.769 83.4483C82.6277 86.4875 80.8744 88.5912 79.5233 89.7594C77.4287 91.6769 75.1845 92.659 72.7814 92.7148C71.0562 92.7148 68.9756 92.2261 66.5538 91.2348C64.124 90.2481 61.8911 89.7594 59.8493 89.7594C57.708 89.7594 55.4115 90.2481 52.9551 91.2348C50.4949 92.2261 48.513 92.7427 46.9977 92.7939C44.6932 92.8917 42.3962 91.8817 40.1034 89.7594C38.64 88.4888 36.8096 86.3107 34.6169 83.2249C32.2642 79.9298 30.33 76.1087 28.8147 71.7524C27.1919 67.047 26.3784 62.4906 26.3784 58.0793C26.3784 53.0263 27.4753 48.6681 29.6722 45.016C31.3988 42.0824 33.6958 39.7684 36.5707 38.0696C39.4456 36.3708 42.5519 35.5052 45.8971 35.4498C47.7275 35.4498 50.1279 36.0134 53.1107 37.1211C56.0852 38.2325 57.9951 38.7961 58.8325 38.7961C59.4585 38.7961 61.5802 38.1371 65.1769 36.8232C68.5782 35.6048 71.4489 35.1002 73.8006 35.299C80.1731 35.8109 84.9607 38.3116 88.1446 42.8169C82.4454 46.2545 79.6261 51.0692 79.6822 57.2458C79.7337 62.0568 81.4869 66.0603 84.9327 69.2391C86.4942 70.7145 88.2381 71.8548 90.1784 72.6646C89.7576 73.8793 89.3135 75.0429 88.8413 76.1599V76.1599ZM74.2261 18.9088C74.2261 22.6797 72.8422 26.2005 70.0837 29.4594C66.7549 33.3335 62.7284 35.5722 58.3621 35.2189C58.3065 34.7665 58.2742 34.2904 58.2742 33.7901C58.2742 30.1701 59.8573 26.2959 62.6686 23.1283C64.0721 21.5245 65.8572 20.1909 68.0219 19.1271C70.1819 18.0792 72.225 17.4996 74.1466 17.4004C74.2027 17.9045 74.2261 18.4086 74.2261 18.9088V18.9088Z" fill="white"/>
</svg>
