<svg width="42" height="42" viewBox="0 0 42 42" fill="none" xmlns="http://www.w3.org/2000/svg">
<g clip-path="url(#clip0_424_8768)">
<path d="M0 20.9591C0 9.38372 9.38372 0 20.9591 0V0C32.5345 0 41.9182 9.38372 41.9182 20.9591V20.9591C41.9182 32.5345 32.5345 41.9182 20.9591 41.9182V41.9182C9.38372 41.9182 0 32.5345 0 20.9591V20.9591Z" fill="#F4F5F7"/>
</g>
<path d="M14.187 25.9956C14.021 25.9956 13.8862 26.1304 13.8862 26.2964C13.8862 26.4625 14.021 26.5972 14.187 26.5972H17.195C17.3611 26.5972 17.4958 26.4625 17.4958 26.2964C17.4958 26.1304 17.3611 25.9956 17.195 25.9956H16.8942V18.7764H17.195C17.3611 18.7764 17.4958 18.6416 17.4958 18.4756C17.4958 18.3096 17.3611 18.1748 17.195 18.1748H14.187C14.021 18.1748 13.8862 18.3096 13.8862 18.4756C13.8862 18.6416 14.021 18.7764 14.187 18.7764H14.4878V25.9956H14.187ZM15.0894 18.7764H16.2926V25.9956H15.0894V18.7764V18.7764Z" fill="#5C5B59"/>
<path d="M11.7804 17.5727H29.2269C29.3613 17.5727 29.4792 17.4836 29.5163 17.3543C29.553 17.2253 29.4997 17.0872 29.3854 17.0162L20.6622 11.6018C20.565 11.5416 20.4423 11.5416 20.3451 11.6018L11.6218 17.0162C11.5075 17.0872 11.4543 17.2253 11.491 17.3543C11.528 17.4836 11.6459 17.5727 11.7804 17.5727ZM20.5036 12.2115L28.172 16.9711H12.8353L20.5036 12.2115Z" fill="#5C5B59"/>
<path d="M12.6826 27.499C12.6826 27.6651 12.8174 27.7998 12.9834 27.7998H28.0235C28.1896 27.7998 28.3243 27.6651 28.3243 27.499C28.3243 27.333 28.1896 27.1982 28.0235 27.1982H12.9834C12.8174 27.1982 12.6826 27.333 12.6826 27.499Z" fill="#5C5B59"/>
<path d="M29.2268 28.4014H11.7803C11.6143 28.4014 11.4795 28.5361 11.4795 28.7022V29.3038C11.4795 29.4698 11.6143 29.6046 11.7803 29.6046C11.9463 29.6046 12.0811 29.4698 12.0811 29.3038V29.003H28.926V29.3038C28.926 29.4698 29.0608 29.6046 29.2268 29.6046C29.3928 29.6046 29.5276 29.4698 29.5276 29.3038V28.7022C29.5276 28.5361 29.3929 28.4014 29.2268 28.4014Z" fill="#5C5B59"/>
<path d="M18.9998 25.9956C18.8337 25.9956 18.699 26.1304 18.699 26.2964C18.699 26.4625 18.8337 26.5972 18.9998 26.5972H22.0078C22.1738 26.5972 22.3086 26.4625 22.3086 26.2964C22.3086 26.1304 22.1738 25.9956 22.0078 25.9956H21.707V18.7764H22.0078C22.1738 18.7764 22.3086 18.6416 22.3086 18.4756C22.3086 18.3096 22.1738 18.1748 22.0078 18.1748H18.9998C18.8337 18.1748 18.699 18.3096 18.699 18.4756C18.699 18.6416 18.8337 18.7764 18.9998 18.7764H19.3006V25.9956H18.9998ZM19.9022 18.7764H21.1054V25.9956H19.9022V18.7764V18.7764Z" fill="#5C5B59"/>
<path d="M23.8125 25.9956C23.6465 25.9956 23.5117 26.1304 23.5117 26.2964C23.5117 26.4625 23.6465 26.5972 23.8125 26.5972H26.8205C26.9866 26.5972 27.1213 26.4625 27.1213 26.2964C27.1213 26.1304 26.9866 25.9956 26.8205 25.9956H26.5197V18.7764H26.8205C26.9866 18.7764 27.1213 18.6416 27.1213 18.4756C27.1213 18.3096 26.9866 18.1748 26.8205 18.1748H23.8125C23.6465 18.1748 23.5117 18.3096 23.5117 18.4756C23.5117 18.6416 23.6465 18.7764 23.8125 18.7764H24.1133V25.9956H23.8125ZM24.7149 18.7764H25.9181V25.9956H24.7149V18.7764Z" fill="#5C5B59"/>
<defs>
<clipPath id="clip0_424_8768">
<rect width="41.9182" height="41.9182" fill="white"/>
</clipPath>
</defs>
</svg>
