<svg width="533" height="408" viewBox="0 0 533 408" fill="none" xmlns="http://www.w3.org/2000/svg">
<g clip-path="url(#clip0_328_8345)">
<path d="M316.909 407.999H164.941C161.791 407.999 158.673 407.379 155.763 406.174C152.854 404.969 150.21 403.203 147.983 400.977C145.756 398.75 143.99 396.106 142.784 393.197C141.579 390.287 140.959 387.169 140.959 384.02V45.7625C140.959 42.6136 141.58 39.4954 142.785 36.5863C143.99 33.6771 145.757 31.0338 147.984 28.8074C150.211 26.5809 152.855 24.815 155.764 23.6102C158.673 22.4055 161.792 21.7857 164.941 21.7861H316.909C323.268 21.7863 329.367 24.3127 333.864 28.8097C338.361 33.3066 340.887 39.4057 340.887 45.7652V384.023C340.887 390.382 338.361 396.481 333.864 400.978C329.367 405.475 323.268 408.001 316.909 408.001" fill="#B9B9B9"/>
<path d="M316.141 402.511H165.707C160.137 402.511 154.795 400.298 150.856 396.36C146.917 392.421 144.704 387.078 144.704 381.508V46.1693C144.704 40.5989 146.917 35.2566 150.856 31.3177C154.795 27.3789 160.137 25.166 165.707 25.166H316.141C318.899 25.166 321.63 25.7093 324.178 26.7648C326.726 27.8203 329.042 29.3674 330.992 31.3178C332.942 33.2681 334.489 35.5835 335.545 38.1317C336.6 40.68 337.143 43.4111 337.143 46.1693V381.508C337.143 384.266 336.6 386.997 335.545 389.546C334.489 392.094 332.942 394.409 330.992 396.36C329.042 398.31 326.726 399.857 324.178 400.913C321.63 401.968 318.899 402.511 316.141 402.511Z" fill="white"/>
<path d="M328.719 45.5111V380.459C328.719 382.327 328.351 384.177 327.636 385.903C326.921 387.628 325.874 389.196 324.553 390.517C323.232 391.838 321.664 392.886 319.938 393.601C318.212 394.315 316.363 394.683 314.495 394.683H167.35C165.482 394.683 163.632 394.315 161.907 393.601C160.181 392.886 158.613 391.838 157.292 390.517C155.971 389.196 154.924 387.628 154.209 385.903C153.494 384.177 153.126 382.327 153.126 380.459V45.5111C153.126 41.7387 154.625 38.1207 157.292 35.4532C159.96 32.7857 163.578 31.2871 167.35 31.2871H191.884C192.552 31.2869 193.206 31.4726 193.775 31.8233C194.343 32.1741 194.802 32.676 195.101 33.2729L197.707 38.4746C198.289 39.6483 199.188 40.6358 200.301 41.3257C201.415 42.0157 202.7 42.3805 204.01 42.379H277.832C279.143 42.3804 280.427 42.0156 281.541 41.3257C282.655 40.6358 283.554 39.6483 284.137 38.4746L286.741 33.2729C287.04 32.6761 287.499 32.1741 288.067 31.8234C288.635 31.4727 289.29 31.287 289.957 31.2871H314.496C318.268 31.2871 321.886 32.7857 324.553 35.4532C327.221 38.1207 328.72 41.7387 328.72 45.5111" fill="#EFF0FD"/>
<path d="M271.902 36.292H212.448C211.804 36.2624 211.196 35.9857 210.751 35.5195C210.305 35.0532 210.057 34.4332 210.057 33.7884C210.057 33.1436 210.305 32.5237 210.751 32.0574C211.196 31.5911 211.804 31.3144 212.448 31.2849H271.902C272.241 31.2693 272.579 31.3226 272.896 31.4414C273.213 31.5602 273.503 31.7421 273.748 31.9761C273.993 32.2101 274.188 32.4913 274.321 32.8028C274.455 33.1143 274.523 33.4496 274.523 33.7884C274.523 34.1272 274.455 34.4625 274.321 34.774C274.188 35.0855 273.993 35.3668 273.748 35.6008C273.503 35.8348 273.213 36.0167 272.896 36.1355C272.579 36.2543 272.241 36.3075 271.902 36.292Z" fill="#EFF0FD"/>
<path d="M437.893 319.213H379.178V407.453H437.893V319.213Z" fill="#5C5B59"/>
<path d="M460.375 319.213H437.893V407.453H460.375V319.213Z" fill="#BEBEBE"/>
<path d="M457.619 322.601H441.113V325.416H457.619V322.601Z" fill="#72AC47"/>
<path d="M457.619 328.651H441.113V331.468H457.619V328.651Z" fill="#72AC47"/>
<path d="M457.619 334.703H441.113V337.52H457.619V334.703Z" fill="#72AC47"/>
<path d="M457.619 340.751H441.113V343.566H457.619V340.751Z" fill="#72AC47"/>
<path d="M457.619 346.8H441.113V349.617H457.619V346.8Z" fill="#72AC47"/>
<path d="M457.619 352.852H441.113V355.667H457.619V352.852Z" fill="#72AC47"/>
<path d="M457.619 358.9H441.113V361.717H457.619V358.9Z" fill="#72AC47"/>
<path d="M457.619 364.95H441.113V367.766H457.619V364.95Z" fill="#72AC47"/>
<path d="M457.619 371H441.113V373.817H457.619V371Z" fill="#72AC47"/>
<path d="M457.619 377.051H441.113V379.866H457.619V377.051Z" fill="#72AC47"/>
<path d="M457.619 383.097H441.113V385.914H457.619V383.097Z" fill="#72AC47"/>
<path d="M457.619 389.149H441.113V391.965H457.619V389.149Z" fill="#72AC47"/>
<path d="M457.619 395.199H441.113V398.016H457.619V395.199Z" fill="#72AC47"/>
<path d="M457.619 401.249H441.113V404.065H457.619V401.249Z" fill="#72AC47"/>
<path d="M369.641 407.453H399.481C399.481 407.453 401.149 402.139 397.535 395.557C397.535 395.557 395.132 397.483 387.939 396.18C386.365 397.523 384.664 398.711 382.86 399.725C380.777 400.735 368.834 403.079 369.639 407.453" fill="#BEBEBE"/>
<path d="M371.721 323.31C373.648 334.81 382.542 373.718 386.363 396.704C393.35 397.298 396.705 396.498 398.484 396.088C398.136 388.072 397.446 368.901 397.529 360.492C397.66 346.284 398.327 327.546 392.072 317.262L371.04 318.918C371.168 320.028 371.284 320.931 371.387 321.577C371.488 322.197 371.604 322.769 371.717 323.31" fill="black"/>
<path d="M315.664 407.453H345.505C345.505 407.453 347.173 402.139 343.559 395.557C343.559 395.557 341.156 397.483 333.962 396.18C332.388 397.523 330.687 398.71 328.884 399.725C326.801 400.735 314.858 403.079 315.662 407.453" fill="#BEBEBE"/>
<path d="M333.099 396.031C336.937 397.065 340.926 397.422 344.886 397.087C346.473 387.849 348.981 367.519 351.234 357.991C354.735 343.179 358.159 322.812 355.781 315.545L335.091 310.35C335.025 311.005 333.338 373.342 333.099 396.033" fill="black"/>
<path d="M415.441 289.141C415.026 285.051 414.547 282.064 414.547 282.064L391.43 287.722L371.794 292.197C364.515 293.817 355.722 295.769 347.97 297.523C339.27 299.502 333.494 306.106 335.399 314.818L337.58 325.385C349.748 325.219 406.953 319.734 411.847 317.263C417.375 314.472 419.036 304.6 415.439 289.141" fill="black"/>
<path d="M449.947 289.141C449.54 286.218 448.729 283.365 447.538 280.664L425.938 287.721L406.302 292.196C399.023 293.816 390.23 295.769 382.478 297.522C373.778 299.501 368.002 306.105 369.908 314.817L372.088 325.384C384.256 325.218 435.11 323.446 446.355 317.262C451.782 314.279 453.547 304.6 449.946 289.14" fill="black"/>
<path d="M385.248 256.012C385.248 256.012 395.515 251.374 398.34 256.027C399.886 258.573 398.817 263.302 395.316 265.288C391.814 267.274 372.027 275.643 353.351 280.31C352.769 278.491 352.073 276.712 351.267 274.981C357.126 272.424 362.721 269.301 367.974 265.657C373.42 261.912 379.202 258.684 385.247 256.012" fill="#E5918F"/>
<path d="M387.815 223.952L379.015 259.096C379.015 259.096 379.924 267.981 388.898 263.621C397.871 259.26 403.817 231.261 403.817 231.261L387.815 223.952Z" fill="#E5918F"/>
<path d="M402.701 243.607C401.612 243.343 400.573 243.056 399.572 242.755C398.545 242.455 397.569 242.142 396.643 241.816C388.282 238.95 383.764 235.508 383.764 235.508C386.392 224.08 389.56 216.408 392.376 211.351C392.454 211.23 392.525 211.105 392.589 210.976L392.814 210.599C394.402 208.083 396.484 205.916 398.935 204.229C399.184 204.053 399.422 203.892 399.673 203.716L400.713 222.065L400.887 223.955L402.701 243.607Z" fill="#72AC47"/>
<path d="M402.701 243.607C401.611 243.343 400.573 243.057 399.572 242.756C398.545 242.456 397.569 242.143 396.643 241.817C398.398 229.457 399.985 221.69 399.985 221.69L400.886 223.956L402.701 243.607Z" fill="#C7E5F2"/>
<path d="M454.646 211.877C454.435 217.31 453.483 226.034 452.657 234.796C452.393 237.574 452.143 240.365 451.931 243.057C451.781 244.734 449.252 253.683 449.153 255.285C448.702 262.946 444.948 268.678 448.501 280.347C449.353 283.138 449.566 284.578 449.566 285.73C449.566 286.53 448.527 287.369 448.115 287.594C446.624 288.458 443.696 289.059 440.141 289.497H440.128C433.132 290.348 423.694 290.511 417.999 290.511C410.348 290.511 398.873 289.297 397.422 287.37C396.095 285.606 397.321 283.039 397.949 279.496C400.764 263.513 399.763 255.176 399.589 243.635C399.589 243.349 399.575 243.06 399.575 242.759C399.287 224.962 398.11 209.728 398.936 204.233C399.187 204.058 399.425 203.896 399.675 203.72C400.889 202.894 402.078 202.156 403.23 201.505C403.331 201.455 403.456 201.38 403.58 201.308C403.93 201.11 404.293 200.919 404.632 200.731C404.761 200.657 404.895 200.591 405.033 200.533C407.817 199.261 410.666 198.137 413.569 197.166C413.844 197.077 414.096 196.99 414.307 196.929C416.347 196.802 418.563 196.779 420.954 196.84C423.032 196.906 426.211 197.178 429.665 197.631H429.678C433.576 198.099 437.439 198.823 441.243 199.796C441.265 199.803 441.287 199.811 441.308 199.822C441.946 200.02 446.09 201.573 450.41 206.192C452.039 207.92 453.462 209.831 454.652 211.886" fill="#72AC47"/>
<path d="M448.5 280.343C449.352 283.134 449.564 284.573 449.564 285.725C449.564 286.526 448.525 287.365 448.113 287.589C446.624 288.453 443.694 289.054 440.141 289.492C441.604 289.317 444.132 286.995 444.132 284.899C444.132 283.431 442.229 273.522 442.756 267.124C443.284 260.742 444.32 250.577 442.343 242.442C440.352 234.306 438.487 223.604 438.487 223.604L449.641 230.337C449.641 230.337 451.08 232.352 452.657 234.794C452.393 237.573 452.143 240.364 451.931 243.056C451.781 244.733 444.947 268.676 448.502 280.343" fill="#C7E5F2"/>
<path d="M399.438 164.838C399.438 164.838 400.402 176.502 404.271 177.286C408.139 178.069 407.188 173.113 407.188 173.113L406.647 167.573L399.438 164.838Z" fill="#5C5B59"/>
<path d="M417.273 207.107C409.701 206.207 412.529 198.848 413.568 197.157C413.843 197.068 415.145 196.668 415.245 196.606C415.252 196.599 415.261 196.595 415.271 196.595C415.539 196.357 415.741 196.055 415.859 195.717C416.598 193.778 416.261 189.91 416.235 189.66V188.947C416.361 188.486 416.485 188.046 416.585 187.632L420.565 184.504L428.989 177.882C428.989 177.882 426.747 188.962 428.551 195.944C428.617 196.283 428.75 196.606 428.941 196.894C429.132 197.181 429.378 197.429 429.665 197.621C429.665 197.633 429.678 197.621 429.678 197.621C429.931 197.782 430.217 197.884 430.515 197.92C432.581 198.898 429.701 208.585 417.273 207.108" fill="#E5918F"/>
<path d="M423.946 184.921C423.946 184.921 423.876 192.314 415.851 195.713C416.597 193.784 416.253 189.914 416.229 189.665L419.593 187.027L423.946 184.921Z" fill="#CC6362"/>
<path d="M401.288 166.496C401.288 166.496 403.039 190.698 409.572 192.754C409.572 192.754 417.898 193.538 423.876 185.499C425.599 183.182 427.774 182.663 428.485 179.864C429.639 175.32 431.269 166.937 429.19 161.887C426.232 154.693 401.568 148.982 401.287 166.498" fill="#E5918F"/>
<path d="M429.29 157.891C429.182 153.495 424.733 151.852 424.733 151.852C420.303 149.778 411.098 150.674 401.607 152.791C399.381 153.288 396.59 151.922 395.035 153C393.157 154.303 395.027 160.255 395.027 160.255C398.689 171.343 412.16 167.737 416.209 166.369C417.171 169.223 417.047 173.193 419.446 175.239C420.814 176.405 423.191 176.439 425.609 176.035C425.906 176.601 427.023 177.1 427.251 177.876C428.011 180.469 427.903 184.519 427.879 187.646L429.021 187.089C429.171 186.242 440.986 158.254 429.29 157.891Z" fill="#5C5B59"/>
<path d="M407.989 174.646C408.331 176.657 407.34 178.501 405.775 178.767C404.21 179.033 402.666 177.619 402.323 175.61C401.981 173.6 402.972 171.755 404.537 171.489C406.103 171.223 407.646 172.637 407.989 174.646Z" stroke="white" stroke-width="0.330423" stroke-miterlimit="10"/>
<path d="M415.886 173.172C416.229 175.182 415.237 177.027 413.672 177.292C412.107 177.557 410.563 176.145 410.221 174.136C409.879 172.127 410.87 170.281 412.435 170.016C414 169.75 415.544 171.162 415.886 173.172Z" stroke="white" stroke-width="0.330423" stroke-miterlimit="10"/>
<path d="M407.989 174.647C407.989 174.647 408.335 174.085 410.154 174.243" stroke="white" stroke-width="0.330423" stroke-miterlimit="10"/>
<path d="M415.955 173.654L422.704 172.575" stroke="white" stroke-width="0.330423" stroke-miterlimit="10"/>
<path d="M423.201 181.142C427.85 182.923 429.302 171.481 424.886 170.975C421.539 170.59 421.401 175.262 421.401 175.262C421.401 175.262 420.544 180.127 423.201 181.144" fill="#E5918F"/>
<g opacity="0.5">
<g opacity="0.5">
<path opacity="0.5" d="M424.733 172.701C424.06 173.474 423.658 174.447 423.589 175.471C423.55 175.977 423.551 176.487 423.592 176.993C423.647 177.513 423.706 178.049 423.749 178.614C423.574 178.39 423.446 178.143 423.288 177.902C423.167 177.646 423.06 177.383 422.968 177.115C422.797 176.559 422.732 175.976 422.778 175.396C422.827 174.8 423.027 174.227 423.358 173.729C423.679 173.234 424.166 172.869 424.731 172.699" fill="#CC6362"/>
<path opacity="0.5" d="M425.458 174.869C424.976 174.943 424.53 175.167 424.183 175.509C423.87 175.832 423.661 176.24 423.583 176.682L422.816 176.408C423.061 175.898 423.451 175.471 423.938 175.182C424.398 174.922 424.929 174.812 425.455 174.869" fill="#CC6362"/>
</g>
</g>
<path d="M467.891 260.642V260.654C465.846 263.024 458.094 264.752 454.364 261.473C453.193 260.428 451.87 257.677 450.569 254.261C447.263 245.531 444.134 232.47 444.134 232.47L461.479 223.604C461.479 223.604 463.711 233.612 465.634 243.122C465.634 243.122 465.651 243.218 465.687 243.386C466.313 246.432 466.895 249.429 467.353 251.999C467.37 252.066 467.381 252.135 467.387 252.204C467.845 255.275 468.139 258.475 467.89 260.64" fill="#E5918F"/>
<path d="M437.58 220.321C439.256 227.287 444.522 240.488 444.522 240.488C448.21 241.1 453.155 240.422 457.255 238.948C460.296 237.776 463.058 235.982 465.367 233.682C465.367 233.682 461.875 223.866 458.74 216.814C455.928 210.483 454.238 208.121 453.02 206.866C451.005 204.809 448.681 203.081 446.131 201.743L437.58 220.321Z" fill="#72AC47"/>
<path d="M459.518 224.873L449.337 220.481L441.315 199.811C441.315 199.811 442.787 200.256 444.721 201.038H444.731C444.768 201.057 444.851 201.084 444.99 201.14C445.042 201.158 445.092 201.18 445.139 201.206C446.87 202.015 453.581 205.971 458.224 220.338C458.261 220.46 458.298 220.581 458.336 220.701C458.829 222.358 459.193 223.689 459.391 224.379C459.409 224.445 459.428 224.51 459.447 224.582C459.474 224.675 459.493 224.78 459.52 224.871" fill="#72AC47"/>
<path d="M467.889 260.643V260.656C467.739 261.926 467.391 262.838 466.762 263.162C466.661 263.228 465.238 264.075 465.139 264.138C461.688 266.24 458.094 268.099 454.384 269.7C442.106 274.836 429.572 279.339 416.832 283.192C416.18 281.397 415.413 279.646 414.535 277.95C420.281 275.152 425.741 271.801 430.837 267.943C438.929 261.767 450.568 254.263 450.568 254.263L453.507 250.806C453.507 250.806 463.956 241.19 465.634 243.124C465.634 243.124 465.651 243.22 465.687 243.388C465.936 244.39 466.765 248.079 467.353 252.001C467.37 252.068 467.381 252.137 467.386 252.206C467.845 255.277 468.139 258.477 467.889 260.642" fill="#E5918F"/>
<path d="M415.737 277.364C414.489 278.079 413.037 278.358 411.612 278.155C410.461 277.913 409.997 277.442 409.146 277.293C408.294 277.143 406.026 276.863 404.902 276.311C403.779 275.759 403.343 275.7 403.382 276.827C403.421 277.953 405.637 278.93 406.238 279.241C406.798 279.631 407.284 280.118 407.672 280.679C407.756 280.804 403.979 282.78 402.967 282.379C402.808 282.833 402.763 283.319 402.836 283.795C403.007 284.303 403.783 284.48 403.843 284.734C403.904 284.988 403.666 285.51 403.833 285.915C404.001 286.319 404.695 286.321 404.974 286.979C405.254 287.637 404.946 287.646 405.15 288.332C405.354 289.018 406.23 289.14 406.396 289.494C406.562 289.848 406.474 290.261 406.842 290.505C407.21 290.749 410.601 289.659 411.841 289.129C413.081 288.599 416.392 283.833 420.054 282.208L415.737 277.364Z" fill="#E5918F"/>
<path d="M433.077 298.633H406.688V296.051H433.077C433.415 296.058 433.736 296.198 433.972 296.439C434.208 296.68 434.34 297.004 434.34 297.342C434.34 297.679 434.208 298.003 433.972 298.245C433.736 298.486 433.415 298.625 433.077 298.633Z" fill="#5C5B59"/>
<path d="M418.8 298.633H352.72C352.335 298.633 351.96 298.507 351.654 298.275C351.347 298.042 351.125 297.715 351.021 297.344L337.497 248.658C337.427 248.406 337.417 248.142 337.466 247.886C337.515 247.63 337.623 247.388 337.781 247.181C337.939 246.973 338.143 246.805 338.377 246.689C338.611 246.573 338.869 246.513 339.129 246.514H403.03C403.754 246.513 404.459 246.751 405.036 247.189C405.613 247.627 406.03 248.243 406.224 248.941L419.7 297.452C419.738 297.591 419.744 297.736 419.717 297.877C419.69 298.019 419.631 298.152 419.544 298.266C419.457 298.38 419.345 298.473 419.216 298.537C419.087 298.601 418.945 298.634 418.802 298.634" fill="#C4C4C4"/>
<path d="M416.407 298.633H350.327C349.942 298.633 349.568 298.507 349.262 298.274C348.955 298.041 348.733 297.715 348.63 297.344L335.109 248.658C335.039 248.407 335.028 248.143 335.077 247.887C335.126 247.631 335.234 247.39 335.391 247.182C335.549 246.975 335.752 246.806 335.986 246.69C336.219 246.574 336.476 246.514 336.737 246.514H400.638C401.362 246.513 402.067 246.751 402.644 247.189C403.221 247.627 403.638 248.243 403.832 248.941L417.308 297.452C417.346 297.591 417.352 297.736 417.325 297.877C417.298 298.018 417.239 298.151 417.152 298.266C417.065 298.38 416.953 298.473 416.824 298.537C416.695 298.601 416.553 298.634 416.41 298.634" fill="#5C5B59"/>
<path d="M368.223 272.401L367.065 272.389L367.073 271.659L368.231 271.671C368.41 271.673 368.556 271.645 368.669 271.588C368.782 271.529 368.865 271.446 368.918 271.341C368.971 271.235 368.998 271.116 369 270.982C369.001 270.847 368.976 270.721 368.925 270.604C368.875 270.487 368.793 270.392 368.682 270.32C368.57 270.249 368.425 270.212 368.246 270.21L367.412 270.201L367.373 274.013L366.437 274.003L366.484 269.458L368.253 269.476C368.609 269.48 368.913 269.548 369.166 269.679C369.421 269.809 369.614 269.987 369.747 270.213C369.88 270.439 369.945 270.697 369.942 270.986C369.939 271.279 369.869 271.533 369.732 271.746C369.594 271.958 369.397 272.122 369.14 272.236C368.885 272.35 368.579 272.405 368.223 272.401ZM372.294 273.302L372.31 271.797C372.311 271.689 372.294 271.596 372.259 271.519C372.225 271.439 372.17 271.377 372.096 271.333C372.024 271.288 371.929 271.266 371.813 271.264C371.713 271.263 371.626 271.28 371.553 271.315C371.48 271.347 371.423 271.396 371.383 271.46C371.343 271.522 371.322 271.595 371.321 271.681L370.422 271.672C370.424 271.528 370.458 271.392 370.526 271.264C370.594 271.135 370.692 271.023 370.82 270.926C370.948 270.828 371.1 270.751 371.275 270.697C371.453 270.643 371.651 270.617 371.869 270.619C372.131 270.622 372.364 270.668 372.567 270.757C372.77 270.847 372.929 270.979 373.044 271.155C373.161 271.331 373.218 271.551 373.215 271.813L373.2 273.258C373.198 273.443 373.208 273.595 373.23 273.714C373.251 273.831 373.283 273.933 373.326 274.021L373.326 274.074L372.417 274.065C372.375 273.973 372.342 273.858 372.321 273.72C372.302 273.581 372.293 273.441 372.294 273.302ZM372.426 272.008L372.427 272.516L371.925 272.511C371.806 272.51 371.703 272.522 371.615 272.549C371.527 272.575 371.455 272.612 371.399 272.662C371.342 272.709 371.3 272.765 371.272 272.829C371.246 272.893 371.233 272.964 371.232 273.041C371.231 273.118 371.248 273.188 371.283 273.251C371.318 273.311 371.368 273.36 371.435 273.396C371.501 273.43 371.579 273.447 371.668 273.448C371.803 273.45 371.921 273.424 372.022 273.371C372.122 273.318 372.2 273.252 372.255 273.173C372.312 273.095 372.342 273.02 372.345 272.949L372.578 273.333C372.544 273.418 372.497 273.506 372.438 273.597C372.381 273.688 372.308 273.773 372.22 273.854C372.132 273.932 372.026 273.996 371.902 274.047C371.779 274.096 371.633 274.119 371.465 274.117C371.25 274.115 371.056 274.07 370.882 273.983C370.71 273.894 370.574 273.773 370.474 273.62C370.376 273.465 370.327 273.29 370.33 273.094C370.331 272.917 370.366 272.76 370.434 272.624C370.502 272.487 370.601 272.373 370.731 272.28C370.863 272.186 371.027 272.116 371.224 272.07C371.42 272.022 371.647 271.999 371.905 272.002L372.426 272.008ZM374.84 273.709L375.767 270.722L376.732 270.732L375.334 274.604C375.304 274.689 375.263 274.78 375.212 274.877C375.163 274.975 375.097 275.066 375.013 275.153C374.931 275.242 374.827 275.313 374.702 275.368C374.578 275.423 374.427 275.45 374.248 275.448C374.163 275.447 374.093 275.441 374.039 275.43C373.985 275.419 373.921 275.404 373.846 275.384L373.853 274.726C373.876 274.726 373.9 274.726 373.925 274.727C373.95 274.729 373.973 274.73 373.996 274.73C374.115 274.732 374.212 274.719 374.287 274.693C374.362 274.667 374.423 274.626 374.469 274.57C374.516 274.516 374.553 274.446 374.581 274.359L374.84 273.709ZM374.497 270.708L375.205 273.163L375.323 274.117L374.711 274.176L373.532 270.698L374.497 270.708ZM377.281 269.57L378.785 269.585C379.127 269.589 379.414 269.644 379.648 269.75C379.885 269.857 380.063 270.013 380.184 270.218C380.306 270.421 380.366 270.67 380.363 270.966C380.361 271.174 380.316 271.364 380.229 271.536C380.144 271.705 380.022 271.85 379.863 271.969C379.705 272.086 379.517 272.172 379.298 272.228L379.129 272.292L377.715 272.278L377.714 271.787L378.781 271.799C378.998 271.801 379.178 271.765 379.322 271.692C379.467 271.616 379.576 271.514 379.65 271.386C379.724 271.258 379.762 271.116 379.764 270.96C379.766 270.785 379.733 270.631 379.666 270.5C379.598 270.368 379.491 270.266 379.344 270.193C379.199 270.119 379.011 270.081 378.78 270.078L377.878 270.069L377.836 274.121L377.234 274.115L377.281 269.57ZM379.89 274.142L378.807 272.07L379.434 272.074L380.534 274.111L380.533 274.149L379.89 274.142ZM380.95 272.502L380.951 272.43C380.953 272.186 380.991 271.961 381.064 271.753C381.137 271.544 381.241 271.363 381.375 271.21C381.51 271.056 381.673 270.937 381.863 270.853C382.053 270.768 382.266 270.726 382.501 270.729C382.738 270.731 382.951 270.777 383.14 270.866C383.33 270.954 383.491 271.076 383.623 271.234C383.756 271.389 383.858 271.572 383.926 271.783C383.995 271.992 384.028 272.218 384.025 272.462L384.025 272.533C384.022 272.777 383.984 273.002 383.911 273.21C383.839 273.417 383.734 273.598 383.597 273.753C383.462 273.905 383.299 274.024 383.109 274.11C382.921 274.193 382.708 274.234 382.471 274.231C382.234 274.229 382.021 274.184 381.832 274.097C381.644 274.007 381.483 273.885 381.349 273.729C381.218 273.572 381.118 273.389 381.049 273.18C380.98 272.971 380.947 272.745 380.95 272.502ZM381.528 272.436L381.527 272.507C381.526 272.676 381.544 272.835 381.582 272.986C381.62 273.134 381.678 273.266 381.756 273.381C381.836 273.496 381.936 273.588 382.056 273.656C382.176 273.721 382.316 273.755 382.476 273.757C382.634 273.758 382.773 273.727 382.892 273.664C383.014 273.599 383.114 273.509 383.195 273.396C383.275 273.282 383.336 273.152 383.377 273.004C383.42 272.855 383.442 272.696 383.444 272.527L383.445 272.456C383.446 272.289 383.427 272.132 383.387 271.984C383.349 271.833 383.29 271.7 383.21 271.585C383.132 271.468 383.033 271.375 382.913 271.307C382.795 271.24 382.656 271.205 382.496 271.203C382.338 271.202 382.198 271.233 382.077 271.299C381.958 271.364 381.857 271.455 381.774 271.57C381.694 271.684 381.633 271.816 381.592 271.965C381.551 272.112 381.53 272.269 381.528 272.436ZM385.593 273.602L386.49 270.832L386.871 270.836L386.79 271.388L385.877 274.204L385.506 274.2L385.593 273.602ZM385.038 270.817L385.749 273.634L385.796 274.203L385.406 274.199L384.461 270.811L385.038 270.817ZM387.672 273.632L388.406 270.852L388.981 270.858L387.966 274.226L387.579 274.221L387.672 273.632ZM386.955 270.837L387.776 273.577L387.866 274.224L387.497 274.221L386.618 271.38L386.549 270.833L386.955 270.837Z" fill="#C4C4C4"/>
<path d="M365.585 269.388L360.095 269.331L360.086 270.183L365.576 270.239L365.585 269.388Z" fill="#72AC47"/>
<path d="M365.562 271.181L360.079 271.124L360.07 271.975L365.554 272.031L365.562 271.181Z" fill="#72AC47"/>
<path d="M365.546 273.067L360.057 273.01L360.048 273.86L365.538 273.917L365.546 273.067Z" fill="#72AC47"/>
<path d="M360.68 275.794C360.916 275.797 361.095 275.841 361.219 275.928C361.344 276.015 361.406 276.15 361.404 276.333C361.403 276.428 361.385 276.509 361.35 276.578C361.317 276.644 361.268 276.699 361.204 276.742C361.139 276.784 361.061 276.814 360.969 276.833C360.877 276.853 360.771 276.862 360.653 276.861L360.505 276.859L360.499 277.43L360.205 277.427L360.221 275.829C360.29 275.814 360.366 275.805 360.448 275.801C360.533 275.796 360.61 275.793 360.68 275.794ZM360.698 276.049C360.624 276.049 360.562 276.05 360.514 276.054L360.508 276.606L360.651 276.608C360.793 276.609 360.902 276.591 360.979 276.553C361.055 276.513 361.094 276.438 361.096 276.327C361.096 276.274 361.086 276.23 361.067 276.193C361.047 276.157 361.019 276.129 360.983 276.108C360.948 276.088 360.905 276.073 360.855 276.065C360.807 276.055 360.755 276.05 360.698 276.049ZM362.042 277.247C362.129 277.248 362.195 277.244 362.241 277.235L362.244 276.921C362.228 276.917 362.206 276.912 362.176 276.907C362.146 276.902 362.114 276.899 362.078 276.899C362.047 276.898 362.015 276.9 361.982 276.905C361.951 276.909 361.922 276.917 361.895 276.93C361.87 276.942 361.85 276.959 361.834 276.983C361.818 277.004 361.81 277.032 361.809 277.067C361.809 277.134 361.829 277.181 361.871 277.208C361.913 277.233 361.97 277.246 362.042 277.247ZM362.029 276.192C362.123 276.193 362.201 276.205 362.265 276.229C362.329 276.253 362.379 276.287 362.416 276.329C362.455 276.372 362.481 276.423 362.496 276.484C362.513 276.544 362.521 276.609 362.52 276.681L362.512 277.422C362.469 277.431 362.402 277.442 362.313 277.453C362.226 277.466 362.127 277.472 362.016 277.471C361.943 277.47 361.876 277.463 361.815 277.448C361.754 277.433 361.702 277.41 361.659 277.379C361.617 277.347 361.584 277.306 361.56 277.256C361.537 277.206 361.526 277.144 361.526 277.071C361.527 277.001 361.541 276.941 361.568 276.893C361.597 276.845 361.634 276.807 361.681 276.778C361.729 276.747 361.783 276.726 361.844 276.714C361.906 276.7 361.971 276.694 362.038 276.695C362.069 276.695 362.102 276.698 362.136 276.703C362.17 276.706 362.207 276.713 362.246 276.723L362.246 276.676C362.247 276.643 362.243 276.612 362.236 276.582C362.228 276.552 362.214 276.527 362.194 276.505C362.176 276.481 362.15 276.463 362.118 276.45C362.087 276.437 362.047 276.431 361.999 276.43C361.933 276.429 361.873 276.433 361.818 276.442C361.764 276.451 361.719 276.461 361.685 276.474L361.652 276.244C361.688 276.232 361.74 276.22 361.809 276.208C361.878 276.196 361.951 276.191 362.029 276.192ZM363.84 276.241C363.709 276.704 363.558 277.124 363.387 277.499C363.356 277.569 363.323 277.629 363.29 277.678C363.256 277.728 363.219 277.769 363.178 277.801C363.138 277.834 363.092 277.857 363.042 277.87C362.992 277.885 362.934 277.892 362.869 277.892C362.825 277.891 362.782 277.886 362.738 277.876C362.696 277.867 362.664 277.856 362.642 277.845L362.696 277.619C362.752 277.641 362.807 277.652 362.862 277.653C362.935 277.654 362.992 277.636 363.033 277.601C363.076 277.567 363.113 277.514 363.145 277.441C363.058 277.268 362.974 277.08 362.893 276.877C362.814 276.673 362.744 276.457 362.682 276.229L362.984 276.232C362.999 276.298 363.017 276.369 363.038 276.445C363.061 276.522 363.085 276.6 363.111 276.68C363.136 276.758 363.164 276.837 363.192 276.915C363.221 276.993 363.25 277.066 363.279 277.133C363.33 276.995 363.379 276.848 363.424 276.693C363.469 276.536 363.511 276.384 363.548 276.238L363.84 276.241ZM364.745 276.83C364.747 276.703 364.731 276.61 364.699 276.554C364.669 276.496 364.61 276.466 364.522 276.465C364.491 276.465 364.457 276.467 364.419 276.471C364.382 276.476 364.354 276.479 364.335 276.482L364.325 277.469L364.042 277.466L364.054 276.283C364.109 276.268 364.18 276.254 364.267 276.241C364.356 276.228 364.45 276.221 364.548 276.222C364.632 276.223 364.701 276.235 364.754 276.257C364.808 276.28 364.853 276.309 364.888 276.345C364.906 276.333 364.928 276.32 364.954 276.306C364.981 276.292 365.011 276.28 365.044 276.27C365.076 276.258 365.111 276.248 365.147 276.24C365.184 276.233 365.222 276.229 365.259 276.23C365.354 276.231 365.432 276.246 365.493 276.274C365.555 276.301 365.603 276.34 365.637 276.39C365.672 276.439 365.695 276.499 365.707 276.569C365.721 276.638 365.727 276.713 365.726 276.796L365.719 277.484L365.436 277.481L365.442 276.838C365.444 276.71 365.429 276.618 365.399 276.561C365.368 276.503 365.308 276.474 365.219 276.473C365.174 276.472 365.131 276.48 365.09 276.495C365.05 276.508 365.019 276.522 364.999 276.536C365.011 276.575 365.019 276.616 365.023 276.66C365.027 276.704 365.029 276.751 365.029 276.801L365.022 277.477L364.739 277.474L364.745 276.83ZM366.004 276.881C366.005 276.773 366.022 276.679 366.054 276.598C366.087 276.518 366.131 276.451 366.184 276.398C366.238 276.344 366.299 276.305 366.368 276.279C366.437 276.251 366.507 276.238 366.579 276.239C366.747 276.241 366.878 276.294 366.97 276.4C367.064 276.505 367.11 276.661 367.108 276.869C367.108 276.884 367.107 276.902 367.105 276.923C367.105 276.941 367.104 276.958 367.102 276.974L366.295 276.966C366.302 277.064 366.336 277.141 366.396 277.196C366.458 277.25 366.547 277.277 366.664 277.278C366.733 277.279 366.795 277.273 366.851 277.262C366.909 277.25 366.955 277.237 366.988 277.223L367.023 277.455C367.007 277.463 366.985 277.471 366.957 277.48C366.93 277.488 366.899 277.494 366.863 277.5C366.829 277.508 366.791 277.514 366.751 277.518C366.71 277.522 366.669 277.524 366.627 277.524C366.519 277.522 366.426 277.506 366.346 277.474C366.267 277.44 366.202 277.395 366.151 277.338C366.1 277.28 366.063 277.213 366.039 277.136C366.015 277.058 366.003 276.973 366.004 276.881ZM366.826 276.763C366.827 276.724 366.822 276.687 366.811 276.653C366.8 276.617 366.784 276.586 366.763 276.561C366.743 276.534 366.717 276.514 366.686 276.5C366.657 276.484 366.621 276.475 366.579 276.475C366.535 276.475 366.497 276.483 366.464 276.5C366.431 276.515 366.403 276.536 366.379 276.562C366.357 276.588 366.34 276.618 366.327 276.653C366.314 276.687 366.305 276.722 366.3 276.758L366.826 276.763ZM367.414 276.318C367.469 276.303 367.54 276.288 367.627 276.275C367.715 276.262 367.812 276.256 367.918 276.257C368.017 276.258 368.101 276.273 368.167 276.302C368.234 276.329 368.287 276.368 368.325 276.418C368.365 276.467 368.393 276.527 368.408 276.597C368.424 276.666 368.432 276.741 368.431 276.824L368.424 277.512L368.141 277.509L368.148 276.866C368.148 276.8 368.144 276.745 368.135 276.699C368.128 276.652 368.114 276.615 368.094 276.587C368.076 276.557 368.05 276.535 368.015 276.523C367.983 276.508 367.942 276.501 367.894 276.5C367.858 276.5 367.821 276.502 367.782 276.506C367.743 276.51 367.714 276.514 367.695 276.517L367.685 277.504L367.402 277.501L367.414 276.318ZM368.772 275.969L369.055 275.925L369.052 276.295L369.487 276.299L369.484 276.535L369.049 276.531L369.044 277.029C369.043 277.127 369.058 277.198 369.089 277.24C369.119 277.283 369.172 277.304 369.247 277.305C369.298 277.306 369.344 277.301 369.383 277.29C369.423 277.28 369.456 277.27 369.479 277.261L369.523 277.486C369.491 277.499 369.448 277.513 369.394 277.526C369.341 277.541 369.279 277.549 369.207 277.548C369.12 277.547 369.047 277.535 368.988 277.51C368.93 277.487 368.884 277.453 368.851 277.408C368.817 277.363 368.793 277.309 368.78 277.246C368.766 277.182 368.76 277.11 368.761 277.029L368.772 275.969ZM370.703 277.315C370.809 277.316 370.886 277.299 370.935 277.264C370.984 277.229 371.008 277.178 371.009 277.113C371.009 277.074 371.001 277.04 370.984 277.012C370.969 276.984 370.946 276.958 370.915 276.936C370.885 276.913 370.849 276.891 370.806 276.872C370.762 276.851 370.712 276.831 370.656 276.812C370.601 276.791 370.546 276.769 370.493 276.745C370.442 276.719 370.397 276.688 370.356 276.652C370.318 276.616 370.286 276.573 370.262 276.522C370.239 276.472 370.228 276.412 370.229 276.342C370.23 276.195 370.282 276.081 370.384 276C370.486 275.917 370.625 275.876 370.799 275.878C370.901 275.879 370.99 275.891 371.068 275.916C371.147 275.938 371.21 275.963 371.254 275.99L371.161 276.228C371.108 276.198 371.05 276.174 370.986 276.158C370.924 276.142 370.859 276.133 370.792 276.133C370.713 276.132 370.65 276.148 370.605 276.18C370.561 276.212 370.538 276.258 370.538 276.317C370.537 276.353 370.544 276.384 370.558 276.411C370.573 276.436 370.594 276.459 370.62 276.479C370.648 276.5 370.68 276.519 370.715 276.537C370.753 276.554 370.793 276.571 370.837 276.587C370.913 276.616 370.98 276.645 371.039 276.676C371.1 276.704 371.15 276.739 371.19 276.78C371.232 276.819 371.263 276.867 371.285 276.921C371.306 276.975 371.316 277.039 371.315 277.116C371.314 277.262 371.26 277.376 371.155 277.456C371.051 277.534 370.9 277.572 370.7 277.57C370.633 277.57 370.572 277.564 370.515 277.554C370.461 277.546 370.412 277.535 370.368 277.522C370.326 277.51 370.29 277.497 370.259 277.484C370.228 277.47 370.203 277.457 370.184 277.446L370.273 277.206C370.315 277.229 370.372 277.253 370.443 277.278C370.515 277.302 370.601 277.314 370.703 277.315ZM371.495 276.938C371.496 276.83 371.513 276.736 371.545 276.655C371.578 276.574 371.622 276.508 371.675 276.455C371.729 276.401 371.79 276.361 371.859 276.335C371.928 276.308 371.998 276.295 372.07 276.296C372.239 276.297 372.369 276.351 372.461 276.456C372.555 276.562 372.601 276.718 372.599 276.926C372.599 276.941 372.598 276.959 372.596 276.979C372.596 276.998 372.595 277.015 372.594 277.031L371.787 277.022C371.793 277.121 371.827 277.198 371.887 277.253C371.949 277.306 372.038 277.334 372.155 277.335C372.224 277.336 372.286 277.33 372.343 277.318C372.4 277.306 372.446 277.294 372.479 277.28L372.514 277.512C372.498 277.52 372.476 277.528 372.448 277.537C372.421 277.544 372.39 277.551 372.354 277.557C372.32 277.564 372.282 277.57 372.242 277.575C372.201 277.579 372.16 277.581 372.118 277.58C372.01 277.579 371.917 277.563 371.837 277.531C371.758 277.497 371.693 277.452 371.642 277.395C371.592 277.337 371.554 277.27 371.53 277.193C371.506 277.115 371.494 277.03 371.495 276.938ZM372.317 276.82C372.318 276.781 372.313 276.744 372.302 276.71C372.292 276.674 372.275 276.643 372.254 276.618C372.234 276.591 372.208 276.571 372.177 276.556C372.148 276.54 372.112 276.532 372.07 276.532C372.026 276.531 371.988 276.54 371.955 276.556C371.922 276.572 371.894 276.592 371.87 276.619C371.848 276.645 371.831 276.675 371.818 276.709C371.805 276.744 371.796 276.779 371.791 276.814L372.317 276.82ZM373.6 276.597C373.577 276.589 373.544 276.581 373.502 276.572C373.461 276.563 373.414 276.557 373.359 276.557C373.328 276.557 373.295 276.559 373.259 276.565C373.224 276.571 373.2 276.576 373.186 276.581L373.176 277.561L372.893 277.558L372.905 276.393C372.96 276.373 373.028 276.355 373.109 276.339C373.192 276.321 373.283 276.313 373.383 276.314C373.402 276.314 373.423 276.316 373.448 276.319C373.473 276.321 373.498 276.324 373.523 276.329C373.548 276.333 373.572 276.338 373.595 276.344C373.619 276.349 373.637 276.354 373.651 276.359L373.6 276.597ZM374.191 277.571C374.114 277.41 374.036 277.225 373.956 277.017C373.877 276.807 373.805 276.583 373.74 276.343L374.042 276.346C374.058 276.415 374.077 276.489 374.098 276.569C374.121 276.647 374.144 276.726 374.168 276.806C374.194 276.884 374.22 276.961 374.245 277.036C374.273 277.11 374.298 277.176 374.321 277.236C374.345 277.177 374.37 277.111 374.397 277.038C374.425 276.963 374.451 276.887 374.477 276.809C374.504 276.73 374.53 276.652 374.554 276.574C374.578 276.495 374.6 276.421 374.617 276.352L374.91 276.355C374.84 276.593 374.763 276.816 374.678 277.024C374.595 277.231 374.514 277.414 374.434 277.574L374.191 277.571ZM375.394 277.584L375.111 277.581L375.123 276.358L375.406 276.36L375.394 277.584ZM375.441 276.003C375.44 276.056 375.422 276.098 375.388 276.129C375.353 276.16 375.312 276.175 375.266 276.174C375.217 276.174 375.176 276.158 375.142 276.126C375.108 276.095 375.092 276.052 375.092 275.999C375.093 275.945 375.11 275.902 375.145 275.871C375.179 275.84 375.221 275.825 375.269 275.826C375.316 275.826 375.356 275.842 375.39 275.874C375.424 275.905 375.441 275.948 375.441 276.003ZM375.693 276.976C375.694 276.886 375.709 276.802 375.738 276.724C375.767 276.645 375.807 276.577 375.859 276.52C375.913 276.462 375.978 276.418 376.053 276.386C376.128 276.354 376.212 276.338 376.306 276.339C376.421 276.341 376.53 276.363 376.633 276.406L376.569 276.637C376.537 276.622 376.5 276.61 376.457 276.601C376.417 276.591 376.373 276.586 376.327 276.585C376.216 276.584 376.131 276.618 376.073 276.688C376.015 276.756 375.985 276.853 375.983 276.979C375.982 277.101 376.008 277.198 376.062 277.27C376.116 277.341 376.208 277.377 376.337 277.378C376.386 277.379 376.433 277.375 376.48 277.366C376.527 277.357 376.568 277.346 376.602 277.332L376.639 277.566C376.608 277.581 376.56 277.595 376.496 277.607C376.434 277.619 376.369 277.624 376.302 277.624C376.197 277.622 376.106 277.606 376.029 277.574C375.953 277.54 375.889 277.495 375.838 277.439C375.789 277.38 375.752 277.312 375.728 277.234C375.704 277.154 375.692 277.068 375.693 276.976ZM376.797 276.992C376.798 276.885 376.814 276.791 376.846 276.71C376.88 276.629 376.923 276.563 376.977 276.51C377.031 276.456 377.092 276.416 377.161 276.39C377.23 276.363 377.3 276.35 377.372 276.35C377.54 276.352 377.67 276.406 377.763 276.511C377.857 276.617 377.903 276.773 377.901 276.98C377.901 276.996 377.9 277.014 377.898 277.034C377.898 277.053 377.897 277.07 377.895 277.086L377.088 277.077C377.095 277.176 377.128 277.252 377.189 277.308C377.25 277.361 377.34 277.389 377.457 277.39C377.525 277.391 377.588 277.385 377.644 277.373C377.702 277.361 377.747 277.348 377.78 277.335L377.815 277.567C377.8 277.574 377.778 277.583 377.749 277.592C377.723 277.599 377.692 277.606 377.656 277.612C377.621 277.619 377.584 277.625 377.543 277.629C377.503 277.634 377.461 277.636 377.419 277.635C377.312 277.634 377.218 277.617 377.139 277.585C377.06 277.552 376.995 277.507 376.944 277.45C376.893 277.392 376.856 277.324 376.831 277.248C376.807 277.17 376.796 277.084 376.797 276.992ZM377.619 276.875C377.619 276.836 377.614 276.799 377.604 276.764C377.593 276.729 377.577 276.698 377.555 276.673C377.535 276.646 377.51 276.626 377.479 276.611C377.449 276.595 377.414 276.587 377.372 276.587C377.328 276.586 377.29 276.594 377.257 276.611C377.224 276.626 377.195 276.647 377.172 276.673C377.15 276.7 377.132 276.73 377.119 276.764C377.107 276.798 377.098 276.833 377.093 276.869L377.619 276.875ZM379.23 275.986C379.465 275.988 379.645 276.033 379.769 276.12C379.894 276.207 379.956 276.342 379.954 276.524C379.953 276.62 379.935 276.701 379.9 276.77C379.867 276.836 379.818 276.891 379.753 276.934C379.689 276.976 379.611 277.006 379.518 277.025C379.426 277.045 379.321 277.054 379.202 277.052L379.055 277.051L379.049 277.622L378.754 277.619L378.771 276.021C378.84 276.006 378.915 275.997 378.998 275.993C379.082 275.988 379.16 275.985 379.23 275.986ZM379.248 276.241C379.173 276.24 379.112 276.242 379.063 276.246L379.058 276.798L379.2 276.8C379.342 276.801 379.451 276.783 379.528 276.745C379.605 276.705 379.644 276.63 379.645 276.519C379.646 276.466 379.636 276.421 379.616 276.385C379.596 276.349 379.569 276.321 379.533 276.3C379.497 276.28 379.454 276.265 379.405 276.257C379.356 276.247 379.304 276.242 379.248 276.241ZM380.905 276.672C380.881 276.664 380.849 276.656 380.807 276.648C380.766 276.638 380.719 276.633 380.664 276.632C380.633 276.632 380.599 276.635 380.563 276.641C380.529 276.647 380.505 276.652 380.491 276.656L380.481 277.636L380.198 277.633L380.21 276.469C380.264 276.449 380.332 276.431 380.414 276.415C380.497 276.397 380.588 276.388 380.688 276.389C380.706 276.39 380.728 276.391 380.753 276.395C380.778 276.397 380.803 276.4 380.828 276.405C380.853 276.408 380.877 276.413 380.9 276.42C380.924 276.425 380.942 276.429 380.956 276.434L380.905 276.672ZM382.254 277.042C382.253 277.138 382.238 277.226 382.209 277.306C382.18 277.385 382.139 277.452 382.087 277.508C382.035 277.564 381.972 277.607 381.899 277.637C381.827 277.667 381.747 277.682 381.66 277.681C381.573 277.68 381.493 277.664 381.422 277.632C381.35 277.6 381.289 277.556 381.238 277.499C381.187 277.442 381.148 277.374 381.119 277.294C381.092 277.215 381.078 277.126 381.079 277.03C381.08 276.933 381.095 276.846 381.124 276.768C381.155 276.689 381.196 276.622 381.248 276.566C381.302 276.51 381.364 276.468 381.436 276.439C381.508 276.409 381.587 276.394 381.673 276.395C381.759 276.396 381.837 276.412 381.909 276.444C381.982 276.474 382.044 276.518 382.095 276.575C382.146 276.631 382.185 276.7 382.212 276.779C382.241 276.858 382.255 276.945 382.254 277.042ZM381.964 277.039C381.965 276.917 381.939 276.821 381.887 276.75C381.836 276.678 381.764 276.641 381.671 276.64C381.577 276.639 381.503 276.675 381.45 276.746C381.397 276.815 381.371 276.911 381.369 277.033C381.368 277.156 381.393 277.254 381.444 277.326C381.496 277.398 381.569 277.435 381.662 277.436C381.756 277.437 381.829 277.402 381.881 277.33C381.935 277.259 381.962 277.162 381.964 277.039ZM382.825 277.661C382.749 277.499 382.67 277.314 382.59 277.106C382.511 276.896 382.439 276.672 382.374 276.433L382.676 276.436C382.693 276.504 382.711 276.579 382.732 276.658C382.755 276.737 382.778 276.816 382.802 276.895C382.828 276.974 382.854 277.05 382.879 277.125C382.907 277.199 382.932 277.266 382.955 277.325C382.979 277.266 383.004 277.2 383.032 277.127C383.059 277.052 383.085 276.976 383.111 276.899C383.138 276.819 383.164 276.741 383.188 276.663C383.213 276.584 383.234 276.51 383.251 276.442L383.544 276.445C383.474 276.682 383.397 276.905 383.312 277.114C383.229 277.32 383.148 277.503 383.068 277.663L382.825 277.661ZM384.028 277.673L383.745 277.67L383.758 276.447L384.041 276.45L384.028 277.673ZM384.075 276.092C384.074 276.145 384.057 276.187 384.022 276.218C383.987 276.249 383.947 276.264 383.9 276.263C383.851 276.263 383.81 276.247 383.776 276.215C383.742 276.184 383.726 276.142 383.726 276.089C383.727 276.034 383.744 275.991 383.779 275.96C383.814 275.93 383.855 275.914 383.903 275.915C383.95 275.915 383.991 275.931 384.025 275.963C384.059 275.995 384.075 276.038 384.075 276.092ZM384.618 277.064C384.616 277.189 384.645 277.287 384.703 277.36C384.762 277.43 384.843 277.466 384.948 277.467C384.993 277.468 385.031 277.467 385.063 277.464C385.095 277.46 385.122 277.455 385.142 277.451L385.149 276.749C385.125 276.732 385.091 276.716 385.049 276.701C385.009 276.685 384.965 276.677 384.919 276.676C384.816 276.675 384.74 276.71 384.691 276.779C384.643 276.849 384.619 276.944 384.618 277.064ZM385.423 277.65C385.367 277.667 385.296 277.681 385.21 277.695C385.126 277.708 385.037 277.714 384.943 277.713C384.846 277.712 384.76 277.696 384.684 277.666C384.608 277.635 384.543 277.593 384.489 277.537C384.436 277.481 384.396 277.413 384.367 277.335C384.34 277.255 384.326 277.166 384.327 277.068C384.328 276.971 384.341 276.884 384.365 276.806C384.391 276.727 384.428 276.66 384.475 276.604C384.522 276.548 384.58 276.506 384.647 276.477C384.714 276.447 384.792 276.432 384.879 276.433C384.938 276.433 384.99 276.441 385.036 276.455C385.081 276.47 385.119 276.486 385.152 276.503L385.158 275.916L385.442 275.872L385.423 277.65ZM385.721 277.085C385.722 276.977 385.738 276.883 385.77 276.802C385.804 276.721 385.848 276.655 385.901 276.602C385.955 276.548 386.016 276.508 386.085 276.483C386.154 276.455 386.224 276.442 386.296 276.443C386.464 276.444 386.595 276.498 386.687 276.603C386.781 276.709 386.827 276.865 386.825 277.073C386.825 277.088 386.824 277.106 386.822 277.126C386.822 277.145 386.821 277.162 386.819 277.178L386.012 277.17C386.019 277.268 386.053 277.345 386.113 277.4C386.175 277.454 386.264 277.481 386.381 277.482C386.45 277.483 386.512 277.477 386.568 277.465C386.626 277.453 386.671 277.441 386.704 277.427L386.739 277.659C386.724 277.667 386.702 277.675 386.674 277.684C386.647 277.692 386.616 277.698 386.58 277.704C386.545 277.712 386.508 277.717 386.467 277.722C386.427 277.726 386.385 277.728 386.343 277.727C386.236 277.726 386.142 277.71 386.063 277.678C385.984 277.644 385.919 277.599 385.868 277.542C385.817 277.484 385.78 277.417 385.756 277.34C385.731 277.262 385.72 277.177 385.721 277.085ZM386.543 276.967C386.543 276.928 386.538 276.891 386.528 276.857C386.517 276.821 386.501 276.79 386.48 276.765C386.46 276.738 386.434 276.718 386.403 276.703C386.374 276.688 386.338 276.679 386.296 276.679C386.252 276.678 386.214 276.687 386.181 276.703C386.148 276.719 386.12 276.739 386.096 276.766C386.074 276.792 386.056 276.822 386.044 276.856C386.031 276.891 386.022 276.926 386.017 276.961L386.543 276.967ZM387.826 276.744C387.802 276.736 387.77 276.728 387.728 276.719C387.687 276.71 387.64 276.705 387.585 276.704C387.554 276.704 387.52 276.706 387.484 276.712C387.45 276.718 387.426 276.723 387.412 276.728L387.402 277.708L387.119 277.705L387.131 276.54C387.185 276.52 387.253 276.502 387.335 276.486C387.417 276.468 387.509 276.46 387.609 276.461C387.627 276.461 387.649 276.463 387.674 276.466C387.699 276.468 387.724 276.471 387.749 276.476C387.774 276.48 387.798 276.485 387.821 276.491C387.845 276.496 387.863 276.501 387.877 276.506L387.826 276.744Z" fill="#C4C4C4"/>
<path d="M523.058 145.428H463.457C461.623 145.428 459.864 146.156 458.567 147.454C457.27 148.751 456.541 150.51 456.541 152.344V166.423C456.542 168.106 457.156 169.731 458.268 170.993C459.381 172.256 460.916 173.07 462.585 173.282C462.826 173.313 463.047 173.43 463.208 173.612C463.369 173.794 463.457 174.029 463.457 174.271V181.979C463.457 182.076 463.488 182.17 463.545 182.249C463.602 182.328 463.683 182.386 463.775 182.416C463.867 182.445 463.967 182.445 464.059 182.414C464.151 182.384 464.231 182.325 464.288 182.246L470.355 173.757C470.449 173.627 470.571 173.52 470.714 173.447C470.856 173.374 471.014 173.336 471.175 173.336H523.058C524.892 173.335 526.651 172.606 527.948 171.309C529.245 170.012 529.973 168.253 529.973 166.419V152.344C529.973 150.51 529.245 148.751 527.948 147.454C526.651 146.157 524.892 145.428 523.058 145.428Z" fill="#72AC47"/>
<path d="M472.601 159.365C472.601 159.815 472.467 160.255 472.217 160.63C471.967 161.005 471.611 161.297 471.195 161.469C470.779 161.642 470.321 161.687 469.879 161.599C469.437 161.511 469.031 161.294 468.713 160.976C468.394 160.657 468.177 160.251 468.09 159.809C468.002 159.368 468.047 158.91 468.219 158.493C468.392 158.077 468.684 157.722 469.058 157.471C469.433 157.221 469.873 157.088 470.324 157.088C470.623 157.088 470.919 157.147 471.195 157.261C471.472 157.375 471.723 157.543 471.934 157.755C472.145 157.966 472.313 158.217 472.427 158.493C472.542 158.769 472.601 159.066 472.601 159.365V159.365Z" stroke="white" stroke-width="0.590935" stroke-miterlimit="10"/>
<path d="M484.068 159.365C484.068 159.815 483.935 160.256 483.684 160.631C483.434 161.005 483.078 161.298 482.662 161.47C482.246 161.643 481.788 161.688 481.346 161.6C480.904 161.512 480.498 161.295 480.179 160.977C479.86 160.658 479.643 160.252 479.555 159.81C479.468 159.368 479.513 158.91 479.685 158.494C479.858 158.077 480.15 157.721 480.525 157.471C480.9 157.221 481.34 157.088 481.791 157.088C482.395 157.088 482.974 157.328 483.401 157.755C483.828 158.182 484.068 158.761 484.068 159.365V159.365Z" stroke="white" stroke-width="0.590935" stroke-miterlimit="10"/>
<path d="M495.535 159.365C495.535 159.815 495.402 160.255 495.152 160.63C494.901 161.005 494.546 161.297 494.13 161.469C493.713 161.642 493.256 161.687 492.814 161.599C492.372 161.511 491.966 161.294 491.647 160.976C491.329 160.657 491.112 160.251 491.024 159.809C490.936 159.368 490.982 158.91 491.154 158.493C491.326 158.077 491.618 157.722 491.993 157.471C492.368 157.221 492.808 157.088 493.258 157.088C493.557 157.088 493.854 157.147 494.13 157.261C494.406 157.375 494.657 157.543 494.869 157.755C495.08 157.966 495.248 158.217 495.362 158.493C495.476 158.769 495.535 159.066 495.535 159.365V159.365Z" stroke="white" stroke-width="0.590935" stroke-miterlimit="10"/>
<path d="M507.002 159.365C507.002 159.815 506.869 160.255 506.618 160.63C506.368 161.005 506.013 161.297 505.596 161.469C505.18 161.642 504.722 161.687 504.28 161.599C503.839 161.511 503.433 161.294 503.114 160.976C502.796 160.657 502.579 160.251 502.491 159.809C502.403 159.368 502.448 158.91 502.621 158.493C502.793 158.077 503.085 157.722 503.46 157.471C503.834 157.221 504.275 157.088 504.725 157.088C505.024 157.088 505.32 157.147 505.597 157.261C505.873 157.375 506.124 157.543 506.335 157.755C506.547 157.966 506.714 158.217 506.829 158.493C506.943 158.769 507.002 159.066 507.002 159.365V159.365Z" stroke="white" stroke-width="0.590935" stroke-miterlimit="10"/>
<path d="M518.47 159.365C518.47 159.815 518.336 160.255 518.086 160.63C517.836 161.005 517.48 161.297 517.064 161.469C516.648 161.642 516.19 161.687 515.748 161.599C515.306 161.511 514.901 161.294 514.582 160.976C514.264 160.657 514.047 160.251 513.959 159.809C513.871 159.368 513.916 158.91 514.089 158.493C514.261 158.077 514.553 157.722 514.928 157.471C515.302 157.221 515.743 157.088 516.193 157.088C516.797 157.088 517.376 157.328 517.803 157.755C518.23 158.182 518.47 158.761 518.47 159.365V159.365Z" stroke="white" stroke-width="0.590935" stroke-miterlimit="10"/>
<path d="M521.195 407.975H485.47C483.984 407.975 482.512 407.683 481.139 407.114C479.766 406.545 478.518 405.711 477.467 404.66C476.417 403.609 475.583 402.362 475.014 400.988C474.446 399.615 474.153 398.143 474.153 396.657V360.933C474.153 357.932 475.346 355.054 477.468 352.932C479.59 350.809 482.469 349.617 485.47 349.617H521.195C524.197 349.617 527.075 350.809 529.198 352.932C531.32 355.054 532.512 357.932 532.513 360.933V396.657C532.512 399.659 531.32 402.537 529.198 404.659C527.075 406.781 524.197 407.973 521.195 407.973" fill="#5C5B59"/>
<path d="M519.546 407.975H483.821C482.334 407.975 480.863 407.682 479.49 407.114C478.117 406.545 476.869 405.711 475.818 404.66C474.767 403.609 473.934 402.361 473.365 400.988C472.796 399.615 472.504 398.143 472.504 396.657V360.933C472.504 357.932 473.697 355.054 475.819 352.932C477.941 350.81 480.819 349.617 483.821 349.617H519.546C521.032 349.617 522.504 349.91 523.877 350.478C525.25 351.047 526.497 351.881 527.548 352.931C528.599 353.982 529.433 355.23 530.002 356.603C530.57 357.976 530.863 359.447 530.863 360.933V396.657C530.863 398.143 530.57 399.615 530.002 400.988C529.433 402.361 528.599 403.608 527.548 404.659C526.497 405.71 525.25 406.544 523.877 407.112C522.504 407.681 521.032 407.973 519.546 407.973" fill="#72AC47"/>
<path d="M508.696 363.936C508.696 365.323 508.285 366.678 507.514 367.831C506.744 368.985 505.649 369.883 504.368 370.414C503.086 370.945 501.677 371.084 500.316 370.813C498.956 370.543 497.707 369.875 496.726 368.895C495.745 367.914 495.077 366.665 494.807 365.305C494.536 363.945 494.675 362.535 495.205 361.253C495.736 359.972 496.634 358.877 497.787 358.106C498.94 357.336 500.296 356.924 501.683 356.924C502.604 356.924 503.516 357.105 504.366 357.457C505.217 357.81 505.99 358.326 506.642 358.977C507.293 359.628 507.809 360.401 508.162 361.252C508.514 362.103 508.696 363.015 508.696 363.936Z" fill="white"/>
<path d="M516.301 387.676V398.023C516.3 398.472 516.122 398.903 515.804 399.22C515.487 399.538 515.056 399.716 514.607 399.717H488.759C488.536 399.717 488.316 399.673 488.111 399.588C487.905 399.503 487.719 399.378 487.562 399.22C487.404 399.063 487.28 398.876 487.195 398.671C487.11 398.466 487.066 398.245 487.066 398.023V387.676C487.066 385.756 487.444 383.855 488.179 382.082C488.914 380.309 489.99 378.697 491.348 377.34C492.705 375.983 494.316 374.906 496.09 374.171C497.863 373.437 499.764 373.059 501.683 373.059C503.603 373.059 505.504 373.437 507.277 374.171C509.051 374.906 510.662 375.983 512.019 377.34C513.377 378.697 514.453 380.309 515.188 382.082C515.922 383.855 516.301 385.756 516.301 387.676Z" fill="white"/>
<path d="M83.7554 194.127C83.7554 194.322 83.6978 194.512 83.5898 194.673C83.4818 194.835 83.3284 194.961 83.1488 195.035C82.9692 195.109 82.7716 195.129 82.581 195.091C82.3904 195.053 82.2153 194.96 82.0779 194.822C81.9404 194.685 81.8468 194.51 81.8089 194.319C81.771 194.128 81.7905 193.931 81.8648 193.751C81.9392 193.572 82.0652 193.418 82.2268 193.31C82.3884 193.202 82.5784 193.145 82.7727 193.145C83.0333 193.145 83.2832 193.248 83.4674 193.433C83.6517 193.617 83.7553 193.867 83.7554 194.127Z" fill="white"/>
<path d="M78.6334 194.127C78.6334 194.322 78.5757 194.512 78.4677 194.673C78.3598 194.835 78.2063 194.961 78.0267 195.035C77.8472 195.109 77.6496 195.129 77.4589 195.091C77.2683 195.053 77.0932 194.96 76.9558 194.822C76.8184 194.685 76.7248 194.51 76.6869 194.319C76.6489 194.128 76.6684 193.931 76.7428 193.751C76.8172 193.572 76.9431 193.418 77.1047 193.31C77.2663 193.202 77.4563 193.145 77.6507 193.145C77.9112 193.145 78.1611 193.248 78.3453 193.433C78.5296 193.617 78.6332 193.867 78.6334 194.127Z" fill="white"/>
<path d="M452.496 36.9524C452.497 44.1734 450.356 51.2325 446.345 57.2369C442.334 63.2413 436.632 67.9213 429.961 70.6851C423.289 73.4489 415.948 74.1723 408.866 72.7639C401.784 71.3555 395.278 67.8785 390.172 62.7726C385.066 57.6668 381.588 51.1614 380.179 44.0791C378.77 36.9969 379.493 29.6558 382.257 22.9844C385.02 16.313 389.699 10.6109 395.704 6.59914C401.708 2.58737 408.767 0.446159 415.988 0.446289C425.67 0.446289 434.956 4.29237 441.802 11.1385C448.649 17.9847 452.496 27.2701 452.496 36.9524V36.9524Z" stroke="#B9B9B9" stroke-width="0.521026" stroke-miterlimit="10"/>
<path d="M447.728 36.9539C447.728 43.2317 445.867 49.3685 442.379 54.5883C438.891 59.808 433.934 63.8764 428.134 66.2788C422.334 68.6812 415.952 69.3098 409.795 68.085C403.638 66.8603 397.982 63.8372 393.543 59.3982C389.104 54.9591 386.081 49.3034 384.856 43.1463C383.631 36.9891 384.26 30.6071 386.662 24.8071C389.065 19.0072 393.133 14.05 398.353 10.5622C403.573 7.07447 409.709 5.21289 415.987 5.21289C424.405 5.21289 432.479 8.55702 438.431 14.5096C444.384 20.4622 447.728 28.5357 447.728 36.9539Z" fill="#72AC47"/>
<path d="M418.878 36.9532C418.879 37.5247 418.709 38.0834 418.392 38.5587C418.074 39.0339 417.623 39.4044 417.095 39.6232C416.567 39.8419 415.986 39.8992 415.425 39.7877C414.865 39.6763 414.35 39.4011 413.946 38.9969C413.542 38.5928 413.267 38.0779 413.155 37.5174C413.044 36.9568 413.101 36.3758 413.32 35.8478C413.538 35.3198 413.909 34.8686 414.384 34.5511C414.859 34.2337 415.418 34.0643 415.99 34.0645C416.369 34.0644 416.745 34.139 417.095 34.2842C417.446 34.4293 417.764 34.6421 418.032 34.9103C418.301 35.1786 418.514 35.4971 418.659 35.8476C418.804 36.1981 418.878 36.5738 418.878 36.9532Z" fill="white"/>
<path d="M415.674 36.3839C415.464 36.4999 415.217 36.528 414.987 36.4621C414.756 36.3962 414.562 36.2417 414.445 36.0324L405.11 19.194C404.994 18.9841 404.966 18.7367 405.032 18.5061C405.099 18.2756 405.254 18.0808 405.464 17.9646C405.674 17.8485 405.921 17.8205 406.152 17.8868C406.382 17.9531 406.577 18.1082 406.693 18.3182L416.023 35.1552C416.08 35.2589 416.117 35.373 416.131 35.4909C416.144 35.6089 416.134 35.7283 416.102 35.8424C416.069 35.9566 416.014 36.0631 415.94 36.156C415.866 36.2489 415.775 36.3264 415.671 36.3839" fill="white"/>
<path d="M416.447 37.4121C416.617 37.2426 416.847 37.1475 417.087 37.1475C417.327 37.1475 417.557 37.2426 417.727 37.4121L425.801 45.488C425.885 45.5719 425.952 45.6716 425.997 45.7812C426.043 45.8909 426.066 46.0084 426.066 46.1271C426.066 46.2458 426.043 46.3633 425.997 46.473C425.952 46.5826 425.885 46.6823 425.801 46.7662C425.717 46.8501 425.618 46.9167 425.508 46.9621C425.399 47.0075 425.281 47.0309 425.162 47.0309C425.044 47.0309 424.926 47.0075 424.816 46.9621C424.707 46.9167 424.607 46.8501 424.523 46.7662L416.447 38.6903C416.278 38.5205 416.184 38.2907 416.184 38.0512C416.184 37.8117 416.278 37.5819 416.447 37.4121Z" fill="white"/>
<path d="M416.183 11.547V7.89648" stroke="white" stroke-width="1.31905" stroke-miterlimit="10" stroke-linecap="round"/>
<path d="M441.394 37.1475H445.044" stroke="white" stroke-width="1.31905" stroke-miterlimit="10" stroke-linecap="round"/>
<path d="M415.794 62.3584V66.0089" stroke="white" stroke-width="1.31905" stroke-miterlimit="10" stroke-linecap="round"/>
<path d="M390.582 36.7598H386.932" stroke="white" stroke-width="1.31905" stroke-miterlimit="10" stroke-linecap="round"/>
<g opacity="0.5">
<g opacity="0.5">
<path opacity="0.5" d="M403.455 14.8528L401.63 11.6924" stroke="#DEE3FC" stroke-width="0.659526" stroke-miterlimit="10" stroke-linecap="round"/>
<path opacity="0.5" d="M438.089 24.4167L441.249 22.5918" stroke="#DEE3FC" stroke-width="0.659526" stroke-miterlimit="10" stroke-linecap="round"/>
<path opacity="0.5" d="M428.524 59.0527L430.349 62.2132" stroke="#DEE3FC" stroke-width="0.659526" stroke-miterlimit="10" stroke-linecap="round"/>
<path opacity="0.5" d="M393.89 49.4883L390.729 51.3132" stroke="#DEE3FC" stroke-width="0.659526" stroke-miterlimit="10" stroke-linecap="round"/>
</g>
</g>
<g opacity="0.5">
<g opacity="0.5">
<path opacity="0.5" d="M394.082 24.0808L390.922 22.2559" stroke="#DEE3FC" stroke-width="0.659526" stroke-miterlimit="10" stroke-linecap="round"/>
<path opacity="0.5" d="M428.86 15.0475L430.685 11.8857" stroke="#DEE3FC" stroke-width="0.659526" stroke-miterlimit="10" stroke-linecap="round"/>
<path opacity="0.5" d="M437.894 49.8232L441.054 51.6482" stroke="#DEE3FC" stroke-width="0.659526" stroke-miterlimit="10" stroke-linecap="round"/>
<path opacity="0.5" d="M403.116 58.8564L401.291 62.0182" stroke="#DEE3FC" stroke-width="0.659526" stroke-miterlimit="10" stroke-linecap="round"/>
</g>
</g>
<g opacity="0.09">
<g opacity="0.09">
<path opacity="0.09" d="M114.744 136.446H74.6516C73.2399 136.446 71.842 136.168 70.5377 135.628C69.2334 135.088 68.0483 134.296 67.05 133.298C66.0518 132.299 65.2599 131.114 64.7197 129.81C64.1794 128.506 63.9014 127.108 63.9014 125.696V85.6067C63.9014 82.7556 65.034 80.0212 67.05 78.0051C69.0661 75.9891 71.8005 74.8564 74.6516 74.8564H114.744C116.155 74.8564 117.553 75.1345 118.858 75.6748C120.162 76.215 121.347 77.0069 122.345 78.0051C123.343 79.0034 124.135 80.1885 124.676 81.4928C125.216 82.797 125.494 84.195 125.494 85.6067V125.699C125.494 127.11 125.216 128.508 124.676 129.813C124.135 131.117 123.343 132.302 122.345 133.3C121.347 134.299 120.162 135.09 118.858 135.631C117.553 136.171 116.155 136.449 114.744 136.449" fill="#1EBAED"/>
</g>
</g>
<path d="M114.354 136.728H69.9855C67.7016 136.728 65.5112 135.821 63.8963 134.206C62.2813 132.591 61.374 130.401 61.374 128.117V83.7527C61.3739 82.6218 61.5966 81.5019 62.0293 80.4571C62.4621 79.4122 63.0964 78.4628 63.896 77.6631C64.6957 76.8634 65.645 76.229 66.6898 75.7962C67.7347 75.3634 68.8545 75.1406 69.9855 75.1406H114.351C115.482 75.1403 116.602 75.3628 117.648 75.7954C118.693 76.2281 119.642 76.8624 120.442 77.6622C121.242 78.4619 121.877 79.4114 122.31 80.4564C122.743 81.5015 122.965 82.6216 122.965 83.7527V128.117C122.965 130.401 122.058 132.591 120.443 134.206C118.828 135.821 116.638 136.728 114.354 136.728Z" fill="#72AC47"/>
<path d="M102.836 98.8829H102.514V95.3551C102.514 92.5702 101.408 89.8993 99.4388 87.9301C97.4696 85.9608 94.7987 84.8545 92.0138 84.8545C89.2288 84.8545 86.5579 85.9608 84.5887 87.9301C82.6194 89.8993 81.5131 92.5702 81.5131 95.3551V98.8829H81.4425C80.6608 98.8829 79.9111 99.1935 79.3584 99.7462C78.8056 100.299 78.4951 101.049 78.4951 101.83V115.126C78.4952 115.513 78.5715 115.896 78.7197 116.253C78.8678 116.611 79.085 116.936 79.3587 117.209C79.6324 117.483 79.9573 117.7 80.3148 117.848C80.6724 117.996 81.0556 118.072 81.4425 118.072H102.836C103.223 118.072 103.606 117.996 103.963 117.848C104.321 117.7 104.646 117.483 104.919 117.209C105.193 116.936 105.41 116.611 105.558 116.253C105.707 115.896 105.783 115.513 105.783 115.126V101.83C105.783 101.049 105.472 100.299 104.92 99.7462C104.367 99.1935 103.617 98.8829 102.836 98.8829ZM84.175 95.3551C84.1939 93.2879 85.0284 91.3118 86.4969 89.8567C87.9654 88.4016 89.9491 87.5853 92.0164 87.5853C94.0837 87.5853 96.0674 88.4016 97.5359 89.8567C99.0044 91.3118 99.8389 93.2879 99.8578 95.3551V98.8829H84.175V95.3551Z" fill="white"/>
<path d="M95.5954 105.716C95.5973 105.114 95.4407 104.522 95.1414 104C94.842 103.477 94.4104 103.043 93.89 102.74C93.3695 102.438 92.7786 102.277 92.1765 102.275C91.5744 102.274 90.9825 102.43 90.4602 102.73C89.9379 103.029 89.5036 103.461 89.201 103.981C88.8984 104.502 88.7381 105.093 88.7363 105.695C88.7346 106.297 88.8913 106.889 89.1908 107.411C89.4903 107.933 89.922 108.367 90.4425 108.67C90.5632 108.734 90.6591 108.837 90.7152 108.961C90.7713 109.086 90.7844 109.226 90.7525 109.359L90.1589 111.559C90.0765 111.864 90.0654 112.184 90.1266 112.494C90.1878 112.804 90.3195 113.096 90.5116 113.346C90.7037 113.597 90.951 113.801 91.2343 113.94C91.5177 114.08 91.8294 114.153 92.1454 114.153C92.4614 114.153 92.7731 114.08 93.0565 113.94C93.3398 113.801 93.5871 113.597 93.7792 113.346C93.9713 113.096 94.103 112.804 94.1642 112.494C94.2254 112.184 94.2143 111.864 94.1319 111.559L93.5423 109.382C93.51 109.248 93.524 109.106 93.582 108.98C93.64 108.854 93.7387 108.751 93.8621 108.688C94.3885 108.391 94.8264 107.959 95.1309 107.437C95.4355 106.914 95.5958 106.321 95.5954 105.716Z" fill="#72AC47"/>
<path d="M104.518 122.734H79.7558C79.4207 122.734 79.0993 122.601 78.8623 122.364C78.6253 122.127 78.4922 121.806 78.4922 121.471C78.4922 121.136 78.6253 120.814 78.8623 120.577C79.0993 120.34 79.4207 120.207 79.7558 120.207H104.515C104.85 120.207 105.172 120.34 105.409 120.577C105.646 120.814 105.779 121.136 105.779 121.471C105.779 121.806 105.646 122.127 105.409 122.364C105.172 122.601 104.85 122.734 104.515 122.734" fill="white"/>
<path d="M104.518 127.017H79.7558C79.4207 127.017 79.0993 126.883 78.8623 126.646C78.6253 126.409 78.4922 126.088 78.4922 125.753C78.4922 125.418 78.6253 125.096 78.8623 124.859C79.0993 124.622 79.4207 124.489 79.7558 124.489H104.515C104.85 124.489 105.172 124.622 105.409 124.859C105.646 125.096 105.779 125.418 105.779 125.753C105.779 126.088 105.646 126.409 105.409 126.646C105.172 126.883 104.85 127.017 104.515 127.017" fill="white"/>
<g opacity="0.09">
<g opacity="0.09">
<path opacity="0.09" d="M108.437 345.764C108.166 344.301 108.214 342.798 108.578 341.356C109.813 336.522 111.228 327.434 108.084 317.613C102.838 301.231 81.5713 286.722 81.5713 286.722C81.5713 286.722 87.3421 310.896 92.0874 321.189C95.5612 328.725 101.64 337.301 105.014 341.817C105.953 343.066 106.588 344.516 106.869 346.053C108.942 357.258 109.924 368.637 109.8 380.031L111.396 380.093C111.522 368.581 110.531 357.084 108.437 345.763" fill="#1EBAED"/>
</g>
</g>
<g opacity="0.27">
<g opacity="0.27">
<path opacity="0.27" d="M125.392 330.365C129.616 317.011 131.581 301.28 131.581 301.28C131.581 301.28 112.514 317.011 110.948 329.183C110.188 334.863 110.631 340.64 112.248 346.139C112.707 347.629 112.86 349.196 112.698 350.747C111.516 361.326 111.384 371.996 112.302 382.602L113.737 382.436C112.872 372.484 112.948 362.472 113.963 352.535C114.201 350.217 115.114 348.019 116.59 346.216C120.467 341.514 123.45 336.142 125.392 330.365Z" fill="#1EBAED"/>
</g>
</g>
<g opacity="0.09">
<g opacity="0.09">
<path opacity="0.09" d="M144.775 300.656C144.775 300.656 124.23 308.282 118.855 325.059C115.586 335.268 117.13 344.705 118.408 349.593C118.758 350.964 118.756 352.402 118.403 353.772C113.589 373.077 113.518 393.059 113.518 393.325H115.153C115.153 393.061 115.228 373.557 119.875 354.626C120.333 352.747 121.161 350.979 122.311 349.424C125.816 344.704 131.779 336.213 135.232 328.721C140.091 318.182 144.772 300.66 144.772 300.66" fill="#1EBAED"/>
</g>
</g>
<g opacity="0.27">
<g opacity="0.27">
<path opacity="0.27" d="M108.523 371.435C108.009 364.995 106.405 358.689 103.778 352.787C103.314 351.727 103.148 350.561 103.299 349.414C103.688 346.068 103.526 342.682 102.819 339.389C101.153 331.158 90.2282 313.379 74.4121 312.336C74.4121 312.336 79.8684 321.108 82.6766 328.45C86.2302 337.737 91.3013 347.452 99.7109 351.181C101.189 351.848 102.354 353.057 102.966 354.559C105.232 359.965 106.621 365.698 107.081 371.541L108.523 371.435Z" fill="#1EBAED"/>
</g>
</g>
<path d="M97.8281 407.453H123.93L130.701 366.07C130.771 365.639 130.747 365.199 130.631 364.778C130.514 364.358 130.307 363.968 130.025 363.636C129.743 363.303 129.392 363.036 128.996 362.853C128.6 362.67 128.169 362.575 127.733 362.574H94.0259C93.5898 362.575 93.1589 362.67 92.7631 362.853C92.3674 363.036 92.0162 363.303 91.7339 363.636C91.4516 363.968 91.245 364.358 91.1283 364.778C91.0116 365.199 90.9876 365.639 91.0581 366.07L97.8281 407.453Z" fill="#72AC47"/>
<path d="M198.616 293.441H281.086C281.56 293.441 282.015 293.63 282.351 293.965C282.686 294.301 282.875 294.756 282.875 295.231V328.965C282.875 329.44 282.687 329.894 282.351 330.23C282.016 330.565 281.561 330.753 281.087 330.753H198.616C198.142 330.753 197.687 330.565 197.351 330.229C197.016 329.894 196.827 329.439 196.827 328.964V295.231C196.827 294.756 197.016 294.301 197.351 293.965C197.687 293.63 198.142 293.441 198.616 293.441V293.441Z" fill="#5C5B59"/>
<path d="M217.645 307.979C217.493 307.99 217.341 307.968 217.198 307.914C217.056 307.861 216.928 307.776 216.822 307.667C216.633 307.443 216.535 307.156 216.547 306.863V301.792C216.561 301.493 216.463 301.199 216.272 300.969C216.043 300.768 215.749 300.657 215.444 300.657C215.14 300.657 214.845 300.768 214.617 300.969C214.432 301.202 214.338 301.495 214.353 301.792C214.345 302.83 214.411 303.867 214.551 304.895C214.671 305.758 214.851 306.612 215.091 307.449C215.306 308.201 215.562 308.94 215.857 309.663C216.141 310.358 216.426 311.048 216.714 311.736C217.002 312.423 217.289 313.126 217.575 313.846C218.221 315.495 218.66 317.217 218.882 318.973C219.021 320.103 219.087 321.241 219.08 322.379C219.088 322.843 219.001 323.304 218.824 323.732C218.658 324.124 218.406 324.474 218.086 324.755C217.749 325.048 217.356 325.27 216.932 325.408C216.452 325.564 215.95 325.641 215.446 325.635C214.475 325.695 213.518 325.383 212.769 324.763C212.447 324.459 212.194 324.088 212.029 323.676C211.864 323.265 211.791 322.822 211.814 322.379V316.589C211.81 316.486 211.844 316.385 211.908 316.305C211.944 316.266 211.988 316.235 212.037 316.216C212.086 316.196 212.14 316.189 212.192 316.193H213.253C213.404 316.181 213.557 316.203 213.699 316.257C213.841 316.311 213.969 316.395 214.075 316.505C214.264 316.729 214.362 317.016 214.35 317.309V322.378C214.336 322.678 214.434 322.971 214.624 323.203C214.853 323.404 215.147 323.516 215.452 323.516C215.757 323.516 216.052 323.404 216.281 323.203C216.465 322.969 216.559 322.676 216.545 322.378C216.586 319.812 216.169 317.259 215.313 314.839C214.961 313.849 214.583 312.909 214.179 312.019C213.774 311.129 213.396 310.193 213.043 309.209C212.669 308.147 212.376 307.06 212.164 305.954C211.914 304.581 211.797 303.187 211.814 301.792C211.806 301.328 211.893 300.868 212.07 300.439C212.236 300.047 212.488 299.698 212.806 299.416C213.141 299.126 213.531 298.904 213.952 298.765C214.434 298.606 214.939 298.529 215.446 298.537C216.416 298.477 217.373 298.788 218.123 299.407C218.446 299.712 218.698 300.083 218.863 300.494C219.028 300.906 219.102 301.348 219.079 301.791V307.581C219.083 307.684 219.049 307.784 218.985 307.864C218.949 307.904 218.905 307.935 218.856 307.955C218.807 307.975 218.754 307.983 218.701 307.979H217.645Z" fill="white"/>
<path d="M233.274 314.868C233.261 314.577 233.355 314.291 233.538 314.064C233.639 313.956 233.762 313.87 233.898 313.814C234.035 313.757 234.182 313.73 234.33 313.734H235.427C235.48 313.73 235.533 313.738 235.582 313.758C235.632 313.778 235.676 313.809 235.711 313.849C235.776 313.929 235.809 314.03 235.806 314.133V322.382C235.829 322.825 235.755 323.268 235.59 323.68C235.425 324.091 235.172 324.463 234.85 324.767C234.1 325.387 233.143 325.698 232.172 325.638C231.665 325.645 231.16 325.569 230.678 325.411C230.258 325.271 229.869 325.049 229.534 324.758C229.214 324.477 228.962 324.128 228.796 323.736C228.619 323.306 228.532 322.845 228.54 322.381V301.791C228.517 301.348 228.591 300.906 228.756 300.494C228.921 300.083 229.173 299.712 229.496 299.407C230.245 298.788 231.202 298.477 232.172 298.537C232.677 298.53 233.18 298.607 233.659 298.765C234.083 298.903 234.476 299.124 234.813 299.416C235.132 299.698 235.384 300.047 235.551 300.439C235.727 300.868 235.814 301.328 235.806 301.792V310.27C235.81 310.372 235.777 310.473 235.712 310.552C235.676 310.592 235.632 310.623 235.583 310.642C235.534 310.662 235.481 310.67 235.428 310.666H234.368C234.217 310.678 234.064 310.656 233.922 310.602C233.78 310.548 233.651 310.463 233.545 310.354C233.357 310.13 233.259 309.843 233.271 309.551V301.791C233.285 301.494 233.192 301.202 233.007 300.968C232.778 300.768 232.484 300.657 232.179 300.657C231.875 300.657 231.581 300.768 231.352 300.968C231.161 301.199 231.063 301.492 231.077 301.791V322.378C231.062 322.675 231.156 322.968 231.341 323.202C231.569 323.403 231.864 323.514 232.168 323.514C232.473 323.514 232.767 323.403 232.996 323.202C233.187 322.971 233.285 322.677 233.271 322.378L233.274 314.868Z" fill="white"/>
<path d="M249.603 298.84C249.653 298.838 249.702 298.847 249.748 298.867C249.794 298.886 249.834 298.916 249.867 298.954C249.929 299.029 249.969 299.121 249.98 299.218L252.251 324.857C252.257 324.915 252.25 324.974 252.232 325.029C252.214 325.085 252.185 325.136 252.147 325.18C252.098 325.233 252.038 325.275 251.97 325.301C251.903 325.327 251.83 325.338 251.758 325.331H250.835C250.548 325.342 250.268 325.243 250.05 325.056C249.951 324.973 249.868 324.871 249.808 324.756C249.748 324.64 249.711 324.514 249.7 324.385L249.492 320.772H247.58L247.372 324.385C247.36 324.514 247.324 324.64 247.264 324.756C247.203 324.871 247.121 324.973 247.022 325.056C246.804 325.244 246.524 325.342 246.237 325.331H245.313C245.241 325.338 245.168 325.328 245.101 325.301C245.033 325.275 244.973 325.233 244.924 325.18C244.885 325.136 244.856 325.085 244.838 325.029C244.82 324.974 244.814 324.915 244.819 324.857L247.09 299.218C247.101 299.12 247.141 299.028 247.205 298.954C247.237 298.916 247.278 298.886 247.324 298.866C247.369 298.847 247.419 298.838 247.469 298.84H249.603ZM247.69 318.652H249.354L248.521 304.498L247.69 318.652Z" fill="white"/>
<path d="M268.149 298.842C268.202 298.838 268.255 298.846 268.304 298.865C268.353 298.885 268.397 298.916 268.432 298.955C268.497 299.035 268.53 299.135 268.526 299.238V324.935C268.53 325.038 268.497 325.139 268.432 325.219C268.397 325.258 268.353 325.289 268.304 325.309C268.255 325.329 268.202 325.337 268.149 325.334H267.089C266.816 325.352 266.546 325.267 266.331 325.097C266.151 324.932 266.037 324.706 266.01 324.463C265.985 324.107 265.937 323.753 265.868 323.402C265.773 322.848 265.653 322.176 265.508 321.388C265.363 320.599 265.203 319.732 265.026 318.786C264.848 317.839 264.672 316.89 264.499 315.938C264.325 314.986 264.158 314.075 263.997 313.204C263.838 312.334 263.709 311.583 263.609 310.951L263.799 324.217C263.81 324.362 263.793 324.507 263.748 324.645C263.702 324.783 263.63 324.911 263.535 325.021C263.426 325.129 263.296 325.213 263.152 325.267C263.008 325.321 262.854 325.343 262.701 325.333H261.642C261.589 325.337 261.535 325.329 261.486 325.309C261.437 325.289 261.393 325.258 261.357 325.218C261.293 325.138 261.259 325.037 261.263 324.934V299.238C261.259 299.135 261.293 299.035 261.357 298.955C261.393 298.916 261.437 298.885 261.486 298.865C261.535 298.846 261.589 298.838 261.642 298.842H262.701C262.979 298.829 263.253 298.92 263.468 299.097C263.662 299.268 263.781 299.51 263.798 299.768C263.821 299.971 263.879 300.382 263.966 301.008C264.053 301.634 264.168 302.376 264.307 303.24C264.447 304.104 264.597 305.044 264.761 306.06C264.925 307.077 265.091 308.073 265.264 309.05C265.438 310.027 265.598 310.939 265.755 311.782C265.912 312.626 266.055 313.324 266.18 313.864L265.99 299.805C265.986 299.673 266.011 299.541 266.063 299.42C266.116 299.299 266.195 299.192 266.295 299.105C266.517 298.922 266.799 298.828 267.086 298.841L268.149 298.842Z" fill="white"/>
<path d="M213.385 275.768H279.417C280.243 271.481 281.245 261.592 282.419 258.205C293.411 226.52 285.202 217.4 285.202 217.4C277.622 212.313 256.652 203.641 256.652 203.641H232.26C232.26 203.641 217.321 213.381 209.132 217.021C209.132 217.021 200.426 229.125 210.715 257.39C212.038 261.023 212.655 271.042 213.385 275.768Z" fill="#B9B9B9"/>
<path d="M256.656 203.642C256.656 203.642 252.676 212.206 244.676 212.206C236.127 212.206 232.261 203.642 232.261 203.642V183.224H256.656V203.642Z" fill="#E68679"/>
<path d="M270.237 169.153C268.137 178.237 255.418 195.425 243.952 195.425C234.103 195.425 218.26 181.128 217.571 171.698C217.571 171.698 215.115 154.859 214.767 149.198C213.725 132.446 229.391 118.82 243.955 118.82C258.531 118.82 274.755 132.458 273.561 149.198C273.165 154.87 271.521 163.619 270.24 169.153" fill="#F59481"/>
<path d="M283.251 275.767H304.499C302.983 258.916 301.942 245.998 300.791 240.915C296.252 220.843 281.871 215.386 281.871 215.386C281.871 215.386 282.992 271.699 283.251 275.768" fill="#B9B9B9"/>
<path d="M211.237 275.767C211.426 272.002 210.347 216.436 210.347 216.436C210.347 216.436 193.6 223.25 189.061 243.321C187.979 248.103 184.687 260.659 185.258 275.767H211.237Z" fill="#B9B9B9"/>
<path d="M244.567 174.916C244.442 174.916 244.303 174.907 244.176 174.901C244.067 174.89 243.967 174.838 243.897 174.754C243.827 174.67 243.793 174.562 243.802 174.453C243.804 174.397 243.817 174.342 243.841 174.292C243.866 174.242 243.9 174.198 243.943 174.162C243.986 174.126 244.035 174.099 244.089 174.084C244.143 174.069 244.199 174.065 244.254 174.073C245.086 174.154 245.717 173.913 245.784 173.731C245.821 173.651 245.736 173.366 245.051 172.9C242.978 171.49 242.742 166.585 242.726 166.384C242.723 166.273 242.763 166.166 242.839 166.085C242.915 166.003 243.019 165.955 243.13 165.951C243.184 165.948 243.237 165.956 243.288 165.974C243.338 165.992 243.384 166.021 243.424 166.057C243.463 166.094 243.494 166.138 243.516 166.186C243.538 166.235 243.55 166.288 243.551 166.342C243.61 167.646 244.075 171.243 245.507 172.22C246.422 172.827 246.772 173.434 246.567 174.008C246.334 174.656 245.446 174.917 244.568 174.917" fill="#071938"/>
<path d="M230.81 163.138C230.513 163.135 230.218 163.196 229.946 163.316C229.674 163.436 229.431 163.613 229.233 163.836C228.902 164.246 228.725 164.759 228.734 165.287C228.72 165.719 228.839 166.145 229.076 166.506C229.313 166.868 229.656 167.148 230.058 167.308C230.459 167.467 230.901 167.5 231.321 167.4C231.742 167.3 232.122 167.072 232.408 166.749C232.754 166.341 232.938 165.821 232.927 165.287C232.939 165.004 232.893 164.722 232.791 164.458C232.689 164.195 232.534 163.955 232.335 163.753C232.137 163.552 231.899 163.394 231.637 163.288C231.374 163.183 231.093 163.133 230.81 163.14" fill="#071938"/>
<path d="M256.786 163.138C257.085 163.134 257.38 163.195 257.653 163.315C257.927 163.436 258.171 163.613 258.369 163.836C258.699 164.247 258.875 164.76 258.868 165.287C258.882 165.719 258.762 166.145 258.526 166.506C258.289 166.868 257.946 167.148 257.544 167.308C257.143 167.468 256.701 167.5 256.281 167.4C255.86 167.3 255.48 167.072 255.194 166.749C254.847 166.342 254.661 165.821 254.673 165.287C254.661 165.004 254.708 164.723 254.809 164.459C254.911 164.195 255.066 163.955 255.265 163.754C255.463 163.553 255.701 163.395 255.963 163.289C256.225 163.184 256.506 163.133 256.788 163.14" fill="#071938"/>
<path d="M261.749 157.706C261.749 157.706 259.423 154.819 254.23 156.573" stroke="#071938" stroke-width="0.517068" stroke-linecap="round" stroke-linejoin="round"/>
<path d="M226.422 157.706C226.422 157.706 228.748 154.819 233.94 156.573" stroke="#071938" stroke-width="0.517068" stroke-linecap="round" stroke-linejoin="round"/>
<path d="M236.127 174.568C236.127 176.414 233.846 177.905 231.021 177.905C228.196 177.905 225.921 176.413 225.921 174.568C225.921 172.722 228.202 171.236 231.021 171.236C233.84 171.236 236.127 172.727 236.127 174.568Z" fill="#F27783"/>
<path d="M261.677 175.27C261.677 177.11 259.392 178.6 256.572 178.6C253.752 178.6 251.471 177.109 251.471 175.27C251.471 173.43 253.753 171.931 256.572 171.931C259.392 171.931 261.677 173.421 261.677 175.27Z" fill="#F27783"/>
<path d="M237.297 181.005C237.414 184.622 240.668 187.534 244.677 187.534C248.686 187.534 251.945 184.623 252.054 181.005H237.297Z" fill="white"/>
<path d="M257.085 115.242C257.085 121.962 250.885 127.42 243.238 127.42C235.591 127.42 229.388 121.962 229.388 115.242C229.388 108.522 235.587 103.069 243.238 103.069C250.888 103.069 257.085 108.516 257.085 115.242Z" fill="#5C5B59"/>
<path d="M231.187 121.235C231.187 121.235 242.156 110.423 255.534 121.235C255.534 121.235 245.81 125.233 231.187 121.235Z" fill="#F394BE"/>
<path d="M262.903 125.114C252.275 117.31 233.722 115.985 223.021 126.626C208.261 141.305 216.987 167.61 216.987 167.61C216.987 167.61 219.131 169.102 220.533 159.513C221.355 153.831 221.702 146.05 228.73 147.094C236.219 148.208 243.675 142.395 243.675 142.395C243.675 142.395 250.938 148.322 258.42 147.189C264.07 146.332 266.356 155.197 267.187 160.876C268.588 170.466 270.737 167.064 270.737 167.064C270.737 167.064 282.285 139.352 262.902 125.114" fill="#5C5B59"/>
<path d="M292.157 180.639V203.373H270.634" stroke="#5C5B59" stroke-width="0.72416" stroke-linecap="round" stroke-linejoin="round"/>
<path d="M197.047 131.228V108.265H224.27" stroke="#5C5B59" stroke-width="0.72416" stroke-linecap="round" stroke-linejoin="round"/>
<path d="M269.421 108.265H292.156V129.788" stroke="#5C5B59" stroke-width="0.72416" stroke-linecap="round" stroke-linejoin="round"/>
<path d="M220.008 203.375H197.047V176.151" stroke="#5C5B59" stroke-width="0.72416" stroke-linecap="round" stroke-linejoin="round"/>
<path d="M284.155 176.461V195.371H266.25" stroke="#5C5B59" stroke-width="0.602147" stroke-linecap="round" stroke-linejoin="round"/>
<path d="M205.05 135.366V116.27H227.695" stroke="#5C5B59" stroke-width="0.602147" stroke-linecap="round" stroke-linejoin="round"/>
<path d="M265.243 116.27H284.153V134.17" stroke="#5C5B59" stroke-width="0.602147" stroke-linecap="round" stroke-linejoin="round"/>
<path d="M224.147 195.37H205.05V172.728" stroke="#5C5B59" stroke-width="0.602147" stroke-linecap="round" stroke-linejoin="round"/>
<path d="M271.068 146.798C271.067 147.21 270.945 147.612 270.716 147.954C270.488 148.295 270.163 148.562 269.783 148.719C269.402 148.876 268.984 148.917 268.581 148.837C268.177 148.757 267.807 148.558 267.516 148.267C267.225 147.976 267.027 147.606 266.947 147.202C266.867 146.799 266.908 146.381 267.066 146.001C267.223 145.621 267.49 145.296 267.832 145.067C268.174 144.839 268.576 144.717 268.987 144.717C269.539 144.717 270.068 144.937 270.458 145.327C270.848 145.717 271.068 146.246 271.068 146.798Z" fill="white"/>
<path d="M271.548 167.69C271.548 168.101 271.426 168.503 271.198 168.845C270.969 169.187 270.645 169.454 270.265 169.612C269.885 169.769 269.467 169.811 269.064 169.731C268.66 169.651 268.29 169.453 267.999 169.162C267.708 168.872 267.509 168.501 267.429 168.098C267.348 167.695 267.389 167.277 267.546 166.897C267.703 166.517 267.97 166.192 268.311 165.963C268.653 165.734 269.055 165.612 269.466 165.611C269.739 165.611 270.01 165.665 270.262 165.769C270.515 165.874 270.744 166.027 270.937 166.22C271.131 166.413 271.284 166.642 271.389 166.894C271.493 167.147 271.547 167.417 271.548 167.69Z" fill="white"/>
<path d="M222.384 148.161C222.384 148.573 222.262 148.975 222.033 149.317C221.805 149.659 221.48 149.926 221.1 150.083C220.72 150.24 220.301 150.282 219.898 150.201C219.494 150.121 219.124 149.923 218.833 149.632C218.542 149.341 218.344 148.971 218.264 148.567C218.183 148.164 218.225 147.745 218.382 147.365C218.539 146.985 218.806 146.66 219.148 146.432C219.49 146.203 219.892 146.081 220.304 146.081C220.855 146.081 221.384 146.3 221.774 146.691C222.165 147.081 222.384 147.61 222.384 148.161Z" fill="white"/>
<path d="M246.145 154.253C246.145 154.664 246.023 155.066 245.795 155.409C245.566 155.751 245.242 156.018 244.861 156.175C244.481 156.333 244.063 156.374 243.66 156.294C243.256 156.214 242.885 156.016 242.594 155.725C242.303 155.434 242.105 155.064 242.024 154.66C241.944 154.257 241.985 153.838 242.143 153.458C242.3 153.078 242.567 152.753 242.909 152.524C243.251 152.296 243.653 152.174 244.065 152.174C244.616 152.174 245.145 152.393 245.535 152.783C245.925 153.172 246.144 153.701 246.145 154.253Z" fill="white"/>
<path d="M218.727 166.402C218.726 166.813 218.604 167.215 218.375 167.557C218.147 167.899 217.822 168.166 217.441 168.323C217.061 168.48 216.643 168.521 216.239 168.44C215.836 168.36 215.465 168.162 215.175 167.87C214.884 167.579 214.686 167.209 214.606 166.805C214.526 166.401 214.568 165.983 214.725 165.603C214.883 165.223 215.15 164.898 215.492 164.67C215.834 164.442 216.236 164.32 216.648 164.32C216.921 164.32 217.191 164.374 217.444 164.479C217.696 164.584 217.925 164.737 218.118 164.931C218.311 165.124 218.464 165.353 218.569 165.606C218.673 165.858 218.727 166.129 218.727 166.402Z" fill="white"/>
<path d="M247.515 194.498C247.515 194.91 247.393 195.312 247.164 195.654C246.935 195.996 246.611 196.263 246.23 196.42C245.85 196.577 245.432 196.619 245.028 196.538C244.625 196.458 244.254 196.26 243.963 195.969C243.672 195.677 243.474 195.307 243.394 194.903C243.314 194.5 243.356 194.081 243.513 193.701C243.671 193.321 243.938 192.996 244.28 192.768C244.622 192.539 245.024 192.418 245.436 192.418C245.709 192.418 245.979 192.472 246.232 192.577C246.484 192.681 246.713 192.834 246.906 193.027C247.099 193.221 247.252 193.45 247.357 193.702C247.461 193.955 247.515 194.225 247.515 194.498Z" fill="white"/>
<path d="M246.687 173.649C246.687 174.06 246.565 174.462 246.336 174.804C246.108 175.146 245.783 175.413 245.403 175.57C245.023 175.728 244.605 175.769 244.201 175.689C243.798 175.609 243.427 175.411 243.136 175.12C242.845 174.829 242.647 174.459 242.566 174.055C242.486 173.652 242.527 173.234 242.684 172.853C242.842 172.473 243.108 172.148 243.45 171.92C243.792 171.691 244.194 171.569 244.605 171.568C244.878 171.568 245.149 171.622 245.402 171.726C245.654 171.831 245.883 171.984 246.077 172.177C246.27 172.371 246.423 172.6 246.528 172.852C246.633 173.105 246.687 173.375 246.687 173.649Z" fill="white"/>
<path d="M227.397 184.049C227.397 184.46 227.275 184.863 227.047 185.205C226.818 185.547 226.493 185.814 226.113 185.972C225.733 186.129 225.315 186.171 224.911 186.09C224.507 186.01 224.136 185.812 223.845 185.521C223.554 185.23 223.356 184.86 223.275 184.456C223.195 184.053 223.236 183.634 223.393 183.254C223.551 182.874 223.817 182.549 224.16 182.32C224.502 182.091 224.904 181.969 225.315 181.969C225.867 181.969 226.397 182.188 226.787 182.578C227.177 182.968 227.397 183.497 227.397 184.049Z" fill="white"/>
<path d="M263.758 185.276C263.758 185.688 263.636 186.09 263.408 186.432C263.179 186.774 262.854 187.041 262.474 187.198C262.094 187.356 261.676 187.397 261.273 187.317C260.869 187.237 260.499 187.039 260.208 186.748C259.917 186.457 259.718 186.087 259.638 185.683C259.557 185.28 259.598 184.862 259.755 184.482C259.913 184.102 260.179 183.777 260.521 183.548C260.863 183.319 261.264 183.197 261.676 183.196C261.949 183.196 262.22 183.25 262.472 183.354C262.725 183.458 262.955 183.612 263.148 183.805C263.341 183.998 263.495 184.227 263.599 184.48C263.704 184.732 263.758 185.003 263.758 185.276Z" fill="white"/>
<path d="M225.317 184.048L245.438 194.497L261.677 185.274L269.467 167.69L268.989 146.799H220.47L216.645 166.399L225.317 184.048Z" stroke="white" stroke-width="0.216325" stroke-miterlimit="10"/>
<path d="M225.315 184.05L244.189 174.569L261.676 185.275" stroke="white" stroke-width="0.216325" stroke-miterlimit="10"/>
<path d="M244.19 172.322L244.065 154.251L268.989 146.799" stroke="white" stroke-width="0.216325" stroke-miterlimit="10"/>
<path d="M269.104 166.72L244.065 153.699L217.545 165.951L244.606 173.647L268.989 167.69" stroke="white" stroke-width="0.216325" stroke-miterlimit="10"/>
<path d="M226.031 183.225L244.065 154.255L219.597 148.451" stroke="white" stroke-width="0.216325" stroke-miterlimit="10"/>
<path d="M261.504 184.306L244.065 154.252" stroke="white" stroke-width="0.216325" stroke-miterlimit="10"/>
<path d="M245.436 194.498L244.605 173.646" stroke="white" stroke-width="0.216325" stroke-miterlimit="10"/>
</g>
<defs>
<clipPath id="clip0_328_8345">
<rect width="532.515" height="408" fill="white"/>
</clipPath>
</defs>
</svg>
