<svg width="57" height="57" viewBox="0 0 57 57" fill="none" xmlns="http://www.w3.org/2000/svg">
<path d="M27.5 8.58594L27.535 25.7619L19.243 18.2709L17.902 19.7549L27.057 28.0259L17.834 36.2669L19.167 37.7589L27.537 30.2799L27.5 48.6299L37.857 36.9779L29.613 28.2899L37.872 18.9579L27.5 8.58594ZM35.127 19.0419L29.524 25.3729L29.5 13.4139L35.127 19.0419ZM29.5 43.3699L29.524 31.1009L35.142 37.0219L29.5 43.3699Z" fill="#666766"/>
<path d="M28.5 0C18.575 0 10.5 8.075 10.5 18V39C10.5 48.925 18.575 57 28.5 57C38.425 57 46.5 48.925 46.5 39V18C46.5 8.075 38.425 0 28.5 0ZM44.5 39C44.5 47.822 37.322 55 28.5 55C19.678 55 12.5 47.822 12.5 39V18C12.5 9.178 19.678 2 28.5 2C37.322 2 44.5 9.178 44.5 18V39Z" fill="#666766"/>
</svg>
