<svg xmlns="http://www.w3.org/2000/svg" xmlns:xlink="http://www.w3.org/1999/xlink" viewBox="0 0 81 81"><defs><style>.cls-1{fill:none;}.cls-2{fill:#fdeff0;}.cls-3{fill:#e85b6c;}.cls-4{clip-path:url(#clip-path);}</style><clipPath id="clip-path"><rect class="cls-1" x="21.11" y="21" width="38.78" height="39"/></clipPath></defs><g id="Layer_2" data-name="Layer 2"><g id="Layer_1-2" data-name="Layer 1"><circle id="Ellipse_878" data-name="Ellipse 878" class="cls-2" cx="40.5" cy="40.5" r="40.5"/><rect class="cls-3" x="30.16" y="36.08" width="1.29" height="1.29"/><g class="cls-4"><rect class="cls-3" x="36.62" y="36.08" width="1.29" height="1.29"/><path class="cls-3" d="M59.34,43.2l-2.53-.36a10.28,10.28,0,0,0-.42-1l1.53-2a.67.67,0,0,0-.06-.85l-2.75-2.74a.62.62,0,0,0-.39-.18V29.77a5.16,5.16,0,0,0-1-8.7.65.65,0,0,0-.92.58v3.62l-1.29.44-1.29-.44V21.65a.64.64,0,0,0-.31-.54.65.65,0,0,0-.62,0,5.16,5.16,0,0,0-1,8.7v4.37H46.32a.65.65,0,0,0-.64.56l-.42,2.93,1.28.18.34-2.37h2.76L50,37.81a.66.66,0,0,0,.46.53A7.23,7.23,0,0,1,52,39a.66.66,0,0,0,.7,0l1.92-1.44,1.95,1.95-1.44,1.91a.66.66,0,0,0,0,.7,8.31,8.31,0,0,1,.64,1.55.62.62,0,0,0,.53.46l2.37.34v2.76l-2.37.34a.62.62,0,0,0-.53.46,7.79,7.79,0,0,1-.64,1.55.66.66,0,0,0,0,.7l1.43,1.91-1.95,2-1.91-1.44a.66.66,0,0,0-.7-.05,7.79,7.79,0,0,1-1.55.64.66.66,0,0,0-.46.53l-.33,2.37H47V53.39a7,7,0,0,0-.29-2,5.89,5.89,0,1,0-4.13-4.56l0,0-5.22-2.1v-1a7.13,7.13,0,0,0,2.25-1.8h1.63A1.94,1.94,0,0,0,43.09,40V38.55a1.93,1.93,0,0,0,1.29-1.82V34.79A1.93,1.93,0,0,0,43.09,33V32.2a9.05,9.05,0,1,0-18.1,0V33a1.94,1.94,0,0,0-1.3,1.82v1.94a1.94,1.94,0,0,0,1.94,1.94h1.42a7.13,7.13,0,0,0,3.75,5v1l-5.22,2.1a7.07,7.07,0,0,0-4.47,6.6v6a.65.65,0,0,0,.64.65H46.32a.65.65,0,0,0,.64-.65V57.41H50.2a.65.65,0,0,0,.64-.55l.36-2.53a9.26,9.26,0,0,0,1-.42l2,1.53a.64.64,0,0,0,.84-.06l2.75-2.75a.65.65,0,0,0,.06-.84l-1.53-2a9.26,9.26,0,0,0,.42-1l2.53-.36a.65.65,0,0,0,.55-.64V43.84a.65.65,0,0,0-.55-.64Zm-7.11-5.55-.1,0v-8H50.84V34.7a.65.65,0,0,0-.64-.56h-.65V29.45a.63.63,0,0,0-.28-.53,3.88,3.88,0,0,1-.37-6.07v2.89a.63.63,0,0,0,.45.61l1.93.65a.72.72,0,0,0,.41,0l1.94-.65a.62.62,0,0,0,.44-.61V22.85a3.88,3.88,0,0,1-.36,6.07.63.63,0,0,0-.28.53v7.3Zm-8.5,8.13a4.56,4.56,0,1,1,2.16,3.84,7,7,0,0,0-1.69-1.86,4.4,4.4,0,0,1-.47-2Zm-2.58-5.17h-.79a6.81,6.81,0,0,0,.66-2h.77V40a.65.65,0,0,1-.64.65Zm-1.3-7.11a1.94,1.94,0,0,1-1.55-.78l-1.16-1.55a.64.64,0,0,0-.44-.25.63.63,0,0,0-.48.13l-2.17,1.74a3.35,3.35,0,0,1-2,.71H28.22v-.65a5.82,5.82,0,1,1,11.63,0Zm3.24,3.23a.65.65,0,0,1-.65.65H41.15V34.14h1.29a.65.65,0,0,1,.65.65ZM34,24.45a7.75,7.75,0,0,1,7.75,7.75v.65h-.64a7.11,7.11,0,1,0-14.22,0h-.65V32.2A7.75,7.75,0,0,1,34,24.45ZM25.63,37.38a.65.65,0,0,1-.64-.65V34.79a.65.65,0,0,1,.64-.65h1.3v3.24Zm2.59,0V34.79H32a4.53,4.53,0,0,0,2.83-1l1.65-1.32.76,1a3.24,3.24,0,0,0,2.58,1.29v2.59a5.81,5.81,0,0,1-1,3.23H34V41.9h3.64a5.81,5.81,0,0,1-9.46-4.52ZM34,44.49A7.58,7.58,0,0,0,36,44.21v.92a1.94,1.94,0,0,1-3.88,0v-.92a7.45,7.45,0,0,0,1.94.28ZM45.67,58.71H41.79V51.6H40.5v7.11H27.57V51.6H26.28v7.11H22.4V53.39A5.77,5.77,0,0,1,26.06,48L31,46a3.21,3.21,0,0,0,6.18,0L42,48a5.77,5.77,0,0,1,3.66,5.4Z"/></g><rect class="cls-3" x="47.61" y="36.73" width="1.29" height="1.29"/><rect class="cls-3" x="47.61" y="53.54" width="1.29" height="1.29"/><path class="cls-3" d="M53.28,51.72l.92-.91.91.91-.91.92Z"/><rect class="cls-3" x="56.01" y="45.13" width="1.29" height="1.29"/><path class="cls-3" d="M53.28,39.84l.92-.92.91.92-.91.91Z"/></g></g></svg>