<svg width="50" height="50" viewBox="0 0 50 50" fill="none" xmlns="http://www.w3.org/2000/svg">
<path d="M48.3211 9.35172C48.3211 8.49129 47.6243 7.79297 46.7623 7.79297H3.11734C2.25536 7.79297 1.55859 8.49129 1.55859 9.35172V40.5267C1.55859 41.3871 2.25536 42.0855 3.11734 42.0855H46.7623C47.6243 42.0855 48.3211 41.3871 48.3211 40.5267V28.0567C48.3211 27.1963 47.6243 26.498 46.7623 26.498C45.9004 26.498 45.2036 27.1963 45.2036 28.0567V38.968H4.67609V21.5115H37.0202C37.8821 21.5115 38.5789 20.8132 38.5789 19.9528C38.5789 19.0923 37.8821 18.394 37.0202 18.394H4.67609V15.7816H37.0202C37.8821 15.7816 38.5789 15.0832 38.5789 14.2228C38.5789 13.3624 37.8821 12.6641 37.0202 12.6641H4.67609V10.9105H45.2036V13.4356C45.2036 14.2961 45.9004 14.9944 46.7623 14.9944C47.6243 14.9944 48.3211 14.2961 48.3211 13.4356V9.35172Z" fill="#72AC47"/>
<path d="M45.6955 18.8153L30.1018 33.4052L22.8879 26.6542C22.2582 26.065 21.2746 26.0977 20.6838 26.7275C20.0962 27.3556 20.1289 28.3423 20.7571 28.93L29.0387 36.6785C29.338 36.9591 29.7215 37.0994 30.1049 37.0994C30.4884 37.0994 30.8703 36.9591 31.1711 36.6785L47.831 21.091C48.4592 20.5034 48.4919 19.5167 47.9043 18.8885C47.312 18.2588 46.3268 18.2276 45.6955 18.8153Z" fill="#72AC47"/>
</svg>
