<svg width="88" height="66" viewBox="0 0 88 66" fill="none" xmlns="http://www.w3.org/2000/svg">
<path fill-rule="evenodd" clip-rule="evenodd" d="M44.1 35C52.44 35 59.2 41.76 59.2 50.1C59.2 58.44 52.44 65.2 44.1 65.2C35.76 65.2 29 58.44 29 50.1C29 41.76 35.76 35 44.1 35ZM44.1 38C37.417 38 32 43.417 32 50.1C32 56.783 37.417 62.2 44.1 62.2C50.783 62.2 56.2 56.783 56.2 50.1C56.2 43.417 50.783 38 44.1 38ZM72.1 18C80.44 18 87.2 24.76 87.2 33.1C87.2 41.44 80.44 48.2 72.1 48.2C63.76 48.2 57 41.44 57 33.1C57 24.76 63.76 18 72.1 18ZM15.1 18C23.44 18 30.2 24.76 30.2 33.1C30.2 41.44 23.44 48.2 15.1 48.2C6.76 48.2 0 41.44 0 33.1C0 24.76 6.76 18 15.1 18ZM72.1 21C65.417 21 60 26.417 60 33.1C60 39.783 65.417 45.2 72.1 45.2C78.783 45.2 84.2 39.783 84.2 33.1C84.2 26.417 78.783 21 72.1 21ZM15.1 21C8.417 21 3 26.417 3 33.1C3 39.783 8.417 45.2 15.1 45.2C21.783 45.2 27.2 39.783 27.2 33.1C27.2 26.417 21.783 21 15.1 21ZM44.1 0C52.44 0 59.2 6.76 59.2 15.1C59.2 23.44 52.44 30.2 44.1 30.2C35.76 30.2 29 23.44 29 15.1C29 6.76 35.76 0 44.1 0ZM44.1 3C37.417 3 32 8.417 32 15.1C32 21.783 37.417 27.2 44.1 27.2C50.783 27.2 56.2 21.783 56.2 15.1C56.2 8.417 50.783 3 44.1 3Z" fill="#9D9D9B"/>
<path fill-rule="evenodd" clip-rule="evenodd" d="M40.69 44.4998L43.897 50.0098H44.017L47.344 44.4998H49.5L45.97 50.3198H48.193V51.8308H45.052L45.002 51.9338V52.8598H48.193V54.3728H44.985V56.4998H42.863V54.3728H39.637V52.8598H42.863V51.9338L42.794 51.8308H39.637V50.3208H41.912L38.5 44.4998H40.69ZM72.281 25.4998V26.4228C73.651 26.5188 74.944 26.9718 76.163 27.7798L74.95 29.4438C74.13 28.8778 73.24 28.5278 72.283 28.3938V31.7958H72.339C73.769 32.1208 74.821 32.5618 75.492 33.1168C76.164 33.6718 76.5 34.4768 76.5 35.5318C76.5 36.5898 76.115 37.4488 75.344 38.1118C74.571 38.7748 73.551 39.1368 72.283 39.1968V40.4998H71.09V39.1788C69.385 39.0108 67.856 38.3528 66.5 37.2068L67.86 35.6328L68.123 35.8458C69.086 36.5988 70.075 37.0518 71.09 37.2068V33.6958C69.684 33.3698 68.654 32.9418 68.002 32.4108C67.348 31.8808 67.022 31.0948 67.022 30.0508C67.022 29.0068 67.397 28.1538 68.15 27.4898C68.902 26.8278 69.882 26.4648 71.088 26.4038V25.4998H72.281ZM15.982 26.4998L16.239 26.5058C17.67 26.5748 18.759 27.2258 19.5 28.4608L18.017 29.6178C17.529 28.8228 16.899 28.4258 16.124 28.4258L15.915 28.4338C15.437 28.4678 15.033 28.6248 14.705 28.9068C14.33 29.2268 14.142 29.7458 14.144 30.4568V32.7518H17.124V34.4698H14.144V37.6578H19.464V39.4998H10.572V37.6598H12.037V34.4718H10.5V32.7538H12.037V30.5638C12.037 29.1508 12.399 28.1198 13.125 27.4718C13.851 26.8238 14.804 26.4998 15.982 26.4998ZM72.282 34.0038V37.2628L72.502 37.2348C72.997 37.1588 73.396 36.9988 73.702 36.7548C74.05 36.4778 74.224 36.1278 74.224 35.7048C74.224 35.2838 74.087 34.9488 73.814 34.7008C73.54 34.4538 73.03 34.2208 72.283 34.0038H72.282ZM71.088 28.3408L70.884 28.3638C70.421 28.4298 70.05 28.5818 69.772 28.8208C69.455 29.0918 69.297 29.4288 69.297 29.8338C69.297 30.2378 69.422 30.5578 69.671 30.7918C69.919 31.0278 70.393 31.2538 71.088 31.4718V28.3418V28.3408ZM44.901 8.2998L45.206 8.3058C47.019 8.3758 48.468 9.0818 49.552 10.4218L48.242 12.0818C47.701 11.5048 47.187 11.0978 46.701 10.8648C46.217 10.6318 45.616 10.5148 44.902 10.5148L44.668 10.5218C44.048 10.5588 43.484 10.7448 42.975 11.0778C42.402 11.4538 41.975 11.9858 41.691 12.6718H46.086V14.2598H41.306C41.292 14.4058 41.286 14.6298 41.286 14.9328C41.286 15.2358 41.306 15.5218 41.343 15.7918H46.086V17.3798H41.84C42.503 18.6598 43.506 19.2988 44.847 19.2988L45.091 19.2928C45.651 19.2648 46.139 19.1398 46.554 18.9198C47.026 18.6678 47.53 18.2718 48.058 17.7298L49.369 19.3158C48.223 20.7318 46.717 21.4388 44.847 21.4388C43.567 21.4388 42.433 21.0738 41.442 20.3408C40.451 19.6108 39.74 18.6218 39.31 17.3798H37.3V15.7918H38.96C38.924 15.4958 38.905 15.2018 38.905 14.9058C38.905 14.6098 38.912 14.3958 38.924 14.2598H37.3V12.6718H39.218C39.624 11.3568 40.343 10.2978 41.377 9.4988C42.41 8.6988 43.585 8.2998 44.9 8.2998H44.901Z" fill="#9D9D9B"/>
</svg>
