<svg width="57" height="47" viewBox="0 0 57 47" fill="none" xmlns="http://www.w3.org/2000/svg">
<path fill-rule="evenodd" clip-rule="evenodd" d="M42.13 7.55505V43.132L42.124 43.334C42.06 44.268 41.555 45.0991 40.746 45.5861C39.88 46.1101 38.828 46.136 37.936 45.658L35.8149 44.526L32.28 46.413L32.1 46.502C31.733 46.666 31.339 46.75 30.941 46.75C30.474 46.75 30.014 46.635 29.597 46.413L26.066 44.526L22.531 46.413L22.349 46.5031C21.549 46.8591 20.631 46.829 19.849 46.413L16.3149 44.526L12.781 46.413L12.598 46.5031C11.799 46.8591 10.88 46.829 10.098 46.413L6.56604 44.526L4.44397 45.6591L4.26404 45.749C3.41204 46.13 2.44401 46.0741 1.63501 45.5861C0.76701 45.0641 0.25 44.148 0.25 43.132V13.249L0.254028 13.031C0.369028 9.99301 2.86895 7.55603 5.92395 7.55603L42.13 7.55505ZM39.246 10.45H5.92505L5.755 10.455C4.295 10.543 3.13501 11.763 3.13501 13.249V43.079L5.22705 41.963L5.40906 41.873C6.20906 41.517 7.12903 41.547 7.91003 41.963L11.441 43.85L14.976 41.963L15.156 41.874C15.521 41.71 15.9159 41.626 16.3149 41.626C16.7819 41.626 17.242 41.74 17.657 41.963L21.192 43.85L24.725 41.963L24.906 41.873C25.702 41.515 26.625 41.545 27.41 41.965L30.941 43.85L34.474 41.963L34.656 41.873C35.456 41.517 36.376 41.547 37.158 41.963L39.246 43.079V10.449V10.45ZM49.2371 0.25V5.46497H56.75V40.623H53.865V8.35901H49.2371V40.623H46.3521V3.14404H13.0031V0.25H49.2371ZM25.692 31.538V34.432H9.87097V31.538H25.692ZM32.507 24.5551V27.449H9.87097V24.5551H32.507ZM32.507 17.5699V20.464H9.87097V17.5699H32.507Z" fill="#9D9D9B"/>
</svg>
