<svg width="54" height="56" viewBox="0 0 54 56" fill="none" xmlns="http://www.w3.org/2000/svg">
<path fill-rule="evenodd" clip-rule="evenodd" d="M30.2939 1.13849L30.379 1.26458L30.444 1.37249C30.727 1.89049 30.701 2.51449 30.406 2.99249L30.318 3.11956L30.238 3.21454L30.5031 3.24749C43.2611 4.88549 53.093 15.5376 53.488 28.4326L53.4969 28.8245L53.5 29.2376C53.5 43.7346 41.638 55.5005 27.028 55.5005C12.408 55.5005 0.5 43.7246 0.5 29.2376C0.5 28.3436 1.23302 27.5676 2.12402 27.5676C3.01802 27.5676 3.74902 28.2916 3.74902 29.1816C3.74902 41.8616 14.169 52.2145 26.972 52.2145C39.786 52.2145 50.1949 41.9066 50.1949 29.2376C50.1949 17.8676 41.8551 8.36259 30.8051 6.56659L30.439 6.50958L30.262 6.48455L30.306 6.53949C30.672 7.03749 30.7391 7.70453 30.4561 8.26153L30.377 8.39752L30.2841 8.5285C29.9661 8.9235 29.487 9.16156 28.996 9.16156C28.656 9.16156 28.324 9.07656 28.106 8.91156L28.019 8.83661L24.188 5.9295C23.781 5.6075 23.548 5.12554 23.548 4.58954C23.548 4.09154 23.798 3.62753 24.166 3.35553L28.1021 0.771542C28.8141 0.300542 29.7859 0.454485 30.2939 1.13849ZM26.719 17.5005C27.228 17.5005 27.6621 17.6786 27.9871 18.0296C28.2201 18.2816 28.3671 18.5875 28.4301 18.9505L28.453 19.1375L28.4611 19.3216L28.46 20.4686L28.754 20.5256C29.946 20.7786 31.017 21.2476 31.957 21.9256L32.235 22.1346L32.505 22.3555C33.015 22.7555 33.281 23.2985 33.281 23.9435C33.281 24.4055 33.145 24.8235 32.877 25.1835C32.585 25.5735 32.2021 25.7895 31.7581 25.7895C31.5531 25.7895 31.353 25.7536 31.16 25.6826C30.977 25.6156 30.763 25.4966 30.488 25.3106C29.853 24.8426 29.258 24.4946 28.707 24.2656C28.179 24.0466 27.541 23.9356 26.792 23.9356C25.89 23.9356 25.194 24.1375 24.688 24.5285C24.213 24.8985 23.981 25.3906 23.981 26.0516C23.981 26.4836 24.104 26.8095 24.349 27.0595C24.635 27.3515 25.001 27.5776 25.452 27.7396L25.865 27.8796C26.314 28.0256 26.868 28.1865 27.525 28.3605C28.733 28.6705 29.722 28.9925 30.495 29.3255C31.317 29.6795 32.019 30.2156 32.597 30.9306C33.203 31.6796 33.5 32.6745 33.5 33.8985C33.5 35.3815 33.0001 36.6496 32.0081 37.6756C31.1621 38.5496 30.068 39.1405 28.73 39.4495L28.509 39.4965V40.7016L28.5 40.8865C28.463 41.3095 28.308 41.6775 28.035 41.9715C27.711 42.3225 27.2759 42.5005 26.7679 42.5005C26.2589 42.5005 25.825 42.3225 25.5 41.9715C25.267 41.7195 25.12 41.4136 25.057 41.0506L25.0341 40.8636L25.026 40.6795V39.5766L24.656 39.5225C24.248 39.4535 23.844 39.3626 23.444 39.2486L23.046 39.1275L22.652 38.9905C21.84 38.6925 21.122 38.3105 20.519 37.8555L20.267 37.6566C19.987 37.4546 19.783 37.2165 19.663 36.9435C19.553 36.6885 19.5 36.3936 19.5 36.0576C19.5 35.5956 19.6361 35.1776 19.9041 34.8176C20.1951 34.4296 20.567 34.2116 20.998 34.2116C21.227 34.2116 21.444 34.2545 21.646 34.3415C21.807 34.4105 22.008 34.5175 22.278 34.6795C22.987 35.1615 23.68 35.5136 24.355 35.7346C25.027 35.9546 25.733 36.0655 26.475 36.0655C27.465 36.0655 28.201 35.8726 28.697 35.5036C29.157 35.1616 29.384 34.6775 29.384 34.0005C29.384 33.6435 29.276 33.3786 29.054 33.1706C28.781 32.9146 28.4341 32.7085 28.0081 32.5525L27.665 32.4326C27.23 32.2886 26.677 32.1255 26.007 31.9445C24.767 31.6165 23.755 31.2836 22.967 30.9416C22.129 30.5796 21.4071 30.0265 20.8051 29.2875C20.1751 28.5135 19.865 27.4875 19.865 26.2295C19.865 24.7275 20.3859 23.4345 21.4189 22.3755C22.2989 21.4735 23.412 20.8655 24.755 20.5525L24.9771 20.5036L24.978 19.2995L24.986 19.1146C25.024 18.6916 25.1791 18.3236 25.451 18.0296C25.7761 17.6786 26.211 17.5005 26.719 17.5005ZM3.5 21.5005C4.605 21.5005 5.5 22.3955 5.5 23.5005C5.5 24.6055 4.605 25.5005 3.5 25.5005C2.395 25.5005 1.5 24.6055 1.5 23.5005C1.5 22.3955 2.395 21.5005 3.5 21.5005ZM5.5 16.5005C6.605 16.5005 7.5 17.3955 7.5 18.5005C7.5 19.6055 6.605 20.5005 5.5 20.5005C4.395 20.5005 3.5 19.6055 3.5 18.5005C3.5 17.3955 4.395 16.5005 5.5 16.5005ZM8.5 11.5005C9.605 11.5005 10.5 12.3955 10.5 13.5005C10.5 14.6055 9.605 15.5005 8.5 15.5005C7.395 15.5005 6.5 14.6055 6.5 13.5005C6.5 12.3955 7.395 11.5005 8.5 11.5005Z" fill="#9D9D9B"/>
</svg>
