<?xml version="1.0" encoding="utf-8"?>
<!-- Generator: Adobe Illustrator 24.1.0, SVG Export Plug-In . SVG Version: 6.00 Build 0)  -->
<svg version="1.1" id="Layer_1" xmlns="http://www.w3.org/2000/svg" xmlns:xlink="http://www.w3.org/1999/xlink" x="0px" y="0px"
	 viewBox="0 0 81 81" style="enable-background:new 0 0 81 81;" xml:space="preserve">
<style type="text/css">
	.st0{fill:#E5F9F8;}
	.st1{fill:#66DCD7;}
</style>
<g id="Group_675" transform="translate(-1523 -1930)">
	<g id="Group_694">
		<circle id="Ellipse_875" class="st0" cx="1563.5" cy="1970.5" r="40.5"/>
		<g id="Group_668" transform="translate(683.834 1878.5)">
			<path id="Path_8770" class="st1" d="M875.9,81.1c2.1,0,3.8-1.7,3.8-3.8c0-2.1-1.7-3.8-3.8-3.8c-2.1,0-3.8,1.7-3.8,3.8v0
				C872.1,79.4,873.8,81.1,875.9,81.1z M875.9,74.6c1.5,0,2.7,1.2,2.7,2.7s-1.2,2.7-2.7,2.7c-1.5,0-2.7-1.2-2.7-2.7
				C873.2,75.8,874.4,74.6,875.9,74.6z"/>
			<path id="Path_8771" class="st1" d="M890.1,96.7c-0.2-0.2-0.6-0.2-0.8,0l-4.7,4.8l-1.7-1.7c-0.2-0.2-0.6-0.2-0.8,0
				c-0.2,0.2-0.2,0.5,0,0.8l2,2.1c0.2,0.2,0.6,0.2,0.8,0c0,0,0,0,0,0l5.1-5.2C890.3,97.2,890.3,96.9,890.1,96.7z"/>
			<path id="Path_8772" class="st1" d="M893.2,100.4c-0.3-0.1-0.6,0.1-0.7,0.4c-0.6,3.2-2.9,5.9-5.9,7.2c-0.3,0.1-0.4,0.4-0.3,0.7
				c0.1,0.3,0.4,0.4,0.7,0.3c0,0,0,0,0,0c3.4-1.4,5.9-4.4,6.6-8C893.7,100.7,893.5,100.5,893.2,100.4z"/>
			<path id="Path_8773" class="st1" d="M892.2,91.8c-1.3,0.8-2.9,0.9-4.2,0.1c-0.6-0.4-1.2-0.9-1.6-1.6c-0.2-0.3-0.5-0.5-0.9-0.5
				c-0.8-2.3-2.2-4.4-4.1-6.1c-0.8-0.8-1.9-1.2-3-1.2h-5.2c-1.2,0-2.4,0.5-3.2,1.3c-3.1,2.9-4.8,6.9-4.8,11.1c0,1.2,0.9,2.2,2.1,2.2
				c1.2,0,2.2-0.9,2.3-2.1c0,0,0,0,0-0.1c0-2.1,0.6-4.2,1.8-5.9v20.6c0,1.1,0.9,1.9,1.9,1.9h1.2c0.7-0.8,2-0.8,2.7,0c0,0,0,0,0,0
				h1.2c1.1,0,1.9-0.9,1.9-1.9v-2.9c1,1,2.3,1.8,3.6,2.4c0.3,0.1,0.6,0,0.7-0.3c0.1-0.3,0-0.6-0.3-0.7c-3.7-1.5-6.1-5.1-6.1-9.1
				v-6.1c2,1.3,4.6,1,6.2-0.7c0.4-0.3,0.7-0.7,1-1.1l0,0c0.5,0.8,1.2,1.4,1.9,1.9c1.6,1,3.7,1,5.2,0v5.5c0,0.3,0.2,0.6,0.6,0.6
				c0.3,0,0.6-0.2,0.6-0.6v-5.6c0-0.6-0.5-1.1-1.1-1.1C892.6,91.7,892.4,91.7,892.2,91.8z M876.8,83.6l-0.7,0.8
				c-0.1,0.2-0.4,0.2-0.6,0.1c0,0,0,0-0.1-0.1l-0.7-0.8H876.8z M879.3,109.6c0,0.5-0.4,0.8-0.8,0.8h-1.2c-0.5,0-0.8-0.4-0.8-0.8
				V98.1c0-0.3-0.2-0.6-0.6-0.6c-0.3,0-0.6,0.2-0.6,0.6v11.4c0,0.5-0.4,0.8-0.8,0.8h-1.2c-0.5,0-0.8-0.4-0.8-0.8V87.4
				c0-0.3-0.3-0.6-0.6-0.6c-0.2,0-0.3,0.1-0.4,0.2c-2,2.2-3,5-3,8c0,0.6-0.5,1.1-1.1,1.1c0,0,0,0,0,0c-0.6,0-1.1-0.5-1-1.1
				c0-3.9,1.6-7.6,4.5-10.3c0.7-0.6,1.5-1,2.5-1h0.2l1.3,1.5c0.5,0.6,1.5,0.7,2.1,0.2c0.1-0.1,0.1-0.1,0.2-0.2l1.3-1.5h0.2
				c0.8,0,1.7,0.3,2.3,0.9c1.7,1.6,3.1,3.6,3.8,5.8c-0.5,0.7-1.1,1.2-1.8,1.6c-0.5-1.8-1.3-3.5-2.6-4.9c-0.2-0.2-0.6-0.3-0.8-0.1
				c-0.1,0.1-0.2,0.3-0.2,0.4v4.6c-0.2-0.1-0.5-0.3-0.5-0.3c-0.5-0.3-1.2,0-1.4,0.5c-0.1,0.1-0.1,0.3-0.1,0.5v6.1
				c0,2.3,0.7,4.6,2.1,6.4L879.3,109.6L879.3,109.6z M880.4,92.4v-3.3c0.6,1,1.1,2.1,1.4,3.2C881.3,92.5,880.9,92.5,880.4,92.4
				L880.4,92.4z"/>
		</g>
	</g>
</g>
</svg>
