<svg width="147" height="42" viewBox="0 0 147 42" fill="none" xmlns="http://www.w3.org/2000/svg">
<path d="M0 20.9591C0 9.38372 9.38372 0 20.9591 0V0C32.5345 0 41.9182 9.38372 41.9182 20.9591V20.9591C41.9182 32.5345 32.5345 41.9182 20.9591 41.9182V41.9182C9.38372 41.9182 0 32.5345 0 20.9591V20.9591Z" fill="#F4F5F7"/>
<path d="M51.2334 32.7441C51.2334 32.7441 79.6234 37.1971 100.153 33.5772C120.682 29.9574 145.837 18.974 145.837 18.974" stroke="#72AC47" stroke-width="1.16883" stroke-linecap="round" stroke-dasharray="1.16 3.49"/>
<path d="M33.1464 33.6839H9.27344C9.27344 29.5718 11.1415 26.2236 15.2417 26.2236H27.1782C31.2903 26.2236 33.1464 29.5539 33.1464 33.666V33.6839Z" fill="#72AC47"/>
<path d="M23.4418 20.2852V26.9815C23.4418 27.2747 23.3841 27.5649 23.2719 27.8357C23.1597 28.1065 22.9953 28.3526 22.788 28.5599C22.5807 28.7672 22.3347 28.9316 22.0639 29.0437C21.793 29.1559 21.5028 29.2137 21.2097 29.2137C20.9165 29.2137 20.6263 29.1559 20.3555 29.0437C20.0847 28.9316 19.8386 28.7672 19.6313 28.5599C19.424 28.3526 19.2596 28.1065 19.1474 27.8357C19.0353 27.5649 18.9775 27.2747 18.9775 26.9815V20.2852H23.4418Z" fill="#F7CC94"/>
<path d="M25.6325 18.0472C25.5901 18.8934 25.3737 19.7218 24.9968 20.4806C24.62 21.2395 24.0908 21.9125 23.4422 22.4577V23.9438C22.8147 24.464 22.0252 24.7487 21.2101 24.7487C20.395 24.7487 19.6055 24.464 18.9779 23.9438V22.4577C18.3294 21.9125 17.8001 21.2395 17.4233 20.4806C17.0464 19.7218 16.83 18.8934 16.7876 18.0472C17.0323 15.1168 18.9302 12.8369 21.2101 12.8369C23.4899 12.8369 25.3878 15.1168 25.6325 18.0472Z" fill="#F4B392"/>
<path d="M25.6742 17.3071C25.6756 17.5544 25.6617 17.8016 25.6324 18.0472C25.59 18.8934 25.3736 19.7218 24.9967 20.4806C24.6199 21.2395 24.0906 21.9125 23.4421 22.4577C22.8146 22.9779 22.0251 23.2626 21.21 23.2626C20.3948 23.2626 19.6053 22.9779 18.9778 22.4577C18.3293 21.9125 17.8 21.2395 17.4232 20.4806C17.0463 19.7218 16.8299 18.8934 16.7875 18.0472C16.7582 17.8016 16.7443 17.5544 16.7457 17.3071C16.7457 14.0126 18.7391 11.3389 21.21 11.3389C23.6808 11.3389 25.6742 14.0126 25.6742 17.3071Z" fill="#F7CC94"/>
<path d="M27.1782 17.3065C27.1766 17.7012 27.0187 18.0792 26.7391 18.3577C26.4595 18.6362 26.0808 18.7926 25.6862 18.7926C24.8685 18.7926 25.6862 18.1242 25.6862 17.3065C25.6862 16.4889 24.8685 15.8145 25.6862 15.8145C25.8821 15.8145 26.0761 15.853 26.2571 15.928C26.4382 16.003 26.6027 16.1129 26.7412 16.2515C26.8798 16.39 26.9897 16.5545 27.0646 16.7355C27.1396 16.9166 27.1782 17.1106 27.1782 17.3065V17.3065Z" fill="#F7CC94"/>
<path d="M15.2417 17.3065C15.2433 17.7012 15.4012 18.0792 15.6808 18.3577C15.9605 18.6362 16.3391 18.7926 16.7338 18.7926C17.5514 18.7926 16.7338 18.1242 16.7338 17.3065C16.7338 16.4889 17.5514 15.8145 16.7338 15.8145C16.5378 15.8145 16.3438 15.853 16.1628 15.928C15.9817 16.003 15.8173 16.1129 15.6787 16.2515C15.5402 16.39 15.4303 16.5545 15.3553 16.7355C15.2803 16.9166 15.2417 17.1106 15.2417 17.3065Z" fill="#F7CC94"/>
<path d="M19.4258 16.2636C19.5908 16.2636 19.7246 16.1299 19.7246 15.9648C19.7246 15.7998 19.5908 15.666 19.4258 15.666C19.2607 15.666 19.127 15.7998 19.127 15.9648C19.127 16.1299 19.2607 16.2636 19.4258 16.2636Z" fill="#3F1400"/>
<path d="M22.9946 16.2636C23.1596 16.2636 23.2934 16.1299 23.2934 15.9648C23.2934 15.7998 23.1596 15.666 22.9946 15.666C22.8296 15.666 22.6958 15.7998 22.6958 15.9648C22.6958 16.1299 22.8296 16.2636 22.9946 16.2636Z" fill="#3F1400"/>
<path d="M18.3809 15.0686C18.3809 15.0686 19.3955 13.875 20.4638 14.4718" stroke="#3F1400" stroke-width="0.298412" stroke-linecap="round" stroke-linejoin="round"/>
<path d="M24.039 15.0686C24.039 15.0686 23.0244 13.875 21.9561 14.4718" stroke="#3F1400" stroke-width="0.298412" stroke-linecap="round" stroke-linejoin="round"/>
<path d="M20.9114 16.2627C20.9114 16.2627 19.7177 19.2468 20.3146 19.2468H20.9114" stroke="#3F1400" stroke-width="0.298412" stroke-linecap="round" stroke-linejoin="round"/>
<path d="M16.6501 16.9727C16.6501 16.6205 17.9393 13.2186 18.8882 13.2186C20.0461 13.2186 20.0461 13.8155 21.7888 13.8155C23.5315 13.8155 25.8591 16.722 25.8591 16.722C25.8591 16.722 27.8764 12.9322 25.2623 10.33C24.0985 9.17216 21.192 8.58727 19.4493 10.33C17.7065 12.0727 17.7065 11.5236 17.1216 11.5236C16.5367 11.5236 15.3789 11.5236 15.3789 12.7173C15.3968 13.6901 15.922 17.5277 16.6501 16.9727Z" fill="#3F1400"/>
<path d="M26.438 14.9617C26.438 14.9617 24.1163 27.1668 21.2098 27.1668C17.7363 27.1668 15.9995 14.3828 15.9995 14.3828C15.9995 14.3828 17.2648 20.7271 21.2098 20.7271C25.1548 20.7271 26.438 14.9617 26.438 14.9617Z" fill="#3F1400"/>
<path d="M21.2099 24.2594C23.0557 24.2594 24.5521 23.0891 24.5521 21.6453C24.5521 20.2016 23.0557 19.0312 21.2099 19.0312C19.364 19.0312 17.8677 20.2016 17.8677 21.6453C17.8677 23.0891 19.364 24.2594 21.2099 24.2594Z" fill="#3F1400"/>
<path d="M20.9116 20.4347C20.9116 20.4347 22.7021 20.4347 23.2989 19.8379" stroke="white" stroke-width="0.298412" stroke-linecap="round" stroke-linejoin="round"/>
</svg>
