<svg xmlns="http://www.w3.org/2000/svg" viewBox="0 0 81 81"><defs><style>.cls-1{fill:#e9f8fd;}.cls-2{fill:#24b8eb;}</style></defs><g id="Layer_2" data-name="Layer 2"><g id="Layer_1-2" data-name="Layer 1"><circle class="cls-1" cx="40.5" cy="40.5" r="40.5"/><path class="cls-2" d="M57.35,39.73h-5.7V21.58a.75.75,0,0,0-.47-.71.77.77,0,0,0-.84.16l-2.18,2.18L46,21a.77.77,0,0,0-1.09,0l-2.18,2.18L40.54,21a.77.77,0,0,0-1.09,0l-2.18,2.18L35.09,21A.77.77,0,0,0,34,21l-2.18,2.18L29.64,21a.76.76,0,0,0-1.08,0l-2.18,2.18L24.2,21a.77.77,0,0,0-1.09,0,.81.81,0,0,0-.23.57V56.19a4,4,0,0,0,4,4H54.12a4,4,0,0,0,4-4V40.5A.78.78,0,0,0,57.35,39.73ZM24.42,56.19V23.43l1.41,1.41a.77.77,0,0,0,1.09,0l2.18-2.18,2.18,2.18a.77.77,0,0,0,1.09,0l2.18-2.18,2.17,2.18a.77.77,0,0,0,1.09,0L40,22.66l2.18,2.18a.77.77,0,0,0,1.09,0l2.18-2.18,2.18,2.18a.76.76,0,0,0,1.08,0l1.41-1.41V56.19A3.9,3.9,0,0,0,51,58.65H26.88A2.46,2.46,0,0,1,24.42,56.19Zm32.16,0a2.46,2.46,0,0,1-2.46,2.46h0a2.47,2.47,0,0,1-2.47-2.46V41.27h4.93Z"/><path class="cls-2" d="M45.39,41.58H33.2a.77.77,0,1,0,0,1.54H45.39a.77.77,0,1,0,0-1.54Z"/><path class="cls-2" d="M29.15,41.58a.77.77,0,0,0-.54.22.76.76,0,0,0-.23.55.74.74,0,0,0,.23.54.75.75,0,0,0,1.08,0,.74.74,0,0,0,.23-.54.76.76,0,0,0-.23-.55A.77.77,0,0,0,29.15,41.58Z"/><path class="cls-2" d="M45.39,36.58H33.2a.77.77,0,1,0,0,1.54H45.39a.77.77,0,1,0,0-1.54Z"/><path class="cls-2" d="M29.15,36.58a.77.77,0,0,0-.54.22.76.76,0,0,0-.23.55.74.74,0,0,0,.23.54.75.75,0,0,0,1.08,0,.74.74,0,0,0,.23-.54.76.76,0,0,0-.23-.55A.77.77,0,0,0,29.15,36.58Z"/><path class="cls-2" d="M45.39,31.58H33.2a.77.77,0,1,0,0,1.54H45.39a.77.77,0,1,0,0-1.54Z"/><path class="cls-2" d="M29.15,31.58a.77.77,0,0,0-.54.22.76.76,0,0,0-.23.55.74.74,0,0,0,.23.54.75.75,0,0,0,1.08,0,.74.74,0,0,0,.23-.54.76.76,0,0,0-.23-.55A.77.77,0,0,0,29.15,31.58Z"/><path class="cls-2" d="M45.39,46.65H33.2a.77.77,0,1,0,0,1.54H45.39a.77.77,0,1,0,0-1.54Z"/><path class="cls-2" d="M29.15,46.65a.78.78,0,0,0-.54.23.74.74,0,0,0-.23.54.76.76,0,0,0,.23.55.77.77,0,0,0,1.08,0,.76.76,0,0,0,.23-.55.74.74,0,0,0-.23-.54A.78.78,0,0,0,29.15,46.65Z"/><path class="cls-2" d="M45.39,51.73H33.2a.77.77,0,0,0,0,1.54H45.39a.77.77,0,1,0,0-1.54Z"/><path class="cls-2" d="M29.15,51.73a.79.79,0,1,0,.54.23A.74.74,0,0,0,29.15,51.73Z"/></g></g></svg>