<svg width="47" height="58" viewBox="0 0 47 58" fill="none" xmlns="http://www.w3.org/2000/svg">
<path fill-rule="evenodd" clip-rule="evenodd" d="M45.467 38.2404L40.441 33.1665C43.129 29.9225 44.765 25.6744 44.765 21.1324C44.765 10.7494 36.351 2.25447 26.067 2.25447C21.51 2.25447 17.361 3.90546 14.147 6.61946L9.06396 1.4875C8.42096 0.8375 7.31101 0.8375 6.60901 1.4875C5.96701 2.1365 5.96701 3.25743 6.60901 3.96443L7.19397 4.55439C3.21997 9.15639 1 14.9964 1 21.1324C1 27.8574 3.62996 34.2284 8.30396 39.0074C12.628 43.3724 18.237 45.9095 24.314 46.3225V53.5784H17.069C16.134 53.5784 15.374 54.3454 15.374 55.2894C15.374 56.2334 16.134 57.0004 17.069 57.0004H34.949C35.884 57.0004 36.6429 56.2335 36.6429 55.2905C36.6429 54.3455 35.883 53.5784 34.949 53.5784H27.762V46.2634C33.254 45.9094 38.3381 43.7265 42.4871 40.1285L43.071 40.7185C43.421 41.0725 43.831 41.2485 44.298 41.2485C44.707 41.2485 45.174 41.0725 45.525 40.7185C46.168 40.0105 46.168 38.9484 45.467 38.2404ZM10.7581 21.0734C10.7581 19.5394 11.05 18.0644 11.459 16.6484C11.518 16.8844 11.576 17.1204 11.635 17.2984C12.277 19.1854 13.271 21.1914 14.556 23.1384L11.635 26.0885C11.109 24.5535 10.7581 22.8434 10.7581 21.0734ZM30.858 16.2354C31.618 17.0024 32.378 17.8285 33.021 18.6545L29.573 22.1345L25.015 17.5334L28.463 14.0534C29.281 14.7604 30.041 15.4684 30.859 16.2354H30.858ZM21.276 25.9105C20.516 25.1435 19.815 24.3174 19.114 23.4914L22.561 20.0114L27.119 24.6125L23.672 28.0935C22.853 27.4445 22.035 26.7365 21.276 25.9105ZM14.906 16.2354C14.322 14.5254 14.206 12.9914 14.439 11.8704L20.1071 17.5925L17.069 20.6605C16.134 19.1855 15.433 17.7104 14.907 16.2354H14.906ZM29.515 27.0314L35.183 32.7535C33.079 33.1665 29.923 32.3414 26.476 30.1584L29.515 27.0314ZM37.578 30.3354L31.91 24.6125L34.949 21.5455C37.228 25.0255 38.046 28.2114 37.579 30.3354H37.578ZM22.561 15.1154L16.8929 9.39241C17.2439 9.33241 17.5949 9.21541 17.9449 9.21541C18.8799 9.21541 19.99 9.39249 21.217 9.80549C22.62 10.2775 24.139 11.0445 25.6 11.9885L22.561 15.1145V15.1154ZM16.66 25.9694C17.36 26.7954 18.062 27.6214 18.822 28.3884C19.582 29.1554 20.399 29.8635 21.217 30.5715L17.77 34.0515C15.959 32.8715 14.44 31.2794 13.212 29.4504L16.66 25.9704V25.9694ZM23.964 32.6364C26.184 34.1104 28.346 35.1724 30.45 35.7624C29.047 36.1754 27.586 36.4704 26.067 36.4704C24.314 36.4704 22.678 36.1164 21.101 35.5854L23.964 32.6354V32.6364ZM40.6169 25.5565C40.0319 23.4915 38.981 21.2505 37.52 19.0085L40.441 16.0584C40.967 17.6514 41.318 19.3034 41.318 21.0734C41.318 22.6664 41.0259 24.1405 40.6169 25.5565ZM38.864 12.7554L35.416 16.2354C34.774 15.4094 34.072 14.5835 33.254 13.8165C32.494 13.0505 31.677 12.3425 30.859 11.6345L34.306 8.15339C36.117 9.33339 37.696 10.9264 38.864 12.7554ZM31.0341 6.5605L28.1121 9.51045C26.1841 8.21245 24.256 7.2105 22.328 6.5605C22.094 6.5015 21.8601 6.4425 21.6851 6.3835C23.0871 5.9705 24.548 5.67549 26.067 5.67549C27.82 5.67549 29.4571 6.0295 31.0341 6.5605ZM26.067 42.9005C20.282 42.9005 14.848 40.6595 10.817 36.5305C6.72702 32.4005 4.50598 26.9134 4.50598 21.1324C4.50598 15.8824 6.31705 10.9265 9.70605 6.97346L11.751 9.0384C9.06398 12.2834 7.427 16.5304 7.427 21.0734C7.427 31.4564 15.842 39.9515 26.126 39.9515C30.683 39.9515 34.832 38.2994 38.046 35.5854L40.0909 37.6505C36.1169 41.0135 31.268 42.9005 26.067 42.9005Z" fill="#9D9D9B" stroke="white" stroke-width="0.5"/>
</svg>
