<svg width="470" height="430" viewBox="0 0 470 430" fill="none" xmlns="http://www.w3.org/2000/svg">
<path fill-rule="evenodd" clip-rule="evenodd" d="M358.934 362.394C321.13 392.959 280.072 427.279 231.467 425.615C185.234 424.033 153.959 381.216 116.464 354.096C85.8347 331.939 52.5917 313.97 32.6918 281.829C11.4674 247.552 -3.34548 208.136 1.30694 168.108C6.06793 127.141 28.5468 90.3014 58.2723 61.7321C87.5749 33.5693 124.995 13.5162 165.522 10.2793C204.294 7.18252 236.363 35.1272 274.123 44.4918C328.5 57.9767 396.303 36.3498 434.807 77.0606C473.74 118.224 474.457 186.196 459.905 240.921C446.032 293.091 400.906 328.458 358.934 362.394Z" fill="url(#paint0_linear_328_15055)"/>
<path d="M220.453 154.631L89.7474 119.609C84.5755 118.223 79.2594 121.292 77.8736 126.464L10.8182 376.718C9.43241 381.89 12.5017 387.206 17.6736 388.592L148.38 423.615C153.552 425 158.868 421.931 160.253 416.759L227.309 166.505C228.695 161.333 225.625 156.017 220.453 154.631Z" fill="#303030"/>
<path d="M223.657 142.678L92.9505 107.656C87.7786 106.27 82.4625 109.339 81.0767 114.511L14.0213 364.765C12.6355 369.937 15.7048 375.253 20.8767 376.639L151.583 411.661C156.755 413.047 162.071 409.978 163.457 404.806L230.512 154.552C231.898 149.38 228.829 144.064 223.657 142.678Z" fill="#606060"/>
<path d="M212.243 152.436L97.9547 121.812C94.8515 120.981 91.6619 122.822 90.8304 125.925L32.9789 341.83C32.1474 344.933 33.989 348.123 37.0921 348.954L151.38 379.578C154.484 380.409 157.673 378.568 158.505 375.465L216.356 159.56C217.188 156.457 215.346 153.267 212.243 152.436Z" fill="white"/>
<path d="M176.387 232.387L89.9653 209.231C85.7539 208.102 81.4251 210.602 80.2966 214.813L74.848 235.148C73.7195 239.359 76.2188 243.688 80.4302 244.816L166.852 267.973C171.063 269.101 175.392 266.602 176.521 262.391L181.969 242.056C183.098 237.845 180.599 233.516 176.387 232.387Z" fill="#2472B2"/>
<path d="M90.3818 233.291L88.9498 231.519L91.2037 229.207L88.7109 227.123L89.9626 225.196L92.8747 226.63L94.0614 223.625L96.2982 224.224L95.8164 227.447L99.0622 227.635L99.1832 229.929L95.9567 230.481L96.7787 233.615L94.652 234.435L93.1367 231.55L90.3818 233.291Z" fill="white"/>
<path d="M130.288 243.984L128.856 242.21L131.11 239.899L128.617 237.814L129.869 235.889L132.781 237.324L133.968 234.318L136.204 234.918L135.723 238.138L138.968 238.328L139.089 240.62L135.863 241.173L136.685 244.308L134.558 245.128L133.043 242.243L130.288 243.984Z" fill="white"/>
<path d="M124.002 234.701L103.668 229.252L102.306 234.336L122.64 239.784L124.002 234.701Z" fill="white"/>
<path d="M164.674 245.597L144.34 240.148L142.978 245.232L163.312 250.681L164.674 245.597Z" fill="white"/>
<path d="M87.8292 388.175C92.781 389.501 97.8709 386.563 99.1977 381.611C100.525 376.659 97.5859 371.569 92.6341 370.242C87.6822 368.915 82.5924 371.854 81.2655 376.806C79.9387 381.758 82.8773 386.848 87.8292 388.175Z" fill="#B2B2B2"/>
<path d="M236.718 38.7232L367.424 3.70064C372.596 2.31483 377.912 5.38408 379.298 10.556L446.354 260.81C447.739 265.982 444.67 271.298 439.498 272.684L308.792 307.706C303.62 309.092 298.304 306.023 296.918 300.851L229.863 50.5971C228.477 45.4251 231.546 40.109 236.718 38.7232Z" fill="#B2B2B2"/>
<path d="M240.039 51.1178L370.745 16.0952C375.917 14.7094 381.233 17.7786 382.619 22.9505L449.674 273.205C451.06 278.376 447.991 283.693 442.819 285.078L312.112 320.101C306.941 321.487 301.624 318.418 300.239 313.246L233.183 62.9916C231.798 57.8197 234.867 52.5036 240.039 51.1178Z" fill="#CCCCCC"/>
<path d="M251.448 60.8712L365.737 30.2477C368.84 29.4162 372.03 31.2578 372.861 34.3609L430.712 250.266C431.544 253.369 429.702 256.558 426.599 257.39L312.311 288.013C309.208 288.845 306.018 287.003 305.187 283.9L247.335 67.9955C246.504 64.8923 248.345 61.7027 251.448 60.8712Z" fill="white"/>
<path d="M287.308 140.827L373.73 117.67C377.941 116.542 382.27 119.041 383.399 123.252L388.847 143.587C389.976 147.798 387.477 152.127 383.265 153.256L296.843 176.412C292.632 177.541 288.303 175.042 287.175 170.83L281.726 150.496C280.597 146.284 283.097 141.955 287.308 140.827Z" fill="#9171BC"/>
<path d="M346.588 148.891L348.021 147.118L345.766 144.806L348.26 142.722L347.007 140.796L344.095 142.23L342.908 139.225L340.672 139.824L341.153 143.046L337.907 143.234L337.787 145.528L341.014 146.08L340.191 149.215L342.319 150.035L343.833 147.15L346.588 148.891Z" fill="white"/>
<path d="M332.371 152.699L333.804 150.926L331.549 148.615L334.043 146.531L332.79 144.605L329.88 146.039L328.693 143.033L326.456 143.633L326.936 146.854L323.691 147.043L323.57 149.337L326.797 149.889L325.975 153.024L328.102 153.843L329.616 150.958L332.371 152.699Z" fill="white"/>
<path d="M351.537 139.962L371.871 134.514L373.233 139.597L352.899 145.046L351.537 139.962Z" fill="white"/>
<path d="M299.021 154.036L319.355 148.588L320.718 153.672L300.383 159.12L299.021 154.036Z" fill="white"/>
<path d="M375.862 296.61C370.91 297.937 365.82 294.998 364.494 290.046C363.167 285.095 366.105 280.005 371.057 278.678C376.009 277.351 381.099 280.29 382.426 285.242C383.753 290.193 380.814 295.283 375.862 296.61Z" fill="white"/>
<defs>
<linearGradient id="paint0_linear_328_15055" x1="143.916" y1="67.2423" x2="750.714" y2="307.129" gradientUnits="userSpaceOnUse">
<stop stop-color="#F8ECF7"/>
<stop offset="0.005618" stop-color="#F8ECF7"/>
<stop offset="0.449438" stop-color="#D0DBF2"/>
<stop offset="1" stop-color="#B8C8EA"/>
</linearGradient>
</defs>
</svg>
