<svg width="191" height="184" viewBox="0 0 191 184" fill="none" xmlns="http://www.w3.org/2000/svg">
<g filter="url(#filter0_d_873_8680)">
<path d="M50.9297 29.8826V83.7526L92.8977 107.788L140.285 79.7626V25.8926" fill="black"/>
</g>
<path d="M50.9297 29.8826V83.7526L92.8977 107.788L140.285 79.7626V25.8926" fill="#72AC47" fill-opacity="0.8"/>
<path d="M92.8984 53.9186V107.789L140.285 79.7626V25.8926L92.8984 53.9186Z" fill="#72AC47" fill-opacity="0.5"/>
<path d="M50.9297 29.881L99.6237 2.12695L140.286 25.894L92.8987 53.919L50.9297 29.881Z" fill="#72AC47" fill-opacity="0.9"/>
<path d="M94.012 14.4906C98.9491 14.1572 103.879 15.2429 108.219 17.6196C110.705 19.0816 112.063 20.6076 112.255 22.1986C112.447 23.7886 111.627 25.1736 109.693 26.3416C108.776 26.9084 107.765 27.3079 106.708 27.5216C105.839 27.7266 104.948 27.8166 104.056 27.7906L103.082 27.7136C103.173 27.9306 103.233 28.1596 103.262 28.3936C103.231 28.9472 103.054 29.4828 102.749 29.9456C102.242 30.8059 101.518 31.5179 100.649 32.0106C98.6243 33.2136 96.3036 33.8266 93.949 33.7806C91.5125 33.8461 89.1052 33.2381 86.992 32.0236C84.993 30.8436 83.969 29.4576 83.892 27.8676C83.8995 27.0254 84.1437 26.2023 84.5967 25.4924C85.0498 24.7824 85.6934 24.2142 86.454 23.8526C87.1838 23.3974 87.9785 23.0559 88.811 22.8396C89.4748 22.6479 90.1581 22.5318 90.848 22.4936H91.553L90.271 21.7236L93.871 19.4796L102.211 24.3916C102.849 24.7349 103.562 24.9147 104.286 24.9147C105.01 24.9147 105.723 24.7349 106.361 24.3916C108.13 23.2886 107.498 21.8396 104.466 20.0436C101.244 18.2693 97.5806 17.4548 93.91 17.6966C90.0195 17.7443 86.2136 18.8386 82.892 20.8646C79.869 22.7546 78.37 25.0076 78.396 27.6246C78.396 30.1886 79.997 32.4726 83.11 34.3066C86.5077 36.2069 90.3664 37.1261 94.256 36.9616C98.1282 37.0248 101.942 36.0122 105.273 34.0366C106.426 33.3533 107.46 32.487 108.335 31.4716C108.92 30.8502 109.357 30.1051 109.615 29.2916L109.795 28.4836L114.548 28.7526C114.556 28.8976 114.556 29.0426 114.548 29.1886C114.461 29.5812 114.345 29.9669 114.202 30.3426C113.996 30.9455 113.72 31.5226 113.382 32.0626C112.894 32.7893 112.327 33.46 111.692 34.0626C110.854 34.871 109.93 35.5852 108.937 36.1926C106.077 37.9094 102.909 39.0508 99.611 39.5526C96.0172 40.1802 92.3477 40.245 88.734 39.7446C85.4491 39.3574 82.2743 38.3195 79.395 36.6916C77.0701 35.4606 75.2085 33.5071 74.091 31.1256C73.6343 30.0866 73.3984 28.964 73.3984 27.8291C73.3984 26.6941 73.6343 25.5716 74.091 24.5326C75.198 22.1075 77.0404 20.0926 79.357 18.7736C83.7709 16.0606 88.8318 14.5812 94.012 14.4896V14.4906ZM98.675 27.7526C98.505 26.8616 97.905 26.1126 97.074 25.7516C96.0649 25.1569 94.9153 24.8424 93.744 24.8406C92.6551 24.7993 91.5777 25.0755 90.643 25.6356C90.2664 25.8194 89.9476 26.1034 89.7217 26.4563C89.4957 26.8093 89.3713 27.2176 89.362 27.6366C89.479 28.5266 90.052 29.2906 90.874 29.6506C91.9061 30.2404 93.0795 30.5377 94.268 30.5106C95.4106 30.5391 96.5383 30.2456 97.522 29.6636C97.8868 29.4965 98.195 29.2269 98.409 28.8875C98.623 28.5481 98.7335 28.1537 98.727 27.7526" fill="#3E2928"/>
<defs>
<filter id="filter0_d_873_8680" x="0.929688" y="0.892578" width="189.355" height="181.895" filterUnits="userSpaceOnUse" color-interpolation-filters="sRGB">
<feFlood flood-opacity="0" result="BackgroundImageFix"/>
<feColorMatrix in="SourceAlpha" type="matrix" values="0 0 0 0 0 0 0 0 0 0 0 0 0 0 0 0 0 0 127 0" result="hardAlpha"/>
<feOffset dy="25"/>
<feGaussianBlur stdDeviation="25"/>
<feColorMatrix type="matrix" values="0 0 0 0 0.209139 0 0 0 0 0.0691446 0 0 0 0 0.478091 0 0 0 0.497159 0"/>
<feBlend mode="normal" in2="BackgroundImageFix" result="effect1_dropShadow_873_8680"/>
<feBlend mode="normal" in="SourceGraphic" in2="effect1_dropShadow_873_8680" result="shape"/>
</filter>
</defs>
</svg>
