<svg width="472" height="359" viewBox="0 0 472 359" fill="none" xmlns="http://www.w3.org/2000/svg">
<path d="M229.017 355.202L9.31229 225.21C2.31729 221.272 -3.67771 214.82 3.13729 210.588L223.624 83.3657C226.929 81.3137 231.951 79.9667 235.32 81.9287L465.915 215.936C472.909 220.002 474.165 231.328 467.195 235.432L257.971 354.997C253.58 357.547 248.6 358.908 243.522 358.944C238.444 358.98 233.445 357.69 229.018 355.202H229.017Z" fill="#5C5B59"/>
<path d="M229.017 349.202L9.31229 219.21C2.31729 215.272 -3.67771 208.82 3.13729 204.588L223.624 77.3657C226.929 75.3137 231.951 73.9667 235.32 75.9287L465.915 209.936C472.909 214.002 474.165 225.328 467.195 229.432L257.971 348.997C253.58 351.547 248.6 352.908 243.522 352.944C238.444 352.98 233.445 351.69 229.018 349.202H229.017Z" fill="#888888"/>
<path style="mix-blend-mode:multiply" opacity="0.25" d="M247.132 177.691L203.779 202.458C203.779 202.458 270.562 243.258 284.218 249.004L309.186 213.091" fill="url(#paint0_linear_873_8690)"/>
<path style="mix-blend-mode:multiply" opacity="0.25" d="M232.157 296.512L188.792 271.797L145.428 296.564C145.428 296.564 168.013 310.364 189.599 323.037C203.307 313.327 217.027 303.516 232.157 296.512V296.512Z" fill="url(#paint1_linear_873_8690)"/>
<path style="mix-blend-mode:multiply" opacity="0.46" d="M138.728 143.883L111.223 159.595C111.223 159.595 113.554 173.999 127.211 179.745L163.221 156.658" fill="url(#paint2_linear_873_8690)"/>
<path d="M152.192 159.595C161.354 159.595 168.782 154.358 168.782 147.898C168.782 141.438 161.354 136.201 152.192 136.201C143.029 136.201 135.602 141.438 135.602 147.898C135.602 154.358 143.029 159.595 152.192 159.595Z" fill="#B9B9B9"/>
<path d="M152.178 146.088C159.041 146.088 164.604 143.809 164.604 140.996C164.604 138.184 159.041 135.904 152.178 135.904C145.315 135.904 139.752 138.184 139.752 140.996C139.752 143.809 145.315 146.088 152.178 146.088Z" fill="#5C5B59"/>
<path d="M151.73 132.504C151.73 130.208 151.654 127.913 151.474 125.617C151.423 125.018 151.368 124.424 151.308 123.834L151.18 122.667C151.18 122.32 151 121.384 151 121.474C150.923 121.004 150.842 120.538 150.757 120.076C149.402 112.284 146.378 104.876 141.892 98.3613C140.204 102.383 139.362 106.71 139.419 111.071C139.419 112.355 139.522 113.637 139.624 114.843V115.6C139.727 116.215 139.842 116.882 139.97 117.446C140.458 119.786 141.113 122.088 141.93 124.334C142.664 126.402 143.559 128.409 144.608 130.337C145.738 132.507 146.965 134.626 148.284 136.686C149.235 138.19 150.231 139.666 151.269 141.111C151.577 138.251 151.718 135.377 151.73 132.504V132.504ZM145.21 106.685C145.275 106.39 145.275 106.084 145.21 105.788C145.526 106.112 145.838 106.446 146.145 106.788C145.837 106.701 145.516 106.666 145.197 106.685H145.21Z" fill="#999A1C"/>
<path d="M155.995 134.275C157.265 132.359 158.433 130.377 159.493 128.337C159.775 127.807 160.048 127.277 160.313 126.747L160.838 125.682L161.338 124.579L161.888 123.296C164.959 115.998 166.414 108.122 166.154 100.209C162.553 102.68 159.5 105.867 157.187 109.572C156.523 110.641 155.903 111.736 155.329 112.856L155.073 113.33L155.009 113.536C154.766 114.113 154.522 114.69 154.292 115.28C153.442 117.515 152.753 119.808 152.229 122.142C151.731 124.281 151.401 126.455 151.243 128.645C151.017 131.079 150.906 133.523 150.91 135.968C150.91 137.879 150.91 139.624 151.025 141.304C152.729 139.034 154.445 136.699 155.995 134.275V134.275ZM164.451 109.021C164.651 108.795 164.8 108.528 164.886 108.238C164.98 108.683 165.061 109.111 165.13 109.521C164.93 109.321 164.7 109.153 164.45 109.021H164.451Z" fill="#999A1C"/>
<path d="M155.907 139.995C157.211 139.346 158.492 138.653 159.75 137.917L160.71 137.327L161.339 136.929L161.954 136.493L162.671 135.967C166.676 133.023 169.998 129.247 172.407 124.898C169.672 125.074 167.003 125.812 164.567 127.066C163.862 127.426 163.183 127.823 162.504 128.233L162.21 128.413L162.107 128.503L161.159 129.208C159.978 130.141 158.865 131.157 157.829 132.248C156.871 133.242 155.992 134.31 155.202 135.441C154.312 136.7 153.458 137.983 152.64 139.289C152.059 140.248 151.508 141.223 150.987 142.214C152.64 141.521 154.293 140.803 155.907 139.994V139.995ZM168.615 129.093C168.796 129.036 168.962 128.94 169.102 128.81C169.008 129.084 168.906 129.353 168.794 129.618C168.76 129.439 168.7 129.266 168.615 129.105V129.093ZM151.73 132.504C151.73 130.208 151.654 127.913 151.474 125.617C151.423 125.018 151.368 124.424 151.308 123.834L151.18 122.667C151.18 122.32 151 121.384 151 121.474C150.923 121.004 150.842 120.538 150.757 120.076C149.402 112.284 146.378 104.876 141.892 98.3613C140.204 102.383 139.362 106.71 139.419 111.071C139.419 112.355 139.522 113.637 139.624 114.843V115.6C139.727 116.215 139.842 116.882 139.97 117.446C140.458 119.786 141.113 122.088 141.93 124.334C142.664 126.402 143.559 128.409 144.608 130.337C145.738 132.507 146.965 134.626 148.284 136.686C149.235 138.19 150.231 139.666 151.269 141.111C151.577 138.251 151.718 135.377 151.73 132.504V132.504ZM145.21 106.685C145.275 106.39 145.275 106.084 145.21 105.788C145.526 106.112 145.838 106.446 146.145 106.788C145.837 106.701 145.516 106.666 145.197 106.685H145.21Z" fill="#72AC47"/>
<path d="M155.995 134.275C157.265 132.359 158.433 130.377 159.493 128.337C159.775 127.807 160.048 127.277 160.313 126.747L160.838 125.682L161.338 124.579L161.888 123.296C164.959 115.998 166.414 108.122 166.154 100.209C162.553 102.68 159.5 105.867 157.187 109.572C156.523 110.641 155.903 111.736 155.329 112.856L155.073 113.33L155.009 113.536C154.766 114.113 154.522 114.69 154.292 115.28C153.442 117.515 152.753 119.808 152.229 122.142C151.731 124.281 151.401 126.455 151.243 128.645C151.017 131.079 150.906 133.523 150.91 135.968C150.91 137.879 150.91 139.624 151.025 141.304C152.729 139.034 154.445 136.699 155.995 134.275ZM164.451 109.021C164.651 108.795 164.8 108.528 164.886 108.238C164.98 108.683 165.061 109.111 165.13 109.521C164.93 109.321 164.701 109.153 164.451 109.021Z" fill="#72AC47"/>
<path d="M155.906 139.995C157.21 139.346 158.492 138.653 159.749 137.917L160.709 137.327L161.338 136.929L161.953 136.493L162.67 135.967C166.676 133.023 169.997 129.247 172.406 124.898C169.672 125.074 167.003 125.812 164.566 127.066C163.861 127.426 163.182 127.823 162.503 128.233L162.209 128.413L162.106 128.503L161.158 129.208C159.977 130.141 158.864 131.157 157.828 132.248C156.87 133.242 155.992 134.31 155.201 135.441C154.312 136.7 153.458 137.983 152.639 139.289C152.059 140.248 151.508 141.223 150.986 142.214C152.639 141.521 154.292 140.803 155.906 139.994V139.995ZM168.614 129.093C168.796 129.036 168.962 128.94 169.101 128.81C169.007 129.084 168.905 129.353 168.793 129.618C168.76 129.439 168.7 129.266 168.614 129.105V129.093Z" fill="#72AC47"/>
<path d="M264.348 168.021L240.354 179.564C239.45 180 238.681 180.674 238.131 181.513C237.58 182.353 237.268 183.326 237.229 184.329C237.189 185.332 237.424 186.327 237.907 187.207C238.39 188.087 239.103 188.819 239.97 189.324L296.837 222.544C298.067 223.264 299.526 223.48 300.911 223.148C302.296 222.815 303.498 221.961 304.267 220.762L318.09 199.239" fill="#5C5B59"/>
<path d="M394.854 112.343L203.524 1.96122C202.212 1.20565 200.724 0.808797 199.21 0.810553C197.695 0.812308 196.208 1.21261 194.898 1.97122C193.587 2.73065 192.498 3.82146 191.741 5.1343C190.984 6.44714 190.586 7.93586 190.586 9.45122V124.284C190.586 125.545 190.917 126.783 191.547 127.874C192.176 128.966 193.082 129.873 194.173 130.504L398.146 248.389C398.849 248.797 399.648 249.013 400.462 249.013C401.275 249.014 402.074 248.799 402.778 248.392C403.482 247.985 404.067 247.399 404.473 246.693C404.879 245.988 405.092 245.188 405.09 244.374V130.017C405.088 126.432 404.14 122.91 402.343 119.807C400.546 116.704 397.963 114.13 394.854 112.343V112.343Z" fill="#666766"/>
<path d="M203.536 10.6455L389.088 117.526C391.069 118.669 392.715 120.314 393.86 122.295C395.004 124.276 395.607 126.524 395.608 128.812V214.888C395.607 215.711 395.389 216.52 394.978 217.233C394.567 217.946 393.976 218.539 393.264 218.953C392.552 219.365 391.744 219.584 390.922 219.586C390.099 219.589 389.29 219.375 388.576 218.967L199.347 110.304C198.638 109.897 198.05 109.31 197.64 108.603C197.231 107.896 197.016 107.093 197.016 106.277V14.4285C197.016 12.8735 197.843 11.4365 199.187 10.6565C199.847 10.2731 200.597 10.0703 201.36 10.0684C202.124 10.0664 202.874 10.2655 203.537 10.6455H203.536Z" fill="white"/>
<path d="M281.61 172.998C283.798 172.576 285.182 170.205 284.7 167.701C284.218 165.197 282.052 163.509 279.864 163.93C277.675 164.352 276.291 166.723 276.773 169.227C277.256 171.731 279.421 173.419 281.61 172.998Z" fill="#72AC47"/>
<path opacity="0.32" d="M253.41 127.425L339.64 179.294L382.235 154.501L306.126 110.148" fill="url(#paint3_linear_873_8690)"/>
<path d="M359.969 117.101L266.745 60.1915C266.246 59.9027 265.679 59.753 265.103 59.7579C264.526 59.7629 263.961 59.9222 263.467 60.2195C262.973 60.5168 262.567 60.9411 262.292 61.4482C262.017 61.9553 261.882 62.5269 261.902 63.1035V95.5295C261.898 96.1158 262.046 96.6932 262.331 97.2055C262.616 97.7178 263.029 98.1478 263.529 98.4535L356.741 154.157C357.738 154.724 358.961 154.717 359.951 154.137C360.438 153.853 360.842 153.445 361.121 152.956C361.401 152.466 361.547 151.911 361.545 151.347L362.032 121.117C362.068 120.326 361.897 119.54 361.535 118.836C361.173 118.131 360.633 117.534 359.969 117.102V117.101Z" fill="#A6CB91"/>
<path d="M337.666 133.788C341.009 138.469 346.889 139.778 350.784 136.725C354.678 133.672 355.127 127.401 351.784 122.732C348.439 118.063 342.559 116.742 338.664 119.795C334.77 122.847 334.322 129.106 337.666 133.788V133.788Z" fill="white"/>
<path d="M328.519 111.316L290.496 88.3965C290.169 88.2435 289.797 88.2179 289.453 88.3248C289.109 88.4317 288.817 88.6634 288.634 88.9745C288.451 89.2858 288.391 89.654 288.466 90.0072C288.54 90.3605 288.743 90.6733 289.036 90.8845L327.058 113.804C327.385 113.958 327.757 113.983 328.101 113.876C328.445 113.769 328.737 113.538 328.92 113.226C329.103 112.915 329.163 112.547 329.089 112.194C329.015 111.841 328.812 111.528 328.519 111.316V111.316ZM326.956 120.628L274.546 89.0375C274.225 88.9272 273.875 88.9331 273.558 89.054C273.241 89.175 272.977 89.4033 272.81 89.6993C272.644 89.9953 272.587 90.3402 272.649 90.6739C272.711 91.0076 272.889 91.309 273.15 91.5255L325.495 123.128C325.822 123.282 326.194 123.307 326.538 123.2C326.882 123.093 327.174 122.862 327.357 122.55C327.54 122.239 327.6 121.871 327.526 121.518C327.452 121.165 327.249 120.852 326.956 120.64V120.627V120.628Z" fill="#F2F2F2"/>
<path d="M341.368 123.385L248.195 66.4884C247.696 66.1996 247.128 66.0499 246.552 66.0548C245.975 66.0597 245.411 66.2191 244.917 66.5164C244.422 66.8137 244.016 67.2379 243.741 67.7451C243.466 68.2522 243.331 68.8237 243.352 69.4004V101.811C243.344 102.399 243.489 102.978 243.772 103.493C244.055 104.008 244.466 104.441 244.967 104.749L338.178 160.452C339.186 161.032 340.428 161.022 341.426 160.427C341.916 160.135 342.32 159.716 342.596 159.216C342.872 158.715 343.009 158.151 342.995 157.579L343.482 127.349C343.503 126.562 343.32 125.783 342.949 125.088C342.578 124.393 342.033 123.806 341.368 123.385V123.385Z" fill="#72AC47"/>
<path d="M319.064 140.074C322.408 144.755 328.288 146.064 332.183 143.011C336.077 139.958 336.525 133.686 333.182 129.018C329.838 124.348 323.958 123.028 320.064 126.08C316.169 129.133 315.721 135.392 319.064 140.074Z" fill="white"/>
<path d="M309.916 117.602L271.868 94.6816C271.542 94.5286 271.17 94.5031 270.825 94.61C270.481 94.7169 270.189 94.9486 270.006 95.2596C269.824 95.5709 269.764 95.9392 269.838 96.2924C269.912 96.6456 270.116 96.9584 270.408 97.1696L308.43 120.09C308.757 120.243 309.129 120.268 309.473 120.161C309.818 120.054 310.11 119.823 310.292 119.512C310.475 119.2 310.535 118.832 310.461 118.479C310.387 118.126 310.184 117.813 309.891 117.602H309.916V117.602ZM308.341 126.978L255.944 95.3356C255.618 95.1827 255.246 95.1573 254.901 95.2644C254.557 95.3715 254.265 95.6034 254.082 95.9146C253.9 96.2259 253.84 96.5942 253.914 96.9474C253.988 97.3006 254.192 97.6134 254.484 97.8246L306.893 129.415C307.22 129.568 307.592 129.593 307.936 129.486C308.281 129.379 308.573 129.148 308.755 128.837C308.938 128.525 308.998 128.157 308.924 127.804C308.85 127.451 308.646 127.138 308.353 126.927L308.341 126.978V126.978Z" fill="#F2F2F2"/>
<path d="M317.989 127.21L224.789 70.3131C224.29 70.0242 223.723 69.8743 223.147 69.879C222.57 69.8838 222.005 70.043 221.511 70.3401C221.017 70.6375 220.611 71.0618 220.336 71.5689C220.061 72.0761 219.927 72.6475 219.947 73.2241V105.636C219.943 106.222 220.091 106.8 220.376 107.312C220.661 107.824 221.074 108.254 221.574 108.56L314.785 164.264C315.793 164.844 317.035 164.834 318.034 164.238C318.525 163.945 318.928 163.527 319.204 163.027C319.479 162.527 319.617 161.962 319.602 161.391L320.089 131.16C320.11 130.376 319.927 129.601 319.559 128.909C319.191 128.216 318.65 127.631 317.989 127.21V127.21Z" fill="#68E1FD"/>
<path d="M317.989 127.21L224.789 70.3131C224.29 70.0242 223.723 69.8743 223.147 69.879C222.57 69.8838 222.005 70.043 221.511 70.3401C221.017 70.6375 220.611 71.0618 220.336 71.5689C220.061 72.0761 219.927 72.6475 219.947 73.2241V105.636C219.943 106.222 220.091 106.8 220.376 107.312C220.661 107.824 221.074 108.254 221.574 108.56L314.785 164.264C315.793 164.844 317.035 164.834 318.034 164.238C318.525 163.945 318.928 163.527 319.204 163.027C319.479 162.527 319.617 161.962 319.602 161.391L320.089 131.16C320.11 130.376 319.927 129.601 319.559 128.909C319.191 128.216 318.65 127.631 317.989 127.21V127.21Z" fill="#C4C4C4"/>
<path d="M295.671 143.896C299.014 148.577 304.895 149.886 308.789 146.833C312.684 143.78 313.132 137.508 309.789 132.84C306.445 128.171 300.564 126.85 296.67 129.903C292.776 132.955 292.366 139.214 295.67 143.896H295.671Z" fill="white"/>
<path d="M286.525 121.424L248.49 98.5039C248.164 98.3509 247.792 98.3253 247.447 98.4322C247.103 98.5392 246.811 98.7708 246.628 99.0819C246.445 99.3931 246.385 99.7613 246.459 100.114C246.533 100.468 246.737 100.781 247.029 100.992L285.052 123.912C285.379 124.065 285.751 124.09 286.095 123.984C286.439 123.877 286.732 123.645 286.914 123.334C287.097 123.023 287.157 122.654 287.083 122.301C287.008 121.948 286.805 121.635 286.512 121.424H286.525V121.424ZM284.949 130.749L232.54 99.1569C232.213 99.004 231.841 98.9786 231.497 99.0857C231.152 99.1928 230.86 99.4247 230.678 99.7359C230.495 100.047 230.435 100.415 230.51 100.769C230.584 101.122 230.787 101.435 231.08 101.646L283.489 133.236C283.816 133.389 284.188 133.414 284.532 133.308C284.876 133.201 285.169 132.969 285.351 132.658C285.534 132.347 285.594 131.978 285.52 131.625C285.445 131.272 285.242 130.959 284.949 130.748V130.749Z" fill="#F2F2F2"/>
<path d="M195.67 124.027C189.647 129.219 185.092 135.902 182.462 143.407C177.824 156.234 189.418 177.191 189.418 177.191L207.456 162.891" fill="#72AC47"/>
<path d="M193.723 293.602L188.83 290.896L190.11 283.893C190.11 283.893 197.4 284.585 198.04 287.176" fill="#5C5B59"/>
<path d="M195.516 293.499C196.618 292.819 197.771 292.216 198.911 291.613C201.741 290.061 205.829 288.458 207.571 285.546C207.928 284.957 208.098 284.273 208.057 283.586C208.016 282.899 207.766 282.24 207.341 281.698C204.778 278.594 199.167 283.699 196.297 280.262C195.734 279.582 195.465 268.795 195.465 268.795L184.55 271.745C184.55 271.745 182.705 293.421 182.91 294.755C183.115 296.089 186.869 297.321 186.869 297.321C187.987 297.083 189.054 296.649 190.02 296.038C191.16 295.204 190.122 285.033 191.583 286.457C193.043 287.881 193.683 293.447 193.683 293.447C194.29 293.539 194.905 293.557 195.516 293.498V293.499Z" fill="#F47B56"/>
<path d="M214.568 304.08L209.674 301.413L210.954 294.41C210.954 294.41 218.244 295.103 218.884 297.693" fill="#5C5B59"/>
<path d="M216.411 303.976C217.513 303.296 218.666 302.694 219.806 302.091C222.637 300.539 226.724 298.936 228.466 296.024C228.823 295.436 228.992 294.752 228.951 294.065C228.91 293.377 228.661 292.719 228.236 292.176C225.673 289.072 220.062 294.177 217.193 290.74C216.629 290.06 216.36 279.273 216.36 279.273L205.445 282.223C205.445 282.223 203.588 303.976 203.793 305.259C203.998 306.541 207.751 307.824 207.751 307.824C208.869 307.587 209.937 307.152 210.903 306.541C212.043 305.708 211.005 295.537 212.466 296.961C213.926 298.384 214.566 303.951 214.566 303.951C215.178 304.036 215.797 304.044 216.411 303.976V303.976Z" fill="#F47B56"/>
<path d="M179.005 233.613L175.789 276.671C175.789 276.671 180.914 283.751 198.093 279.813L198.259 250.787L179.005 233.613ZM198.849 242.143C198.477 245.849 198.849 286.739 198.849 286.739C198.849 286.739 203.601 295.64 224.291 286.739L223.996 251.993" fill="#333333"/>
<path d="M177.402 247.836C178.812 248.811 179.298 243.796 180.772 244.656C186.131 247.773 191.82 250.285 197.733 252.146H197.861C198.002 252.078 198.155 252.038 198.312 252.03C198.468 252.022 198.625 252.046 198.772 252.1C198.919 252.154 199.054 252.237 199.168 252.344C199.283 252.451 199.374 252.58 199.437 252.723C203.09 253.814 206.809 254.671 210.57 255.288C215.4 256.058 219.396 252.48 224.354 252.236C224.354 233.228 224.444 179.127 216.36 167.584L192.442 159.529C192.327 161.504 180.836 174.843 181.117 191.107C181.437 209.435 179.055 226.725 178.645 232.458C178.581 233.433 177.454 246.798 177.402 247.836V247.836Z" fill="#333333"/>
<path d="M218.563 145.728L216.36 167.532C216.36 167.532 198.515 168.251 190.828 162.941V144.445" fill="#72AC47"/>
<path d="M241.251 131.378L239.432 133.866C240.402 131.842 241.258 129.766 241.994 127.646C242.507 126.196 240.188 125.619 239.676 127.068L239.406 127.812C239.629 127.042 239.838 126.269 240.034 125.49C240.075 125.337 240.085 125.177 240.063 125.02C240.041 124.863 239.989 124.712 239.908 124.575C239.827 124.439 239.721 124.32 239.593 124.225C239.466 124.13 239.322 124.062 239.168 124.024C239.014 123.985 238.854 123.978 238.697 124.002C238.541 124.026 238.39 124.081 238.255 124.164C238.12 124.247 238.003 124.356 237.91 124.484C237.817 124.613 237.751 124.759 237.715 124.913C237.213 126.926 236.61 128.912 235.909 130.865C236.301 129.131 236.583 127.374 236.755 125.605C236.909 124.08 234.513 124.144 234.372 125.605C234.173 127.619 233.814 129.614 233.296 131.57C233.296 130.886 233.232 130.202 233.104 129.518C233.087 129.347 233.033 129.182 232.947 129.034C232.861 128.886 232.744 128.758 232.604 128.658C232.539 128.39 232.463 128.124 232.374 127.863C232.284 127.594 232.102 127.366 231.859 127.218C231.617 127.071 231.331 127.014 231.05 127.057C230.77 127.1 230.514 127.24 230.327 127.454C230.14 127.667 230.035 127.939 230.029 128.223L229.875 137.201C229.442 138.131 228.876 138.996 228.197 139.766C229.35 140.564 230.462 141.42 231.528 142.331C232.479 143.136 233.386 143.992 234.244 144.896C235.01 143.942 235.749 142.967 236.46 141.972C236.548 141.897 236.626 141.811 236.69 141.715C238.824 138.554 241.028 135.441 243.301 132.378C244.249 131.326 242.161 130.159 241.251 131.378V131.378Z" fill="#FFAE73"/>
<path d="M207.24 125.85C207.24 125.85 215.67 128.12 219.09 133.545C221.232 137.3 223.12 141.196 224.74 145.205L230.965 135.52C230.965 135.52 238.524 137.842 241.521 141.562C241.521 141.562 232.554 161.185 224.739 162.866C216.925 164.546 208.623 151.348 208.623 151.348C208.623 151.348 206.907 156.863 207.24 150.976" fill="#72AC47"/>
<path d="M212.594 146.82C210.144 144.823 208.295 142.186 207.252 139.202C206.239 135.752 207.508 132.724 208.686 129.518C209.963 126.339 210.707 122.972 210.89 119.552C210.992 116.192 210.608 112.832 210.377 109.483C210.345 109.339 210.345 109.19 210.377 109.047C209.25 105.264 206.944 102.057 202.397 101.672C190.623 100.672 189.957 113.729 190.047 119.039C190.137 124.349 190.7 127.94 186.793 130.159C182.885 132.378 180.067 138.201 183.795 142.909C187.523 147.615 184.179 145.897 181.694 150.078C179.209 154.259 179.849 159.48 184.948 161.365C190.047 163.25 213.747 159.71 215.924 157.517C216.698 156.633 217.097 155.483 217.039 154.311C216.508 151.36 214.93 148.7 212.594 146.821V146.82Z" fill="black"/>
<path d="M224.176 39.1309C226.171 42.0069 227.325 45.3829 227.506 48.8789C227.729 50.4794 227.34 52.1053 226.418 53.4319C226.025 53.8646 225.499 54.1539 224.923 54.2539C224.348 54.3539 223.755 54.2588 223.24 53.9839C222.592 53.7255 222.007 53.3321 221.524 52.8299C221.089 52.4214 220.717 51.9502 220.422 51.4319L220.115 50.8289C220.031 50.9866 219.927 51.133 219.807 51.2649C219.501 51.5028 219.14 51.6574 218.757 51.7139C218.116 51.8326 217.454 51.752 216.861 51.4829C215.444 50.8691 214.266 49.8112 213.504 48.4689C212.585 47.0096 212.072 45.3316 212.018 43.6079C211.924 42.9184 211.982 42.2167 212.188 41.552C212.394 40.8873 212.743 40.2757 213.21 39.7599C213.615 39.368 214.132 39.1108 214.689 39.0234C215.246 38.9361 215.817 39.0228 216.323 39.2719C216.836 39.4769 217.309 39.7719 217.719 40.1449C218.069 40.4419 218.378 40.7819 218.641 41.1579L218.871 41.5679V40.4269L221.434 41.4269L221.69 48.6359C221.708 49.1519 221.868 49.6529 222.152 50.0849C222.392 50.5019 222.761 50.8299 223.202 51.0209C224.44 51.5089 225.012 50.4399 224.919 47.8149C224.79 45.2152 223.933 42.7041 222.446 40.5679C221.11 38.3959 219.125 36.6996 216.771 35.7199C215.917 35.2852 214.951 35.1176 214.001 35.2388C213.05 35.3601 212.158 35.7647 211.441 36.3999C210.675 37.1701 210.093 38.1024 209.736 39.1279C209.379 40.1534 209.257 41.2459 209.379 42.3249C209.525 45.074 210.41 47.7328 211.941 50.0209C213.159 52.2794 215.079 54.0801 217.411 55.1509C218.223 55.4909 219.095 55.6609 219.974 55.6509C220.546 55.6898 221.118 55.5843 221.639 55.3439L222.152 55.0609L223.702 57.9469L223.445 58.1269C223.201 58.2636 222.949 58.3835 222.69 58.4859C222.28 58.6629 221.85 58.7839 221.408 58.8459C220.842 58.9218 220.27 58.9218 219.705 58.8459C218.962 58.7571 218.234 58.5715 217.54 58.2939C215.566 57.444 213.813 56.1541 212.415 54.5229C210.757 52.6874 209.415 50.5896 208.444 48.3149C207.471 46.1417 206.914 43.8053 206.804 41.4269C206.666 39.4269 207.074 37.4279 207.983 35.6429C208.737 34.1452 210.04 32.9964 211.621 32.4359C213.276 31.8901 215.076 31.9818 216.668 32.6929C219.777 34.0088 222.401 36.2586 224.176 39.1309V39.1309ZM218.526 48.2509C218.946 47.7129 219.136 47.0299 219.051 46.3519C219.03 45.5163 218.796 44.6998 218.372 43.9799C218.025 43.3515 217.48 42.8554 216.822 42.5689C216.569 42.4386 216.283 42.3884 216.002 42.425C215.72 42.4616 215.456 42.5834 215.246 42.7739C215.025 43.0258 214.86 43.3222 214.763 43.643C214.666 43.9638 214.638 44.3016 214.683 44.6339C214.712 45.4799 214.963 46.3029 215.413 47.0189C215.783 47.6709 216.353 48.1839 217.04 48.4819C217.28 48.6051 217.553 48.6491 217.82 48.6076C218.087 48.5661 218.334 48.4413 218.526 48.2509ZM375.433 178.012C377.431 180.886 378.585 184.263 378.763 187.76C378.986 189.36 378.597 190.986 377.675 192.313C377.281 192.743 376.755 193.031 376.18 193.131C375.605 193.231 375.014 193.137 374.498 192.865C373.852 192.603 373.267 192.21 372.781 191.711C372.348 191.3 371.977 190.829 371.679 190.312L371.372 189.71C371.285 189.866 371.182 190.012 371.064 190.146C370.76 190.386 370.398 190.541 370.014 190.595C369.379 190.723 368.72 190.646 368.131 190.377C366.712 189.76 365.534 188.697 364.774 187.35C363.846 185.889 363.328 184.206 363.275 182.476C363.177 181.786 363.234 181.084 363.44 180.418C363.646 179.753 363.997 179.142 364.467 178.628C364.87 178.237 365.385 177.981 365.939 177.894C366.494 177.806 367.063 177.893 367.567 178.141C368.081 178.345 368.554 178.64 368.963 179.013C369.313 179.315 369.623 179.66 369.886 180.039L370.129 180.449V179.308L372.691 180.295L372.948 187.504C372.97 188.019 373.129 188.519 373.408 188.953C373.65 189.37 374.018 189.698 374.459 189.889C375.74 190.377 376.266 189.312 376.189 186.683C376.059 184.079 375.202 181.564 373.716 179.423C372.38 177.259 370.4 175.568 368.054 174.588C367.2 174.153 366.236 173.984 365.286 174.103C364.336 174.222 363.443 174.623 362.724 175.255C361.962 176.034 361.386 176.975 361.038 178.007C360.69 179.04 360.579 180.138 360.714 181.219C360.857 183.968 361.742 186.627 363.275 188.914C364.54 191.119 366.481 192.859 368.81 193.878C369.621 194.216 370.492 194.391 371.372 194.391C371.943 194.424 372.515 194.319 373.037 194.083L373.55 193.801L375.1 196.687L374.844 196.867C374.6 197.004 374.347 197.124 374.088 197.226C373.676 197.396 373.246 197.516 372.807 197.585C372.237 197.661 371.659 197.661 371.09 197.585C370.351 197.491 369.627 197.302 368.938 197.021C366.965 196.174 365.212 194.889 363.813 193.262C362.155 191.422 360.813 189.32 359.843 187.042C358.869 184.869 358.313 182.532 358.203 180.154C358.063 178.159 358.471 176.163 359.381 174.382C360.137 172.883 361.439 171.731 363.019 171.163C364.679 170.622 366.481 170.714 368.079 171.42C371.152 172.805 373.721 175.108 375.433 178.012V178.012ZM369.783 187.132C369.993 186.867 370.149 186.562 370.241 186.236C370.334 185.91 370.361 185.569 370.321 185.233C370.298 184.396 370.06 183.579 369.63 182.861C369.289 182.232 368.747 181.735 368.092 181.45C367.841 181.318 367.555 181.266 367.274 181.3C366.993 181.334 366.729 181.454 366.517 181.642C366.292 181.892 366.123 182.187 366.024 182.508C365.924 182.83 365.895 183.169 365.94 183.502C365.97 184.344 366.221 185.162 366.67 185.875C367.039 186.53 367.61 187.047 368.297 187.35C368.536 187.475 368.808 187.521 369.075 187.482C369.342 187.443 369.589 187.32 369.783 187.132" fill="#72AC47"/>
<path style="mix-blend-mode:multiply" opacity="0.25" d="M124.716 226.704L81.351 202L38 226.754C38 226.754 62.122 241.837 83.709 254.51C97.416 244.813 109.599 233.719 124.716 226.703V226.704Z" fill="url(#paint4_linear_873_8690)"/>
<defs>
<linearGradient id="paint0_linear_873_8690" x1="268.268" y1="203.949" x2="254.326" y2="222.866" gradientUnits="userSpaceOnUse">
<stop stop-color="#5C5B59"/>
<stop offset="0.03" stop-color="#5C5B59"/>
<stop offset="1" stop-color="white"/>
</linearGradient>
<linearGradient id="paint1_linear_873_8690" x1="216.707" y1="286.41" x2="187.466" y2="318.512" gradientUnits="userSpaceOnUse">
<stop stop-color="#5C5B59"/>
<stop offset="0.03" stop-color="#5C5B59"/>
<stop offset="1" stop-color="white"/>
</linearGradient>
<linearGradient id="paint2_linear_873_8690" x1="153.164" y1="151.724" x2="131.24" y2="175.796" gradientUnits="userSpaceOnUse">
<stop stop-color="#5C5B59"/>
<stop offset="0.03" stop-color="#5C5B59"/>
<stop offset="1" stop-color="white"/>
</linearGradient>
<linearGradient id="paint3_linear_873_8690" x1="357.779" y1="152.043" x2="344.641" y2="142.45" gradientUnits="userSpaceOnUse">
<stop stop-color="white" stop-opacity="0"/>
<stop offset="0.99" stop-color="#72AC47"/>
</linearGradient>
<linearGradient id="paint4_linear_873_8690" x1="109.266" y1="216.46" x2="79.5972" y2="249.032" gradientUnits="userSpaceOnUse">
<stop stop-color="#5C5B59"/>
<stop offset="0.03" stop-color="#5C595B"/>
<stop offset="1" stop-color="white"/>
</linearGradient>
</defs>
</svg>
