<svg width="23" height="23" viewBox="0 0 23 23" fill="none" xmlns="http://www.w3.org/2000/svg">
<path d="M11.5515 5.79367C8.449 5.79367 5.94653 8.2967 5.94653 11.3999C5.94653 14.503 8.449 17.0061 11.5515 17.0061C14.654 17.0061 17.1564 14.503 17.1564 11.3999C17.1564 8.2967 14.654 5.79367 11.5515 5.79367ZM11.5515 15.0446C9.54658 15.0446 7.90753 13.4101 7.90753 11.3999C7.90753 9.38964 9.5417 7.75511 11.5515 7.75511C13.5613 7.75511 15.1954 9.38964 15.1954 11.3999C15.1954 13.4101 13.5564 15.0446 11.5515 15.0446ZM18.6931 5.56435C18.6931 6.29135 18.1077 6.87197 17.3857 6.87197C16.6589 6.87197 16.0784 6.28647 16.0784 5.56435C16.0784 4.84222 16.6638 4.25672 17.3857 4.25672C18.1077 4.25672 18.6931 4.84222 18.6931 5.56435ZM22.4053 6.89149C22.3224 5.13986 21.9224 3.58827 20.6394 2.30992C19.3614 1.03156 17.8101 0.63147 16.0589 0.543644C14.254 0.441181 8.84413 0.441181 7.03923 0.543644C5.29286 0.626591 3.74162 1.02669 2.45868 2.30504C1.17573 3.58339 0.780603 5.13498 0.692797 6.88661C0.590357 8.69192 0.590357 14.103 0.692797 15.9083C0.775725 17.6599 1.17573 19.2115 2.45868 20.4898C3.74162 21.7682 5.28798 22.1683 7.03923 22.2561C8.84413 22.3586 14.254 22.3586 16.0589 22.2561C17.8101 22.1732 19.3614 21.7731 20.6394 20.4898C21.9175 19.2115 22.3175 17.6599 22.4053 15.9083C22.5077 14.103 22.5077 8.6968 22.4053 6.89149ZM20.0736 17.8453C19.6931 18.8016 18.9565 19.5384 17.9955 19.9238C16.5564 20.4947 13.1418 20.363 11.5515 20.363C9.96122 20.363 6.54166 20.4898 5.10749 19.9238C4.15138 19.5433 3.41479 18.8065 3.02942 17.8453C2.45868 16.4059 2.59038 12.9905 2.59038 11.3999C2.59038 9.80925 2.46355 6.38893 3.02942 4.95445C3.40991 3.99812 4.1465 3.26136 5.10749 2.8759C6.54654 2.30504 9.96122 2.43678 11.5515 2.43678C13.1418 2.43678 16.5613 2.30992 17.9955 2.8759C18.9516 3.25648 19.6882 3.99324 20.0736 4.95445C20.6443 6.39381 20.5126 9.80925 20.5126 11.3999C20.5126 12.9905 20.6443 16.4108 20.0736 17.8453Z" fill="#72AC47"/>
</svg>
