<svg width="43" height="34" viewBox="0 0 43 34" fill="none" xmlns="http://www.w3.org/2000/svg">
<path d="M23.9492 33.8764H39.7177V17.2935H32.4855C32.8807 14.9246 33.9082 12.8714 35.5681 11.1342C37.2279 9.39694 39.4015 8.21246 42.0889 7.58073V0C36.0818 1.26345 31.537 3.9483 28.4544 8.05453C25.4509 12.1608 23.9492 17.3725 23.9492 23.6898V33.8764ZM0 33.8764H15.6499V17.2935H8.41777C8.81297 14.9246 9.84049 12.8714 11.5003 11.1342C13.1602 9.39694 15.3338 8.21246 18.0211 7.58073V0C12.0931 1.26345 7.58785 3.9483 4.50529 8.05453C1.50176 12.1608 0 17.3725 0 23.6898V33.8764Z" fill="#72AC47"/>
</svg>
