<svg width="43" height="43" viewBox="0 0 43 43" fill="none" xmlns="http://www.w3.org/2000/svg">
<path d="M10.082 8.71338V6.71875C10.082 5.60209 10.9337 4.70312 11.9916 4.70312H32.36C33.4178 4.70312 34.2695 5.60209 34.2695 6.71875C34.2695 6.71875 34.2695 9.28058 34.2695 8.71338" fill="#F6F9FF"/>
<path d="M10.082 8.71338V6.71875C10.082 5.60209 10.9337 4.70312 11.9916 4.70312H32.36C33.4178 4.70312 34.2695 5.60209 34.2695 6.71875C34.2695 6.71875 34.2695 9.28058 34.2695 8.71338" stroke="#969DCB" stroke-width="1.34375" stroke-linecap="round" stroke-linejoin="round"/>
<path d="M3.36328 18.1406L6.84707 8.73438H37.5045L40.9883 18.1406" fill="#F6F9FF"/>
<path d="M3.36328 18.1406L6.84707 8.73438H37.5045L40.9883 18.1406" stroke="#969DCB" stroke-width="1.34375" stroke-linecap="round" stroke-linejoin="round"/>
<path d="M8.73828 18.1299C8.73829 18.6016 8.61411 19.0651 8.37823 19.4736C8.14235 19.8822 7.80309 20.2214 7.39453 20.4573C6.98598 20.6932 6.52254 20.8174 6.05078 20.8174C5.57903 20.8174 5.11558 20.6932 4.70703 20.4573C4.29847 20.2214 3.95921 19.8822 3.72333 19.4736C3.48745 19.0651 3.36327 18.6016 3.36328 18.1299" fill="#F6F9FF"/>
<path d="M8.73828 18.1299C8.73829 18.6016 8.61411 19.0651 8.37823 19.4736C8.14235 19.8822 7.80309 20.2214 7.39453 20.4573C6.98598 20.6932 6.52254 20.8174 6.05078 20.8174C5.57903 20.8174 5.11558 20.6932 4.70703 20.4573C4.29847 20.2214 3.95921 19.8822 3.72333 19.4736C3.48745 19.0651 3.36327 18.6016 3.36328 18.1299" stroke="#969DCB" stroke-width="1.34375" stroke-linecap="round" stroke-linejoin="round"/>
<path d="M14.1133 18.1299C14.1133 18.6016 13.9891 19.0651 13.7532 19.4736C13.5174 19.8822 13.1781 20.2214 12.7695 20.4573C12.361 20.6932 11.8975 20.8174 11.4258 20.8174C10.954 20.8174 10.4906 20.6932 10.082 20.4573C9.67347 20.2214 9.33421 19.8822 9.09833 19.4736C8.86245 19.0651 8.73827 18.6016 8.73828 18.1299" fill="#F6F9FF"/>
<path d="M14.1133 18.1299C14.1133 18.6016 13.9891 19.0651 13.7532 19.4736C13.5174 19.8822 13.1781 20.2214 12.7695 20.4573C12.361 20.6932 11.8975 20.8174 11.4258 20.8174C10.954 20.8174 10.4906 20.6932 10.082 20.4573C9.67347 20.2214 9.33421 19.8822 9.09833 19.4736C8.86245 19.0651 8.73827 18.6016 8.73828 18.1299" stroke="#969DCB" stroke-width="1.34375" stroke-linecap="round" stroke-linejoin="round"/>
<path d="M19.4883 18.1299C19.4883 18.6016 19.3641 19.0651 19.1282 19.4736C18.8924 19.8822 18.5531 20.2214 18.1445 20.4573C17.736 20.6932 17.2725 20.8174 16.8008 20.8174C16.329 20.8174 15.8656 20.6932 15.457 20.4573C15.0485 20.2214 14.7092 19.8822 14.4733 19.4736C14.2375 19.0651 14.1133 18.6016 14.1133 18.1299" fill="#F6F9FF"/>
<path d="M19.4883 18.1299C19.4883 18.6016 19.3641 19.0651 19.1282 19.4736C18.8924 19.8822 18.5531 20.2214 18.1445 20.4573C17.736 20.6932 17.2725 20.8174 16.8008 20.8174C16.329 20.8174 15.8656 20.6932 15.457 20.4573C15.0485 20.2214 14.7092 19.8822 14.4733 19.4736C14.2375 19.0651 14.1133 18.6016 14.1133 18.1299" stroke="#969DCB" stroke-width="1.34375" stroke-linecap="round" stroke-linejoin="round"/>
<path d="M24.8633 18.1299C24.8633 18.6016 24.7391 19.0651 24.5032 19.4736C24.2674 19.8822 23.9281 20.2214 23.5195 20.4573C23.111 20.6932 22.6475 20.8174 22.1758 20.8174C21.704 20.8174 21.2406 20.6932 20.832 20.4573C20.4235 20.2214 20.0842 19.8822 19.8483 19.4736C19.6125 19.0651 19.4883 18.6016 19.4883 18.1299" fill="#F6F9FF"/>
<path d="M24.8633 18.1299C24.8633 18.6016 24.7391 19.0651 24.5032 19.4736C24.2674 19.8822 23.9281 20.2214 23.5195 20.4573C23.111 20.6932 22.6475 20.8174 22.1758 20.8174C21.704 20.8174 21.2406 20.6932 20.832 20.4573C20.4235 20.2214 20.0842 19.8822 19.8483 19.4736C19.6125 19.0651 19.4883 18.6016 19.4883 18.1299" stroke="#969DCB" stroke-width="1.34375" stroke-linecap="round" stroke-linejoin="round"/>
<path d="M30.2383 18.1299C30.2383 18.6016 30.1141 19.0651 29.8782 19.4736C29.6424 19.8822 29.3031 20.2214 28.8945 20.4573C28.486 20.6932 28.0225 20.8174 27.5508 20.8174C27.079 20.8174 26.6156 20.6932 26.207 20.4573C25.7985 20.2214 25.4592 19.8822 25.2233 19.4736C24.9875 19.0651 24.8633 18.6016 24.8633 18.1299" fill="#F6F9FF"/>
<path d="M30.2383 18.1299C30.2383 18.6016 30.1141 19.0651 29.8782 19.4736C29.6424 19.8822 29.3031 20.2214 28.8945 20.4573C28.486 20.6932 28.0225 20.8174 27.5508 20.8174C27.079 20.8174 26.6156 20.6932 26.207 20.4573C25.7985 20.2214 25.4592 19.8822 25.2233 19.4736C24.9875 19.0651 24.8633 18.6016 24.8633 18.1299" stroke="#969DCB" stroke-width="1.34375" stroke-linecap="round" stroke-linejoin="round"/>
<path d="M35.6133 18.1299C35.6133 18.6016 35.4891 19.0651 35.2532 19.4736C35.0174 19.8822 34.6781 20.2214 34.2695 20.4573C33.861 20.6932 33.3975 20.8174 32.9258 20.8174C32.454 20.8174 31.9906 20.6932 31.582 20.4573C31.1735 20.2214 30.8342 19.8822 30.5983 19.4736C30.3625 19.0651 30.2383 18.6016 30.2383 18.1299" fill="#F6F9FF"/>
<path d="M35.6133 18.1299C35.6133 18.6016 35.4891 19.0651 35.2532 19.4736C35.0174 19.8822 34.6781 20.2214 34.2695 20.4573C33.861 20.6932 33.3975 20.8174 32.9258 20.8174C32.454 20.8174 31.9906 20.6932 31.582 20.4573C31.1735 20.2214 30.8342 19.8822 30.5983 19.4736C30.3625 19.0651 30.2383 18.6016 30.2383 18.1299" stroke="#969DCB" stroke-width="1.34375" stroke-linecap="round" stroke-linejoin="round"/>
<path d="M40.9883 18.1299C40.9883 18.6016 40.8641 19.0651 40.6282 19.4736C40.3924 19.8822 40.0531 20.2214 39.6445 20.4573C39.236 20.6932 38.7725 20.8174 38.3008 20.8174C37.829 20.8174 37.3656 20.6932 36.957 20.4573C36.5485 20.2214 36.2092 19.8822 35.9733 19.4736C35.7375 19.0651 35.6133 18.6016 35.6133 18.1299" fill="#F6F9FF"/>
<path d="M40.9883 18.1299C40.9883 18.6016 40.8641 19.0651 40.6282 19.4736C40.3924 19.8822 40.0531 20.2214 39.6445 20.4573C39.236 20.6932 38.7725 20.8174 38.3008 20.8174C37.829 20.8174 37.3656 20.6932 36.957 20.4573C36.5485 20.2214 36.2092 19.8822 35.9733 19.4736C35.7375 19.0651 35.6133 18.6016 35.6133 18.1299" stroke="#969DCB" stroke-width="1.34375" stroke-linecap="round" stroke-linejoin="round"/>
<path d="M11.3912 39.6406H7.39453V20.7725M36.957 20.7725V39.6406C36.957 39.6406 17.0477 39.6406 16.914 39.6406L36.957 20.7725Z" stroke="#969DCB" stroke-width="1.34375" stroke-linecap="round" stroke-linejoin="round"/>
<path d="M32.9258 26.2031H23.5195V34.2656H32.9258V26.2031Z" fill="#F6F9FF" stroke="#969DCB" stroke-width="1.34375" stroke-linecap="round" stroke-linejoin="round"/>
<path d="M11.4258 39.6407V30.2246H16.8008V39.6407" stroke="#969DCB" stroke-width="1.34375" stroke-linecap="round" stroke-linejoin="round"/>
</svg>
