<svg xmlns="http://www.w3.org/2000/svg" xmlns:xlink="http://www.w3.org/1999/xlink" width="82" height="82" viewBox="0 0 82 82">
  <defs>
    <clipPath id="clip-path">
      <rect id="Rectangle_391" data-name="Rectangle 391" width="37.915" height="37.915" transform="translate(355.085 73.543)" fill="#24b8eb"/>
    </clipPath>
  </defs>
  <g id="Group_673" data-name="Group 673" transform="translate(-1123 -1745)">
    <circle id="Ellipse_876" data-name="Ellipse 876" cx="41" cy="41" r="41" transform="translate(1123 1745)" fill="#e9f8fd"/>
    <g id="Group_666" data-name="Group 666" transform="translate(790.915 1693.457)">
      <g id="Group_665" data-name="Group 665">
        <g id="Group_664" data-name="Group 664" clip-path="url(#clip-path)">
          <path id="Path_8760" data-name="Path 8760" d="M392.368,77.966a7.551,7.551,0,0,0-5.535,2.418l-1.6-1.6a.634.634,0,0,0-.894,0l-2.181,2.181a15.173,15.173,0,0,0-6.219-2.235V77.334H377.2a.632.632,0,0,0,.632-.632V74.174a.632.632,0,0,0-.632-.631h-6.319a.632.632,0,0,0-.632.631V76.7a.632.632,0,0,0,.632.632h1.264v1.4a14.91,14.91,0,0,0-4.583,1.338l-5.3-5.295a4.207,4.207,0,1,0-5.949,5.949l4.923,4.921a15.08,15.08,0,0,0-2.146,5.589h-.219a3.791,3.791,0,0,0-2.092,6.951,3.786,3.786,0,0,0,0,6.319,3.791,3.791,0,0,0,2.092,6.951h5.055a3.912,3.912,0,0,0,.446-.028.617.617,0,0,0,.186.028h27.8a.632.632,0,0,0,.632-.632V78.6a.632.632,0,0,0-.632-.632ZM381.8,97.513l-1.418-.822-.632,1.094,1.207.695a19.787,19.787,0,0,0-1.866,2.756l-1.024-1.77-1.1.632,1.264,2.189.435-.253c-.285.569-.539,1.148-.768,1.74a10.551,10.551,0,0,1-3.859.732,10.762,10.762,0,0,1-6.455-2.168,3.754,3.754,0,0,0-.906-3.6l1.657-.956-.632-1.1-.548.316a3.784,3.784,0,0,0-3.227-5.772h-.316a10.735,10.735,0,0,1,19.955-2.441c.007.017.015.034.024.052a10.7,10.7,0,0,1,.846,2.231l-.266,4.254a19.4,19.4,0,0,0-2.376,2.181Zm-14.082,10.026a14.913,14.913,0,0,0,5.322,1.357c.334.02.669.033,1,.033a14.975,14.975,0,0,0,2.648-.235c-.055.5-.086,1-.1,1.5H366.75a3.769,3.769,0,0,0,.973-2.527c0-.042,0-.083-.006-.127Zm9.169-.181a14.2,14.2,0,0,1-3.78.277,13.616,13.616,0,0,1-5.82-1.734,3.826,3.826,0,0,0-1.264-1.4,3.843,3.843,0,0,0,1.021-1,12.021,12.021,0,0,0,7,2.265,11.9,11.9,0,0,0,3.333-.477,19.747,19.747,0,0,0-.49,2.066Zm7.9-27.235,1.256,1.255a7.572,7.572,0,0,0-.771,1.527l-.329.329a14.671,14.671,0,0,0-1.727-1.54Zm-13.27-5.317h5.055V76.07h-5.055Zm3.159,2.528v1.292c-.422-.018-.841-.018-1.263,0V77.334Zm-18.325.417a2.943,2.943,0,0,1,5.026-2.081l5.009,5.013c-.154.09-.3.19-.456.284l-2.181-2.181a.634.634,0,0,0-.894,0l-2.527,2.528a.631.631,0,0,0,0,.893l1.978,1.98c-.112.135-.223.271-.329.41l-4.762-4.765a2.969,2.969,0,0,1-.864-2.081Zm6.8,5.484-1.478-1.478,1.634-1.634,1.572,1.571a14.611,14.611,0,0,0-1.728,1.541Zm-.572,2.682a12.567,12.567,0,0,1,1.066-1.356,13.884,13.884,0,0,1,9.141-4.642h.084a12.744,12.744,0,0,1,2.36,0h.056a13.876,13.876,0,0,1,6.61,2.373,13.321,13.321,0,0,1,2.58,2.295,5.194,5.194,0,0,1,.344.4c-.013.181-.029.361-.029.545l-.161,2.571a11.992,11.992,0,0,0-22.3,3.136h-1.946a13.793,13.793,0,0,1,2.2-5.319Zm-6.223,9.111a2.528,2.528,0,0,1,2.528-2.528h5.055a2.528,2.528,0,1,1,0,5.055h-5.055a2.527,2.527,0,0,1-2.528-2.527Zm0,6.319a2.528,2.528,0,0,1,2.528-2.528h5.055a2.528,2.528,0,1,1,0,5.055h-5.055a2.527,2.527,0,0,1-2.528-2.527Zm2.528,8.847a2.528,2.528,0,1,1,0-5.056h5.055a2.528,2.528,0,0,1,0,5.056Zm32.859,0h-13.89a18.417,18.417,0,0,1,7.318-14.029.631.631,0,0,0,.253-.466l.632-10.111v-.039a6.328,6.328,0,0,1,5.687-6.288Zm0,0" fill="#24b8eb"/>
        </g>
      </g>
      <path id="Path_8761" data-name="Path 8761" d="M379.915,87l-4.6,4.6a2.493,2.493,0,0,0-1.275-.358,2.528,2.528,0,0,0-2.528,2.528,2.494,2.494,0,0,0,.358,1.276l-1.437,1.437.894.893,1.437-1.437a2.485,2.485,0,0,0,1.276.358,2.527,2.527,0,0,0,2.527-2.527,2.5,2.5,0,0,0-.358-1.276l4.6-4.6Zm-5.872,8.03a1.264,1.264,0,1,1,1.263-1.264,1.264,1.264,0,0,1-1.263,1.264Zm0,0" fill="#24b8eb"/>
      <rect id="Rectangle_392" data-name="Rectangle 392" width="1.264" height="2.528" transform="translate(373.411 84.285)" fill="#24b8eb"/>
      <rect id="Rectangle_393" data-name="Rectangle 393" width="1.264" height="2.528" transform="translate(373.411 100.715)" fill="#24b8eb"/>
      <path id="Path_8762" data-name="Path 8762" d="M368.756,85.871l1.094-.632,1.264,2.189-1.094.632Zm0,0" fill="#24b8eb"/>
      <path id="Path_8763" data-name="Path 8763" d="M365.518,89.572l.632-1.1,2.189,1.264-.632,1.1Zm0,0" fill="#24b8eb"/>
      <rect id="Rectangle_394" data-name="Rectangle 394" width="2.528" height="1.264" transform="translate(380.994 93.132)" fill="#24b8eb"/>
      <path id="Path_8764" data-name="Path 8764" d="M379.746,89.741l2.189-1.264.632,1.1-2.189,1.264Zm0,0" fill="#24b8eb"/>
      <path id="Path_8765" data-name="Path 8765" d="M368.756,101.657l1.263-2.189,1.1.632-1.264,2.189Zm0,0" fill="#24b8eb"/>
      <path id="Path_8766" data-name="Path 8766" d="M376.971,87.428l1.264-2.189,1.094.632-1.263,2.189Zm0,0" fill="#24b8eb"/>
    </g>
  </g>
</svg>
