<svg width="147" height="42" viewBox="0 0 147 42" fill="none" xmlns="http://www.w3.org/2000/svg">
<path d="M0 20.9591C0 9.38372 9.38372 0 20.9591 0V0C32.5345 0 41.9182 9.38372 41.9182 20.9591V20.9591C41.9182 32.5345 32.5345 41.9182 20.9591 41.9182V41.9182C9.38372 41.9182 0 32.5345 0 20.9591V20.9591Z" fill="#F4F5F7"/>
<path d="M51.2334 7.47949C51.2334 7.47949 79.6234 4.77314 100.153 8.39299C120.682 12.0128 145.837 21.2496 145.837 21.2496" stroke="#72AC47" stroke-width="1.1644" stroke-linecap="round" stroke-dasharray="1.16 3.49"/>
<path d="M15.2651 33.4603H25.7872C26.7238 33.4603 27.4859 32.6977 27.4859 31.7612V10.1245C27.4859 9.18789 26.7238 8.42578 25.7872 8.42578H15.2651C14.3285 8.42578 13.5664 9.18789 13.5664 10.1245V31.7612C13.5664 32.6977 14.3285 33.4603 15.2651 33.4603ZM14.2307 10.1245C14.2307 9.55456 14.6947 9.09004 15.2651 9.09004H25.7872C26.3575 9.09004 26.8216 9.55456 26.8216 10.1245V31.7612C26.8216 32.332 26.3576 32.7961 25.7872 32.7961H15.2651C14.6947 32.7961 14.2307 32.332 14.2307 31.7612V10.1245Z" fill="#5C5B59"/>
<path d="M15.0538 30.5149H25.9987C26.0904 30.5149 26.1648 30.4405 26.1648 30.3488V11.3545C26.1648 11.2629 26.0904 11.1885 25.9987 11.1885H15.0538C14.9621 11.1885 14.8877 11.2628 14.8877 11.3545V30.3492C14.8877 30.4405 14.9621 30.5149 15.0538 30.5149ZM15.6626 11.5206H25.3898C25.6343 11.5206 25.8326 11.719 25.8326 11.9634V29.7403C25.8326 29.9848 25.6343 30.1831 25.3898 30.1831H15.6626C15.4182 30.1831 15.2198 29.9848 15.2198 29.7403V11.9634C15.2198 11.7185 15.4177 11.5206 15.6626 11.5206Z" fill="#5C5B59"/>
<path d="M19.5923 10.1769H21.4602C21.5519 10.1769 21.6262 10.1025 21.6262 10.0108C21.6262 9.91915 21.5519 9.84473 21.4602 9.84473H19.5923C19.5007 9.84473 19.4263 9.91915 19.4263 10.0108C19.4263 10.1025 19.5007 10.1769 19.5923 10.1769Z" fill="#5C5B59"/>
<path d="M21.483 30.8945H19.5699C19.1771 30.8945 18.8574 31.2142 18.8574 31.6066V31.7209C18.8574 32.1137 19.1771 32.4334 19.5699 32.4334H21.483C21.8757 32.4334 22.1955 32.1132 22.1955 31.7209V31.6066C22.1955 31.2138 21.8758 30.8945 21.483 30.8945ZM21.8634 31.7209C21.8634 31.9308 21.6925 32.1013 21.483 32.1013H19.5699C19.36 32.1013 19.1896 31.9304 19.1896 31.7209V31.6066C19.1896 31.3972 19.3605 31.2267 19.5699 31.2267H21.483C21.6929 31.2267 21.8634 31.3976 21.8634 31.6066V31.7209Z" fill="#5C5B59"/>
<path d="M22.8736 20.5046C22.6558 20.3935 22.6129 20.1982 22.7621 20.0042C23.1225 19.5344 23.3377 18.9485 23.3377 18.3117C23.3377 16.7729 22.0859 15.5215 20.5471 15.5215C19.0087 15.5215 17.7568 16.7734 17.7568 18.3117C17.7568 18.9427 17.9681 19.5242 18.3228 19.9918C18.4707 20.1867 18.4268 20.3815 18.2076 20.49C17.7223 20.7313 17.1218 21.1924 16.9226 22.0381C16.8194 22.4774 16.7454 22.794 16.6927 23.0208C16.6471 23.2161 16.6848 23.4025 16.7981 23.546C16.912 23.6895 17.0855 23.7683 17.2874 23.7683C17.2874 23.7683 17.3906 23.7683 17.5181 23.7683C17.6457 23.7683 17.7387 23.9663 17.7263 24.2107L17.6931 24.8612C17.6834 25.057 17.7507 25.2416 17.8826 25.3807C18.015 25.5197 18.1961 25.5963 18.3919 25.5963H22.6603C22.856 25.5963 23.0372 25.5197 23.1696 25.3807C23.3016 25.2416 23.3693 25.057 23.3591 24.8612L23.3259 24.2107C23.3135 23.9663 23.4069 23.7683 23.534 23.7683H23.7647C23.9663 23.7683 24.1402 23.6895 24.254 23.546C24.3674 23.4029 24.4051 23.2166 24.3594 23.0208C24.3067 22.7941 24.2328 22.4775 24.1295 22.0381C23.9351 21.2078 23.3537 20.749 22.8736 20.5046ZM20.547 15.8119C21.9251 15.8119 23.0464 16.9332 23.0464 18.3113C23.0464 18.3662 23.0436 18.4207 23.0397 18.4747C23.0326 18.565 22.8209 18.631 22.5884 18.5557C21.9662 18.3547 21.6072 17.8454 21.4331 17.5133C21.3591 17.3725 21.2648 17.2967 21.152 17.2887C21.0373 17.2803 20.9313 17.3432 20.8358 17.4734C20.2844 18.2284 19.1973 18.4963 18.5127 18.5911C18.2705 18.6248 18.0619 18.5637 18.0552 18.4738C18.0512 18.4202 18.0486 18.3662 18.0486 18.3113C18.0481 16.9332 19.1694 15.8119 20.547 15.8119ZM18.568 18.8799C19.3013 18.7776 20.4576 18.4848 21.0709 17.6453C21.0806 17.6315 21.0894 17.6209 21.0974 17.6121C21.1134 17.5943 21.1417 17.5957 21.1541 17.6138C21.1604 17.6231 21.167 17.6347 21.1745 17.6484C21.3755 18.0323 21.7945 18.6239 22.5318 18.8458C22.7661 18.9162 22.9206 19.1212 22.8196 19.344C22.6606 19.6938 22.4247 20.0011 22.1306 20.2425C21.6842 20.602 21.1396 20.8102 20.5466 20.8102C19.5369 20.8102 18.6667 20.207 18.2739 19.3422C18.173 19.1199 18.3258 18.9135 18.568 18.8799ZM20.3066 21.09C20.3859 21.0975 20.466 21.1015 20.547 21.1015C20.6205 21.1015 20.6931 21.098 20.765 21.0913C20.8849 21.0807 20.904 21.2468 20.8083 21.4717L20.6998 21.7273C20.6042 21.9522 20.4488 21.9522 20.3531 21.7273L20.2415 21.4647C20.1459 21.2401 20.1741 21.0776 20.3066 21.09ZM19.8841 22.4101H19.0047C18.8975 22.4101 18.8125 22.3743 18.766 22.3091C18.719 22.2441 18.7124 22.1524 18.7469 22.0505L19.0463 21.1658C19.1246 20.9342 19.3005 20.8111 19.4466 20.8748C19.5927 20.9386 19.7947 21.1583 19.8904 21.3832L20.1538 22.0028C20.2494 22.2276 20.1286 22.4101 19.8841 22.4101ZM21.6076 20.8912C21.7573 20.8301 21.9353 20.9541 22.0137 21.1857L22.306 22.0501C22.3405 22.1519 22.3334 22.244 22.2869 22.3087C22.2404 22.3738 22.1554 22.4097 22.0482 22.4097H21.1688C20.9244 22.4097 20.8035 22.2273 20.8991 22.0022L21.1577 21.3943C21.2538 21.1697 21.458 20.9523 21.6076 20.8912ZM23.7655 23.4764C23.7655 23.4764 23.5937 23.4764 23.3811 23.4764C23.169 23.4764 23.007 23.6744 23.0194 23.9188L23.0681 24.8753C23.0738 24.9905 23.0348 25.0985 22.9582 25.1795C22.8816 25.2606 22.7758 25.3049 22.6607 25.3049H18.3923C18.2771 25.3049 18.1713 25.2601 18.0947 25.1795C18.0176 25.0985 17.9787 24.9909 17.9844 24.8753L18.0331 23.9188C18.0456 23.6744 17.8835 23.4764 17.6714 23.4764H17.2874C17.1767 23.4764 17.0842 23.4366 17.0266 23.364C16.9695 23.2922 16.9514 23.1939 16.9766 23.0868C17.0293 22.8596 17.1032 22.5438 17.2069 22.105C17.3977 21.2942 18.023 20.8846 18.4671 20.691C18.6912 20.5932 18.8967 20.556 18.91 20.5666C18.9237 20.5768 18.8714 20.7726 18.7931 21.0041L18.4707 21.9571C18.4051 22.1507 18.426 22.3358 18.5287 22.4792C18.6315 22.6227 18.8006 22.702 19.0043 22.702H20.2854H20.7672H22.0483C22.252 22.702 22.4212 22.6227 22.5239 22.4792C22.6267 22.3357 22.6475 22.1506 22.582 21.9571L22.2681 21.0289C22.1897 20.7973 22.1427 20.5981 22.1621 20.5825C22.1821 20.5675 22.3921 20.6034 22.6152 20.7039C23.0571 20.9023 23.6594 21.3115 23.8458 22.1045C23.949 22.5438 24.0229 22.8596 24.0761 23.0868C24.1009 23.1939 24.0831 23.2922 24.0261 23.364C23.9688 23.4366 23.8762 23.4764 23.7655 23.4764Z" fill="#72AC47"/>
</svg>
