<svg width="59" height="61" viewBox="0 0 59 61" fill="none" xmlns="http://www.w3.org/2000/svg">
<path fill-rule="evenodd" clip-rule="evenodd" d="M27.9356 1C26.6016 1 25.5156 2.11096 25.5156 3.48596V5.45203L12.7656 5.41602C11.4326 5.41602 10.3456 6.52702 10.3456 7.90002L10.3066 20.458C10.3066 21.118 10.5586 21.753 11.0116 22.222C11.4636 22.69 12.0786 22.957 12.7216 22.957L25.4846 22.9919L25.4706 25.379L9.00762 25.333C8.33262 25.333 7.68361 25.624 7.22661 26.137L1.62963 32.399C0.792626 33.349 0.787626 34.808 1.62963 35.762L7.19261 42.059C7.64961 42.574 8.29863 42.871 8.97863 42.873L25.4156 42.9189L25.3776 57.504C25.3776 58.879 26.4547 59.998 27.7927 60C29.1257 60 30.2126 58.89 30.2126 57.514L30.2506 42.933L46.2186 42.978C46.8586 42.978 47.4686 42.7161 47.9236 42.2531C48.3836 41.7871 48.6376 41.155 48.6376 40.494L48.6706 27.936C48.6756 26.561 47.5936 25.439 46.2606 25.437L30.3006 25.3929L30.3146 23.006L49.9746 23.061H49.9846C50.6606 23.061 51.3066 22.77 51.7686 22.259L57.3686 15.9919C58.2106 15.0409 58.2106 13.582 57.3686 12.627L51.7996 6.33496C51.3426 5.81696 50.6936 5.523 50.0196 5.521L30.3506 5.46594V3.49597C30.3556 2.12097 29.2736 1.002 27.9356 1ZM15.1736 10.405L48.9326 10.5L52.2927 14.296L48.9156 18.077L15.1516 17.9821H15.1496L15.1736 10.405ZM10.0736 30.317L43.8436 30.412L43.8196 37.989L10.0557 37.894L6.6986 34.0959L10.0746 30.317H10.0736Z" fill="#9D9D9B" stroke="white" stroke-width="2"/>
</svg>
