<svg xmlns="http://www.w3.org/2000/svg" viewBox="0 0 81 81"><defs><style>.cls-1{fill:#ede5f7;}.cls-2{fill:#4700ad;}</style></defs><g id="Layer_2" data-name="Layer 2"><g id="Layer_1-2" data-name="Layer 1"><circle class="cls-1" cx="40.5" cy="40.5" r="40.5"/><path class="cls-2" d="M45,46.29a.88.88,0,0,0-.36,0h0a5.85,5.85,0,0,0,1.78-4.2V33.68a.84.84,0,0,0-.84-.84H39.3a4.68,4.68,0,0,0-4.68,4.67v4.56a5.85,5.85,0,0,0,1.78,4.2h0a.88.88,0,0,0-.36,0,8.57,8.57,0,0,0-7.78,8.52v4.13a.84.84,0,0,0,.84.84H52a.84.84,0,0,0,.84-.84V54.81A8.57,8.57,0,0,0,45,46.29Zm-2.27,1.65L40.5,50.18l-2.24-2.24ZM36.31,37.51a3,3,0,0,1,3-3h5.39v2.25a2.07,2.07,0,0,1-2.06,2.07H36.31V37.51Zm0,4.56V40.52h6.32a3.73,3.73,0,0,0,2.06-.62v2.17a4.19,4.19,0,0,1-8.38,0Zm14.79,16H29.9V55.68h6.87a.85.85,0,0,0,0-1.69H30a6.85,6.85,0,0,1,6-6l4,4a.87.87,0,0,0,1.2,0l4-4a6.87,6.87,0,0,1,6,6.81Z"/><path class="cls-2" d="M40.5,54a.86.86,0,0,0-.6.25.86.86,0,0,0,0,1.19.85.85,0,0,0,1.2,0,.86.86,0,0,0,0-1.19A.86.86,0,0,0,40.5,54Z"/><path class="cls-2" d="M39.67,27.5v2.06a.84.84,0,0,0,1.68,0V27.5a3.2,3.2,0,1,0-1.68,0Zm.84-4.6A1.52,1.52,0,1,1,39,24.42,1.52,1.52,0,0,1,40.51,22.9Z"/><path class="cls-2" d="M51.52,34.53a.85.85,0,0,0,.59-.25l1.46-1.45a3.22,3.22,0,1,0-1.19-1.2l-1.46,1.46a.84.84,0,0,0,0,1.19A.87.87,0,0,0,51.52,34.53ZM54.08,29a1.52,1.52,0,0,1,2.59,1.07,1.52,1.52,0,0,1-2.59,1.07A1.51,1.51,0,0,1,54.08,29Z"/><path class="cls-2" d="M58.86,41.5a3.2,3.2,0,0,0-3.09,2.35H53.71a.85.85,0,0,0,0,1.69h2.06a3.2,3.2,0,1,0,3.09-4Zm0,4.71a1.52,1.52,0,1,1,1.51-1.51A1.52,1.52,0,0,1,58.86,46.21Z"/><path class="cls-2" d="M50.52,45.54a.86.86,0,0,0,.6-.25.86.86,0,0,0,0-1.19.86.86,0,0,0-.6-.25.82.82,0,0,0-.59.25.83.83,0,0,0,0,1.19A.82.82,0,0,0,50.52,45.54Z"/><path class="cls-2" d="M27.29,43.83H25.23a3.21,3.21,0,1,0,0,1.69h2.06a.85.85,0,0,0,0-1.69Zm-5.15,2.36a1.52,1.52,0,1,1,1.52-1.51A1.52,1.52,0,0,1,22.14,46.19Z"/><path class="cls-2" d="M25.8,33.17a3.12,3.12,0,0,0,1.58-.43l1.46,1.46a.84.84,0,0,0,.59.24.86.86,0,0,0,.6-.24A.84.84,0,0,0,30,33l-1.46-1.46A3.1,3.1,0,0,0,29,30a3.2,3.2,0,1,0-3.2,3.2Zm-1.08-4.28A1.52,1.52,0,0,1,26.87,31h0a1.52,1.52,0,0,1-2.15-2.15Z"/></g></g></svg>