<svg width="386" height="333" viewBox="0 0 386 333" fill="none" xmlns="http://www.w3.org/2000/svg">
<mask id="mask0_328_10300" style="mask-type:alpha" maskUnits="userSpaceOnUse" x="0" y="0" width="386" height="333">
<path d="M0.0566406 0.416992H385.004V332.765H0.0566406V0.416992Z" fill="white"/>
</mask>
<g mask="url(#mask0_328_10300)">
<path fill-rule="evenodd" clip-rule="evenodd" d="M235.221 284.118C235.221 284.118 192.25 310.759 173.343 281.54C154.437 252.32 169.907 243.726 150.999 235.991C132.093 228.257 95.9979 218.802 97.7181 203.336C99.4356 187.865 120.062 173.256 120.062 150.911C120.062 128.569 96.1025 79.4933 114.81 62.7764C123.987 54.5742 131.837 54.7424 139.988 54.9105C148.453 55.0853 157.243 55.2588 168.188 46.0674C189.672 28.0196 200.843 2.2371 225.766 0.518264C250.688 -1.20057 251.547 19.4241 270.453 27.1589C278.654 30.5131 289.764 28.0488 301.542 25.5831C316.916 22.3639 333.428 19.1447 346.079 28.8777C368.423 46.0661 362.407 91.6126 361.549 141.458C360.688 191.301 399.067 226.086 379.374 241.222C359.683 256.357 245.531 249.742 235.22 284.117L235.221 284.118ZM140.95 319.772C140.95 326.949 109.396 332.766 70.4749 332.766C31.5535 332.766 0 326.949 0 319.772C0 312.594 31.5535 306.776 70.4749 306.776C109.396 306.776 140.95 312.594 140.95 319.772Z" fill="#F7FFF1"/>
<path fill-rule="evenodd" clip-rule="evenodd" d="M336.349 338.897C268.32 338.897 213.17 332.572 213.17 324.773C213.17 316.973 268.32 310.648 336.349 310.648C404.379 310.648 459.528 316.973 459.528 324.773C459.528 332.572 404.379 338.897 336.349 338.897Z" fill="#E1D3E1"/>
<path fill-rule="evenodd" clip-rule="evenodd" d="M390.161 57.1992V306.939C390.161 315.945 382.861 323.236 373.865 323.236H247.638C238.651 323.236 231.352 315.945 231.352 306.939V57.1992C231.352 48.2024 238.651 40.9033 247.638 40.9033H373.865C382.861 40.9033 390.161 48.2024 390.161 57.1992Z" fill="#9D9D9B"/>
<path fill-rule="evenodd" clip-rule="evenodd" d="M323.776 312.937H297.736C294.376 312.937 291.65 310.212 291.65 306.85C291.65 303.489 294.376 300.764 297.736 300.764H323.777C327.138 300.764 329.863 303.489 329.863 306.85C329.863 310.213 327.138 312.937 323.777 312.937" fill="white"/>
<path fill-rule="evenodd" clip-rule="evenodd" d="M380.347 63.3747V284.539C380.347 288.897 376.809 292.445 372.441 292.445H249.064C244.707 292.445 241.158 288.897 241.158 284.539V63.3747C241.158 59.0048 244.707 55.4678 249.064 55.4678H372.441C376.809 55.4678 380.347 59.0061 380.347 63.3734" fill="#E6E6E6"/>
<path fill-rule="evenodd" clip-rule="evenodd" d="M365.518 55.8491L241.16 261.785V63.3747C241.16 59.0048 244.706 55.4678 249.066 55.4678H363.695L365.518 55.8491Z" fill="#F0EFFF"/>
<path fill-rule="evenodd" clip-rule="evenodd" d="M349.601 152.951C349.601 174.674 331.992 192.283 310.269 192.283C288.547 192.283 270.938 174.674 270.938 152.951C270.938 131.229 288.547 113.619 310.269 113.619C331.992 113.619 349.601 131.229 349.601 152.951Z" fill="#72AC47"/>
<path fill-rule="evenodd" clip-rule="evenodd" d="M319.645 193.795C319.645 198.704 315.664 202.685 310.755 202.685C305.846 202.685 301.867 198.704 301.867 193.795C301.867 188.886 305.846 184.907 310.755 184.907C315.664 184.907 319.645 188.886 319.645 193.795Z" fill="#A6CB91"/>
<path fill-rule="evenodd" clip-rule="evenodd" d="M310.353 198.004L306.394 194.435C306.063 194.136 306.036 193.628 306.334 193.297C306.635 192.966 307.142 192.94 307.473 193.237L310.181 195.679L314.528 190.412C314.812 190.068 315.319 190.02 315.663 190.304C316.006 190.586 316.055 191.094 315.772 191.437L310.353 198.004Z" fill="white"/>
<path fill-rule="evenodd" clip-rule="evenodd" d="M332.694 266.019H334.65V261.821H333.04V260.775C334.02 260.627 334.536 260.447 335.096 260.113H336.335V266.019H337.985V267.376H332.694V266.019ZM341.232 263.692C341.232 263.165 341.604 262.821 342.088 262.821C342.573 262.821 342.946 263.165 342.946 263.692C342.946 264.222 342.573 264.566 342.088 264.566C341.604 264.566 341.232 264.222 341.232 263.692ZM343.382 263.713C343.382 261.828 342.81 261.277 342.088 261.277C341.368 261.277 340.796 261.828 340.796 263.713C340.796 265.6 341.368 266.212 342.088 266.212C342.81 266.212 343.382 265.6 343.382 263.713ZM339.296 263.713C339.296 261.241 340.408 259.975 342.09 259.975C343.771 259.975 344.882 261.241 344.882 263.713C344.882 266.179 343.77 267.514 342.088 267.514C340.407 267.514 339.296 266.179 339.296 263.713ZM348.098 263.692C348.098 263.165 348.47 262.821 348.954 262.821C349.439 262.821 349.812 263.165 349.812 263.692C349.812 264.222 349.439 264.566 348.954 264.566C348.47 264.566 348.098 264.222 348.098 263.692ZM350.249 263.713C350.249 261.828 349.676 261.277 348.954 261.277C348.233 261.277 347.662 261.828 347.662 263.713C347.662 265.6 348.233 266.212 348.954 266.212C349.676 266.212 350.249 265.6 350.249 263.713ZM346.163 263.713C346.163 261.241 347.273 259.975 348.954 259.975C350.636 259.975 351.748 261.241 351.748 263.713C351.748 266.179 350.636 267.514 348.954 267.514C347.273 267.514 346.163 266.179 346.163 263.713ZM357.813 265.582C357.813 264.801 357.556 264.579 357.27 264.579C356.986 264.579 356.73 264.801 356.73 265.582C356.73 266.359 356.986 266.612 357.272 266.612C357.557 266.612 357.815 266.359 357.815 265.582H357.813ZM356.354 262.52L358.208 260.239L359.073 261.077L356.938 263.062L356.354 262.52ZM355.573 265.582C355.573 264.393 356.304 263.676 357.272 263.676C358.24 263.676 358.969 264.391 358.969 265.583C358.969 266.763 358.241 267.514 357.272 267.514C356.304 267.514 355.574 266.763 355.574 265.582H355.573ZM354.913 261.881C354.913 261.098 354.656 260.877 354.37 260.877C354.086 260.877 353.828 261.098 353.828 261.881C353.828 262.658 354.086 262.911 354.37 262.911C354.656 262.911 354.913 262.658 354.913 261.881ZM352.675 261.881C352.675 260.693 353.404 259.975 354.37 259.975C355.337 259.975 356.069 260.693 356.069 261.882C356.069 263.062 355.338 263.813 354.37 263.813C353.404 263.813 352.675 263.062 352.675 261.881ZM352.585 266.224L354.721 264.238L355.304 264.778L353.453 267.061L352.585 266.224ZM361.864 247.49C361.864 248.69 361.38 249.779 360.597 250.56C359.805 251.341 358.717 251.828 357.525 251.828H263.981C261.588 251.828 259.65 249.892 259.65 247.49C259.65 246.297 260.138 245.21 260.92 244.427C261.702 243.646 262.778 243.16 263.979 243.16H357.526C359.92 243.16 361.864 245.095 361.864 247.49Z" fill="#72AC47"/>
<path fill-rule="evenodd" clip-rule="evenodd" d="M275.473 251.828H276.425V243.16H275.473V251.828ZM293.057 251.828H294.01V243.16H293.057V251.828ZM310.643 251.828H311.597V243.16H310.643V251.828ZM328.237 251.828H329.192V243.16H328.237V251.828ZM345.823 251.828H346.778V243.16H345.823V251.828Z" fill="#F1E8F1"/>
<path fill-rule="evenodd" clip-rule="evenodd" d="M56.3328 319.119H13.203C12.6654 317.259 12.1171 313.584 15.1019 311.196C19.2202 307.899 39.0305 300.969 39.0305 300.969L53.3838 300.469C53.3838 300.469 59.0594 314.049 56.3301 319.119" fill="#BEBEBE"/>
<path fill-rule="evenodd" clip-rule="evenodd" d="M53.7129 288.59L53.5487 301.461C53.5487 301.461 50.9082 304.638 46.0801 304.638C41.2534 304.638 39.0273 300.967 39.0273 300.967L39.6868 288.754L53.7129 288.59Z" fill="#FE8D23"/>
<path fill-rule="evenodd" clip-rule="evenodd" d="M86.1329 319.119H129.26C129.798 317.259 130.346 313.584 127.361 311.196C123.245 307.899 103.432 300.969 103.432 300.969L89.0792 300.469C89.0792 300.469 83.4036 314.049 86.1329 319.119Z" fill="#BEBEBE"/>
<path fill-rule="evenodd" clip-rule="evenodd" d="M88.75 288.59L88.9155 301.461C88.9155 301.461 91.556 304.638 96.3841 304.638C101.211 304.638 103.438 300.967 103.438 300.967L102.777 288.754L88.7513 288.59" fill="#FE8D23"/>
<path fill-rule="evenodd" clip-rule="evenodd" d="M47.6104 181.876L33.5273 288.811C33.5273 288.811 40.1286 289.69 48.0487 289.69C55.9702 289.69 59.053 288.811 59.053 288.811L69.6136 202.559L85.0143 290.571C85.0143 290.571 93.3767 292.771 97.7771 292.771C102.177 292.771 107.018 291.451 107.018 291.451L95.5763 184.516L47.6104 181.876Z" fill="#5C5B59"/>
<path fill-rule="evenodd" clip-rule="evenodd" d="M48.2691 203.251C48.183 203.251 48.0983 203.207 48.0519 203.127C47.9817 203.008 48.0228 202.853 48.142 202.782C55.3894 198.518 53.7566 186.216 53.7408 186.091C53.7209 185.954 53.8176 185.826 53.954 185.808C54.0864 185.785 54.2188 185.883 54.2387 186.02C54.2559 186.148 55.935 198.78 48.3962 203.216L48.2691 203.251ZM90.7341 204.792L90.5858 204.742C85.4584 200.952 87.5361 188.732 87.6262 188.215C87.65 188.075 87.7798 187.981 87.9175 188.009C88.0552 188.033 88.1466 188.164 88.1228 188.3C88.1003 188.425 86.008 200.731 90.8851 204.336C90.9963 204.418 91.0202 204.576 90.9381 204.689L90.7341 204.791V204.792ZM71.4826 186.968C70.5901 186.968 69.8644 187.694 69.8644 188.586C69.8644 189.48 70.5901 190.206 71.4826 190.206C72.3752 190.206 73.1008 189.48 73.1008 188.586C73.1008 187.694 72.3752 186.968 71.4826 186.968ZM71.4826 190.708C70.312 190.708 69.3612 189.757 69.3612 188.586C69.3612 187.417 70.312 186.466 71.4826 186.466C72.6519 186.466 73.604 187.417 73.604 188.586C73.604 189.757 72.6519 190.708 71.4826 190.708Z" fill="white"/>
<path fill-rule="evenodd" clip-rule="evenodd" d="M229.711 179.758H231.354V170.603H229.711V179.758ZM229.711 70.5237H231.354V70.4707H229.711V70.5237Z" fill="#CEC8DA"/>
<path fill-rule="evenodd" clip-rule="evenodd" d="M231.352 179.758H241.159V170.603H231.352V179.758ZM231.352 70.5237H241.159V70.4707H231.352V70.5237Z" fill="#2B2648"/>
<path fill-rule="evenodd" clip-rule="evenodd" d="M254.756 179.758H241.16V170.603H247.894C251.71 170.603 254.819 167.503 254.819 163.676V77.4507C254.819 73.6237 251.71 70.5237 247.894 70.5237H241.16V70.4707H254.756C258.931 70.4707 262.321 73.8514 262.321 78.036V172.193C262.321 176.378 258.931 179.758 254.756 179.758Z" fill="#C4C4C4"/>
<path fill-rule="evenodd" clip-rule="evenodd" d="M165.549 73.1831C165.549 73.1831 151.687 95.8458 136.936 107.508C122.196 119.161 99.098 127.528 99.098 127.528L98.4372 184.517C98.4372 184.517 87.2092 186.499 74.6702 185.393C62.1298 184.298 44.7441 181.655 44.7441 181.655C44.7441 181.655 45.4062 116.962 50.4661 109.048C54.2918 103.069 60.8744 101.597 63.8672 101.238C64.8392 101.125 65.4337 101.125 65.4337 101.125L68.3046 101.218L81.515 101.672H81.6011C81.6011 101.672 83.9887 101.494 87.9653 100.918C94.4143 99.9641 105.048 97.942 116.473 93.8634C134.963 87.2622 163.782 63.4951 163.782 63.4951L165.549 73.1831Z" fill="#72AC47"/>
<path fill-rule="evenodd" clip-rule="evenodd" d="M85.8929 101.233L75.8315 117.952L63.8672 101.237C64.8392 101.124 65.4337 101.124 65.4337 101.124L68.3046 101.217L75.8315 112.34L81.5151 101.671H81.6011C81.6011 101.671 81.9189 101.807 85.8929 101.231" fill="#F7FFF1"/>
<path fill-rule="evenodd" clip-rule="evenodd" d="M73.4612 108.661L75.2211 105.635L77.9172 108.441L81.6012 101.674L74.947 99.6943L68.3047 101.221L73.4612 108.661Z" fill="#FFFFFE"/>
<path d="M254.819 77.4524V163.678C254.819 167.505 251.709 170.603 247.893 170.603H112.134C108.307 170.603 105.207 167.505 105.207 163.678V77.4524C105.207 73.6254 108.307 70.5254 112.133 70.5254H247.892C251.709 70.5254 254.817 73.6254 254.817 77.4511" fill="#B9B9B9"/>
<path d="M116.719 93.0589H203.712V87.5488H116.719V93.0589Z" fill="#E6E6E6"/>
<path fill-rule="evenodd" clip-rule="evenodd" d="M118.594 120.367C118.266 120.367 117.939 120.307 117.641 120.189V115.314C117.939 115.194 118.266 115.135 118.594 115.135H128.612C130.038 115.135 131.198 116.324 131.198 117.751C131.198 119.178 130.038 120.367 128.612 120.367H118.594Z" fill="#EEB177"/>
<path fill-rule="evenodd" clip-rule="evenodd" d="M142.047 113.47V116.473H133.992C133.456 114.005 131.227 112.161 128.612 112.161H118.594C118.355 112.161 118.088 112.192 117.85 112.251C118.326 110.556 119.902 109.308 121.775 109.308H137.915C140.205 109.308 142.047 111.181 142.047 113.47Z" fill="#EEB177"/>
<path fill-rule="evenodd" clip-rule="evenodd" d="M133.874 119.446H142.048V123.281C142.048 125.571 140.206 127.443 137.916 127.443H121.774C119.486 127.443 117.643 125.571 117.643 123.281V123.252C117.97 123.312 118.266 123.341 118.595 123.341H128.612C131.079 123.341 133.189 121.707 133.874 119.446Z" fill="#E6E6E6"/>
<path d="M116.719 144.182H237.566V136.752H116.719V144.182ZM188.73 157.566H237.566V150.628H188.73V157.566Z" fill="#E6E6E6"/>
<path fill-rule="evenodd" clip-rule="evenodd" d="M105.206 132.788V77.4524C105.206 73.6254 108.306 70.5254 112.132 70.5254H188.864C185.293 75.2727 180.586 81.2211 175.019 87.5482H116.718V93.0583H170.031C161.337 102.385 151.028 112.003 139.923 119.446H133.872C133.187 121.706 131.078 123.341 128.611 123.341H118.593C118.265 123.341 117.968 123.311 117.639 123.252V123.281C117.639 125.571 119.484 127.443 121.774 127.443H125.691C118.96 130.458 112.078 132.4 105.205 132.788H105.206ZM118.593 115.136C118.265 115.136 117.937 115.195 117.639 115.314V120.19C117.937 120.309 118.265 120.368 118.593 120.368H128.611C130.037 120.368 131.197 119.179 131.197 117.752C131.197 116.325 130.037 115.136 128.611 115.136H118.593ZM118.593 112.163H128.611C131.226 112.163 133.455 114.006 133.991 116.474H142.046V113.471C142.046 111.183 140.204 109.309 137.915 109.309H121.772C119.9 109.309 118.325 110.558 117.849 112.253C118.087 112.193 118.353 112.163 118.593 112.163Z" fill="#B9B9B9"/>
<path fill-rule="evenodd" clip-rule="evenodd" d="M170.032 93.0589H116.719V87.5488H175.02C173.426 89.3617 171.763 91.2037 170.032 93.0589Z" fill="#E6E6E6"/>
<path fill-rule="evenodd" clip-rule="evenodd" d="M128.612 120.367H118.594C118.266 120.367 117.939 120.307 117.641 120.189V115.314C117.939 115.194 118.266 115.135 118.594 115.135H128.612C130.038 115.135 131.198 116.324 131.198 117.751C131.198 119.178 130.038 120.367 128.612 120.367Z" fill="#E6E6E6"/>
<path fill-rule="evenodd" clip-rule="evenodd" d="M142.048 116.473H133.993C133.456 114.005 131.228 112.161 128.612 112.161H118.595C118.356 112.161 118.089 112.192 117.85 112.251C118.327 110.556 119.903 109.308 121.775 109.308H137.916C140.206 109.308 142.048 111.181 142.048 113.47V116.473ZM125.693 127.441H121.775C119.485 127.441 117.643 125.569 117.643 123.279V123.25C117.97 123.31 118.266 123.339 118.595 123.339H128.612C131.079 123.339 133.189 121.705 133.874 119.445H139.925C135.3 122.547 130.534 125.272 125.693 127.441Z" fill="#E6E6E6"/>
<path d="M236.678 98.2747H213.423C211.169 98.2747 209.342 96.4473 209.342 94.1935V85.0074C209.342 82.7522 211.169 80.9248 213.423 80.9248H236.676C238.931 80.9248 240.759 82.7522 240.759 85.0074V94.1935C240.759 96.4473 238.931 98.2747 236.676 98.2747" fill="#E6E6E6"/>
<path fill-rule="evenodd" clip-rule="evenodd" d="M100.967 176.486C100.967 176.486 114.719 183.417 116.259 181.875C117.799 180.335 115.049 179.455 115.049 179.455C115.049 179.455 119.011 181.436 119.889 180.225C120.77 179.015 116.918 176.596 116.918 176.596C116.918 176.596 122.201 178.795 122.97 177.145C123.741 175.495 114.719 172.195 114.719 172.195C114.719 172.195 121.87 173.735 122.201 172.195C122.53 170.655 116.149 169.115 116.149 169.115C116.149 169.115 119.67 168.453 118.899 166.473C118.129 164.494 105.257 166.144 105.257 166.144L100.967 176.486Z" fill="#FE8D23"/>
<path fill-rule="evenodd" clip-rule="evenodd" d="M54.2107 105.248C54.2107 105.248 61.8024 110.364 59.6572 123.565C59.6572 123.565 55.5309 137.922 65.9274 144.853C76.3252 151.784 106.029 165.646 106.029 165.646L100.748 176.869C100.748 176.869 58.6667 169.936 48.2703 155.579C37.8738 141.223 39.8548 116.965 54.2107 105.247" fill="#72AC47"/>
<path fill-rule="evenodd" clip-rule="evenodd" d="M54.0797 105.443L54.138 105.483C54.7445 105.93 59.803 109.884 59.8043 119.029C59.8043 120.408 59.6891 121.907 59.4256 123.529L59.656 123.566L59.4309 123.503C59.4269 123.516 58.6152 126.344 58.6152 130.11C58.6152 130.773 58.6403 131.462 58.6999 132.172C58.7092 132.301 58.8231 132.396 58.9515 132.385C59.0786 132.375 59.174 132.262 59.1634 132.134C59.1065 131.439 59.0813 130.761 59.0813 130.11C59.0813 128.26 59.2812 126.637 59.4812 125.478C59.5818 124.898 59.6812 124.436 59.7566 124.117C59.8308 123.799 59.8798 123.632 59.8798 123.631L59.8838 123.618L59.8851 123.605C60.1526 121.957 60.2691 120.434 60.2691 119.029C60.2718 109.075 54.375 105.076 54.3406 105.056C54.2347 104.985 54.089 105.013 54.0162 105.12C53.9446 105.226 53.9725 105.371 54.0797 105.443Z" fill="#72AC47"/>
<path fill-rule="evenodd" clip-rule="evenodd" d="M163.785 63.4963C163.785 63.4963 164.031 78.844 167.003 78.844C169.973 78.844 168.405 69.5215 168.405 69.5215C168.405 69.5215 168.9 79.5869 171.375 79.5061C173.852 79.4227 172.448 68.6952 172.448 68.6952C172.448 68.6952 173.273 79.2572 175.748 79.0916C178.224 78.9274 175.995 68.2012 175.995 68.2012C175.995 68.2012 177.152 76.6988 179.791 76.4511C182.433 76.2048 181.69 63.4976 179.461 62.5905C177.234 61.6821 173.273 60.6929 169.312 61.5179C165.353 62.3429 163.785 63.4976 163.785 63.4976V63.4963ZM81.6012 77.5833V101.671C81.6012 101.671 80.5048 103.428 73.791 103.428C67.0772 103.428 66.1992 101.672 66.1992 101.672V77.5847H81.5999" fill="#FFAE73"/>
<path fill-rule="evenodd" clip-rule="evenodd" d="M81.6022 89.766V97.028C80.7415 96.9803 79.7801 96.9234 78.7114 96.8294C65.019 95.6773 67.4079 77.6123 67.4079 77.6123L81.6022 89.766Z" fill="#E67812"/>
<path fill-rule="evenodd" clip-rule="evenodd" d="M95.5756 71.7487C95.2445 69.6949 93.2661 69.822 92.4994 69.9518V66.4691C92.4994 62.6262 90.7713 59.1885 88.0421 56.8844C85.8611 55.0437 83.0365 53.9287 79.9498 53.9287C73.0268 53.9287 67.4094 59.5381 67.4094 66.4691V69.9438C66.8135 69.6326 66.1528 69.434 65.4363 69.434C63.066 69.434 61.7987 71.5858 62.3284 73.9761C62.7151 75.6949 63.7824 77.0919 66.1713 77.6971C66.55 77.7898 66.9658 77.8666 67.4081 77.9222V80.9918C67.4081 87.9135 73.0268 93.5321 79.9485 93.5321C86.8807 93.5321 92.4994 87.9135 92.4994 80.9918V75.6221C93.4687 75.1665 95.9079 73.8052 95.5756 71.7487Z" fill="#FFAE73"/>
<path fill-rule="evenodd" clip-rule="evenodd" d="M94.8014 48.4795C93.8109 46.1661 90.1852 50.1335 90.1852 50.1335C90.1852 50.1335 91.6114 46.6111 90.5719 45.6192C89.5231 44.6287 86.8323 47.0454 86.8323 47.0454C86.8323 47.0454 83.1404 44.5241 76.4835 46.1105C70.2041 47.6201 68.182 56.3083 67.9834 57.2525C67.6722 57.1677 67.361 57.1201 67.0299 57.1201C64.2358 57.1201 61.9688 60.2651 61.9688 64.157C61.9688 68.0462 64.784 72.3539 67.5781 72.3539C70.3722 72.3539 72.0818 68.0462 72.0818 64.157C72.0818 63.8445 72.0633 63.5333 72.0355 63.2406C73.5848 63.8365 75.7168 64.2139 78.6354 64.157C82.9139 64.0709 86.1808 63.5333 88.6637 62.6924C89.4105 64.439 90.601 66.2333 92.4986 67.4702V66.4704C92.4986 64.6853 92.1212 62.9943 91.4498 61.4556C98.447 57.4326 95.5205 50.1613 94.8014 48.4809" fill="black"/>
<path fill-rule="evenodd" clip-rule="evenodd" d="M92.4969 80.9929C92.4969 87.9146 86.8795 93.5333 79.9486 93.5333C73.0255 93.5333 67.4082 87.9146 67.4082 80.9929V69.9463L70.3255 70.758C70.3255 70.758 71.9211 83.5765 84.4628 83.4123C90.4748 83.3328 92.4982 80.9942 92.4982 80.9942" fill="black"/>
<path fill-rule="evenodd" clip-rule="evenodd" d="M384.459 297.167L380.541 251.328C382.021 250.427 384.241 250.096 386.704 250.096C387.82 250.096 388.988 250.164 390.16 250.278V296.823C389.035 297.24 387.863 297.379 386.803 297.379C385.911 297.379 385.098 297.281 384.459 297.167ZM411.546 72.7344C411.546 72.7344 408.209 72.492 404.535 74.9392C400.803 77.4208 397.224 80.2626 397.257 90.0353C397.294 100.274 396.101 99.7021 391.801 106.347C389.605 109.737 383.809 119.165 397.114 120.736C410.369 122.299 417.288 117.518 426.792 117.873C436.24 118.225 438.82 110.739 436.604 106.836C434.423 102.991 433.162 92.1329 434.876 88.1748C438.707 79.329 426.007 62.8703 411.546 72.7344Z" fill="#9D9D9B"/>
<path fill-rule="evenodd" clip-rule="evenodd" d="M383.363 251.674L386.863 292.645C388.673 293.005 392.208 293.228 394.235 290.199C397.032 286.021 402.01 266.636 402.01 266.636L401.321 252.96C401.321 252.96 387.96 248.669 383.363 251.675" fill="#9D9D9B"/>
<path fill-rule="evenodd" clip-rule="evenodd" d="M307.975 139.837C308.346 139.837 308.693 140.028 308.893 140.34L315.516 150.259C315.54 150.298 315.585 150.322 315.632 150.319L320.049 150.204C320.268 150.191 321.042 150.183 321.275 150.183C324.297 150.183 326.196 151.163 326.196 152.368C326.196 153.573 324.289 154.546 321.275 154.546C321.044 154.546 320.274 154.54 320.049 154.526L315.632 154.411C315.585 154.41 315.542 154.432 315.516 154.472L308.886 164.383C308.687 164.698 308.34 164.887 307.967 164.886H306.354C305.973 164.886 305.843 164.506 305.979 164.151L309.391 154.425C309.406 154.383 309.401 154.337 309.377 154.3C309.351 154.264 309.311 154.242 309.267 154.24L300.983 154.056C300.808 154.052 300.643 154.131 300.533 154.268L297.968 157.379C297.76 157.64 297.445 157.793 297.11 157.793H295.974C295.885 157.795 295.801 157.754 295.75 157.681C295.698 157.609 295.685 157.517 295.715 157.433L297.069 152.756C297.172 152.496 297.172 152.206 297.069 151.947L295.715 147.27C295.685 147.186 295.698 147.095 295.75 147.022C295.803 146.951 295.885 146.908 295.974 146.91H297.116C297.451 146.907 297.769 147.061 297.974 147.324L300.493 150.388C300.6 150.526 300.767 150.604 300.943 150.599L309.274 150.476C309.319 150.476 309.36 150.453 309.384 150.417C309.409 150.38 309.413 150.334 309.397 150.293L305.986 140.573C305.851 140.218 305.979 139.837 306.361 139.837H307.974H307.975Z" fill="white"/>
<path d="M196.792 118.431H194.241V116.822H196.792C197.186 116.822 197.507 116.758 197.754 116.63C198.002 116.497 198.183 116.313 198.298 116.08C198.412 115.846 198.469 115.582 198.469 115.289C198.469 114.991 198.412 114.714 198.298 114.457C198.183 114.2 198.002 113.994 197.754 113.838C197.507 113.683 197.186 113.605 196.792 113.605H194.956V121.999H192.894V111.989H196.792C197.576 111.989 198.247 112.131 198.806 112.415C199.37 112.695 199.801 113.082 200.099 113.577C200.397 114.072 200.546 114.638 200.546 115.275C200.546 115.921 200.397 116.481 200.099 116.953C199.801 117.425 199.37 117.789 198.806 118.046C198.247 118.303 197.576 118.431 196.792 118.431ZM205.778 120.322V117.008C205.778 116.769 205.739 116.565 205.661 116.396C205.583 116.222 205.461 116.087 205.296 115.99C205.136 115.894 204.927 115.846 204.671 115.846C204.451 115.846 204.26 115.885 204.1 115.963C203.94 116.036 203.816 116.144 203.729 116.286C203.642 116.423 203.598 116.586 203.598 116.774H201.618C201.618 116.458 201.691 116.158 201.838 115.873C201.985 115.589 202.198 115.339 202.478 115.124C202.757 114.904 203.089 114.732 203.474 114.608C203.864 114.485 204.299 114.423 204.781 114.423C205.358 114.423 205.872 114.519 206.321 114.711C206.77 114.904 207.123 115.193 207.379 115.578C207.641 115.963 207.771 116.444 207.771 117.022V120.205C207.771 120.613 207.797 120.947 207.847 121.208C207.897 121.465 207.971 121.69 208.067 121.882V121.999H206.066C205.97 121.797 205.897 121.545 205.846 121.243C205.8 120.936 205.778 120.629 205.778 120.322ZM206.039 117.468L206.053 118.589H204.946C204.684 118.589 204.458 118.619 204.265 118.678C204.073 118.738 203.914 118.823 203.791 118.933C203.667 119.038 203.575 119.162 203.516 119.304C203.461 119.446 203.433 119.602 203.433 119.772C203.433 119.941 203.472 120.095 203.55 120.232C203.628 120.365 203.74 120.47 203.887 120.548C204.034 120.622 204.205 120.658 204.403 120.658C204.7 120.658 204.959 120.599 205.179 120.48C205.399 120.36 205.569 120.214 205.688 120.04C205.812 119.865 205.876 119.7 205.881 119.545L206.403 120.383C206.33 120.571 206.229 120.766 206.101 120.968C205.977 121.169 205.819 121.36 205.626 121.538C205.434 121.713 205.202 121.857 204.932 121.972C204.662 122.082 204.341 122.137 203.969 122.137C203.497 122.137 203.069 122.043 202.684 121.855C202.303 121.662 202.001 121.399 201.776 121.064C201.556 120.725 201.446 120.34 201.446 119.909C201.446 119.519 201.52 119.173 201.666 118.871C201.813 118.568 202.028 118.314 202.313 118.108C202.601 117.897 202.961 117.739 203.392 117.633C203.823 117.523 204.322 117.468 204.891 117.468H206.039ZM211.394 121.16L213.368 114.56H215.492L212.501 123.12C212.437 123.308 212.35 123.509 212.24 123.725C212.135 123.94 211.99 124.144 211.807 124.337C211.628 124.534 211.401 124.694 211.126 124.818C210.856 124.942 210.524 125.003 210.129 125.003C209.942 125.003 209.788 124.992 209.669 124.969C209.55 124.946 209.408 124.914 209.243 124.873V123.422C209.293 123.422 209.346 123.422 209.401 123.422C209.456 123.427 209.508 123.429 209.559 123.429C209.82 123.429 210.033 123.399 210.198 123.34C210.363 123.28 210.496 123.188 210.597 123.065C210.698 122.945 210.778 122.79 210.838 122.597L211.394 121.16ZM210.569 114.56L212.185 119.95L212.467 122.047L211.119 122.192L208.445 114.56H210.569ZM216.674 111.989H219.988C220.74 111.989 221.375 112.104 221.893 112.333C222.415 112.562 222.812 112.901 223.082 113.35C223.357 113.795 223.494 114.343 223.494 114.993C223.494 115.452 223.401 115.871 223.213 116.252C223.029 116.627 222.763 116.948 222.415 117.214C222.071 117.475 221.659 117.67 221.178 117.798L220.806 117.943H217.692L217.678 116.863H220.029C220.506 116.863 220.903 116.781 221.219 116.616C221.535 116.446 221.773 116.219 221.934 115.935C222.094 115.651 222.174 115.337 222.174 114.993C222.174 114.608 222.099 114.271 221.948 113.983C221.796 113.694 221.558 113.472 221.233 113.316C220.912 113.155 220.497 113.075 219.988 113.075H218.001V121.999H216.674V111.989ZM222.525 121.999L220.091 117.462L221.473 117.455L223.941 121.917V121.999H222.525ZM224.821 118.362V118.204C224.821 117.668 224.899 117.17 225.055 116.712C225.211 116.249 225.436 115.848 225.729 115.509C226.022 115.165 226.377 114.899 226.795 114.711C227.212 114.519 227.679 114.423 228.197 114.423C228.72 114.423 229.189 114.519 229.606 114.711C230.028 114.899 230.386 115.165 230.679 115.509C230.977 115.848 231.204 116.249 231.36 116.712C231.515 117.17 231.593 117.668 231.593 118.204V118.362C231.593 118.898 231.515 119.396 231.36 119.854C231.204 120.312 230.977 120.713 230.679 121.057C230.386 121.396 230.03 121.662 229.613 121.855C229.201 122.043 228.733 122.137 228.211 122.137C227.688 122.137 227.218 122.043 226.801 121.855C226.384 121.662 226.027 121.396 225.729 121.057C225.436 120.713 225.211 120.312 225.055 119.854C224.899 119.396 224.821 118.898 224.821 118.362ZM226.093 118.204V118.362C226.093 118.733 226.137 119.084 226.224 119.414C226.311 119.739 226.442 120.028 226.616 120.28C226.795 120.532 227.017 120.732 227.283 120.878C227.548 121.02 227.858 121.092 228.211 121.092C228.559 121.092 228.864 121.02 229.125 120.878C229.391 120.732 229.611 120.532 229.785 120.28C229.959 120.028 230.09 119.739 230.177 119.414C230.269 119.084 230.315 118.733 230.315 118.362V118.204C230.315 117.837 230.269 117.491 230.177 117.166C230.09 116.836 229.957 116.545 229.778 116.293C229.604 116.036 229.384 115.834 229.118 115.688C228.857 115.541 228.55 115.468 228.197 115.468C227.849 115.468 227.542 115.541 227.276 115.688C227.015 115.834 226.795 116.036 226.616 116.293C226.442 116.545 226.311 116.836 226.224 117.166C226.137 117.491 226.093 117.837 226.093 118.204ZM235.072 120.679L236.983 114.56H237.822L237.657 115.777L235.711 121.999H234.893L235.072 120.679ZM233.786 114.56L235.416 120.748L235.533 121.999H234.673L232.515 114.56H233.786ZM239.651 120.7L241.205 114.56H242.47L240.311 121.999H239.458L239.651 120.7ZM238.008 114.56L239.878 120.576L240.091 121.999H239.28L237.279 115.763L237.114 114.56H238.008Z" fill="#E6E6E6"/>
</g>
</svg>
