<svg width="367" height="383" viewBox="0 0 367 383" fill="none" xmlns="http://www.w3.org/2000/svg">
<mask id="mask0_587_8680" style="mask-type:alpha" maskUnits="userSpaceOnUse" x="0" y="185" width="367" height="198">
<path d="M366.466 185.109H0V383.001H366.466V185.109Z" fill="white"/>
</mask>
<g mask="url(#mask0_587_8680)">
<path fill-rule="evenodd" clip-rule="evenodd" d="M365.095 401.324H167.203V284.524C167.206 273.387 176.243 264.36 187.393 264.357H344.909C356.058 264.36 365.095 273.388 365.095 284.524V401.324Z" fill="#5C5B59"/>
<path fill-rule="evenodd" clip-rule="evenodd" d="M348.603 400.408H26.1133V284.524C26.1165 273.387 37.8901 264.36 52.4144 264.357H322.308C336.831 264.36 348.603 273.388 348.603 284.524V400.408Z" fill="#B9B9B9"/>
<path fill-rule="evenodd" clip-rule="evenodd" d="M251.602 264.357L233.654 319.559L320.915 323.866L325.699 298.098L320.915 264.357H251.602Z" fill="#B9B9B9"/>
<path fill-rule="evenodd" clip-rule="evenodd" d="M86.3787 279.393L99.6652 264.357H109.672L92.6754 306.133L99.6652 333.986L52.277 333.528L50.3926 288.802L62.6824 264.357H74.261H80.7298L86.3787 279.393Z" fill="#B9B9B9"/>
<path fill-rule="evenodd" clip-rule="evenodd" d="M76.3528 314.746H10.9961V401.324H87.9538V324.422C87.9553 321.856 86.7337 319.395 84.5579 317.58C82.3821 315.766 79.4305 314.746 76.3528 314.746Z" fill="#9D9D9B"/>
<path fill-rule="evenodd" clip-rule="evenodd" d="M21.0722 401.324H1.37927V324.608C1.30199 321.11 3.16162 317.845 6.23991 316.074C9.31819 314.303 13.1332 314.303 16.2115 316.074C19.2898 317.845 21.1494 321.11 21.0722 324.608V401.324Z" fill="#9D9D9B"/>
<path d="M277.144 333.986H21.0762V351.393H277.144V333.986Z" fill="#9D9D9B"/>
<path fill-rule="evenodd" clip-rule="evenodd" d="M21.0762 401.325V350.936H97.746H275.312V401.325H21.0762Z" fill="#BEBEBE"/>
<path fill-rule="evenodd" clip-rule="evenodd" d="M233.415 401.324H275.311L276.015 350.858L224.984 350.854L233.415 401.324Z" fill="#B9B9B9"/>
<path fill-rule="evenodd" clip-rule="evenodd" d="M74.2128 401.324H43.9771L53.5991 350.858L86.1855 350.854L74.2128 401.324Z" fill="#B9B9B9"/>
<path fill-rule="evenodd" clip-rule="evenodd" d="M264.421 249.699L255.483 288.285L226.754 305.677L229.718 311.54C229.718 311.54 255.962 308.139 263.463 304.252C270.965 300.364 264.421 249.699 264.421 249.699Z" fill="#F89900"/>
<path fill-rule="evenodd" clip-rule="evenodd" d="M291.238 238.705L310.934 245.019L313.79 314.056C313.79 314.056 296.827 327.422 265.963 320.589L259.736 318.905L263.836 251.67C264.1 247.316 266.785 243.479 270.787 241.737L277.318 238.883L291.238 238.705Z" fill="#F9C200"/>
<path fill-rule="evenodd" clip-rule="evenodd" d="M291.8 220.838V238.724C291.8 238.724 288.701 241.274 283.243 240.968C278.2 240.685 277.395 238.915 277.395 238.915L275.309 229.642L291.79 220.838" fill="#FBAD83"/>
<path fill-rule="evenodd" clip-rule="evenodd" d="M276.535 237.785C278.49 236.994 280.314 235.916 281.946 234.589C284.401 232.715 286.236 230.161 287.22 227.254L276.503 229.269L274.852 230.171L276.535 237.79" fill="#E68D5C"/>
<path d="M272.563 210.762H263.859V211.22H272.563V210.762Z" fill="#1A2249"/>
<path fill-rule="evenodd" clip-rule="evenodd" d="M266.247 198.358C266.247 198.358 264.773 202.232 264.773 205.623C264.773 208.351 265.798 213.509 265.798 213.509L271.645 197.477L266.247 198.358Z" fill="#7A4029"/>
<path fill-rule="evenodd" clip-rule="evenodd" d="M266.515 228.566C271.472 238.786 283.77 232.748 289.032 227.6C294.295 222.451 293.573 202.76 292.115 199.023C290.657 195.285 278.484 192.269 272.069 194.673C265.654 197.077 261.563 218.337 266.515 228.552" fill="#FBAD83"/>
<path fill-rule="evenodd" clip-rule="evenodd" d="M264.773 221.299C265.012 223.798 265.644 226.241 266.643 228.536C268.549 232.642 271.564 234.125 274.851 234.125C271.577 234.125 268.553 232.624 266.648 228.536C265.649 226.241 265.016 223.798 264.773 221.299Z" fill="#D7C5BE"/>
<path fill-rule="evenodd" clip-rule="evenodd" d="M293.175 213.053H287.638C287.638 213.053 283.975 222.636 280.829 223.552C280.577 223.624 280.316 223.66 280.054 223.658C277.433 223.658 273.945 220.483 269.544 220.299C269.133 220.299 268.769 220.271 268.432 220.271C266.55 220.271 265.705 220.552 264.773 221.192C265.024 223.711 265.676 226.175 266.707 228.488C268.672 232.629 271.781 234.125 275.168 234.125C280.284 234.125 285.987 230.651 289.147 227.509C291.689 224.978 292.838 218.997 293.165 213.067" fill="#D48C68"/>
<path fill-rule="evenodd" clip-rule="evenodd" d="M291.062 214.217C289.292 214.056 287.662 213.18 286.547 211.791C285.432 210.402 284.926 208.618 285.147 206.847C285.425 204.615 286.08 203.907 285.502 201.793C284.351 197.588 279.327 197.98 275.947 199.547C272.566 201.113 268.853 201.113 265.936 198.898C264.544 197.843 262.797 194.917 264.689 191.853C266.582 188.789 273.317 185.109 273.317 185.109C273.317 185.109 272.502 186.936 272.775 187.904C273.048 188.872 290.894 183.475 294.561 191.442C298.229 199.41 293.337 214.427 293.337 214.427L291.062 214.217Z" fill="#7A4029"/>
<path fill-rule="evenodd" clip-rule="evenodd" d="M294.092 214.313C294.092 217.029 290.587 219.465 288.439 219.465C286.291 219.465 286.305 217.048 286.305 214.313C286.305 211.578 288.048 209.387 290.196 209.387C292.344 209.387 294.092 211.588 294.092 214.313Z" fill="#FBAD83"/>
<path fill-rule="evenodd" clip-rule="evenodd" d="M293.148 213.935C293.375 215.115 292.151 216.496 291.275 216.7C290.398 216.904 292.279 215.292 292.052 214.112C291.825 212.932 290.274 212.373 291.151 212.169C292.027 211.965 292.92 212.755 293.148 213.935Z" fill="#E68D5C"/>
<path d="M266.838 216.26C264.943 216.26 263.4 214.104 263.4 211.453C263.4 208.801 264.943 206.641 266.838 206.641C268.734 206.641 270.272 208.797 270.272 211.453C270.272 214.109 268.729 216.26 266.838 216.26ZM266.838 207.112C265.182 207.112 263.836 209.061 263.836 211.453C263.836 213.845 265.182 215.789 266.838 215.789C268.494 215.789 269.836 213.845 269.836 211.453C269.836 209.061 268.49 207.112 266.838 207.112Z" fill="#1A2249"/>
<path d="M275.078 216.26C273.187 216.26 271.645 214.104 271.645 211.453C271.645 208.801 273.187 206.641 275.078 206.641C276.969 206.641 278.516 208.797 278.516 211.453C278.516 214.109 276.973 216.26 275.078 216.26ZM275.078 207.112C273.427 207.112 272.08 209.061 272.08 211.453C272.08 213.845 273.427 215.789 275.078 215.789C276.729 215.789 278.08 213.845 278.08 211.453C278.08 209.061 276.734 207.112 275.078 207.112Z" fill="#1A2249"/>
<path d="M286.761 210.762H278.516V211.22H286.761V210.762Z" fill="#1A2249"/>
<path d="M271.644 210.762H270.27V211.22H271.644V210.762Z" fill="#1A2249"/>
<path fill-rule="evenodd" clip-rule="evenodd" d="M267.064 223.131H274.394C274.394 223.131 272.912 226.69 270.437 226.793C267.961 226.897 267.064 223.131 267.064 223.131Z" fill="white"/>
<path fill-rule="evenodd" clip-rule="evenodd" d="M301.67 286.761L260.729 302.223L259.736 318.461L265.983 320.14C296.812 326.945 313.79 313.629 313.79 313.629L312.424 281.253L305.33 266.648L301.67 286.761Z" fill="#EDB607"/>
<path fill-rule="evenodd" clip-rule="evenodd" d="M236.373 381.625V401.323H206.598C207.293 397.767 209.838 394.897 213.216 393.859L225.094 390.211L225.32 381.625H236.373Z" fill="#6D8EAA"/>
<path fill-rule="evenodd" clip-rule="evenodd" d="M253.78 381.625V401.323H223.547C224.251 397.768 226.834 394.897 230.262 393.859L242.328 390.211L242.557 381.625H253.78Z" fill="#9CB7B8"/>
<path fill-rule="evenodd" clip-rule="evenodd" d="M271.588 316.749C271.588 316.749 239.659 313.137 226.51 313.385C213.361 313.634 214.643 334.715 214.39 341.908C214.136 349.101 223.859 385.457 223.859 385.457C228.357 386.145 232.958 385.615 237.18 383.922L234.62 334.44H273.477L271.588 316.749Z" fill="#1E7DD0"/>
<path fill-rule="evenodd" clip-rule="evenodd" d="M294.96 316.762C294.96 316.762 263.034 313.136 249.88 313.385C236.726 313.635 238.017 334.795 237.759 342.014C237.501 349.234 241.837 384.031 241.837 384.031C241.837 384.031 248.802 386.868 255.766 384.031L257.982 334.518H296.841L294.96 316.762Z" fill="#5298D6"/>
<path fill-rule="evenodd" clip-rule="evenodd" d="M263.287 334.445H281.843L294.547 332.149L292.909 316.633C292.909 316.633 270.053 314.01 255.152 313.373L263.287 334.445Z" fill="#0C6CC0"/>
<path fill-rule="evenodd" clip-rule="evenodd" d="M285.389 314.746V401.324H349.062V324.422C349.063 321.856 348.053 319.395 346.252 317.58C344.452 315.766 342.01 314.746 339.464 314.746H285.389Z" fill="#9D9D9B" fill-opacity="0.66"/>
<path fill-rule="evenodd" clip-rule="evenodd" d="M294.547 401.324H274.854V324.608C274.777 321.11 276.636 317.845 279.715 316.074C282.793 314.303 286.608 314.303 289.686 316.074C292.764 317.845 294.624 321.11 294.547 324.608V401.324Z" fill="#9D9D9B"/>
<path fill-rule="evenodd" clip-rule="evenodd" d="M260.791 303.806C260.791 303.806 253.726 303.321 248.713 305.259C243.699 307.197 242.787 311.067 242.787 311.067C242.787 311.067 252.564 311.099 255.777 311.067C258.991 311.035 263.859 307.414 263.859 307.414L260.791 303.806Z" fill="#FBAD83"/>
<path fill-rule="evenodd" clip-rule="evenodd" d="M252.406 311.998H211.219C210.439 311.995 209.807 311.348 209.805 310.549V280.465C209.807 279.665 210.439 279.018 211.219 279.016H252.406V311.998Z" fill="#E0EFFF"/>
<path fill-rule="evenodd" clip-rule="evenodd" d="M253.78 311.998H252.846C252.608 311.998 252.379 311.884 252.211 311.682C252.042 311.48 251.947 311.206 251.947 310.92V280.093C251.947 279.498 252.35 279.016 252.846 279.016H253.78V311.998Z" fill="white"/>
<path fill-rule="evenodd" clip-rule="evenodd" d="M234.54 295.509C234.54 297.279 233.31 298.714 231.791 298.714C230.273 298.714 229.043 297.279 229.043 295.509C229.043 293.74 230.273 292.301 231.791 292.301C233.31 292.301 234.54 293.736 234.54 295.509Z" fill="white"/>
<path d="M277.599 312.457H253.32V314.289H277.599V312.457Z" fill="#E7E9FF"/>
<path d="M253.322 311.998H210.721V314.288H253.322V311.998Z" fill="#A9C2DC"/>
<path fill-rule="evenodd" clip-rule="evenodd" d="M303.653 246.863L307.396 292.337L258.567 303.753C258.567 303.753 257.071 308.018 258.567 311.998C258.567 311.998 309.791 308.883 317.878 304.355C325.966 299.827 316.607 251.984 314.585 248.66C311.139 243 303.653 246.863 303.653 246.863Z" fill="#F9C200"/>
<path fill-rule="evenodd" clip-rule="evenodd" d="M104.347 261.587C104.347 261.587 102.656 255.283 108.192 255.283C110.288 255.283 106.679 257.72 109.667 257.487C113.889 257.157 120.934 255.821 122.447 258.053C123.96 260.284 123.499 259.471 121.108 260.723C118.716 261.976 113.768 262.665 112.457 262.551C111.145 262.437 106.367 267.106 106.367 267.106L104.347 261.587Z" fill="#FBAD83"/>
<path fill-rule="evenodd" clip-rule="evenodd" d="M70.998 245.576L84.0963 279.119L104.096 260.463C104.096 260.463 108.816 262.067 109.939 264.816C109.939 264.816 96.2245 284.424 89.0321 292.167C81.8397 299.91 73.3257 289.597 73.3257 289.597L70.998 245.576Z" fill="#0CBFD1"/>
<path fill-rule="evenodd" clip-rule="evenodd" d="M59.0154 239.158L47.1016 238.705C47.1016 238.705 38.2816 240.545 32.8539 245.337C27.4262 250.128 30.8185 319.044 30.8185 319.044C30.8185 319.044 51.7785 326.482 64.5154 324.483C73.9008 323.015 76.9539 321.084 76.9539 321.084C76.9539 321.084 74.7557 252.331 70.8794 245.323C67.0031 238.315 59.0154 239.158 59.0154 239.158Z" fill="#60D6E6"/>
<path fill-rule="evenodd" clip-rule="evenodd" d="M64.5145 324.027C73.9006 322.561 76.9539 320.635 76.9539 320.635C76.9539 320.635 76.6599 311.387 76.0899 299.335L33.841 291.222L39.6627 264.816L29.8061 271.776C29.5483 292.855 30.8148 318.6 30.8148 318.6C30.8148 318.6 51.7765 326.021 64.5145 324.027Z" fill="#50CAD3"/>
<path fill-rule="evenodd" clip-rule="evenodd" d="M56.7988 232.286L70.9994 234.584V211.68L56.7988 232.286Z" fill="#1A2249"/>
<path fill-rule="evenodd" clip-rule="evenodd" d="M47.1777 220.383V238.269C47.1777 238.269 49.7647 240.819 54.3077 240.513C57.648 240.29 59.132 238.725 59.132 238.725L60.9202 229.185L47.1777 220.383Z" fill="#FBAD83"/>
<path fill-rule="evenodd" clip-rule="evenodd" d="M47.1777 223.393C47.3058 223.704 47.4575 224.005 47.6314 224.294C49.977 228.178 54.7182 233.891 59.7043 235.5L60.9202 229.083L47.1777 220.383V223.393Z" fill="#E68D5C"/>
<path fill-rule="evenodd" clip-rule="evenodd" d="M72.0094 227.448C67.0661 237.603 54.618 229.431 49.3654 224.293C44.1129 219.155 45.0176 201.779 46.4715 198.074C47.9254 194.369 60.0689 191.358 66.4707 193.752C72.8725 196.145 76.9527 217.293 72.0094 227.448Z" fill="#FBAD83"/>
<path fill-rule="evenodd" clip-rule="evenodd" d="M53.9648 236.415L41.6397 232.234C41.6397 232.234 39.8225 203.841 43.7749 196.726C47.7273 189.611 58.1398 187.222 64.868 189.756C74.6626 193.446 74.5173 206.466 74.6626 207.617C72.39 207.201 70.0624 207.186 67.7846 207.572C65.2588 208.032 62.6779 208.107 60.1296 207.795L55.3277 207.217L53.9648 236.415Z" fill="#1A2249"/>
<path fill-rule="evenodd" clip-rule="evenodd" d="M47.6367 218.246C47.6367 220.102 50.3141 221.756 51.9577 221.756C53.6013 221.756 53.5918 220.106 53.5918 218.246C53.5918 216.385 52.2578 214.885 50.6143 214.885C48.9707 214.885 47.6367 216.39 47.6367 218.246Z" fill="#FBAD83"/>
<path fill-rule="evenodd" clip-rule="evenodd" d="M54.9648 222.901C54.9648 224.546 53.6317 225.879 51.9873 225.879C50.3429 225.879 49.0098 224.546 49.0098 222.901C49.0098 221.257 50.3429 219.924 51.9873 219.924C53.6317 219.924 54.9648 221.257 54.9648 222.901Z" fill="white"/>
<path d="M72.3725 220.841C70.0993 220.841 68.252 218.483 68.252 215.576V215.344H68.4693H76.4974V215.576C76.4974 218.483 74.6501 220.841 72.3725 220.841ZM68.691 215.79C68.7735 218.339 70.3948 220.376 72.3725 220.376C74.3502 220.376 75.9758 218.339 76.0584 215.79H68.691Z" fill="#1A2249"/>
<path d="M63.2148 220.841C60.9415 220.841 59.0898 218.483 59.0898 215.576V215.344H59.3072H67.3353V215.576C67.3353 218.483 65.488 220.841 63.2148 220.841ZM59.5506 215.79C59.6375 218.339 61.2544 220.376 63.2365 220.376C65.2185 220.376 66.8355 218.339 66.9224 215.79H59.5506Z" fill="#1A2249"/>
<path d="M69.1658 214.885H52.2168V215.343H69.1658V214.885Z" fill="#1A2249"/>
<path fill-rule="evenodd" clip-rule="evenodd" d="M57.9408 316.018C57.9408 316.018 90.4946 311.858 97.1094 316.444C103.724 321.029 103.968 330.033 99.9714 337.305C97.3309 342.112 56.7698 385.292 56.7698 385.292C56.7698 385.292 52.8453 383.117 52.2168 379.734L83.7261 334.65L62.3781 333.528L57.9408 316.018Z" fill="#3B447B"/>
<path fill-rule="evenodd" clip-rule="evenodd" d="M78.5238 317.038H60.0059L70.3471 296.424H88.865L78.5238 317.038Z" fill="white"/>
<path fill-rule="evenodd" clip-rule="evenodd" d="M56.3865 314.337C58.8758 315.11 61.5021 315.37 64.0996 315.102C68.5438 314.662 69.3318 312.647 69.6154 311.051C69.8991 309.454 63.2126 309.709 63.2126 309.709L63.906 308.345C63.906 308.345 62.9154 307.734 61.0018 307.905C59.0881 308.077 59.0251 309.621 57.5077 309.898C55.9902 310.175 56.3865 314.337 56.3865 314.337Z" fill="#FBAD83"/>
<path fill-rule="evenodd" clip-rule="evenodd" d="M32.6389 246.492C32.6389 246.492 18.0919 282.999 16.9677 293.528C15.8435 304.056 57.4385 315.204 57.4385 315.204C57.4385 315.204 58.4143 311.835 59.0888 309.345L28.7627 291.983C28.7627 291.983 42.0281 270.66 40.4543 258.886C38.8804 247.113 32.6389 246.492 32.6389 246.492Z" fill="#60D6E6"/>
<path fill-rule="evenodd" clip-rule="evenodd" d="M53.3907 379.336L44.8887 388.584L54.9665 401.324H65.5024V400.836C65.5019 399.305 64.5702 397.93 63.1524 397.367L57.9944 395.31L55.9972 385.731L56.8538 383.233L53.3907 379.336Z" fill="#212961"/>
<path fill-rule="evenodd" clip-rule="evenodd" d="M30.6875 318.469C30.6875 318.469 61.5875 313.495 75.0383 315.828C88.489 318.161 84.3727 332.016 83.33 337.894C82.2873 343.772 70.183 391.124 70.183 391.124C70.183 391.124 66.5562 391.703 63.5324 390.346L60.5131 388.99L68.9771 333.824L50.3899 333.937C41.0159 333.976 32.8518 327.566 30.6875 318.469Z" fill="#4A5A98"/>
<path fill-rule="evenodd" clip-rule="evenodd" d="M65.9598 315.664C50.9487 315.709 30.6875 318.933 30.6875 318.933C32.8815 328.069 41.1659 334.5 50.6687 334.445L54.4135 334.422L65.9598 315.664Z" fill="#27345E"/>
</g>
<path d="M107.786 0H209.939C216.155 0 224.139 7.48062 224.139 13.6575V213.924C224.139 220.101 217.987 226.292 211.771 226.292H106.412C100.196 226.292 93.5859 219.643 93.5859 213.466V13.6575C93.5859 7.48062 101.571 0 107.786 0Z" fill="#9D9D9B"/>
<path d="M206.525 6.52734C209.587 6.52734 212.358 7.76529 214.364 9.76682C216.37 11.7682 217.611 14.5332 217.611 17.5873V209.163C217.611 212.217 216.37 214.982 214.364 216.983C212.358 218.985 209.587 220.223 206.525 220.223H111.199C108.138 220.223 105.366 218.985 103.36 216.983C101.354 214.982 100.113 212.217 100.113 209.163V17.5873C100.113 14.5332 101.354 11.7682 103.36 9.76682C105.366 7.76529 108.138 6.52734 111.199 6.52734H206.525Z" fill="white" stroke="#DAE6F6" stroke-width="0.229041"/>
<path d="M121.729 5.49707H196.772L195.818 10.6004C194.602 17.1038 188.926 21.818 182.31 21.818H136.191C129.575 21.818 123.898 17.1038 122.682 10.6004L121.729 5.49707Z" fill="#9D9D9B"/>
<g opacity="0.7">
<g opacity="0.7">
<path opacity="0.7" d="M161.316 105.235H208.74V152.616H161.316V105.235Z" fill="white" stroke="#DAE6F6" stroke-width="0.458082"/>
<path opacity="0.7" d="M161.547 142.411H208.513V152.387H161.547V142.411Z" fill="#C9DAF2"/>
<path opacity="0.7" d="M164.504 144.629H175.598V150.91H164.504V144.629Z" fill="white"/>
<path opacity="0.7" d="M179.297 145.366H201.486V146.475H179.297V145.366Z" fill="white"/>
<path opacity="0.7" d="M179.297 149.061H201.486V150.169H179.297V149.061Z" fill="white"/>
<path opacity="0.7" d="M194.836 115.104L198.172 119.81C198.758 120.636 198.563 121.779 197.737 122.365C197.722 122.375 197.707 122.386 197.691 122.396L194.281 124.661C194.007 124.844 193.636 124.769 193.454 124.494C193.437 124.469 193.422 124.443 193.41 124.415C193.374 124.339 193.283 124.305 193.206 124.341C193.151 124.366 193.117 124.42 193.117 124.48V136.145C193.117 137.157 192.296 137.977 191.284 137.977H179.14C178.128 137.977 177.307 137.157 177.307 136.145V124.48C177.307 124.395 177.239 124.327 177.154 124.327C177.094 124.327 177.04 124.361 177.015 124.415C176.876 124.714 176.521 124.844 176.222 124.705C176.194 124.693 176.168 124.678 176.143 124.661L172.733 122.396C171.89 121.836 171.66 120.699 172.22 119.856C172.231 119.841 172.241 119.825 172.252 119.81L175.589 115.104C175.932 114.619 176.489 114.331 177.083 114.331H181.899C182.381 116.053 183.682 117.287 185.212 117.287C186.742 117.287 188.043 116.053 188.525 114.331H193.341C193.935 114.331 194.492 114.619 194.836 115.104Z" fill="#BEDAFF"/>
</g>
<g opacity="0.7">
<path opacity="0.7" d="M208.74 156.239V203.62H161.316V156.239H208.74Z" fill="white" stroke="#DAE6F6" stroke-width="0.458082"/>
<path opacity="0.7" d="M161.547 193.414H208.513V203.39H161.547V193.414Z" fill="#C9DAF2"/>
<path opacity="0.7" d="M164.33 195.676H175.424V201.957H164.33V195.676Z" fill="white"/>
<path opacity="0.7" d="M179.123 196.414H201.312V197.522H179.123V196.414Z" fill="white"/>
<path opacity="0.7" d="M179.123 200.107H201.312V201.216H179.123V200.107Z" fill="white"/>
<path opacity="0.7" d="M179.926 170.877H190.498C191.311 170.877 192.026 171.412 192.256 172.192L194.875 181.089C195.161 182.06 194.606 183.079 193.635 183.364C193.467 183.414 193.293 183.439 193.117 183.439H177.307C176.295 183.439 175.475 182.619 175.475 181.607C175.475 181.431 175.5 181.257 175.549 181.089L178.168 172.192C178.398 171.412 179.114 170.877 179.926 170.877Z" fill="#BEDAFF"/>
</g>
<g opacity="0.7">
<path opacity="0.7" d="M108.736 105.235H156.16V152.616H108.736V105.235Z" fill="white" stroke="#DAE6F6" stroke-width="0.458082"/>
<path opacity="0.7" d="M108.967 142.411H155.933V152.387H108.967V142.411Z" fill="#C9DAF2"/>
<path opacity="0.7" d="M111.924 144.629H123.018V150.91H111.924V144.629Z" fill="white"/>
<path opacity="0.7" d="M126.717 145.366H148.905V146.475H126.717V145.366Z" fill="white"/>
<path opacity="0.7" d="M126.717 149.061H148.905V150.169H126.717V149.061Z" fill="white"/>
<path opacity="0.7" d="M127.155 115.91C127.155 117.984 129.111 119.665 131.523 119.665C133.935 119.665 135.89 117.984 135.89 115.91C135.89 115.751 135.879 115.595 135.856 115.441L138.264 115.44C138.139 115.893 138.074 116.364 138.074 116.849C138.074 119.563 140.136 121.864 142.987 122.656L142.987 132.806H120.059L120.059 122.656C122.91 121.864 124.972 119.563 124.972 116.849C124.972 116.364 124.906 115.893 124.782 115.44L127.189 115.441C127.167 115.595 127.155 115.751 127.155 115.91Z" fill="#BEDAFF"/>
</g>
<g opacity="0.7">
<path opacity="0.7" d="M209.252 49.6436V97.0243H109.246V49.6436H209.252Z" fill="white" stroke="#374ABE" stroke-width="0.458082"/>
<path opacity="0.7" d="M156.08 55.0449H203.43V79.7994H156.08V55.0449Z" fill="#C9DAF2"/>
<path opacity="0.7" d="M156.08 84.6025H203.43V90.8835H156.08V84.6025Z" fill="#7990DD"/>
<path opacity="0.7" d="M159.062 59.1094H170.248V61.6957H159.062V59.1094Z" fill="white"/>
<path opacity="0.7" d="M200.075 65.3906H159.062V66.499H200.075V65.3906Z" fill="white"/>
<path opacity="0.7" d="M200.075 69.085H159.062V70.1934H200.075V69.085Z" fill="white"/>
<path opacity="0.7" d="M200.075 72.7793H159.062V73.8877H200.075V72.7793Z" fill="white"/>
<path opacity="0.7" d="M127.815 63.2725C127.815 65.3461 129.786 67.0271 132.218 67.0271C134.65 67.0271 136.621 65.3461 136.621 63.2725C136.621 63.1136 136.61 62.957 136.587 62.8033L139.014 62.8027C138.889 63.2549 138.823 63.7264 138.823 64.2112C138.823 66.9258 140.902 69.2264 143.776 70.0182L143.776 80.1683H120.66L120.66 70.0181C123.535 69.2262 125.614 66.9257 125.614 64.2112C125.614 63.7264 125.547 63.2549 125.422 62.8027L127.849 62.8033C127.827 62.957 127.815 63.1136 127.815 63.2725Z" fill="#7990DD"/>
</g>
<g opacity="0.7">
<path opacity="0.7" d="M156.16 156.239V203.62H108.736V156.239H156.16Z" fill="white" stroke="#DAE6F6" stroke-width="0.458082"/>
<path opacity="0.7" d="M108.967 193.414H155.933V203.39H108.967V193.414Z" fill="#C9DAF2"/>
<path opacity="0.7" d="M111.924 195.633H123.018V201.914H111.924V195.633Z" fill="white"/>
<path opacity="0.7" d="M126.717 196.371H148.905V197.48H126.717V196.371Z" fill="white"/>
<path opacity="0.7" d="M126.717 200.064H148.905V201.173H126.717V200.064Z" fill="white"/>
<path opacity="0.7" d="M137.498 161.641L142.618 189.72H134.426L131.368 172.952L128.395 189.72H120.43L125.408 161.641H137.498Z" fill="#BEDAFF"/>
</g>
<g opacity="0.7">
<path opacity="0.7" d="M113.814 44.2625C117.902 44.2625 121.217 40.9515 121.217 36.8671C121.217 32.7827 117.902 29.4717 113.814 29.4717C109.726 29.4717 106.412 32.7827 106.412 36.8671C106.412 40.9515 109.726 44.2625 113.814 44.2625Z" fill="#FF8D88"/>
<path opacity="0.7" d="M177.266 32.5322H206.98V40.1827H176.35V33.4484C176.35 32.9424 176.76 32.5322 177.266 32.5322Z" fill="#D0DFF3"/>
<path opacity="0.7" d="M154.909 32.0215H124.279V36.6117H154.909V32.0215Z" fill="#BEDAFF"/>
<path opacity="0.7" d="M143.168 38.6523H124.279V42.2225H143.168V38.6523Z" fill="#C9DAF2"/>
</g>
</g>
<mask id="mask1_587_8680" style="mask-type:alpha" maskUnits="userSpaceOnUse" x="33" y="71" width="158" height="86">
<path d="M186.457 71H36.6647C34.6407 71 33 72.6407 33 74.6647V152.539C33 154.563 34.6407 156.203 36.6647 156.203H186.457C188.481 156.203 190.122 154.563 190.122 152.539V74.6647C190.122 72.6407 188.481 71 186.457 71Z" fill="white"/>
</mask>
<g mask="url(#mask1_587_8680)">
<path d="M186.457 71H36.6647C34.6407 71 33 72.6407 33 74.6647V152.539C33 154.563 34.6407 156.203 36.6647 156.203H186.457C188.481 156.203 190.122 154.563 190.122 152.539V74.6647C190.122 72.6407 188.481 71 186.457 71Z" fill="#A6CB91"/>
<g opacity="0.1">
<g opacity="0.1">
<path opacity="0.1" d="M149.354 120.44C149.354 121.673 150.238 122.815 151.998 123.865C153.762 124.915 156.156 125.748 159.177 126.367C162.206 126.981 165.499 127.29 169.053 127.29C169.688 127.29 170.69 127.426 170.936 127.26C173.68 125.356 175.804 124.776 178.19 124.227C181.648 123.442 184.209 123.312 187.251 123.068C188.137 122.669 188.718 121.804 188.749 120.836V115.895C186.717 117.389 183.933 118.522 180.413 119.294C176.679 120.081 172.87 120.465 169.053 120.44C164.999 120.44 161.217 120.056 157.689 119.289C154.169 118.527 151.389 117.389 149.358 115.89V120.44H149.354ZM149.354 140.62C149.354 141.86 150.225 143.007 151.958 144.063C153.696 145.119 156.055 145.956 159.031 146.578C161.817 147.152 164.827 147.459 168.066 147.498C168.135 144.782 168.135 144.063 168.135 140.615C164.583 140.598 161.043 140.211 157.569 139.459C154.097 138.688 151.359 137.553 149.358 136.046V140.62H149.354ZM149.354 130.542C149.354 131.777 150.224 132.925 151.956 133.981C153.692 135.041 156.049 135.878 159.022 136.5C161.827 137.078 164.86 137.389 168.126 137.42C168.135 135.155 168.126 132.851 168.135 130.538C164.579 130.523 161.035 130.137 157.557 129.385C154.093 128.614 151.357 127.475 149.358 125.968V130.542H149.354ZM151.998 103.25C153.757 102.21 156.156 101.382 159.177 100.773C162.43 100.143 165.738 99.8365 169.053 99.8585C172.608 99.8585 175.9 100.161 178.925 100.773C181.95 101.382 184.345 102.21 186.104 103.25C187.869 104.29 188.749 105.42 188.749 106.641V110.028C188.749 111.245 187.869 112.375 186.109 113.419C184.345 114.455 181.95 115.288 178.929 115.896C175.9 116.5 172.608 116.806 169.053 116.806C165.499 116.806 162.206 116.504 159.177 115.9C156.156 115.288 153.757 114.464 151.998 113.419C150.229 112.38 149.354 111.249 149.354 110.028V106.641C149.354 105.42 150.233 104.29 151.998 103.25ZM170.883 141.547C172.915 143.049 175.695 144.191 179.215 144.962C182.74 145.728 186.527 146.113 190.581 146.113C194.635 146.113 198.418 145.728 201.942 144.957C205.467 144.187 208.247 143.049 210.278 141.543V146.113C210.278 147.352 209.398 148.499 207.638 149.554C205.874 150.609 203.479 151.45 200.458 152.067C197.428 152.684 194.136 152.995 190.581 152.995C187.026 152.995 183.733 152.684 180.708 152.067C177.683 151.445 175.288 150.609 173.528 149.554C171.763 148.499 170.883 147.352 170.883 146.113V141.547ZM173.523 129.356C175.283 128.317 177.682 127.488 180.703 126.88C183.957 126.251 187.267 125.946 190.583 125.969C194.138 125.969 197.43 126.271 200.455 126.884C203.48 127.492 205.874 128.321 207.634 129.361C209.398 130.4 210.278 131.531 210.278 132.752V136.139C210.278 137.356 209.398 138.486 207.639 139.53C205.874 140.566 203.48 141.398 200.459 142.007C197.43 142.611 194.138 142.917 190.583 142.917C187.028 142.917 183.736 142.615 180.707 142.011C177.686 141.398 175.287 140.574 173.528 139.53C171.759 138.49 170.883 137.36 170.883 136.139V132.752C170.883 131.531 171.763 130.4 173.528 129.361L173.523 129.356Z" fill="white"/>
</g>
</g>
</g>
<path d="M48.7235 132.017C49.1202 132.017 49.4516 132.001 49.7177 131.97C49.9839 131.939 50.1953 131.897 50.3518 131.845C50.5084 131.793 50.6206 131.725 50.6885 131.641C50.7563 131.558 50.7902 131.464 50.7902 131.359V126.772H52.4812C54.4227 126.772 56.0119 126.396 57.2488 125.645C58.4857 124.893 59.3599 123.755 59.8714 122.231H62.032C62.1886 122.231 62.3139 122.135 62.4078 121.942C62.5018 121.749 62.5487 121.454 62.5487 121.057C62.5487 120.66 62.5018 120.371 62.4078 120.188C62.3139 120.005 62.1886 119.914 62.032 119.914H60.3411C60.3724 119.538 60.388 119.152 60.388 118.756C60.388 118.703 60.3854 118.659 60.3802 118.622C60.375 118.586 60.3724 118.542 60.3724 118.489H62.032C62.1886 118.489 62.3139 118.401 62.4078 118.223C62.5018 118.046 62.5487 117.748 62.5487 117.331C62.5487 116.903 62.5018 116.605 62.4078 116.438C62.3139 116.271 62.1886 116.188 62.032 116.188H60.0436C59.8035 115.363 59.4486 114.664 58.9789 114.09C58.5092 113.516 57.9586 113.049 57.3271 112.688C56.6956 112.328 55.9962 112.067 55.229 111.906C54.4618 111.744 53.6659 111.663 52.8413 111.663H48.0659C47.6484 111.663 47.3118 111.783 47.056 112.023C46.8003 112.263 46.6724 112.634 46.6724 113.135V116.188H45.0128C44.8666 116.188 44.744 116.271 44.6448 116.438C44.5457 116.605 44.4961 116.903 44.4961 117.331C44.4961 117.748 44.5326 118.046 44.6057 118.223C44.6788 118.401 44.7936 118.489 44.9501 118.489H46.6724V119.914H44.9501C44.7831 119.914 44.6657 120.005 44.5979 120.188C44.53 120.371 44.4961 120.66 44.4961 121.057C44.4961 121.454 44.5431 121.749 44.637 121.942C44.731 122.135 44.8562 122.231 45.0128 122.231H46.6724V131.359C46.6724 131.464 46.7037 131.558 46.7664 131.641C46.829 131.725 46.9386 131.793 47.0952 131.845C47.2517 131.897 47.4631 131.939 47.7293 131.97C47.9955 132.001 48.3269 132.017 48.7235 132.017ZM55.5657 116.188H50.7902V114.841H52.5438C53.2014 114.841 53.7886 114.94 54.3053 115.139C54.8219 115.337 55.2421 115.687 55.5657 116.188ZM56.2076 119.914H50.7902V118.489H56.2233C56.2233 118.583 56.2259 118.677 56.2311 118.771C56.2363 118.865 56.2389 118.959 56.2389 119.053C56.2389 119.199 56.2363 119.345 56.2311 119.491C56.2259 119.638 56.218 119.778 56.2076 119.914ZM52.6378 123.594H50.7902V122.231H55.5187C55.2369 122.68 54.8585 123.019 54.3835 123.249C53.9086 123.479 53.3267 123.594 52.6378 123.594ZM70.8626 132.283C72.063 132.283 73.1225 132.155 74.041 131.9C74.9596 131.644 75.7294 131.268 76.3505 130.772C76.9715 130.277 77.4412 129.669 77.7596 128.948C78.078 128.228 78.2371 127.409 78.2371 126.49C78.2371 125.916 78.1458 125.384 77.9631 124.893C77.7805 124.403 77.5169 123.941 77.1725 123.507C76.828 123.074 76.4053 122.67 75.9042 122.294C75.4032 121.918 74.8343 121.563 74.1976 121.229C74.7404 120.927 75.2258 120.59 75.6537 120.219C76.0817 119.849 76.4418 119.455 76.7341 119.037C77.0263 118.62 77.2533 118.179 77.4151 117.714C77.5769 117.25 77.6578 116.772 77.6578 116.282C77.6578 115.541 77.5352 114.865 77.2899 114.254C77.0446 113.643 76.6662 113.119 76.1547 112.681C75.6433 112.242 74.9883 111.903 74.1898 111.663C73.3913 111.423 72.4336 111.303 71.3167 111.303C70.1894 111.303 69.1978 111.433 68.3419 111.694C67.4859 111.955 66.7735 112.328 66.2047 112.814C65.6358 113.299 65.2078 113.873 64.9208 114.536C64.6337 115.199 64.4902 115.937 64.4902 116.751C64.4902 117.315 64.5685 117.837 64.7251 118.317C64.8816 118.797 65.1113 119.238 65.414 119.64C65.7167 120.042 66.082 120.413 66.51 120.752C66.9379 121.091 67.4181 121.407 67.9504 121.699C67.2928 122.044 66.7109 122.406 66.2047 122.787C65.6984 123.168 65.2757 123.575 64.9364 124.008C64.5972 124.442 64.3415 124.911 64.1692 125.418C63.997 125.924 63.9109 126.464 63.9109 127.038C63.9109 127.884 64.057 128.633 64.3493 129.285C64.6416 129.937 65.08 130.485 65.6645 130.929C66.249 131.373 66.9745 131.709 67.8408 131.939C68.7072 132.168 69.7145 132.283 70.8626 132.283ZM71.3167 119.805C70.8157 119.533 70.3825 119.277 70.0172 119.037C69.6518 118.797 69.3543 118.552 69.1247 118.301C68.8951 118.051 68.7254 117.785 68.6159 117.503C68.5063 117.221 68.4515 116.913 68.4515 116.579C68.4515 115.869 68.6654 115.314 69.0934 114.912C69.5214 114.51 70.1737 114.309 71.0505 114.309C71.4994 114.309 71.8882 114.361 72.217 114.465C72.5458 114.57 72.8224 114.724 73.0468 114.927C73.2712 115.131 73.4356 115.379 73.54 115.671C73.6444 115.963 73.6966 116.292 73.6966 116.657C73.6966 117.284 73.4904 117.853 73.0781 118.364C72.6658 118.876 72.0787 119.356 71.3167 119.805ZM71.1132 129.246C70.0694 129.246 69.2839 129.032 68.7568 128.604C68.2296 128.176 67.9661 127.555 67.9661 126.741C67.9661 126.375 68.0261 126.033 68.1461 125.715C68.2662 125.397 68.4462 125.094 68.6863 124.807C68.9264 124.52 69.2291 124.246 69.5944 123.985C69.9598 123.724 70.3825 123.463 70.8626 123.202C71.4159 123.474 71.9012 123.74 72.3188 124.001C72.7363 124.262 73.0833 124.533 73.36 124.815C73.6366 125.097 73.8401 125.397 73.9706 125.715C74.1011 126.033 74.1663 126.386 74.1663 126.772C74.1663 127.544 73.9132 128.15 73.4069 128.588C72.9007 129.027 72.1361 129.246 71.1132 129.246ZM80.8519 136.495C81.1233 136.495 81.3477 136.482 81.5251 136.456C81.7026 136.43 81.8539 136.396 81.9792 136.354C82.1044 136.312 82.2114 136.255 82.3002 136.182C82.3889 136.109 82.4698 136.02 82.5428 135.916L84.6409 132.91C84.8601 132.607 85.0428 132.312 85.1889 132.025C85.335 131.738 85.4551 131.443 85.549 131.14C85.6429 130.838 85.7108 130.517 85.7525 130.177C85.7943 129.838 85.8152 129.46 85.8152 129.042C85.8152 128.687 85.776 128.4 85.6977 128.181C85.6195 127.962 85.4942 127.795 85.322 127.68C85.1497 127.565 84.9332 127.49 84.6722 127.453C84.4113 127.416 84.0981 127.398 83.7328 127.398C83.3466 127.398 83.0178 127.416 82.7464 127.453C82.475 127.49 82.2506 127.565 82.0731 127.68C81.8957 127.795 81.7652 127.962 81.6817 128.181C81.5982 128.4 81.5564 128.687 81.5564 129.042V131.516L79.6463 135.837C79.5941 135.952 79.5706 136.051 79.5758 136.135C79.581 136.218 79.6254 136.286 79.7089 136.338C79.7924 136.391 79.9281 136.43 80.116 136.456C80.3039 136.482 80.5492 136.495 80.8519 136.495ZM95.413 132.283C96.7804 132.283 97.9364 132.038 98.881 131.547C99.8257 131.057 100.593 130.352 101.183 129.434C101.772 128.515 102.198 127.403 102.459 126.099C102.72 124.794 102.85 123.333 102.85 121.715C102.85 120.086 102.746 118.628 102.537 117.339C102.328 116.049 101.958 114.959 101.425 114.066C100.893 113.174 100.17 112.49 99.2568 112.015C98.3435 111.54 97.1927 111.303 95.8044 111.303C94.4474 111.303 93.2966 111.548 92.352 112.039C91.4074 112.529 90.6402 113.234 90.0504 114.152C89.4607 115.071 89.0327 116.185 88.7665 117.495C88.5004 118.805 88.3673 120.264 88.3673 121.871C88.3673 123.5 88.4743 124.958 88.6882 126.247C88.9022 127.537 89.2754 128.627 89.8077 129.52C90.3401 130.412 91.0603 131.096 91.9684 131.571C92.8765 132.046 94.0247 132.283 95.413 132.283ZM95.5695 129.011C95.0268 129.011 94.5623 128.899 94.1761 128.674C93.7899 128.45 93.4741 128.058 93.2288 127.5C92.9835 126.942 92.8035 126.19 92.6886 125.245C92.5738 124.301 92.5164 123.108 92.5164 121.668C92.5164 120.488 92.5634 119.455 92.6573 118.568C92.7513 117.68 92.9157 116.939 93.1505 116.344C93.3854 115.749 93.7037 115.303 94.1056 115.006C94.5075 114.708 95.0163 114.559 95.6322 114.559C95.9871 114.559 96.3106 114.606 96.6029 114.7C96.8952 114.794 97.1561 114.953 97.3858 115.178C97.6154 115.402 97.8111 115.702 97.9729 116.078C98.1347 116.454 98.2704 116.913 98.38 117.456C98.4896 117.999 98.5705 118.638 98.6227 119.374C98.6749 120.11 98.701 120.958 98.701 121.918C98.701 122.712 98.6827 123.437 98.6462 124.095C98.6096 124.752 98.5418 125.342 98.4426 125.864C98.3435 126.386 98.2156 126.845 98.059 127.242C97.9025 127.638 97.7067 127.967 97.4719 128.228C97.237 128.489 96.963 128.685 96.6499 128.815C96.3367 128.946 95.9766 129.011 95.5695 129.011ZM111.665 132.283C113.032 132.283 114.188 132.038 115.133 131.547C116.078 131.057 116.845 130.352 117.435 129.434C118.024 128.515 118.45 127.403 118.711 126.099C118.972 124.794 119.102 123.333 119.102 121.715C119.102 120.086 118.998 118.628 118.789 117.339C118.58 116.049 118.21 114.959 117.677 114.066C117.145 113.174 116.422 112.49 115.509 112.015C114.596 111.54 113.445 111.303 112.056 111.303C110.7 111.303 109.549 111.548 108.604 112.039C107.659 112.529 106.892 113.234 106.302 114.152C105.713 115.071 105.285 116.185 105.019 117.495C104.752 118.805 104.619 120.264 104.619 121.871C104.619 123.5 104.726 124.958 104.94 126.247C105.154 127.537 105.527 128.627 106.06 129.52C106.592 130.412 107.312 131.096 108.22 131.571C109.129 132.046 110.277 132.283 111.665 132.283ZM111.822 129.011C111.279 129.011 110.814 128.899 110.428 128.674C110.042 128.45 109.726 128.058 109.481 127.5C109.236 126.942 109.056 126.19 108.941 125.245C108.826 124.301 108.768 123.108 108.768 121.668C108.768 120.488 108.815 119.455 108.909 118.568C109.003 117.68 109.168 116.939 109.403 116.344C109.637 115.749 109.956 115.303 110.358 115.006C110.76 114.708 111.268 114.559 111.884 114.559C112.239 114.559 112.563 114.606 112.855 114.7C113.147 114.794 113.408 114.953 113.638 115.178C113.867 115.402 114.063 115.702 114.225 116.078C114.387 116.454 114.522 116.913 114.632 117.456C114.742 117.999 114.823 118.638 114.875 119.374C114.927 120.11 114.953 120.958 114.953 121.918C114.953 122.712 114.935 123.437 114.898 124.095C114.862 124.752 114.794 125.342 114.695 125.864C114.596 126.386 114.468 126.845 114.311 127.242C114.155 127.638 113.959 127.967 113.724 128.228C113.489 128.489 113.215 128.685 112.902 128.815C112.589 128.946 112.229 129.011 111.822 129.011ZM127.917 132.283C129.284 132.283 130.441 132.038 131.385 131.547C132.33 131.057 133.097 130.352 133.687 129.434C134.276 128.515 134.702 127.403 134.963 126.099C135.224 124.794 135.354 123.333 135.354 121.715C135.354 120.086 135.25 118.628 135.041 117.339C134.832 116.049 134.462 114.959 133.929 114.066C133.397 113.174 132.674 112.49 131.761 112.015C130.848 111.54 129.697 111.303 128.309 111.303C126.952 111.303 125.801 111.548 124.856 112.039C123.911 112.529 123.144 113.234 122.555 114.152C121.965 115.071 121.537 116.185 121.271 117.495C121.004 118.805 120.871 120.264 120.871 121.871C120.871 123.5 120.978 124.958 121.192 126.247C121.406 127.537 121.78 128.627 122.312 129.52C122.844 130.412 123.564 131.096 124.473 131.571C125.381 132.046 126.529 132.283 127.917 132.283ZM128.074 129.011C127.531 129.011 127.066 128.899 126.68 128.674C126.294 128.45 125.978 128.058 125.733 127.5C125.488 126.942 125.308 126.19 125.193 125.245C125.078 124.301 125.021 123.108 125.021 121.668C125.021 120.488 125.068 119.455 125.161 118.568C125.255 117.68 125.42 116.939 125.655 116.344C125.89 115.749 126.208 115.303 126.61 115.006C127.012 114.708 127.52 114.559 128.136 114.559C128.491 114.559 128.815 114.606 129.107 114.7C129.399 114.794 129.66 114.953 129.89 115.178C130.12 115.402 130.315 115.702 130.477 116.078C130.639 116.454 130.775 116.913 130.884 117.456C130.994 117.999 131.075 118.638 131.127 119.374C131.179 120.11 131.205 120.958 131.205 121.918C131.205 122.712 131.187 123.437 131.15 124.095C131.114 124.752 131.046 125.342 130.947 125.864C130.848 126.386 130.72 126.845 130.563 127.242C130.407 127.638 130.211 127.967 129.976 128.228C129.741 128.489 129.467 128.685 129.154 128.815C128.841 128.946 128.481 129.011 128.074 129.011Z" fill="white"/>
<path d="M48.2676 96.7731C48.5313 96.7731 48.7765 96.7518 49.0033 96.7091C49.2301 96.6665 49.4317 96.6132 49.6081 96.5492C49.7845 96.4852 49.9338 96.4183 50.0559 96.3486C50.178 96.2788 50.2604 96.2216 50.3031 96.177C50.3457 96.1324 50.3767 96.0927 50.3961 96.0578C50.4155 96.0229 50.431 95.9812 50.4426 95.9327C50.4543 95.8843 50.463 95.8261 50.4688 95.7583C50.4746 95.6904 50.4775 95.6081 50.4775 95.5111C50.4775 95.3716 50.4737 95.2601 50.4659 95.1767C50.4582 95.0934 50.4465 95.0284 50.431 94.9819C50.4155 94.9354 50.3961 94.9044 50.3729 94.8889C50.3496 94.8734 50.3186 94.8656 50.2798 94.8656C50.2294 94.8656 50.1587 94.8966 50.0675 94.9587C49.9764 95.0207 49.8601 95.0905 49.7186 95.168C49.5771 95.2456 49.4075 95.3163 49.2098 95.3803C49.012 95.4442 48.7775 95.4762 48.5061 95.4762C48.2076 95.4762 47.9391 95.4249 47.7006 95.3221C47.4622 95.2194 47.2587 95.0633 47.09 94.854C46.9214 94.6446 46.7915 94.3781 46.7004 94.0543C46.6093 93.7306 46.5637 93.3478 46.5637 92.9058C46.5637 92.5026 46.6064 92.1401 46.6917 91.8183C46.7769 91.4965 46.902 91.2222 47.0667 90.9954C47.2315 90.7686 47.4312 90.5941 47.6657 90.472C47.9003 90.3499 48.1668 90.2888 48.4654 90.2888C48.7368 90.2888 48.9704 90.3227 49.1661 90.3906C49.3619 90.4584 49.5306 90.534 49.6721 90.6174C49.8136 90.7007 49.9289 90.7763 50.0181 90.8442C50.1073 90.912 50.1809 90.946 50.2391 90.946C50.274 90.946 50.305 90.9343 50.3321 90.9111C50.3593 90.8878 50.3826 90.851 50.4019 90.8006C50.4213 90.7502 50.4349 90.6843 50.4426 90.6028C50.4504 90.5214 50.4543 90.4226 50.4543 90.3063C50.4543 90.1977 50.4514 90.1066 50.4456 90.0329C50.4397 89.9593 50.431 89.8953 50.4194 89.841C50.4078 89.7867 50.3922 89.7422 50.3729 89.7073C50.3535 89.6724 50.3176 89.6288 50.2653 89.5764C50.2129 89.5241 50.1209 89.4611 49.989 89.3874C49.8572 89.3137 49.7089 89.2488 49.5441 89.1926C49.3794 89.1364 49.2001 89.0908 49.0062 89.0559C48.8124 89.021 48.6108 89.0036 48.4014 89.0036C47.8858 89.0036 47.4137 89.0908 46.9853 89.2653C46.5569 89.4398 46.1896 89.6956 45.8833 90.0329C45.577 90.3702 45.3386 90.787 45.168 91.2833C44.9974 91.7795 44.9121 92.3475 44.9121 92.9872C44.9121 93.6153 44.9896 94.1658 45.1447 94.6388C45.2998 95.1118 45.5227 95.5063 45.8135 95.8223C46.1043 96.1382 46.4571 96.3757 46.8719 96.5347C47.2868 96.6936 47.752 96.7731 48.2676 96.7731ZM52.2222 96.6859C52.3656 96.6859 52.4839 96.681 52.5769 96.6713C52.67 96.6616 52.7446 96.6471 52.8008 96.6277C52.857 96.6083 52.8968 96.5841 52.92 96.555C52.9433 96.5259 52.9549 96.492 52.9549 96.4532V93.2198C53.0635 93.0492 53.1653 92.9058 53.2603 92.7895C53.3552 92.6732 53.4463 92.5801 53.5336 92.5103C53.6208 92.4405 53.7051 92.3892 53.7866 92.3562C53.868 92.3233 53.9494 92.3068 54.0308 92.3068C54.1006 92.3068 54.1646 92.3136 54.2227 92.3271C54.2809 92.3407 54.3342 92.3553 54.3826 92.3708C54.4311 92.3863 54.4747 92.4008 54.5135 92.4144C54.5523 92.4279 54.5872 92.4347 54.6182 92.4347C54.6569 92.4347 54.6889 92.425 54.7141 92.4057C54.7393 92.3863 54.7597 92.3514 54.7752 92.301C54.7907 92.2506 54.8023 92.1808 54.8101 92.0916C54.8178 92.0024 54.8217 91.8881 54.8217 91.7485C54.8217 91.6089 54.8198 91.4984 54.8159 91.417C54.812 91.3356 54.8062 91.2745 54.7984 91.2338C54.7907 91.1931 54.782 91.1611 54.7723 91.1379C54.7626 91.1146 54.7471 91.0933 54.7258 91.0739C54.7044 91.0545 54.6705 91.0361 54.624 91.0187C54.5775 91.0012 54.5232 90.9857 54.4611 90.9721C54.3991 90.9586 54.339 90.9489 54.2809 90.9431C54.2227 90.9372 54.1684 90.9343 54.118 90.9343C54.0095 90.9343 53.9009 90.9489 53.7924 90.9779C53.6838 91.007 53.5753 91.0584 53.4667 91.1321C53.3581 91.2057 53.2438 91.3056 53.1236 91.4316C53.0034 91.5576 52.8755 91.7175 52.7398 91.9113V91.2658C52.7398 91.227 52.7301 91.1931 52.7107 91.164C52.6913 91.135 52.6593 91.1107 52.6147 91.0914C52.5701 91.072 52.5071 91.0574 52.4257 91.0477C52.3443 91.038 52.2416 91.0332 52.1175 91.0332C51.9973 91.0332 51.8975 91.038 51.818 91.0477C51.7385 91.0574 51.6736 91.072 51.6232 91.0914C51.5728 91.1107 51.5379 91.135 51.5185 91.164C51.4991 91.1931 51.4894 91.227 51.4894 91.2658V96.4532C51.4894 96.492 51.5011 96.5259 51.5243 96.555C51.5476 96.5841 51.5873 96.6083 51.6435 96.6277C51.6998 96.6471 51.7744 96.6616 51.8674 96.6713C51.9605 96.681 52.0787 96.6859 52.2222 96.6859ZM58.0609 96.7847C58.3168 96.7847 58.5572 96.7682 58.7821 96.7353C59.0069 96.7023 59.2066 96.6636 59.3811 96.619C59.5555 96.5744 59.699 96.5288 59.8114 96.4823C59.9238 96.4358 59.9927 96.399 60.0179 96.3718C60.0431 96.3447 60.0634 96.3166 60.0789 96.2875C60.0944 96.2584 60.1061 96.2226 60.1138 96.1799C60.1216 96.1373 60.1274 96.0859 60.1313 96.0258C60.1351 95.9657 60.1371 95.893 60.1371 95.8077C60.1371 95.7108 60.1342 95.6303 60.1283 95.5664C60.1225 95.5024 60.1119 95.453 60.0964 95.4181C60.0809 95.3832 60.0615 95.359 60.0382 95.3454C60.0149 95.3318 59.9859 95.325 59.951 95.325C59.8928 95.325 59.8172 95.3434 59.7242 95.3803C59.6311 95.4171 59.5138 95.4578 59.3723 95.5024C59.2308 95.547 59.0631 95.5877 58.8693 95.6245C58.6754 95.6614 58.4506 95.6798 58.1947 95.6798C57.9427 95.6798 57.7265 95.6468 57.5463 95.5809C57.366 95.515 57.2187 95.419 57.1043 95.293C56.9899 95.167 56.9066 95.0139 56.8542 94.8336C56.8019 94.6533 56.7757 94.4527 56.7757 94.2317H59.9335C60.0731 94.2317 60.1826 94.1891 60.2621 94.1038C60.3416 94.0185 60.3813 93.8867 60.3813 93.7083V93.4757C60.3813 93.1113 60.3348 92.774 60.2417 92.4638C60.1487 92.1536 60.0033 91.8852 59.8056 91.6584C59.6079 91.4316 59.3549 91.2542 59.0467 91.1262C58.7384 90.9983 58.3672 90.9343 57.933 90.9343C57.522 90.9343 57.1528 91.0022 56.8251 91.1379C56.4975 91.2736 56.2194 91.4703 55.9906 91.7281C55.7619 91.986 55.5874 92.3 55.4672 92.6703C55.347 93.0405 55.2869 93.4563 55.2869 93.9177C55.2869 94.4023 55.3441 94.8249 55.4585 95.1855C55.5729 95.546 55.7464 95.8445 55.979 96.081C56.2116 96.3175 56.5014 96.4939 56.8484 96.6103C57.1954 96.7266 57.5996 96.7847 58.0609 96.7847ZM58.9623 93.2896H56.7757C56.7835 93.1074 56.8116 92.9358 56.86 92.7749C56.9085 92.614 56.9783 92.4745 57.0694 92.3562C57.1605 92.238 57.2749 92.144 57.4125 92.0742C57.5501 92.0044 57.712 91.9695 57.8981 91.9695C58.2664 91.9695 58.5388 92.0868 58.7152 92.3213C58.8916 92.5559 58.974 92.8786 58.9623 93.2896ZM63.4519 96.7847C63.8086 96.7847 64.1333 96.7052 64.426 96.5463C64.7187 96.3873 64.9988 96.1644 65.2663 95.8775V96.4532C65.2663 96.4959 65.277 96.5317 65.2983 96.5608C65.3196 96.5899 65.3545 96.6141 65.403 96.6335C65.4515 96.6529 65.5145 96.6665 65.592 96.6742C65.6695 96.682 65.7703 96.6859 65.8944 96.6859C66.0107 96.6859 66.1086 96.682 66.1881 96.6742C66.2676 96.6665 66.3306 96.6529 66.3771 96.6335C66.4236 96.6141 66.4566 96.5899 66.476 96.5608C66.4953 96.5317 66.505 96.4959 66.505 96.4532V88.8233C66.505 88.7845 66.4934 88.7496 66.4701 88.7186C66.4469 88.6876 66.4081 88.6614 66.3538 88.6401C66.2996 88.6188 66.2259 88.6023 66.1328 88.5907C66.0398 88.5791 65.9215 88.5732 65.7781 88.5732C65.6347 88.5732 65.5164 88.5791 65.4234 88.5907C65.3303 88.6023 65.2557 88.6188 65.1995 88.6401C65.1432 88.6614 65.1045 88.6876 65.0831 88.7186C65.0618 88.7496 65.0512 88.7845 65.0512 88.8233V91.6322C64.8185 91.4034 64.584 91.23 64.3475 91.1117C64.111 90.9935 63.8474 90.9343 63.5566 90.9343C63.1883 90.9343 62.8626 91.0041 62.5796 91.1437C62.2966 91.2833 62.0601 91.4829 61.8701 91.7427C61.6801 92.0024 61.5357 92.3165 61.4368 92.6848C61.338 93.0531 61.2885 93.4679 61.2885 93.9293C61.2885 94.3131 61.3273 94.6785 61.4048 95.0255C61.4824 95.3725 61.6074 95.6759 61.7799 95.9357C61.9525 96.1954 62.1754 96.4019 62.4487 96.555C62.7221 96.7081 63.0564 96.7847 63.4519 96.7847ZM63.8183 95.546C63.6167 95.546 63.45 95.4976 63.3181 95.4006C63.1863 95.3037 63.0807 95.1748 63.0012 95.0139C62.9217 94.853 62.8645 94.6698 62.8296 94.4643C62.7948 94.2589 62.7773 94.0476 62.7773 93.8304C62.7773 93.625 62.7977 93.4243 62.8384 93.2285C62.8791 93.0328 62.9411 92.8554 63.0245 92.6964C63.1078 92.5375 63.2183 92.4105 63.3559 92.3155C63.4936 92.2205 63.6574 92.173 63.8474 92.173C64.0567 92.173 64.2573 92.2428 64.4493 92.3824C64.6412 92.522 64.8418 92.7236 65.0512 92.9872V94.7086C64.9271 94.8637 64.8127 94.9945 64.708 95.1011C64.6034 95.2078 64.5016 95.294 64.4027 95.3599C64.3039 95.4258 64.2069 95.4733 64.112 95.5024C64.017 95.5315 63.9191 95.546 63.8183 95.546ZM68.7033 90.2888C69.029 90.2888 69.2519 90.2326 69.3721 90.1202C69.4923 90.0077 69.5524 89.8042 69.5524 89.5095C69.5524 89.2265 69.4942 89.0298 69.3779 88.9193C69.2616 88.8088 69.0406 88.7535 68.7149 88.7535C68.3854 88.7535 68.1615 88.8107 68.0432 88.9251C67.925 89.0395 67.8659 89.244 67.8659 89.5386C67.8659 89.8216 67.923 90.0174 68.0374 90.126C68.1518 90.2345 68.3737 90.2888 68.7033 90.2888ZM68.7091 96.6859C68.8526 96.6859 68.9708 96.681 69.0639 96.6713C69.1569 96.6616 69.2315 96.6471 69.2878 96.6277C69.344 96.6083 69.3837 96.5841 69.407 96.555C69.4302 96.5259 69.4419 96.492 69.4419 96.4532V91.2774C69.4419 91.2387 69.4302 91.2048 69.407 91.1757C69.3837 91.1466 69.344 91.1214 69.2878 91.1001C69.2315 91.0788 69.1569 91.0623 69.0639 91.0506C68.9708 91.039 68.8526 91.0332 68.7091 91.0332C68.5657 91.0332 68.4474 91.039 68.3544 91.0506C68.2613 91.0623 68.1867 91.0788 68.1305 91.1001C68.0742 91.1214 68.0345 91.1466 68.0112 91.1757C67.988 91.2048 67.9764 91.2387 67.9764 91.2774V96.4532C67.9764 96.492 67.988 96.5259 68.0112 96.555C68.0345 96.5841 68.0742 96.6083 68.1305 96.6277C68.1867 96.6471 68.2613 96.6616 68.3544 96.6713C68.4474 96.681 68.5657 96.6859 68.7091 96.6859ZM72.8439 96.7673C72.9525 96.7673 73.0601 96.7615 73.1667 96.7498C73.2733 96.7382 73.3722 96.7217 73.4633 96.7004C73.5544 96.6791 73.6339 96.6539 73.7017 96.6248C73.7696 96.5957 73.8209 96.5628 73.8558 96.5259C73.8907 96.4891 73.9188 96.4251 73.9401 96.334C73.9615 96.2429 73.9721 96.1121 73.9721 95.9415C73.9721 95.8329 73.9673 95.7437 73.9576 95.674C73.9479 95.6042 73.9372 95.5489 73.9256 95.5082C73.914 95.4675 73.8975 95.4404 73.8762 95.4268C73.8549 95.4132 73.8326 95.4064 73.8093 95.4064C73.7822 95.4064 73.7521 95.4132 73.7192 95.4268C73.6862 95.4404 73.6455 95.4559 73.597 95.4733C73.5486 95.4908 73.4933 95.5063 73.4313 95.5198C73.3693 95.5334 73.2995 95.5402 73.2219 95.5402C72.9932 95.5402 72.8342 95.4694 72.7451 95.3279C72.6559 95.1864 72.6113 94.9742 72.6113 94.6911V92.2544H73.7453C73.819 92.2544 73.8752 92.2089 73.914 92.1178C73.9527 92.0267 73.9721 91.8745 73.9721 91.6613C73.9721 91.5488 73.9673 91.4538 73.9576 91.3763C73.9479 91.2988 73.9334 91.2377 73.914 91.1931C73.8946 91.1485 73.8704 91.1166 73.8413 91.0972C73.8122 91.0778 73.7783 91.0681 73.7395 91.0681H72.6113V89.9108C72.6113 89.872 72.5997 89.8371 72.5764 89.8061C72.5531 89.7751 72.5144 89.7489 72.4601 89.7276C72.4058 89.7063 72.3312 89.6908 72.2362 89.6811C72.1412 89.6714 72.022 89.6666 71.8786 89.6666C71.739 89.6666 71.6217 89.6714 71.5267 89.6811C71.4317 89.6908 71.3561 89.7063 71.2999 89.7276C71.2437 89.7489 71.2049 89.7751 71.1836 89.8061C71.1623 89.8371 71.1516 89.872 71.1516 89.9108V91.0681H70.5352C70.4964 91.0681 70.4625 91.0778 70.4334 91.0972C70.4043 91.1166 70.3801 91.1485 70.3607 91.1931C70.3413 91.2377 70.3268 91.2988 70.3171 91.3763C70.3074 91.4538 70.3026 91.5488 70.3026 91.6613C70.3026 91.8745 70.3219 92.0267 70.3607 92.1178C70.3995 92.2089 70.4557 92.2544 70.5294 92.2544H71.1516V94.9121C71.1516 95.23 71.1846 95.5053 71.2505 95.7379C71.3164 95.9705 71.4191 96.1634 71.5587 96.3166C71.6983 96.4697 71.8747 96.5831 72.0879 96.6568C72.3011 96.7304 72.5531 96.7673 72.8439 96.7673ZM81.7126 96.651C81.7513 96.651 81.7852 96.6393 81.8143 96.6161C81.8434 96.5928 81.8676 96.555 81.887 96.5027C81.9064 96.4503 81.9209 96.3844 81.9306 96.3049C81.9403 96.2255 81.9452 96.1276 81.9452 96.0113C81.9452 95.8949 81.9403 95.7971 81.9306 95.7176C81.9209 95.6381 81.9064 95.5741 81.887 95.5257C81.8676 95.4772 81.8434 95.4423 81.8143 95.421C81.7852 95.3997 81.7513 95.389 81.7126 95.389H79.3456V89.3351C79.3456 89.2963 79.333 89.2614 79.3078 89.2304C79.2826 89.1994 79.241 89.1742 79.1828 89.1548C79.1247 89.1354 79.0471 89.1199 78.9502 89.1083C78.8533 89.0966 78.7292 89.0908 78.578 89.0908C78.4307 89.0908 78.3076 89.0966 78.2087 89.1083C78.1099 89.1199 78.0313 89.1354 77.9732 89.1548C77.915 89.1742 77.8734 89.1994 77.8482 89.2304C77.823 89.2614 77.8104 89.2963 77.8104 89.3351V96.1683C77.8104 96.3389 77.854 96.462 77.9412 96.5376C78.0284 96.6132 78.136 96.651 78.264 96.651H81.7126ZM83.4863 90.2888C83.8119 90.2888 84.0349 90.2326 84.1551 90.1202C84.2752 90.0077 84.3353 89.8042 84.3353 89.5095C84.3353 89.2265 84.2772 89.0298 84.1609 88.9193C84.0446 88.8088 83.8236 88.7535 83.4979 88.7535C83.1684 88.7535 82.9445 88.8107 82.8262 88.9251C82.708 89.0395 82.6488 89.244 82.6488 89.5386C82.6488 89.8216 82.706 90.0174 82.8204 90.126C82.9348 90.2345 83.1567 90.2888 83.4863 90.2888ZM83.4921 96.6859C83.6355 96.6859 83.7538 96.681 83.8468 96.6713C83.9399 96.6616 84.0145 96.6471 84.0707 96.6277C84.1269 96.6083 84.1667 96.5841 84.1899 96.555C84.2132 96.5259 84.2248 96.492 84.2248 96.4532V91.2774C84.2248 91.2387 84.2132 91.2048 84.1899 91.1757C84.1667 91.1466 84.1269 91.1214 84.0707 91.1001C84.0145 91.0788 83.9399 91.0623 83.8468 91.0506C83.7538 91.039 83.6355 91.0332 83.4921 91.0332C83.3486 91.0332 83.2304 91.039 83.1373 91.0506C83.0443 91.0623 82.9697 91.0788 82.9134 91.1001C82.8572 91.1214 82.8175 91.1466 82.7942 91.1757C82.771 91.2048 82.7593 91.2387 82.7593 91.2774V96.4532C82.7593 96.492 82.771 96.5259 82.7942 96.555C82.8175 96.5841 82.8572 96.6083 82.9134 96.6277C82.9697 96.6471 83.0443 96.6616 83.1373 96.6713C83.2304 96.681 83.3486 96.6859 83.4921 96.6859ZM93.2098 96.6859C93.3532 96.6859 93.4715 96.681 93.5645 96.6713C93.6576 96.6616 93.7312 96.6471 93.7855 96.6277C93.8398 96.6083 93.8786 96.5841 93.9018 96.555C93.9251 96.5259 93.9367 96.492 93.9367 96.4532V93.1326C93.9367 92.8341 93.9057 92.551 93.8437 92.2835C93.7816 92.016 93.6779 91.7824 93.5325 91.5828C93.3872 91.3831 93.1962 91.2251 92.9597 91.1088C92.7232 90.9925 92.4324 90.9343 92.0874 90.9343C91.9362 90.9343 91.7879 90.9527 91.6425 90.9896C91.4971 91.0264 91.3517 91.0826 91.2063 91.1582C91.061 91.2338 90.9136 91.3317 90.7644 91.4519C90.6151 91.5721 90.4629 91.7155 90.3078 91.8823C90.2419 91.7388 90.1605 91.6089 90.0636 91.4926C89.9667 91.3763 89.8513 91.2765 89.7176 91.1931C89.5838 91.1098 89.4316 91.0458 89.2611 91.0012C89.0905 90.9566 88.8986 90.9343 88.6853 90.9343C88.3752 90.9343 88.0776 91.0119 87.7926 91.167C87.5077 91.322 87.2218 91.5547 86.9349 91.8648V91.2658C86.9349 91.227 86.9252 91.1931 86.9058 91.164C86.8864 91.135 86.8544 91.1107 86.8098 91.0914C86.7652 91.072 86.7022 91.0574 86.6208 91.0477C86.5394 91.038 86.4367 91.0332 86.3126 91.0332C86.1924 91.0332 86.0926 91.038 86.0131 91.0477C85.9336 91.0574 85.8687 91.072 85.8183 91.0914C85.7679 91.1107 85.733 91.135 85.7136 91.164C85.6942 91.1931 85.6845 91.227 85.6845 91.2658V96.4532C85.6845 96.492 85.6962 96.5259 85.7194 96.555C85.7427 96.5841 85.7824 96.6083 85.8386 96.6277C85.8949 96.6471 85.9695 96.6616 86.0625 96.6713C86.1556 96.681 86.2738 96.6859 86.4173 96.6859C86.5607 96.6859 86.679 96.681 86.772 96.6713C86.8651 96.6616 86.9397 96.6471 86.9959 96.6277C87.0521 96.6083 87.0919 96.5841 87.1151 96.555C87.1384 96.5259 87.15 96.492 87.15 96.4532V93.0046C87.3555 92.7449 87.5474 92.5472 87.7258 92.4115C87.9041 92.2758 88.0825 92.2079 88.2608 92.2079C88.4004 92.2079 88.5225 92.236 88.6272 92.2923C88.7318 92.3485 88.8171 92.4279 88.8831 92.5307C88.949 92.6334 88.9984 92.7565 89.0313 92.9C89.0643 93.0434 89.0808 93.2024 89.0808 93.3768V96.4532C89.0808 96.492 89.0924 96.5259 89.1157 96.555C89.1389 96.5841 89.1787 96.6083 89.2349 96.6277C89.2911 96.6471 89.3657 96.6616 89.4588 96.6713C89.5518 96.681 89.6701 96.6859 89.8135 96.6859C89.9531 96.6859 90.0694 96.681 90.1625 96.6713C90.2555 96.6616 90.3301 96.6471 90.3864 96.6277C90.4426 96.6083 90.4823 96.5841 90.5056 96.555C90.5288 96.5259 90.5405 96.492 90.5405 96.4532V93.0046C90.7498 92.7449 90.9437 92.5472 91.122 92.4115C91.3004 92.2758 91.4768 92.2079 91.6512 92.2079C91.7947 92.2079 91.9178 92.236 92.0205 92.2923C92.1233 92.3485 92.2085 92.4279 92.2764 92.5307C92.3442 92.6334 92.3946 92.7565 92.4276 92.9C92.4606 93.0434 92.477 93.2024 92.477 93.3768V96.4532C92.477 96.492 92.4877 96.5259 92.509 96.555C92.5303 96.5841 92.5691 96.6083 92.6253 96.6277C92.6815 96.6471 92.7562 96.6616 92.8492 96.6713C92.9423 96.681 93.0625 96.6859 93.2098 96.6859ZM96.1001 90.2888C96.4258 90.2888 96.6487 90.2326 96.7689 90.1202C96.889 90.0077 96.9491 89.8042 96.9491 89.5095C96.9491 89.2265 96.891 89.0298 96.7747 88.9193C96.6584 88.8088 96.4374 88.7535 96.1117 88.7535C95.7822 88.7535 95.5583 88.8107 95.44 88.9251C95.3218 89.0395 95.2626 89.244 95.2626 89.5386C95.2626 89.8216 95.3198 90.0174 95.4342 90.126C95.5486 90.2345 95.7705 90.2888 96.1001 90.2888ZM96.1059 96.6859C96.2493 96.6859 96.3676 96.681 96.4606 96.6713C96.5537 96.6616 96.6283 96.6471 96.6845 96.6277C96.7408 96.6083 96.7805 96.5841 96.8038 96.555C96.827 96.5259 96.8386 96.492 96.8386 96.4532V91.2774C96.8386 91.2387 96.827 91.2048 96.8038 91.1757C96.7805 91.1466 96.7408 91.1214 96.6845 91.1001C96.6283 91.0788 96.5537 91.0623 96.4606 91.0506C96.3676 91.039 96.2493 91.0332 96.1059 91.0332C95.9624 91.0332 95.8442 91.039 95.7512 91.0506C95.6581 91.0623 95.5835 91.0788 95.5273 91.1001C95.471 91.1214 95.4313 91.1466 95.408 91.1757C95.3848 91.2048 95.3731 91.2387 95.3731 91.2774V96.4532C95.3731 96.492 95.3848 96.5259 95.408 96.555C95.4313 96.5841 95.471 96.6083 95.5273 96.6277C95.5835 96.6471 95.6581 96.6616 95.7512 96.6713C95.8442 96.681 95.9624 96.6859 96.1059 96.6859ZM100.241 96.7673C100.349 96.7673 100.457 96.7615 100.563 96.7498C100.67 96.7382 100.769 96.7217 100.86 96.7004C100.951 96.6791 101.031 96.6539 101.098 96.6248C101.166 96.5957 101.218 96.5628 101.253 96.5259C101.288 96.4891 101.316 96.4251 101.337 96.334C101.358 96.2429 101.369 96.1121 101.369 95.9415C101.369 95.8329 101.364 95.7437 101.354 95.674C101.345 95.6042 101.334 95.5489 101.322 95.5082C101.311 95.4675 101.294 95.4404 101.273 95.4268C101.252 95.4132 101.229 95.4064 101.206 95.4064C101.179 95.4064 101.149 95.4132 101.116 95.4268C101.083 95.4404 101.042 95.4559 100.994 95.4733C100.945 95.4908 100.89 95.5063 100.828 95.5198C100.766 95.5334 100.696 95.5402 100.619 95.5402C100.39 95.5402 100.231 95.4694 100.142 95.3279C100.053 95.1864 100.008 94.9742 100.008 94.6911V92.2544H101.142C101.216 92.2544 101.272 92.2089 101.311 92.1178C101.35 92.0267 101.369 91.8745 101.369 91.6613C101.369 91.5488 101.364 91.4538 101.354 91.3763C101.345 91.2988 101.33 91.2377 101.311 91.1931C101.291 91.1485 101.267 91.1166 101.238 91.0972C101.209 91.0778 101.175 91.0681 101.136 91.0681H100.008V89.9108C100.008 89.872 99.9965 89.8371 99.9732 89.8061C99.9499 89.7751 99.9112 89.7489 99.8569 89.7276C99.8026 89.7063 99.728 89.6908 99.633 89.6811C99.538 89.6714 99.4188 89.6666 99.2753 89.6666C99.1358 89.6666 99.0185 89.6714 98.9235 89.6811C98.8285 89.6908 98.7529 89.7063 98.6967 89.7276C98.6405 89.7489 98.6017 89.7751 98.5804 89.8061C98.5591 89.8371 98.5484 89.872 98.5484 89.9108V91.0681H97.932C97.8932 91.0681 97.8593 91.0778 97.8302 91.0972C97.8011 91.1166 97.7769 91.1485 97.7575 91.1931C97.7381 91.2377 97.7236 91.2988 97.7139 91.3763C97.7042 91.4538 97.6993 91.5488 97.6993 91.6613C97.6993 91.8745 97.7187 92.0267 97.7575 92.1178C97.7963 92.2089 97.8525 92.2544 97.9261 92.2544H98.5484V94.9121C98.5484 95.23 98.5814 95.5053 98.6473 95.7379C98.7132 95.9705 98.8159 96.1634 98.9555 96.3166C99.0951 96.4697 99.2715 96.5831 99.4847 96.6568C99.6979 96.7304 99.9499 96.7673 100.241 96.7673Z" fill="white"/>
</svg>
