<svg xmlns="http://www.w3.org/2000/svg" xmlns:xlink="http://www.w3.org/1999/xlink" viewBox="0 0 81 81"><defs><style>.cls-1{fill:none;}.cls-2{fill:#fff9e8;}.cls-3{fill:#fcc516;}.cls-4{clip-path:url(#clip-path);}</style><clipPath id="clip-path"><rect class="cls-1" x="21.17" y="21.22" width="38.67" height="38.56"/></clipPath></defs><g id="Layer_2" data-name="Layer 2"><g id="Layer_1-2" data-name="Layer 1"><circle class="cls-2" cx="40.5" cy="40.5" r="40.5"/><path class="cls-3" d="M31.74,48.67l.91-.91L25.4,40.5l18-18H54.05v2.57h-1.4a1.93,1.93,0,1,0,0,1.28h1.4v6.8L41.38,45.83l.91.91L55.15,33.89a.67.67,0,0,0,.18-.46V30.22h1.93a2.57,2.57,0,0,0,0-5.14H55.33V21.86a.64.64,0,0,0-.64-.64H43.12a.64.64,0,0,0-.45.19L24,40.05a.63.63,0,0,0,0,.9Zm18.45-23a.64.64,0,0,1,.65-.64v1.28a.65.65,0,0,1-.65-.64Zm7.07.64a1.29,1.29,0,1,1,0,2.57H55.33V26.36Z"/><path class="cls-3" d="M38.72,33.9A2,2,0,0,0,40,35.23a2,2,0,0,0,.82,1.56,2.13,2.13,0,0,0,1.89.34,2.14,2.14,0,0,0,3.34,0A2.1,2.1,0,0,0,48,36.79a2,2,0,0,0,.83-1.56A2,2,0,0,0,50.1,33.9a2,2,0,0,0-.27-1.75,2,2,0,0,0,.27-1.76,2,2,0,0,0-1.31-1.33A2,2,0,0,0,48,27.5a2.1,2.1,0,0,0-1.88-.34,2.14,2.14,0,0,0-3.34,0,2.13,2.13,0,0,0-1.89.34A2,2,0,0,0,40,29.06a2,2,0,0,0-1.31,1.33A2,2,0,0,0,39,32.15a2,2,0,0,0-.27,1.75Zm1.54-2.29a.7.7,0,0,1-.31-.83.78.78,0,0,1,.8-.55.63.63,0,0,0,.54-.27.65.65,0,0,0,.08-.59.72.72,0,0,1,.25-.84.81.81,0,0,1,1,0,.68.68,0,0,0,.59.09.64.64,0,0,0,.41-.42.83.83,0,0,1,1.56,0,.64.64,0,0,0,.41.42.68.68,0,0,0,.59-.09.8.8,0,0,1,1,0,.71.71,0,0,1,.26.84.65.65,0,0,0,.08.59.63.63,0,0,0,.54.27.79.79,0,0,1,.8.55.7.7,0,0,1-.31.83.64.64,0,0,0,0,1.07.7.7,0,0,1,.31.83.78.78,0,0,1-.8.55.63.63,0,0,0-.54.27.65.65,0,0,0-.08.59.7.7,0,0,1-.26.84.8.8,0,0,1-1,0,.66.66,0,0,0-.59-.1.64.64,0,0,0-.41.42.83.83,0,0,1-1.56,0,.64.64,0,0,0-.41-.42.66.66,0,0,0-.59.1.83.83,0,0,1-1,0,.71.71,0,0,1-.25-.84.65.65,0,0,0-.08-.59.63.63,0,0,0-.54-.27.77.77,0,0,1-.8-.55.7.7,0,0,1,.31-.83.64.64,0,0,0,0-1.07Z"/><path class="cls-3" d="M27.25,40.69l3.85-3.86.91.91L28.15,41.6Z"/><path class="cls-3" d="M29.17,42.62,33,38.76l.91.91-3.86,3.85Z"/><path class="cls-3" d="M31.1,44.54,35,40.69l.91.91L32,45.45Z"/><path class="cls-3" d="M33,46.47l3.86-3.85.9.9-3.85,3.86Z"/><path class="cls-3" d="M36.89,46.47l1.92-1.93.91.91-1.93,1.93Z"/><path class="cls-3" d="M35,34.53l.91-.91,1.56,1.57-.91.9Z"/><path class="cls-3" d="M37.37,36.94l.91-.91,4,4-.91.9Z"/><path class="cls-3" d="M28.19,25.7a3.75,3.75,0,0,1,2.74,2.75.65.65,0,0,0,1.25,0,3.77,3.77,0,0,1,2.75-2.75.65.65,0,0,0,0-1.25,3.75,3.75,0,0,1-2.75-2.74.64.64,0,0,0-1.25,0,3.74,3.74,0,0,1-2.74,2.74.64.64,0,0,0,0,1.25Zm3.37-2.22a5,5,0,0,0,1.59,1.6,4.83,4.83,0,0,0-1.59,1.59A5,5,0,0,0,30,25.08a5.09,5.09,0,0,0,1.6-1.6Z"/><path class="cls-3" d="M47.17,43.9,52,39.05l.9.91-4.84,4.85Z"/><g class="cls-4"><path class="cls-3" d="M53,38.12l1.29-1.29.91.91L53.86,39Z"/><path class="cls-3" d="M59.19,46.93H53.41a.64.64,0,0,0-.65.64v.61a10.07,10.07,0,0,0-10.82-.6l-1.13.63h-5.4a3.21,3.21,0,0,0-2.65,5l-6.85-3.41a3,3,0,0,0-1.32-.31h-.28a3,3,0,0,0-1.37,5.71l7.89,3.94a5.76,5.76,0,0,0,2.58.61H59.19a.64.64,0,0,0,.64-.64V47.57a.63.63,0,0,0-.64-.64ZM31.4,58l-7.88-3.94a1.73,1.73,0,0,1,.77-3.28h.29a1.92,1.92,0,0,1,.75.18l7.23,3.59a.53.53,0,0,0,.28.07H41.2a.65.65,0,0,0,0-1.29H35.41a1.93,1.93,0,1,1,0-3.85H41a.62.62,0,0,0,.32-.09l1.27-.71a8.8,8.8,0,0,1,9.81.8l.38.31v8.68H33.41a4.53,4.53,0,0,1-2-.47Zm27.15.47h-4.5V48.21h4.5Z"/></g><path class="cls-3" d="M56.3,56.57a1,1,0,0,0,.89-.6,1,1,0,0,0-.21-1,1,1,0,1,0-.68,1.65Z"/><path class="cls-3" d="M33.67,37.1l.91-.91,5.14,5.14-.91.91Z"/></g></g></svg>