<svg width="147" height="42" viewBox="0 0 147 42" fill="none" xmlns="http://www.w3.org/2000/svg">
<path d="M0 20.9591C0 9.38372 9.38372 0 20.9591 0V0C32.5345 0 41.9182 9.38372 41.9182 20.9591V20.9591C41.9182 32.5345 32.5345 41.9182 20.9591 41.9182V41.9182C9.38372 41.9182 0 32.5345 0 20.9591V20.9591Z" fill="#F4F5F7"/>
<path d="M51.2334 32.7441C51.2334 32.7441 79.6234 37.1971 100.153 33.5772C120.682 29.9574 145.837 18.974 145.837 18.974" stroke="#72AC47" stroke-width="1.1644" stroke-linecap="round" stroke-dasharray="1.16 3.49"/>
<path d="M29.5709 19.4749H30.8906V17.4954H29.8286L29.4986 16.1758H11.828L11.4981 17.4954H10.436V19.4749H11.7557V23.104V24.7536V29.3723H10.436V31.3518H30.8906V29.3723H29.5709V24.9915L29.9262 25.1099L30.8906 24.6276V23.3284L29.5521 21.4545H29.5709V19.4749ZM12.3432 16.8356H28.9833L29.1483 17.4954H12.1783L12.3432 16.8356ZM11.0959 18.8151V18.1553H11.333H29.9935H30.2307V18.8151H29.5709H28.9111H12.4155H11.7557H11.0959ZM28.9111 19.4749V20.7945H19.3436H18.831H12.4155V19.4749H28.9111V19.4749ZM28.5812 24.1861L27.9213 24.4062L27.2615 24.1861V23.7041L26.4179 21.4544H27.3876L28.5812 23.8417V24.1861ZM17.6941 29.3723V24.9574L17.9986 25.1098L18.6839 24.8812V29.3723H17.6941V29.3723ZM17.6941 23.8585L19.1965 21.4544H19.3437H19.7996L18.6839 23.6859V24.186L18.0495 24.3975L17.6942 24.2197V24.0936V23.8585H17.6941ZM17.0343 24.0937H13.4052H12.4155V23.7637H17.0343V24.0937ZM14.065 24.7535H17.0343V29.3723H14.065V24.7535ZM19.3436 23.8416L20.5372 21.4544H21.5069L20.6633 23.7037V24.1857L20.0034 24.4057L19.3436 24.1857V23.8416ZM25.7133 21.4544L26.6017 23.8238V24.1861L25.9419 24.4062L25.282 24.1861V23.7638L24.9957 21.4544H25.7133ZM24.3309 21.4544L24.6222 23.7846V24.1861L23.9624 24.4062L23.3026 24.1861V23.7846L23.5939 21.4544H24.3309ZM22.6454 23.7229L22.6438 24.1858L21.983 24.4059L21.3232 24.1858V23.8235L22.2116 21.4544H22.9288L22.6454 23.7229ZM20.9932 24.7713L21.9829 25.1012L22.9726 24.7713L23.9623 25.1012L24.952 24.7713L25.9417 25.1012L26.9314 24.7713L27.2613 24.8812V27.7227H20.9932V24.7713ZM12.4155 21.4544H18.4186L17.3876 23.104H12.4155V21.4544ZM12.4155 24.7535H13.4052V29.3723H12.4155V24.7535ZM30.2308 30.6919H11.0959V30.0321H11.7557H12.4155H13.4052H17.694H30.2308V30.6919ZM28.9111 29.3723H19.3436V24.8812L20.0034 25.1012L20.3333 24.9914V28.3826H27.9213V25.1012L28.911 24.7713V29.3723H28.9111ZM30.2308 24.2197L29.8755 24.3972L29.2411 24.1857V23.6856L28.1253 21.4544H28.7413L30.2308 23.5394V24.2197H30.2308Z" fill="#5C5B59"/>
<path d="M27.9214 16.8352H13.4053V12.5463C13.4053 12.0007 13.8493 11.5566 14.395 11.5566H26.9316C27.4773 11.5566 27.9213 12.0007 27.9213 12.5463V16.8352H27.9214Z" fill="#72AC47"/>
<path d="M15.4057 13.2715C15.7321 13.2715 15.9813 13.3314 16.1533 13.4511C16.3274 13.5708 16.4144 13.7536 16.4144 13.9995C16.4144 14.3063 16.2632 14.5142 15.9607 14.623C16.002 14.6731 16.0488 14.734 16.101 14.8058C16.1533 14.8776 16.2066 14.956 16.261 15.0409C16.3154 15.1236 16.3676 15.2095 16.4177 15.2987C16.4677 15.3858 16.5123 15.4718 16.5515 15.5566H16.0912C16.0499 15.4783 16.0053 15.3999 15.9574 15.3216C15.9095 15.2411 15.8605 15.1638 15.8105 15.0898C15.7626 15.0137 15.7147 14.9429 15.6669 14.8776C15.619 14.8102 15.5744 14.7503 15.533 14.6981C15.5025 14.7003 15.4764 14.7014 15.4547 14.7014C15.4329 14.7014 15.4122 14.7014 15.3926 14.7014H15.1935V15.5566H14.7822V13.327C14.8823 13.3052 14.9889 13.2911 15.1021 13.2846C15.2153 13.2759 15.3165 13.2715 15.4057 13.2715ZM15.4351 13.6273C15.348 13.6273 15.2675 13.6306 15.1935 13.6371V14.3684H15.373C15.4732 14.3684 15.5613 14.3629 15.6375 14.3521C15.7136 14.3412 15.7768 14.3216 15.8268 14.2933C15.879 14.265 15.9182 14.2269 15.9443 14.179C15.9704 14.1312 15.9835 14.0702 15.9835 13.9962C15.9835 13.9266 15.9704 13.8678 15.9443 13.8199C15.9182 13.7721 15.8801 13.734 15.8301 13.7057C15.7822 13.6774 15.7245 13.6578 15.6571 13.6469C15.5896 13.6339 15.5156 13.6273 15.4351 13.6273ZM17.3273 15.5566V13.2944H18.78V13.6437H17.7386V14.2019H18.6657V14.5447H17.7386V15.2073H18.8584V15.5566H17.3273ZM21.2739 13.2944V13.6502H20.5785V15.5566H20.1639V13.6502H19.4686V13.2944H21.2739ZM23.3614 15.5566C23.3309 15.4674 23.2993 15.3793 23.2667 15.2922C23.234 15.2052 23.2025 15.1159 23.172 15.0245H22.2188C22.1883 15.1159 22.1568 15.2063 22.1241 15.2955C22.0937 15.3825 22.0632 15.4696 22.0327 15.5566H21.6051C21.6899 15.3151 21.7705 15.092 21.8466 14.8874C21.9228 14.6829 21.9968 14.4892 22.0686 14.3063C22.1426 14.1235 22.2155 13.9494 22.2873 13.784C22.3592 13.6186 22.4332 13.4554 22.5093 13.2944H22.8978C22.974 13.4554 23.048 13.6186 23.1198 13.784C23.1916 13.9494 23.2634 14.1235 23.3352 14.3063C23.4092 14.4892 23.4843 14.6829 23.5605 14.8874C23.6388 15.092 23.7204 15.3151 23.8053 15.5566H23.3614ZM22.6954 13.7318C22.6453 13.8471 22.5877 13.9875 22.5224 14.1529C22.4593 14.3183 22.3929 14.4979 22.3233 14.6916H23.0675C22.9979 14.4979 22.9304 14.3172 22.8652 14.1497C22.7999 13.9821 22.7433 13.8428 22.6954 13.7318ZM24.5483 13.2944H24.9596V15.5566H24.5483V13.2944ZM27.3884 15.2008V15.5566H25.9585V13.2944H26.3698V15.2008H27.3884Z" fill="white"/>
</svg>
