<svg width="81" height="81" viewBox="0 0 81 81" fill="none" xmlns="http://www.w3.org/2000/svg">
<path d="M40.5 81C62.8675 81 81 62.8675 81 40.5C81 18.1325 62.8675 0 40.5 0C18.1325 0 0 18.1325 0 40.5C0 62.8675 18.1325 81 40.5 81Z" fill="#F6F9FF"/>
<path d="M54.1699 46.9406C54.8891 46.2798 55.3687 45.3988 55.5332 44.436C55.6977 43.4732 55.5379 42.483 55.0789 41.6208C54.6199 40.7585 53.8876 40.0731 52.9969 39.6721C52.1063 39.271 51.1077 39.177 50.1578 39.4048C49.2079 39.6326 48.3606 40.1693 47.7487 40.9306C47.1368 41.692 46.795 42.635 46.777 43.6116C46.7589 44.5882 47.0656 45.5432 47.6489 46.3267C48.2322 47.1102 49.0591 47.6779 49.9999 47.9406L47.7199 49.3606L47.3499 49.5606C45.2357 48.7557 43.3142 47.5156 41.7099 45.9206L40.8399 45.0006C40.3877 44.5484 39.7744 44.2944 39.1349 44.2944C38.4954 44.2944 37.8821 44.5484 37.4299 45.0006C36.9777 45.4528 36.7236 46.0661 36.7236 46.7056C36.7236 47.3451 36.9777 47.9584 37.4299 48.4106L37.6699 48.6406C37.4009 48.8561 37.1788 49.1242 37.0171 49.4286C36.8555 49.733 36.7577 50.0671 36.7299 50.4106C36.6993 50.97 36.8502 51.5244 37.1601 51.9911C37.47 52.4578 37.9224 52.8119 38.4499 53.0006L42.2499 54.4206C43.816 55.0112 45.5136 55.1634 47.1599 54.8606C47.6783 54.7674 48.1871 54.6268 48.6799 54.4406V60.0406H59.9999V53.7606C59.9966 52.1166 59.4082 50.5274 58.3399 49.2778C57.2717 48.0281 55.7934 47.1996 54.1699 46.9406ZM48.0499 43.7006C48.0479 43.0768 48.2312 42.4664 48.5766 41.9468C48.9219 41.4273 49.4138 41.022 49.9898 40.7824C50.5658 40.5427 51.2 40.4795 51.8119 40.6007C52.4239 40.7219 52.9861 41.0221 53.4272 41.4633C53.8684 41.9044 54.1686 42.4666 54.2898 43.0786C54.411 43.6905 54.3478 44.3247 54.1082 44.9007C53.8685 45.4767 53.4632 45.9686 52.9437 46.3139C52.4241 46.6593 51.8137 46.8426 51.1899 46.8406C50.3579 46.838 49.5608 46.5063 48.9725 45.918C48.3842 45.3298 48.0525 44.5326 48.0499 43.7006ZM38.8199 48.0506L38.3199 47.5506C38.2124 47.4448 38.1271 47.3187 38.0687 47.1797C38.0103 47.0407 37.9802 46.8914 37.9799 46.7406C37.9799 46.4347 38.1007 46.1412 38.3161 45.9239C38.5315 45.7067 38.824 45.5833 39.1299 45.5806C39.4368 45.584 39.7306 45.7058 39.9499 45.9206L40.8199 46.8006C42.0998 48.0854 43.5704 49.1648 45.1799 50.0006C44.7741 49.9709 44.3757 49.8764 43.9999 49.7206L40.0999 48.2606C39.8193 48.1519 39.5207 48.0976 39.2199 48.1006H38.8899L38.7999 48.0206L38.8199 48.0506ZM58.7399 58.7906H49.9399V53.8806L50.4999 53.5506L53.7899 51.4906L53.1199 50.4306L49.8299 52.4306C48.9495 52.9984 47.9685 53.3921 46.9399 53.5906C45.5148 53.8476 44.0468 53.7163 42.6899 53.2106L38.8999 51.8306C38.6278 51.7419 38.3918 51.5671 38.2277 51.3327C38.0636 51.0982 37.9801 50.8167 37.9899 50.5306C38.0125 50.214 38.1539 49.9176 38.3856 49.7007C38.6174 49.4838 38.9224 49.3624 39.2399 49.3606C39.39 49.3621 39.5388 49.3891 39.6799 49.4406L43.5799 50.9006C44.3664 51.1857 45.2069 51.2905 46.0394 51.2074C46.8719 51.1244 47.6751 50.8555 48.3899 50.4206L51.2699 48.6206C51.8129 48.2818 52.4398 48.1017 53.0799 48.1006C54.5802 48.1033 56.0183 48.7005 57.0792 49.7613C58.1401 50.8222 58.7372 52.2603 58.7399 53.7606V58.7906Z" fill="#5C5B59"/>
<path d="M31.3802 35.0595C31.2334 34.5705 30.905 34.1562 30.4625 33.9014C30.02 33.6467 29.4969 33.5709 29.0002 33.6895L27.2702 34.1395V34.6295C27.3729 37.9099 27.7983 41.1723 28.5402 44.3695C27.7288 44.4741 26.9569 44.782 26.2961 45.2645C25.6353 45.7469 25.107 46.3884 24.7602 47.1295L21.3502 54.4295C21.1134 54.9576 20.994 55.5307 21.0002 56.1095C21.016 57.1599 21.4444 58.162 22.1928 58.8992C22.9413 59.6364 23.9497 60.0496 25.0002 60.0495H31.7402V56.2795H25.0002C24.9542 56.2795 24.9098 56.262 24.8764 56.2303C24.8429 56.1987 24.8228 56.1555 24.8202 56.1095C24.8158 56.083 24.8158 56.0559 24.8202 56.0295L28.2302 48.7195C28.3191 48.5305 28.4609 48.3714 28.6384 48.2613C28.8159 48.1513 29.0215 48.0951 29.2302 48.0995H29.6102C30.5633 51.2532 31.8192 54.3075 33.3602 57.2195L33.6002 57.6395L35.3302 57.1895C35.5756 57.1301 35.8065 57.0222 36.0095 56.8721C36.2124 56.722 36.3832 56.5328 36.5118 56.3156C36.6405 56.0985 36.7243 55.8577 36.7584 55.6076C36.7924 55.3575 36.7761 55.1031 36.7102 54.8595L31.3802 35.0595ZM29.1802 46.8395C28.735 46.8395 28.2991 46.9666 27.9236 47.2057C27.5481 47.4448 27.2486 47.7861 27.0602 48.1895L23.6502 55.4995C23.5586 55.7163 23.5216 55.9523 23.5424 56.1868C23.5632 56.4213 23.6411 56.6471 23.7694 56.8445C23.8977 57.0419 24.0724 57.2048 24.2783 57.319C24.4842 57.4332 24.7149 57.4951 24.9502 57.4995H30.4402V58.7495H25.0002C24.6474 58.7508 24.2979 58.6824 23.9716 58.5483C23.6453 58.4142 23.3486 58.217 23.0987 57.9681C22.8488 57.7191 22.6505 57.4232 22.5152 57.0974C22.3799 56.7716 22.3102 56.4223 22.3102 56.0695C22.3049 55.703 22.3729 55.3392 22.5102 54.9995L25.9202 47.6895C26.1952 47.1301 26.6107 46.6517 27.1261 46.3012C27.6414 45.9506 28.239 45.7398 28.8602 45.6895C28.9102 45.8995 28.9602 46.1195 29.0202 46.3295C29.0802 46.5395 29.1302 46.7295 29.1902 46.9195L29.1802 46.8395ZM35.3802 55.6595C35.3436 55.7392 35.2909 55.8105 35.2256 55.8689C35.1602 55.9274 35.0835 55.9719 35.0002 55.9995L34.2102 56.2095C30.857 49.6668 28.9409 42.483 28.5902 35.1395L29.3702 34.9395C29.5413 34.8935 29.7236 34.9172 29.8772 35.0052C30.0309 35.0933 30.1434 35.2386 30.1902 35.4095L35.4802 55.2095C35.502 55.29 35.507 55.3742 35.495 55.4567C35.483 55.5393 35.4541 55.6185 35.4102 55.6895L35.3802 55.6595Z" fill="#5C5B59"/>
<path d="M33.0002 35.5195C32.9998 36.245 33.2506 36.9482 33.71 37.5097C34.1694 38.0712 34.809 38.4563 35.5202 38.5995V39.2895C35.5202 39.789 35.718 40.2683 36.0703 40.6224C36.4225 40.9766 36.9007 41.1769 37.4002 41.1795H43.7002C44.1998 41.1769 44.6779 40.9766 45.0302 40.6224C45.3825 40.2683 45.5802 39.789 45.5802 39.2895V38.5995C46.2914 38.4563 46.9311 38.0712 47.3905 37.5097C47.8499 36.9482 48.1007 36.245 48.1002 35.5195V34.3795C48.9041 33.0428 49.3386 31.5167 49.3594 29.957C49.3803 28.3974 48.9867 26.8601 48.2189 25.5024C47.451 24.1447 46.3365 23.0152 44.9892 22.2293C43.6418 21.4434 42.11 21.0293 40.5502 21.0293C38.9904 21.0293 37.4586 21.4434 36.1113 22.2293C34.764 23.0152 33.6494 24.1447 32.8816 25.5024C32.1138 26.8601 31.7202 28.3974 31.741 29.957C31.7619 31.5167 32.1964 33.0428 33.0002 34.3795V35.5195ZM33.0002 28.9095C33.1476 27.7911 33.5437 26.7199 34.1595 25.7747C34.7752 24.8294 35.595 24.0342 36.5585 23.4474C37.5219 22.8607 38.6047 22.4973 39.7271 22.3839C40.8495 22.2706 41.983 22.4102 43.0443 22.7926C44.1057 23.1749 45.0678 23.7902 45.8601 24.5932C46.6524 25.3963 47.2547 26.3667 47.6226 27.4331C47.9906 28.4995 48.1149 29.6348 47.9864 30.7556C47.858 31.8763 47.48 32.954 46.8802 33.9095L46.7802 34.0595V35.5595C46.7802 36.0608 46.5811 36.5415 46.2267 36.8959C45.8722 37.2504 45.3915 37.4495 44.8902 37.4495H44.2602V39.3295C44.2603 39.4949 44.1953 39.6536 44.0793 39.7715C43.9633 39.8894 43.8056 39.9569 43.6402 39.9595H37.3402C37.1749 39.9569 37.0172 39.8894 36.9012 39.7715C36.7852 39.6536 36.7202 39.4949 36.7202 39.3295V37.4095H36.1002C35.599 37.4095 35.1182 37.2104 34.7638 36.8559C34.4094 36.5015 34.2102 36.0208 34.2102 35.5195V33.9995L34.1102 33.8495C33.1653 32.3648 32.7756 30.5938 33.0102 28.8495L33.0002 28.9095Z" fill="#5C5B59"/>
<path d="M39.8703 33.6309H38.6104V34.8909H39.8703V33.6309Z" fill="#5C5B59"/>
<path d="M42.3899 33.6309H41.1299V34.8909H42.3899V33.6309Z" fill="#5C5B59"/>
<path d="M37.3499 33.0009C37.8491 33.0029 38.3377 32.8565 38.7537 32.5804C39.1696 32.3043 39.4941 31.9108 39.6861 31.4499C39.8781 30.989 39.9288 30.4815 39.8319 29.9918C39.735 29.502 39.4948 29.0521 39.1418 28.699C38.7887 28.346 38.3388 28.1058 37.849 28.0089C37.3593 27.912 36.8517 27.9627 36.3909 28.1547C35.93 28.3466 35.5365 28.6712 35.2604 29.0871C34.9843 29.5031 34.8379 29.9917 34.8399 30.4909C34.8399 31.1566 35.1043 31.795 35.575 32.2658C36.0457 32.7365 36.6842 33.0009 37.3499 33.0009ZM37.3499 29.2309C37.5995 29.2289 37.8441 29.3011 38.0526 29.4384C38.2611 29.5756 38.4242 29.7717 38.5211 30.0018C38.618 30.2318 38.6443 30.4855 38.5969 30.7305C38.5494 30.9756 38.4302 31.2011 38.2544 31.3783C38.0786 31.5555 37.8541 31.6765 37.6094 31.7259C37.3647 31.7754 37.1108 31.751 36.88 31.6559C36.6492 31.5609 36.4518 31.3994 36.3129 31.192C36.174 30.9845 36.0999 30.7405 36.0999 30.4909C36.0985 30.3259 36.1299 30.1623 36.1921 30.0095C36.2544 29.8567 36.3462 29.7177 36.4624 29.6006C36.5786 29.4834 36.7169 29.3905 36.8692 29.327C37.0215 29.2636 37.1849 29.2309 37.3499 29.2309Z" fill="#5C5B59"/>
<path d="M43.6499 33.0009C44.1487 33.0009 44.6363 32.8529 45.051 32.5755C45.4656 32.2982 45.7886 31.904 45.979 31.443C46.1695 30.9819 46.2188 30.4747 46.1207 29.9856C46.0227 29.4965 45.7817 29.0475 45.4282 28.6955C45.0748 28.3435 44.6249 28.1042 44.1354 28.0081C43.6459 27.912 43.1389 27.9634 42.6786 28.1556C42.2183 28.3479 41.8254 28.6725 41.5497 29.0882C41.274 29.5039 41.1279 29.9921 41.1299 30.4909C41.1299 30.8214 41.1952 31.1486 41.3219 31.4538C41.4487 31.759 41.6345 32.0361 41.8686 32.2693C42.1027 32.5025 42.3806 32.6872 42.6863 32.8128C42.992 32.9383 43.3194 33.0023 43.6499 33.0009ZM43.6499 29.2309C43.8991 29.2309 44.1427 29.3048 44.3499 29.4433C44.5571 29.5817 44.7186 29.7785 44.814 30.0088C44.9094 30.239 44.9343 30.4923 44.8857 30.7368C44.8371 30.9812 44.7171 31.2057 44.5409 31.3819C44.3646 31.5581 44.1401 31.6781 43.8957 31.7267C43.6513 31.7753 43.398 31.7504 43.1677 31.655C42.9375 31.5597 42.7407 31.3982 42.6022 31.191C42.4638 30.9838 42.3899 30.7401 42.3899 30.4909C42.3886 30.3251 42.4203 30.1607 42.4831 30.0072C42.546 29.8537 42.6387 29.7143 42.756 29.597C42.8732 29.4797 43.0127 29.387 43.1661 29.3241C43.3196 29.2613 43.4841 29.2296 43.6499 29.2309Z" fill="#5C5B59"/>
<path d="M43.0105 37.4102H37.9805V38.6702H43.0105V37.4102Z" fill="#5C5B59"/>
</svg>
