<svg width="81" height="81" viewBox="0 0 81 81" fill="none" xmlns="http://www.w3.org/2000/svg">
<path d="M40.5 81C62.8675 81 81 62.8675 81 40.5C81 18.1325 62.8675 0 40.5 0C18.1325 0 0 18.1325 0 40.5C0 62.8675 18.1325 81 40.5 81Z" fill="#F6F9FF"/>
<path d="M57.3509 39.7295H51.6509V21.5795C51.6537 21.4275 51.6103 21.2781 51.5264 21.1513C51.4425 21.0245 51.322 20.9262 51.1809 20.8695C51.0407 20.8102 50.8861 20.7937 50.7366 20.8222C50.5871 20.8506 50.4494 20.9228 50.3409 21.0295L48.1609 23.2095L46.0009 20.9995C45.9294 20.9278 45.8444 20.871 45.7509 20.8322C45.6574 20.7934 45.5571 20.7734 45.4559 20.7734C45.3546 20.7734 45.2544 20.7934 45.1609 20.8322C45.0673 20.871 44.9824 20.9278 44.9109 20.9995L42.7309 23.1795L40.5409 20.9995C40.4694 20.9278 40.3844 20.871 40.2909 20.8322C40.1974 20.7934 40.0971 20.7734 39.9959 20.7734C39.8946 20.7734 39.7944 20.7934 39.7009 20.8322C39.6073 20.871 39.5224 20.9278 39.4509 20.9995L37.2709 23.1795L35.0909 20.9995C35.0194 20.9278 34.9344 20.871 34.8409 20.8322C34.7474 20.7934 34.6471 20.7734 34.5459 20.7734C34.4446 20.7734 34.3444 20.7934 34.2509 20.8322C34.1573 20.871 34.0724 20.9278 34.0009 20.9995L31.8209 23.1795L29.6409 20.9995C29.5702 20.9281 29.4861 20.8715 29.3934 20.8328C29.3007 20.7942 29.2013 20.7743 29.1009 20.7743C29.0004 20.7743 28.901 20.7942 28.8083 20.8328C28.7156 20.8715 28.6315 20.9281 28.5609 20.9995L26.3809 23.1795L24.2009 20.9995C24.1294 20.9278 24.0444 20.871 23.9509 20.8322C23.8574 20.7934 23.7571 20.7734 23.6559 20.7734C23.5546 20.7734 23.4544 20.7934 23.3609 20.8322C23.2673 20.871 23.1824 20.9278 23.1109 20.9995C22.9623 21.1519 22.8797 21.3567 22.8809 21.5695V56.1895C22.8809 57.2504 23.3023 58.2678 24.0524 59.0179C24.8026 59.7681 25.82 60.1895 26.8809 60.1895H54.1209C55.1817 60.1895 56.1992 59.7681 56.9493 59.0179C57.6994 58.2678 58.1209 57.2504 58.1209 56.1895V40.4995C58.1183 40.2961 58.0363 40.1017 57.8925 39.9579C57.7486 39.814 57.5543 39.7321 57.3509 39.7295ZM24.4209 56.1895V23.4295L25.8309 24.8395C25.9024 24.9112 25.9873 24.968 26.0809 25.0068C26.1744 25.0456 26.2746 25.0655 26.3759 25.0655C26.4771 25.0655 26.5774 25.0456 26.6709 25.0068C26.7644 24.968 26.8494 24.9112 26.9209 24.8395L29.1009 22.6595L31.2809 24.8395C31.3524 24.9112 31.4373 24.968 31.5309 25.0068C31.6244 25.0456 31.7246 25.0655 31.8259 25.0655C31.9271 25.0655 32.0274 25.0456 32.1209 25.0068C32.2144 24.968 32.2994 24.9112 32.3709 24.8395L34.5509 22.6595L36.7209 24.8395C36.7924 24.9112 36.8773 24.968 36.9709 25.0068C37.0644 25.0456 37.1646 25.0655 37.2659 25.0655C37.3671 25.0655 37.4674 25.0456 37.5609 25.0068C37.6544 24.968 37.7394 24.9112 37.8109 24.8395L40.0009 22.6595L42.1809 24.8395C42.2524 24.9112 42.3373 24.968 42.4309 25.0068C42.5244 25.0456 42.6246 25.0655 42.7259 25.0655C42.8271 25.0655 42.9274 25.0456 43.0209 25.0068C43.1144 24.968 43.1994 24.9112 43.2709 24.8395L45.4509 22.6595L47.6309 24.8395C47.7015 24.9108 47.7856 24.9675 47.8783 25.0061C47.971 25.0448 48.0704 25.0647 48.1709 25.0647C48.2713 25.0647 48.3707 25.0448 48.4634 25.0061C48.5561 24.9675 48.6402 24.9108 48.7109 24.8395L50.1209 23.4295V56.1895C50.1226 57.0863 50.4334 57.9551 51.0009 58.6495H26.8809C26.2284 58.6495 25.6027 58.3903 25.1414 57.929C24.6801 57.4676 24.4209 56.8419 24.4209 56.1895ZM56.5809 56.1895C56.5809 56.8419 56.3217 57.4676 55.8604 57.929C55.399 58.3903 54.7733 58.6495 54.1209 58.6495C53.4675 58.6495 52.8408 58.3906 52.3778 57.9296C51.9149 57.4685 51.6535 56.8428 51.6509 56.1895V41.2695H56.5809V56.1895Z" fill="#5C5B59"/>
<path d="M45.3897 41.5801H33.1997C33.0986 41.5801 32.9984 41.6 32.905 41.6387C32.8116 41.6774 32.7267 41.7341 32.6552 41.8056C32.5837 41.8771 32.527 41.962 32.4883 42.0554C32.4496 42.1488 32.4297 42.249 32.4297 42.3501C32.4297 42.4512 32.4496 42.5513 32.4883 42.6447C32.527 42.7382 32.5837 42.823 32.6552 42.8946C32.7267 42.9661 32.8116 43.0228 32.905 43.0615C32.9984 43.1002 33.0986 43.1201 33.1997 43.1201H45.3897C45.4908 43.1201 45.5909 43.1002 45.6844 43.0615C45.7778 43.0228 45.8627 42.9661 45.9342 42.8946C46.0057 42.823 46.0624 42.7382 46.1011 42.6447C46.1398 42.5513 46.1597 42.4512 46.1597 42.3501C46.1597 42.249 46.1398 42.1488 46.1011 42.0554C46.0624 41.962 46.0057 41.8771 45.9342 41.8056C45.8627 41.7341 45.7778 41.6774 45.6844 41.6387C45.5909 41.6 45.4908 41.5801 45.3897 41.5801Z" fill="#5C5B59"/>
<path d="M29.1509 41.5801C28.949 41.5798 28.7551 41.6588 28.6109 41.8001C28.5375 41.8715 28.4792 41.9571 28.4397 42.0516C28.4002 42.1461 28.3802 42.2476 28.3809 42.3501C28.3804 42.451 28.4005 42.551 28.4401 42.6439C28.4796 42.7367 28.5377 42.8205 28.6109 42.8901C28.6808 42.9627 28.7647 43.0204 28.8575 43.0598C28.9503 43.0993 29.0501 43.1196 29.1509 43.1196C29.2517 43.1196 29.3515 43.0993 29.4443 43.0598C29.537 43.0204 29.6209 42.9627 29.6909 42.8901C29.764 42.8205 29.8222 42.7367 29.8617 42.6439C29.9013 42.551 29.9214 42.451 29.9209 42.3501C29.9216 42.2476 29.9016 42.1461 29.8621 42.0516C29.8225 41.9571 29.7643 41.8715 29.6909 41.8001C29.5467 41.6588 29.3528 41.5798 29.1509 41.5801Z" fill="#5C5B59"/>
<path d="M45.3897 36.5801H33.1997C32.9955 36.5801 32.7996 36.6612 32.6552 36.8056C32.5108 36.95 32.4297 37.1459 32.4297 37.3501C32.4297 37.5543 32.5108 37.7501 32.6552 37.8946C32.7996 38.039 32.9955 38.1201 33.1997 38.1201H45.3897C45.5939 38.1201 45.7898 38.039 45.9342 37.8946C46.0786 37.7501 46.1597 37.5543 46.1597 37.3501C46.1597 37.1459 46.0786 36.95 45.9342 36.8056C45.7898 36.6612 45.5939 36.5801 45.3897 36.5801Z" fill="#5C5B59"/>
<path d="M29.1509 36.5801C28.949 36.5798 28.7551 36.6588 28.6109 36.8001C28.5375 36.8715 28.4792 36.9571 28.4397 37.0516C28.4002 37.1461 28.3802 37.2476 28.3809 37.3501C28.3804 37.451 28.4005 37.551 28.4401 37.6439C28.4796 37.7367 28.5377 37.8205 28.6109 37.8901C28.6808 37.9627 28.7647 38.0204 28.8575 38.0598C28.9503 38.0993 29.0501 38.1196 29.1509 38.1196C29.2517 38.1196 29.3515 38.0993 29.4443 38.0598C29.537 38.0204 29.6209 37.9627 29.6909 37.8901C29.764 37.8205 29.8222 37.7367 29.8617 37.6439C29.9013 37.551 29.9214 37.451 29.9209 37.3501C29.9216 37.2476 29.9016 37.1461 29.8621 37.0516C29.8225 36.9571 29.7643 36.8715 29.6909 36.8001C29.5467 36.6588 29.3528 36.5798 29.1509 36.5801Z" fill="#5C5B59"/>
<path d="M45.3897 31.5801H33.1997C32.9955 31.5801 32.7996 31.6612 32.6552 31.8056C32.5108 31.95 32.4297 32.1459 32.4297 32.3501C32.4297 32.5543 32.5108 32.7501 32.6552 32.8946C32.7996 33.039 32.9955 33.1201 33.1997 33.1201H45.3897C45.5939 33.1201 45.7898 33.039 45.9342 32.8946C46.0786 32.7501 46.1597 32.5543 46.1597 32.3501C46.1597 32.1459 46.0786 31.95 45.9342 31.8056C45.7898 31.6612 45.5939 31.5801 45.3897 31.5801Z" fill="#5C5B59"/>
<path d="M29.1509 31.5801C28.949 31.5798 28.7551 31.6588 28.6109 31.8001C28.5375 31.8715 28.4792 31.9571 28.4397 32.0516C28.4002 32.1461 28.3802 32.2476 28.3809 32.3501C28.3804 32.451 28.4005 32.551 28.4401 32.6439C28.4796 32.7367 28.5377 32.8205 28.6109 32.8901C28.6808 32.9627 28.7647 33.0204 28.8575 33.0598C28.9503 33.0993 29.0501 33.1196 29.1509 33.1196C29.2517 33.1196 29.3515 33.0993 29.4443 33.0598C29.537 33.0204 29.6209 32.9627 29.6909 32.8901C29.764 32.8205 29.8222 32.7367 29.8617 32.6439C29.9013 32.551 29.9214 32.451 29.9209 32.3501C29.9216 32.2476 29.9016 32.1461 29.8621 32.0516C29.8225 31.9571 29.7643 31.8715 29.6909 31.8001C29.5467 31.6588 29.3528 31.5798 29.1509 31.5801Z" fill="#5C5B59"/>
<path d="M45.3897 46.6504H33.1997C32.9955 46.6504 32.7996 46.7315 32.6552 46.8759C32.5108 47.0203 32.4297 47.2162 32.4297 47.4204C32.4297 47.6246 32.5108 47.8205 32.6552 47.9649C32.7996 48.1093 32.9955 48.1904 33.1997 48.1904H45.3897C45.5939 48.1904 45.7898 48.1093 45.9342 47.9649C46.0786 47.8205 46.1597 47.6246 46.1597 47.4204C46.1597 47.2162 46.0786 47.0203 45.9342 46.8759C45.7898 46.7315 45.5939 46.6504 45.3897 46.6504Z" fill="#5C5B59"/>
<path d="M29.1509 46.6504C28.9478 46.6538 28.7541 46.7363 28.6109 46.8804C28.5377 46.95 28.4796 47.0337 28.4401 47.1266C28.4005 47.2195 28.3804 47.3195 28.3809 47.4204C28.3802 47.5228 28.4002 47.6244 28.4397 47.7189C28.4792 47.8134 28.5375 47.8989 28.6109 47.9704C28.7549 48.1121 28.9488 48.1915 29.1509 48.1915C29.3529 48.1915 29.5469 48.1121 29.6909 47.9704C29.7643 47.8989 29.8225 47.8134 29.8621 47.7189C29.9016 47.6244 29.9216 47.5228 29.9209 47.4204C29.9214 47.3195 29.9013 47.2195 29.8617 47.1266C29.8222 47.0337 29.764 46.95 29.6909 46.8804C29.5477 46.7363 29.354 46.6538 29.1509 46.6504Z" fill="#5C5B59"/>
<path d="M45.3897 51.7305H33.1997C32.9955 51.7305 32.7996 51.8116 32.6552 51.956C32.5108 52.1004 32.4297 52.2963 32.4297 52.5005C32.4297 52.7047 32.5108 52.9005 32.6552 53.0449C32.7996 53.1893 32.9955 53.2705 33.1997 53.2705H45.3897C45.5939 53.2705 45.7898 53.1893 45.9342 53.0449C46.0786 52.9005 46.1597 52.7047 46.1597 52.5005C46.1597 52.2963 46.0786 52.1004 45.9342 51.956C45.7898 51.8116 45.5939 51.7305 45.3897 51.7305Z" fill="#5C5B59"/>
<path d="M29.1492 51.7307C28.9657 51.7266 28.7864 51.7866 28.6423 51.9004C28.4982 52.0141 28.3982 52.1745 28.3595 52.354C28.3208 52.5334 28.3459 52.7208 28.4303 52.8838C28.5147 53.0468 28.6533 53.1753 28.8222 53.2473C28.9911 53.3192 29.1798 53.3301 29.3559 53.278C29.5319 53.2259 29.6843 53.1142 29.7869 52.9619C29.8895 52.8097 29.9359 52.6265 29.9181 52.4437C29.9002 52.261 29.8193 52.0902 29.6892 51.9607C29.6197 51.8875 29.5359 51.8294 29.443 51.7898C29.3501 51.7503 29.2502 51.7301 29.1492 51.7307Z" fill="#5C5B59"/>
</svg>
