<svg width="81" height="81" viewBox="0 0 81 81" fill="none" xmlns="http://www.w3.org/2000/svg">
<path d="M40.5 81C62.8675 81 81 62.8675 81 40.5C81 18.1325 62.8675 0 40.5 0C18.1325 0 0 18.1325 0 40.5C0 62.8675 18.1325 81 40.5 81Z" fill="#F6F9FF"/>
<path d="M59.9303 56.46L56.1003 48.8V28.15C56.0872 27.6283 55.8708 27.1323 55.4971 26.768C55.1235 26.4037 54.6222 26.1998 54.1003 26.2H47.0003V24.25C46.9977 23.3889 46.6544 22.5637 46.0455 21.9548C45.4366 21.3459 44.6114 21.0026 43.7503 21H33.3503C33.2397 21.0003 33.131 21.0288 33.0345 21.0828C32.938 21.1368 32.8569 21.2146 32.7988 21.3087C32.7408 21.4028 32.7077 21.5102 32.7027 21.6206C32.6977 21.7311 32.721 21.841 32.7703 21.94L33.9203 24.25L33.4203 25.25C33.3576 25.3714 33.3354 25.5098 33.357 25.6447C33.3786 25.7797 33.4428 25.9042 33.5403 26L33.7303 26.19H26.8503C26.3284 26.1898 25.8271 26.3937 25.4535 26.758C25.0798 27.1223 24.8633 27.6183 24.8503 28.14V48.8L21.0203 56.46C20.9725 56.5491 20.9484 56.6489 20.9503 56.75V58.75C20.9567 58.9208 20.9968 59.0886 21.0681 59.2438C21.1395 59.3991 21.2408 59.5388 21.3661 59.6549C21.4915 59.771 21.6386 59.8612 21.7989 59.9204C21.9592 59.9797 22.1295 60.0067 22.3003 60H58.7003C59.0451 60 59.3757 59.863 59.6195 59.6192C59.8633 59.3754 60.0003 59.0448 60.0003 58.7V56.7C60.0022 56.5989 59.9781 56.4991 59.9303 56.41V56.46ZM46.1003 56.1L45.0003 53.86C44.9475 53.7514 44.8649 53.6599 44.7623 53.5962C44.6597 53.5325 44.5411 53.4992 44.4203 53.5H36.6003C36.4795 53.4992 36.3609 53.5325 36.2583 53.5962C36.1557 53.6599 36.0731 53.7514 36.0203 53.86L34.9003 56.1H22.7003L26.0003 49.6H55.1003L58.3503 56.1H46.1003ZM44.6503 56.1H36.3503L37.0003 54.8H44.0003L44.6503 56.1ZM40.0003 37.77L40.2603 37.25H40.7603L41.0203 37.77L40.5103 38.28L40.0003 37.77ZM41.8103 35.55L41.0003 36H40.0003L39.2003 35.6V35.18C40.0518 35.4093 40.9488 35.4093 41.8003 35.18L41.8103 35.55ZM38.5403 36.67L38.9903 36.89L38.7503 37.37L37.7503 37.71L37.6003 37.1L38.5403 36.67ZM36.3603 37.67L36.6303 38.74C36.6643 38.881 36.7451 39.0062 36.8596 39.0952C36.974 39.1843 37.1153 39.2318 37.2603 39.23H37.4703L39.0003 38.65L38.0003 43.1H33.3503V41.1C33.3431 40.466 33.5222 39.8437 33.8653 39.3105C34.2083 38.7772 34.7003 38.3563 35.2803 38.1L36.3603 37.67ZM40.1203 39.74C40.229 39.833 40.3673 39.884 40.5103 39.884C40.6533 39.884 40.7916 39.833 40.9003 39.74L41.6503 43.13H39.3603L40.1203 39.74ZM43.0003 43.1L42.0003 38.64L43.5603 39.16C43.6296 39.1743 43.701 39.1743 43.7703 39.16C43.9153 39.1618 44.0566 39.1143 44.171 39.0252C44.2855 38.9362 44.3663 38.811 44.4003 38.67L44.6703 37.6L45.7403 38.08C46.3203 38.3363 46.8123 38.7572 47.1553 39.2905C47.4984 39.8237 47.6774 40.446 47.6703 41.08V43.08L43.0003 43.1ZM43.3203 37.71L42.3203 37.37L42.0003 36.89L42.4403 36.67L43.4403 37.1L43.3203 37.71ZM42.2003 33.62C41.4734 33.9644 40.658 34.0762 39.8652 33.9402C39.0724 33.8042 38.3409 33.427 37.7703 32.86C37.1291 32.2228 36.7326 31.3802 36.6503 30.48C36.6403 30.3535 36.6403 30.2265 36.6503 30.1V28.1H38.8203C40.0608 28.1075 41.2719 27.7225 42.2803 27L42.7703 26.63L42.8303 26.84C42.9499 27.1794 43.1589 27.4802 43.4352 27.7108C43.7115 27.9414 44.045 28.0931 44.4003 28.15V30.15C44.4003 30.28 44.4003 30.42 44.4003 30.55C44.3317 31.2163 44.0923 31.8536 43.7051 32.4003C43.3179 32.9469 42.7961 33.3842 42.1903 33.67L42.2003 33.62ZM35.3003 30.1C35.1279 30.1 34.9626 30.0315 34.8407 29.9096C34.7188 29.7877 34.6503 29.6224 34.6503 29.45C34.6503 29.2776 34.7188 29.1123 34.8407 28.9904C34.9626 28.8685 35.1279 28.8 35.3003 28.8V30.1ZM45.7003 28.8C45.8727 28.8 46.038 28.8685 46.1599 28.9904C46.2818 29.1123 46.3503 29.2776 46.3503 29.45C46.3503 29.6224 46.2818 29.7877 46.1599 29.9096C46.038 30.0315 45.8727 30.1 45.7003 30.1V28.8ZM43.7003 22.3C44.2222 22.2998 44.7235 22.5037 45.0971 22.868C45.4708 23.2323 45.6873 23.7283 45.7003 24.25V25.93L44.7803 26.85H44.6903C44.5542 26.8495 44.4216 26.807 44.3106 26.7282C44.1996 26.6495 44.1157 26.5383 44.0703 26.41L43.7203 25.34C43.685 25.2432 43.6278 25.1558 43.5532 25.0847C43.4787 25.0136 43.3887 24.9607 43.2903 24.93C43.2274 24.9196 43.1632 24.9196 43.1003 24.93C42.96 24.9321 42.8238 24.9775 42.7103 25.06L41.5003 25.97C40.712 26.5594 39.7545 26.8786 38.7703 26.88H36.2203L34.7903 25.45L35.2303 24.57C35.2793 24.4812 35.305 24.3814 35.305 24.28C35.305 24.1786 35.2793 24.0788 35.2303 23.99L34.4003 22.3H43.7003ZM26.2003 28.15C26.2003 27.9776 26.2688 27.8123 26.3907 27.6904C26.5126 27.5685 26.6779 27.5 26.8503 27.5H35.0003C34.5152 27.5694 34.074 27.819 33.7645 28.199C33.455 28.579 33.3 29.0616 33.3302 29.5507C33.3605 30.0399 33.5738 30.4997 33.9278 30.8387C34.2817 31.1776 34.7503 31.3709 35.2403 31.38H35.4003C35.5631 32.0533 35.8641 32.6854 36.2842 33.2363C36.7042 33.7872 37.2341 34.2447 37.8403 34.58V35.58L34.6903 36.98C33.8876 37.3372 33.2055 37.9192 32.7264 38.6556C32.2473 39.392 31.9916 40.2514 31.9903 41.13V43.8C31.9903 43.8854 32.0071 43.9699 32.0398 44.0487C32.0724 44.1276 32.1203 44.1993 32.1807 44.2596C32.241 44.32 32.3127 44.3679 32.3916 44.4005C32.4704 44.4332 32.5549 44.45 32.6403 44.45H48.3003C48.4727 44.45 48.638 44.3815 48.7599 44.2596C48.8818 44.1377 48.9503 43.9724 48.9503 43.8V41.08C48.949 40.2014 48.6933 39.342 48.2142 38.6056C47.7351 37.8692 47.053 37.2872 46.2503 36.93L43.1003 35.53V34.59C43.6992 34.243 44.2232 33.7806 44.6421 33.2296C45.0609 32.6786 45.3662 32.0499 45.5403 31.38H45.7003C46.1903 31.3709 46.6589 31.1776 47.0128 30.8387C47.3668 30.4997 47.5801 30.0399 47.6104 29.5507C47.6406 29.0616 47.4856 28.579 47.1761 28.199C46.8666 27.819 46.4254 27.5694 45.9403 27.5H54.1203C54.2927 27.5 54.458 27.5685 54.5799 27.6904C54.7018 27.8123 54.7703 27.9776 54.7703 28.15V48.3H26.2003V28.15ZM22.3003 58.7V57.4H58.7003V58.7H22.3003Z" fill="#5C5B59"/>
<path d="M27.5002 53.5H26.2002V54.8H27.5002V53.5Z" fill="#5C5B59"/>
<path d="M30.0998 53.5H28.7998V54.8H30.0998V53.5Z" fill="#5C5B59"/>
<path d="M52.2004 53.5H50.9004V54.8H52.2004V53.5Z" fill="#5C5B59"/>
<path d="M54.8 53.5H53.5V54.8H54.8V53.5Z" fill="#5C5B59"/>
<path d="M30.7502 50.9004H29.4502V52.2004H30.7502V50.9004Z" fill="#5C5B59"/>
<path d="M28.1496 50.9004H26.8496V52.2004H28.1496V50.9004Z" fill="#5C5B59"/>
<path d="M33.3498 50.9004H32.0498V52.2004H33.3498V50.9004Z" fill="#5C5B59"/>
<path d="M35.9504 50.9004H34.6504V52.2004H35.9504V50.9004Z" fill="#5C5B59"/>
<path d="M38.55 50.9004H37.25V52.2004H38.55V50.9004Z" fill="#5C5B59"/>
<path d="M41.1496 50.9004H39.8496V52.2004H41.1496V50.9004Z" fill="#5C5B59"/>
<path d="M43.7502 50.9004H42.4502V52.2004H43.7502V50.9004Z" fill="#5C5B59"/>
<path d="M46.3498 50.9004H45.0498V52.2004H46.3498V50.9004Z" fill="#5C5B59"/>
<path d="M48.9504 50.9004H47.6504V52.2004H48.9504V50.9004Z" fill="#5C5B59"/>
<path d="M51.55 50.9004H50.25V52.2004H51.55V50.9004Z" fill="#5C5B59"/>
<path d="M54.1496 50.9004H52.8496V52.2004H54.1496V50.9004Z" fill="#5C5B59"/>
<path d="M34.0004 53.5H31.4004V54.8H34.0004V53.5Z" fill="#5C5B59"/>
<path d="M49.6 53.5H47V54.8H49.6V53.5Z" fill="#5C5B59"/>
<path d="M39.2004 28.8008H37.9004V30.1008H39.2004V28.8008Z" fill="#5C5B59"/>
<path d="M43.0998 28.8008H41.7998V30.1008H43.0998V28.8008Z" fill="#5C5B59"/>
<path d="M51.5497 32.0508C51.1685 32.0607 50.7985 32.1822 50.4856 32.4002C50.1727 32.6182 49.9306 32.9232 49.7893 33.2774C49.6479 33.6316 49.6135 34.0194 49.6904 34.393C49.7672 34.7665 49.9519 35.1093 50.2215 35.379C50.4912 35.6486 50.834 35.8333 51.2075 35.9101C51.5811 35.987 51.969 35.9526 52.3232 35.8112C52.6774 35.6699 52.9823 35.4278 53.2003 35.1149C53.4183 34.802 53.5398 34.432 53.5497 34.0508C53.5497 33.5203 53.339 33.0116 52.9639 32.6366C52.5889 32.2615 52.0802 32.0508 51.5497 32.0508ZM51.5497 34.6508C51.4212 34.6508 51.2955 34.6127 51.1886 34.5412C51.0817 34.4698 50.9984 34.3683 50.9492 34.2495C50.9 34.1308 50.8871 34.0001 50.9122 33.874C50.9373 33.7479 50.9992 33.6321 51.0901 33.5412C51.181 33.4503 51.2968 33.3884 51.4229 33.3633C51.549 33.3382 51.6797 33.3511 51.7985 33.4003C51.9172 33.4495 52.0188 33.5328 52.0902 33.6397C52.1616 33.7466 52.1997 33.8722 52.1997 34.0008C52.1972 34.1724 52.1278 34.3362 52.0065 34.4575C51.8852 34.5789 51.7213 34.6482 51.5497 34.6508Z" fill="#5C5B59"/>
<path d="M29.4503 34.6504C29.0668 34.6505 28.6919 34.7637 28.3724 34.9759C28.0528 35.188 27.803 35.4897 27.654 35.8431C27.5051 36.1965 27.4637 36.586 27.535 36.9628C27.6062 37.3396 27.787 37.6871 28.0548 37.9617C28.3225 38.2363 28.6653 38.4258 29.0402 38.5066C29.4151 38.5874 29.8055 38.5559 30.1626 38.4159C30.5196 38.276 30.8275 38.0338 31.0477 37.7198C31.2678 37.4058 31.3905 37.0338 31.4003 36.6504C31.4005 36.1285 31.1967 35.6272 30.8323 35.2536C30.468 34.8799 29.9721 34.6634 29.4503 34.6504ZM29.4503 37.2504C29.3218 37.2504 29.1961 37.2123 29.0892 37.1408C28.9823 37.0694 28.899 36.9679 28.8498 36.8491C28.8006 36.7304 28.7877 36.5997 28.8128 36.4736C28.8379 36.3475 28.8998 36.2317 28.9907 36.1408C29.0816 36.0499 29.1974 35.988 29.3235 35.9629C29.4496 35.9378 29.5803 35.9507 29.6991 35.9999C29.8179 36.0491 29.9194 36.1324 29.9908 36.2393C30.0622 36.3462 30.1003 36.4718 30.1003 36.6004C30.0978 36.772 30.0284 36.9358 29.9071 37.0572C29.7858 37.1785 29.6219 37.2478 29.4503 37.2504Z" fill="#5C5B59"/>
<path d="M52.2004 37.25H50.9004V41.15H52.2004V37.25Z" fill="#5C5B59"/>
<path d="M52.2004 43.0996H50.9004V44.3996H52.2004V43.0996Z" fill="#5C5B59"/>
<path d="M30.0998 39.8496H28.7998V42.4496H30.0998V39.8496Z" fill="#5C5B59"/>
<path d="M30.0998 43.75H28.7998V45.05H30.0998V43.75Z" fill="#5C5B59"/>
</svg>
