<svg width="81" height="81" viewBox="0 0 81 81" fill="none" xmlns="http://www.w3.org/2000/svg">
<path d="M40.5 81C62.8675 81 81 62.8675 81 40.5C81 18.1325 62.8675 0 40.5 0C18.1325 0 0 18.1325 0 40.5C0 62.8675 18.1325 81 40.5 81Z" fill="#F6F9FF"/>
<path d="M54.5295 56.3606H30.1295C29.9677 56.3606 29.8126 56.2963 29.6982 56.1819C29.5838 56.0675 29.5195 55.9123 29.5195 55.7506V21.5906C29.5195 21.4288 29.5838 21.2736 29.6982 21.1592C29.8126 21.0448 29.9677 20.9806 30.1295 20.9806H50.8695C50.9498 20.9792 51.0294 20.9945 51.1034 21.0255C51.1774 21.0564 51.2442 21.1024 51.2995 21.1606L54.9995 24.8106C55.0579 24.8678 55.104 24.9363 55.135 25.012C55.1659 25.0876 55.1811 25.1688 55.1795 25.2506V55.7506C55.1811 55.8323 55.1659 55.9135 55.135 55.9891C55.104 56.0648 55.0579 56.1333 54.9995 56.1906C54.8841 56.3015 54.7296 56.3625 54.5695 56.3606H54.5295ZM30.7395 55.1406H53.9195V25.5006L50.6195 22.2006H30.7395V55.1406Z" fill="#5C5B59"/>
<path d="M52.7004 58.1905H28.3004C28.1386 58.1905 27.9835 58.1263 27.8691 58.0119C27.7547 57.8975 27.6904 57.7423 27.6904 57.5806V23.4205C27.6904 23.2588 27.7547 23.1036 27.8691 22.9892C27.9835 22.8748 28.1386 22.8105 28.3004 22.8105H30.1304C30.2922 22.8105 30.4474 22.8748 30.5618 22.9892C30.6762 23.1036 30.7404 23.2588 30.7404 23.4205C30.7404 23.5823 30.6762 23.7375 30.5618 23.8519C30.4474 23.9663 30.2922 24.0305 30.1304 24.0305H28.9104V57.0005H52.0904V55.7505C52.0904 55.5888 52.1547 55.4336 52.2691 55.3192C52.3835 55.2048 52.5386 55.1405 52.7004 55.1405C52.8622 55.1405 53.0174 55.2048 53.1318 55.3192C53.2462 55.4336 53.3104 55.5888 53.3104 55.7505V57.5806C53.3124 57.7406 53.2513 57.8951 53.1404 58.0105C53.0832 58.0689 53.0147 58.115 52.939 58.146C52.8634 58.1769 52.7822 58.1921 52.7004 58.1905V58.1905Z" fill="#5C5B59"/>
<path d="M50.8703 60.0006H26.4704C26.3086 60.0006 26.1534 59.9364 26.039 59.822C25.9246 59.7076 25.8604 59.5524 25.8604 59.3906V25.2506C25.8604 25.0888 25.9246 24.9337 26.039 24.8193C26.1534 24.7049 26.3086 24.6406 26.4704 24.6406H28.3004C28.4621 24.6406 28.6173 24.7049 28.7317 24.8193C28.8461 24.9337 28.9104 25.0888 28.9104 25.2506C28.9078 25.4116 28.8427 25.5653 28.7288 25.6791C28.615 25.793 28.4613 25.8581 28.3004 25.8606H27.0804V58.8006H50.2603V57.5806C50.2603 57.4188 50.3246 57.2637 50.439 57.1493C50.5534 57.0349 50.7086 56.9706 50.8703 56.9706C51.0321 56.9706 51.1873 57.0349 51.3017 57.1493C51.4161 57.2637 51.4804 57.4188 51.4804 57.5806V59.4106C51.4804 59.5724 51.4161 59.7276 51.3017 59.842C51.1873 59.9564 51.0321 60.0206 50.8703 60.0206V60.0006Z" fill="#5C5B59"/>
<path d="M54.5298 25.8606H50.8698C50.708 25.8606 50.5528 25.7964 50.4384 25.682C50.324 25.5676 50.2598 25.4124 50.2598 25.2506C50.2598 25.0888 50.324 24.9337 50.4384 24.8193C50.5528 24.7049 50.708 24.6406 50.8698 24.6406H54.5298C54.6915 24.6406 54.8467 24.7049 54.9611 24.8193C55.0755 24.9337 55.1398 25.0888 55.1398 25.2506C55.1398 25.4124 55.0755 25.5676 54.9611 25.682C54.8467 25.7964 54.6915 25.8606 54.5298 25.8606Z" fill="#5C5B59"/>
<path d="M50.8698 25.8605C50.708 25.8605 50.5528 25.7962 50.4384 25.6818C50.324 25.5674 50.2598 25.4123 50.2598 25.2505V21.5905C50.2598 21.4287 50.324 21.2735 50.4384 21.1591C50.5528 21.0447 50.708 20.9805 50.8698 20.9805C51.0315 20.9805 51.1867 21.0447 51.3011 21.1591C51.4155 21.2735 51.4798 21.4287 51.4798 21.5905V25.2505C51.4798 25.4123 51.4155 25.5674 51.3011 25.6818C51.1867 25.7962 51.0315 25.8605 50.8698 25.8605Z" fill="#5C5B59"/>
<path d="M50.26 37.4505H34.4C34.2383 37.4505 34.0831 37.3862 33.9687 37.2718C33.8543 37.1574 33.79 37.0023 33.79 36.8405C33.79 36.6787 33.8543 36.5235 33.9687 36.4091C34.0831 36.2947 34.2383 36.2305 34.4 36.2305H50.26C50.4218 36.2305 50.577 36.2947 50.6914 36.4091C50.8058 36.5235 50.87 36.6787 50.87 36.8405C50.87 37.0023 50.8058 37.1574 50.6914 37.2718C50.577 37.3862 50.4218 37.4505 50.26 37.4505Z" fill="#5C5B59"/>
<path d="M50.26 40.4993H34.4C34.3199 40.4993 34.2406 40.4835 34.1666 40.4529C34.0926 40.4222 34.0253 40.3773 33.9687 40.3206C33.9121 40.264 33.8671 40.1967 33.8365 40.1227C33.8058 40.0487 33.79 39.9694 33.79 39.8893C33.79 39.8092 33.8058 39.7299 33.8365 39.6559C33.8671 39.5819 33.9121 39.5146 33.9687 39.458C34.0253 39.4013 34.0926 39.3564 34.1666 39.3257C34.2406 39.2951 34.3199 39.2793 34.4 39.2793H50.26C50.3401 39.2793 50.4195 39.2951 50.4935 39.3257C50.5675 39.3564 50.6347 39.4013 50.6914 39.458C50.748 39.5146 50.7929 39.5819 50.8236 39.6559C50.8543 39.7299 50.87 39.8092 50.87 39.8893C50.87 39.9694 50.8543 40.0487 50.8236 40.1227C50.7929 40.1967 50.748 40.264 50.6914 40.3206C50.6347 40.3773 50.5675 40.4222 50.4935 40.4529C50.4195 40.4835 50.3401 40.4993 50.26 40.4993V40.4993Z" fill="#5C5B59"/>
<path d="M50.26 43.5501H34.4C34.2383 43.5501 34.0831 43.4858 33.9687 43.3714C33.8543 43.257 33.79 43.1019 33.79 42.9401C33.79 42.7783 33.8543 42.6231 33.9687 42.5087C34.0831 42.3943 34.2383 42.3301 34.4 42.3301H50.26C50.4218 42.3301 50.577 42.3943 50.6914 42.5087C50.8058 42.6231 50.87 42.7783 50.87 42.9401C50.87 43.1019 50.8058 43.257 50.6914 43.3714C50.577 43.4858 50.4218 43.5501 50.26 43.5501Z" fill="#5C5B59"/>
<path d="M42.33 46.6009H34.4C34.2383 46.6009 34.0831 46.5366 33.9687 46.4222C33.8543 46.3078 33.79 46.1526 33.79 45.9909C33.79 45.8291 33.8543 45.6739 33.9687 45.5595C34.0831 45.4451 34.2383 45.3809 34.4 45.3809H42.33C42.4918 45.3809 42.647 45.4451 42.7614 45.5595C42.8758 45.6739 42.94 45.8291 42.94 45.9909C42.94 46.1526 42.8758 46.3078 42.7614 46.4222C42.647 46.5366 42.4918 46.6009 42.33 46.6009Z" fill="#5C5B59"/>
<path d="M50.2596 52.0891H45.9996C45.8379 52.0891 45.6827 52.0249 45.5683 51.9105C45.4539 51.7961 45.3896 51.6409 45.3896 51.4791C45.3896 51.3174 45.4539 51.1622 45.5683 51.0478C45.6827 50.9334 45.8379 50.8691 45.9996 50.8691H50.2696C50.4314 50.8691 50.5866 50.9334 50.701 51.0478C50.8154 51.1622 50.8797 51.3174 50.8797 51.4791C50.8797 51.6409 50.8154 51.7961 50.701 51.9105C50.5866 52.0249 50.4314 52.0891 50.2696 52.0891H50.2596Z" fill="#5C5B59"/>
<path d="M47.2096 53.3104C47.0478 53.3104 46.8927 53.2461 46.7783 53.1317C46.6639 53.0173 46.5996 52.8622 46.5996 52.7004V50.2604C46.5996 50.0986 46.6639 49.9435 46.7783 49.8291C46.8927 49.7147 47.0478 49.6504 47.2096 49.6504C47.3714 49.6504 47.5265 49.7147 47.6409 49.8291C47.7553 49.9435 47.8196 50.0986 47.8196 50.2604V52.7004C47.8196 52.8622 47.7553 53.0173 47.6409 53.1317C47.5265 53.2461 47.3714 53.3104 47.2096 53.3104V53.3104Z" fill="#5C5B59"/>
<path d="M47.2104 53.3092C47.0927 53.3133 46.9764 53.2833 46.8754 53.2227C46.7744 53.1622 46.6931 53.0737 46.6413 52.968C46.5895 52.8623 46.5694 52.7438 46.5834 52.6269C46.5975 52.51 46.645 52.3997 46.7204 52.3092L48.5504 49.8692C48.599 49.8035 48.66 49.7481 48.73 49.706C48.8 49.664 48.8777 49.6361 48.9584 49.624C49.0392 49.6119 49.1216 49.6159 49.2009 49.6357C49.2801 49.6554 49.3547 49.6906 49.4204 49.7392C49.486 49.7878 49.5415 49.8488 49.5835 49.9189C49.6256 49.9889 49.6535 50.0665 49.6656 50.1473C49.6776 50.2281 49.6737 50.3104 49.6539 50.3897C49.6341 50.469 49.599 50.5435 49.5504 50.6092L47.7004 53.0692C47.6435 53.1451 47.5694 53.2064 47.4842 53.2481C47.3991 53.2898 47.3052 53.3108 47.2104 53.3092V53.3092Z" fill="#5C5B59"/>
<path d="M48.9996 53.3104C48.8379 53.3104 48.6827 53.2461 48.5683 53.1317C48.4539 53.0173 48.3896 52.8622 48.3896 52.7004V50.2604C48.3896 50.0986 48.4539 49.9435 48.5683 49.8291C48.6827 49.7147 48.8379 49.6504 48.9996 49.6504C49.1614 49.6504 49.3166 49.7147 49.431 49.8291C49.5454 49.9435 49.6096 50.0986 49.6096 50.2604V52.7004C49.6096 52.8622 49.5454 53.0173 49.431 53.1317C49.3166 53.2461 49.1614 53.3104 48.9996 53.3104Z" fill="#5C5B59"/>
<path d="M39.28 33.1907H34.4C34.2383 33.1907 34.0831 33.1264 33.9687 33.012C33.8543 32.8976 33.79 32.7425 33.79 32.5807C33.79 32.4189 33.8543 32.2638 33.9687 32.1494C34.0831 32.035 34.2383 31.9707 34.4 31.9707H39.28C39.4418 31.9707 39.597 32.035 39.7114 32.1494C39.8258 32.2638 39.89 32.4189 39.89 32.5807C39.89 32.7425 39.8258 32.8976 39.7114 33.012C39.597 33.1264 39.4418 33.1907 39.28 33.1907V33.1907Z" fill="#5C5B59"/>
<path d="M36.8405 33.1905C36.6787 33.1905 36.5235 33.1262 36.4091 33.0118C36.2947 32.8974 36.2305 32.7423 36.2305 32.5805V27.0905C36.2305 26.9287 36.2947 26.7735 36.4091 26.6591C36.5235 26.5447 36.6787 26.4805 36.8405 26.4805C37.0023 26.4805 37.1574 26.5447 37.2718 26.6591C37.3862 26.7735 37.4505 26.9287 37.4505 27.0905V32.5805C37.4505 32.7423 37.3862 32.8974 37.2718 33.0118C37.1574 33.1262 37.0023 33.1905 36.8405 33.1905Z" fill="#5C5B59"/>
<path d="M39.28 28.3098H34.4C34.2383 28.3098 34.0831 28.2456 33.9687 28.1312C33.8543 28.0168 33.79 27.8616 33.79 27.6998C33.79 27.5381 33.8543 27.3829 33.9687 27.2685C34.0831 27.1541 34.2383 27.0898 34.4 27.0898H39.28C39.4418 27.0898 39.597 27.1541 39.7114 27.2685C39.8258 27.3829 39.89 27.5381 39.89 27.6998C39.89 27.8616 39.8258 28.0168 39.7114 28.1312C39.597 28.2456 39.4418 28.3098 39.28 28.3098V28.3098Z" fill="#5C5B59"/>
<path d="M39.8896 30.1399H38.6696C38.5078 30.1399 38.3526 30.0757 38.2382 29.9613C38.1238 29.8469 38.0596 29.6917 38.0596 29.5299C38.0596 29.3681 38.1238 29.213 38.2382 29.0986C38.3526 28.9842 38.5078 28.9199 38.6696 28.9199H39.8896C40.0514 28.9199 40.2065 28.9842 40.3209 29.0986C40.4353 29.213 40.4996 29.3681 40.4996 29.5299C40.4996 29.6917 40.4353 29.8469 40.3209 29.9613C40.2065 30.0757 40.0514 30.1399 39.8896 30.1399V30.1399Z" fill="#5C5B59"/>
<path d="M34.9997 30.1399H33.7897C33.6279 30.1399 33.4727 30.0757 33.3584 29.9613C33.244 29.8469 33.1797 29.6917 33.1797 29.5299C33.1797 29.3681 33.244 29.213 33.3584 29.0986C33.4727 28.9842 33.6279 28.9199 33.7897 28.9199H34.9997C35.1615 28.9199 35.3166 28.9842 35.431 29.0986C35.5454 29.213 35.6097 29.3681 35.6097 29.5299C35.6097 29.6917 35.5454 29.8469 35.431 29.9613C35.3166 30.0757 35.1615 30.1399 34.9997 30.1399V30.1399Z" fill="#5C5B59"/>
</svg>
