<svg width="82" height="40" viewBox="0 0 82 40" fill="none" xmlns="http://www.w3.org/2000/svg">
<path fill-rule="evenodd" clip-rule="evenodd" d="M12.2001 23.4305C13.3841 23.4245 14.5241 22.9805 15.4001 22.1835C17.3181 23.9265 20.2731 23.8325 22.0761 21.9715C23.8791 20.1095 23.8791 17.1525 22.0761 15.2915C20.2731 13.4305 17.3181 13.3365 15.4001 15.0795C13.8101 13.6345 11.4551 13.4215 9.63308 14.5575C7.81008 15.6935 6.96308 17.9025 7.56108 19.9655C8.15808 22.0285 10.0521 23.4445 12.2001 23.4315V23.4305ZM18.6001 17.0305C19.4841 17.0305 20.2001 17.7475 20.2001 18.6305C20.2001 19.5145 19.4841 20.2305 18.6001 20.2305C17.7161 20.2305 17.0001 19.5145 17.0001 18.6305C17.0001 17.7475 17.7161 17.0305 18.6001 17.0305ZM12.2001 17.0305C13.0841 17.0305 13.8001 17.7475 13.8001 18.6305C13.8001 19.5145 13.0841 20.2305 12.2001 20.2305C11.3161 20.2305 10.6001 19.5145 10.6001 18.6305C10.6001 17.7475 11.3161 17.0305 12.2001 17.0305Z" fill="#9D9D9B" stroke="white" stroke-width="0.5"/>
<path fill-rule="evenodd" clip-rule="evenodd" d="M79.704 7.59019L46.104 1.03019C45.641 0.939192 45.161 1.05619 44.792 1.35019L37.24 7.43019H5.8C3.149 7.43019 1 9.58019 1 12.2302V34.6302C1 37.2822 3.149 39.4302 5.8 39.4302H44.2C45.38 39.4332 46.519 39.0002 47.4 38.2152C49.81 39.7362 52.954 39.3852 54.968 37.3672L58.168 34.1672C59.733 32.6222 60.345 30.3532 59.768 28.2312H63.56C64.125 32.0712 67.525 34.8462 71.4 34.6312H79.4C80.284 34.6312 81 33.9142 81 33.0312V9.17519C81.006 8.40319 80.461 7.73719 79.704 7.59119V7.59019ZM5.8 10.6302H44.2C45.084 10.6302 45.8 11.3472 45.8 12.2302V15.6552C43.013 16.4122 41.078 18.9432 41.078 21.8312C41.078 24.7192 43.013 27.2492 45.8 28.0072C45.795 28.0812 45.795 28.1572 45.8 28.2312V29.8312H4.2V12.2312C4.2 11.3472 4.916 10.6312 5.8 10.6312V10.6302ZM44.2 36.2302H5.8C4.916 36.2302 4.2 35.5142 4.2 34.6302V33.0302H45.8V34.6302C45.8 35.5142 45.084 36.2302 44.2 36.2302ZM49 35.4152C49.021 35.1542 49.021 34.8922 49 34.6312V30.4872L53.144 34.6312L52.68 35.0952C51.684 36.0592 50.148 36.1932 49 35.4152ZM55.944 31.8952L55.48 32.3592L51.256 28.2312H56.248C57.001 29.3902 56.841 30.9172 55.864 31.8952H55.944ZM77.8 31.4302H71.4C70.107 31.5002 68.845 31.0172 67.929 30.1002C67.013 29.1852 66.529 27.9232 66.6 26.6302C66.6 25.7462 65.884 25.0302 65 25.0302H47.4C45.633 25.0302 44.2 23.5972 44.2 21.8302C44.2 20.0622 45.633 18.6302 47.4 18.6302H65C65.884 18.6302 66.6 17.9132 66.6 17.0302C66.6 16.1462 65.884 15.4302 65 15.4302H49V12.2302C49 9.57919 46.851 7.43019 44.2 7.43019H42.36L46.216 4.34219L77.8 10.4872V31.4302Z" fill="#9D9D9B" stroke="white" stroke-width="0.5"/>
</svg>
