<svg width="42" height="43" viewBox="0 0 42 43" fill="none" xmlns="http://www.w3.org/2000/svg">
<path d="M41.3541 41.3673C41.0299 41.3717 40.7508 41.1389 40.6975 40.8191C39.5615 33.944 37.7197 23.3591 37.3094 22.364L37.1813 22.0553C36.6691 20.8012 36.1963 19.6158 35.1884 19.2021C33.8751 18.6604 29.1177 17.0581 29.0684 17.0416C28.7381 16.917 28.5657 16.5535 28.6777 16.2188C28.7899 15.884 29.1467 15.6978 29.4853 15.7972C29.6823 15.8629 34.3412 17.4388 35.6906 17.9906C37.1909 18.6111 37.8311 20.1772 38.3961 21.5593L38.521 21.8648C39.1219 23.3159 41.6993 38.8422 41.9912 40.6058C42.0196 40.7776 41.9786 40.9541 41.8769 41.0956C41.7752 41.2372 41.6216 41.3325 41.4495 41.361L41.3541 41.3673Z" fill="#A6CB91"/>
<path d="M31.8886 42.0239C31.786 42.0233 31.6846 41.9984 31.5931 41.9518C30.5668 41.3975 29.6642 40.6402 28.9404 39.7257C27.8733 38.3203 27.4565 36.9053 27.161 35.2145H27.1607C27.0619 34.4338 27.0443 33.645 27.1083 32.8605C27.1543 31.8296 27.2003 30.7657 26.9013 30.1419C26.6583 29.6394 25.6701 27.8239 24.5274 25.7259C23.9921 24.7409 23.4243 23.7003 22.8858 22.6954C21.2869 19.7405 20.4759 18.1842 20.2592 17.6524C19.7471 16.4112 19.9605 15.5084 20.2296 14.9734H20.2299C20.6174 14.2645 21.2483 13.7202 22.0061 13.4402C22.9386 13.0562 24.37 13.0034 25.9031 14.9373L33.8257 24.9115L32.7979 25.7291L24.8694 15.7384C24.0454 14.701 23.2507 14.3298 22.5023 14.6385C22.0388 14.8039 21.6477 15.1254 21.3956 15.5478C21.1825 16.0617 21.2077 16.6436 21.4645 17.137C21.724 17.7673 23.0569 20.2461 24.0354 22.0618C24.5772 23.0632 25.1453 24.1074 25.677 25.0889C26.8294 27.2033 27.8211 29.0287 28.0802 29.5605C28.5267 30.4798 28.471 31.7142 28.4085 32.9094V32.9097C28.3505 33.5986 28.3616 34.2913 28.4414 34.9781C28.7105 36.5244 29.0619 37.7228 29.9713 38.9179H29.9716C30.574 39.6798 31.3218 40.3148 32.1713 40.7862C32.441 40.9243 32.5811 41.2294 32.5102 41.524C32.4393 41.8189 32.1757 42.0268 31.8723 42.0271L31.8886 42.0239Z" fill="#A6CB91"/>
<path d="M27.4498 32.1744H27.4005C27.2003 32.1744 24.1173 31.5178 23.5163 30.4442C23.3915 30.2176 23.142 29.8597 22.8793 29.4857L22.8796 29.4854C22.3737 28.8173 21.9337 28.1015 21.5663 27.3481C21.4995 27.1869 21.4998 27.006 21.5666 26.8451C21.6335 26.6841 21.7613 26.556 21.9225 26.4895C22.2579 26.3508 22.6422 26.5103 22.7811 26.8457C23.1141 27.5111 23.5066 28.1451 23.9531 28.7402C24.2486 29.1638 24.5048 29.5314 24.6622 29.8173C24.9381 30.1849 26.9933 30.8219 27.499 30.8612C27.8595 30.8925 28.1269 31.2097 28.0964 31.5703C28.0694 31.9086 27.7889 32.1703 27.4497 32.1745L27.4498 32.1744Z" fill="#A6CB91"/>
<path d="M26.2512 35.2663C25.4272 35.2663 24.5047 35.2171 24.025 35.0169C23.0008 34.5901 20.1608 31.1262 19.7372 30.496C19.4121 30.0246 19.2705 29.4509 19.3388 28.8825C19.4071 28.3142 19.6806 27.7906 20.1083 27.4098C20.4422 27.0853 20.8617 26.8628 21.3175 26.7681C21.7734 26.6734 22.2468 26.7103 22.6824 26.8745C22.8519 26.9349 22.9894 27.0621 23.0627 27.2266C23.1356 27.3913 23.1383 27.5786 23.0691 27.7448C23.0002 27.9111 22.866 28.0418 22.698 28.1063C22.5297 28.1708 22.3424 28.1635 22.18 28.0861C21.9789 28.0189 21.7634 28.009 21.5571 28.057C21.3507 28.1051 21.1616 28.2095 21.0112 28.3587C20.5882 28.7049 20.5076 29.3205 20.8274 29.7638C21.3692 30.5746 23.9465 33.5394 24.5275 33.8021C24.9215 33.9662 26.4778 33.9827 27.6926 33.9038C28.0552 33.8804 28.3683 34.1553 28.3918 34.5179C28.4155 34.8806 28.1406 35.1936 27.7779 35.2171C27.5645 35.2303 26.9539 35.2663 26.2512 35.2663H26.2512Z" fill="#A6CB91"/>
<path d="M21.8221 27.7976C21.3701 27.7976 20.9265 27.675 20.5385 27.4432L1.23313 15.9523C0.659158 15.6093 0.244339 15.0534 0.0787142 14.4057C-0.0866177 13.7581 0.0107048 13.071 0.349875 12.4949L7.04765 1.23366C7.3918 0.658503 7.94969 0.242835 8.59958 0.077811C9.24949 -0.0869355 9.93809 0.0121466 10.5147 0.353955L29.8201 11.8449C30.3926 12.1881 30.8063 12.7437 30.971 13.3906C31.136 14.0376 31.0384 14.7233 30.7001 15.2987L28.6185 18.8054C28.542 18.9745 28.3975 19.1035 28.2204 19.1601C28.0434 19.217 27.8508 19.1958 27.6901 19.1026C27.5295 19.0091 27.416 18.852 27.3776 18.6702C27.3392 18.4885 27.38 18.2988 27.489 18.1487L29.5739 14.6421C29.7377 14.3651 29.7849 14.0344 29.7055 13.7225C29.6263 13.4106 29.4267 13.1427 29.1506 12.9776L9.83544 1.48295C9.56047 1.3273 9.23596 1.28391 8.92995 1.36218C8.62391 1.44045 8.36007 1.63451 8.19386 1.90332L1.47965 13.1683C1.31607 13.4457 1.26858 13.776 1.34803 14.0879C1.42747 14.3999 1.62711 14.6678 1.90324 14.8331L21.2086 26.324C21.4859 26.4867 21.8163 26.5333 22.1279 26.4542C22.4395 26.375 22.7075 26.176 22.8731 25.9004L23.858 24.2588C23.9346 24.0894 24.0794 23.9604 24.2561 23.9038C24.4332 23.8472 24.6258 23.8681 24.7864 23.9616C24.9471 24.0548 25.0608 24.2119 25.0989 24.3937C25.1373 24.5757 25.0969 24.7651 24.9875 24.9155L24.0026 26.5571C23.6608 27.1337 23.1029 27.5497 22.453 27.7126C22.2472 27.7671 22.0353 27.7959 21.8225 27.7979L21.8221 27.7976Z" fill="#A6CB91"/>
<path d="M10.3769 12.3299C10.1456 12.3275 9.91904 12.2642 9.72029 12.1461L7.31037 10.7114C7.01136 10.5332 6.7956 10.2436 6.71001 9.90619C6.62441 9.56882 6.6763 9.21144 6.85394 8.91214L7.93745 7.08997C8.11568 6.79096 8.40531 6.57491 8.74268 6.48961C9.08009 6.40401 9.43743 6.4556 9.73673 6.63355L12.1335 8.06496C12.4325 8.24319 12.6486 8.53282 12.7339 8.87019C12.8195 9.2076 12.7679 9.56494 12.5899 9.86424L11.5064 11.6864C11.3285 11.9854 11.0392 12.2015 10.702 12.2874C10.5959 12.3149 10.4866 12.3293 10.3769 12.3299ZM10.3769 11.0166L11.4768 9.19117L9.06688 7.75654L7.98337 9.57871L10.3933 11.0133L10.3769 11.0166Z" fill="#A6CB91"/>
<path d="M12.9181 18.4507C12.8023 18.4495 12.6891 18.4178 12.5898 18.3586L4.71003 13.67V13.6703C4.43769 13.4722 4.35913 13.1002 4.52857 12.809C4.69771 12.5179 5.05974 12.4021 5.36667 12.5408L13.2464 17.2294C13.4997 17.3795 13.6219 17.68 13.5454 17.9646C13.4689 18.249 13.2124 18.4477 12.9181 18.4506V18.4507Z" fill="#A6CB91"/>
<path d="M16.8219 20.7709C16.7061 20.7697 16.593 20.738 16.4936 20.6791L14.1953 19.3166C14.0259 19.2401 13.8969 19.0953 13.8403 18.9185C13.7838 18.7414 13.8046 18.5488 13.8981 18.3882C13.9913 18.2276 14.1484 18.1138 14.3302 18.0757C14.5119 18.0373 14.7016 18.0777 14.852 18.1871L17.1502 19.5496C17.4035 19.7 17.5258 20.0005 17.4492 20.2848C17.3727 20.5692 17.1162 20.7679 16.8219 20.7709H16.8219Z" fill="#A6CB91"/>
</svg>
