<svg width="52" height="52" viewBox="0 0 52 52" fill="none" xmlns="http://www.w3.org/2000/svg">
<path fill-rule="evenodd" clip-rule="evenodd" d="M25.946 1C23.863 1 21.788 1.258 19.769 1.772C18.984 1.971 18.364 2.575 18.145 3.355C17.925 4.135 18.139 4.973 18.705 5.553C19.272 6.133 20.105 6.366 20.889 6.165C29.782 3.9 39.092 7.858 43.63 15.833C48.17 23.809 46.817 33.833 40.329 40.323C33.839 46.811 23.814 48.162 15.839 43.623C7.86399 39.083 3.90699 29.773 6.17299 20.881C6.37399 20.095 6.14099 19.262 5.56099 18.696C4.98099 18.129 4.14199 17.916 3.36199 18.136C2.58199 18.356 1.97799 18.976 1.77899 19.762C-0.861007 30.088 3.35099 40.951 12.264 46.796C21.176 52.642 32.818 52.178 41.237 45.642C49.657 39.106 52.991 27.942 49.537 17.859C46.085 7.775 36.605 1 25.947 1H25.946Z" fill="#9D9D9B" stroke="white" stroke-width="1.35"/>
<path fill-rule="evenodd" clip-rule="evenodd" d="M6.0307 14.8639C6.5247 15.2079 7.1337 15.3409 7.7257 15.2339C8.3177 15.1289 8.8427 14.7919 9.1857 14.2979C10.5757 12.2989 12.3107 10.5639 14.3097 9.17594C15.3377 8.45994 15.5907 7.04794 14.8757 6.01994C14.1607 4.99194 12.7487 4.73794 11.7207 5.45294C9.2797 7.14894 7.1607 9.26794 5.4647 11.7089C5.1207 12.2019 4.9877 12.8119 5.0947 13.4039C5.2007 13.9959 5.5367 14.5209 6.0307 14.8639Z" fill="#9D9D9B" stroke="white" stroke-width="1.35"/>
<path fill-rule="evenodd" clip-rule="evenodd" d="M26.0639 11.7168C24.8119 11.7168 23.7969 12.7318 23.7969 13.9838V25.9098C23.7969 26.0598 23.8119 26.2078 23.8419 26.3538C23.8549 26.4208 23.8799 26.4838 23.8989 26.5478C23.9329 26.7078 23.9959 26.8578 24.0849 26.9938C24.1159 27.0518 24.1419 27.1118 24.1789 27.1668C24.2619 27.2918 24.3569 27.4078 24.4629 27.5148L29.9719 33.0238C30.8569 33.9088 32.2919 33.9088 33.1769 33.0238C34.0629 32.1378 34.0629 30.7038 33.1769 29.8178L28.3309 24.9708V13.9838C28.3309 12.7318 27.3159 11.7168 26.0639 11.7168Z" fill="#9D9D9B" stroke="white" stroke-width="1.35"/>
</svg>
