<svg width="52" height="49" viewBox="0 0 52 49" fill="none" xmlns="http://www.w3.org/2000/svg">
<path fill-rule="evenodd" clip-rule="evenodd" d="M25.946 1C23.863 1 21.788 1.23965 19.769 1.7171C18.984 1.90195 18.364 2.46299 18.145 3.18752C17.925 3.91206 18.139 4.69046 18.705 5.22921C19.272 5.76797 20.105 5.9844 20.889 5.79769C29.782 3.69377 39.092 7.3703 43.63 14.7782C48.17 22.1869 46.817 31.4981 40.329 37.5266C33.839 43.5532 23.814 44.8081 15.839 40.5919C7.86399 36.3747 3.90699 27.7268 6.17299 19.4672C6.37399 18.7371 6.14099 17.9633 5.56099 17.4376C4.98099 16.9109 4.14199 16.713 3.36199 16.9174C2.58199 17.1217 1.97799 17.6976 1.77899 18.4277C-0.861007 28.0194 3.35099 38.1099 12.264 43.5392C21.176 48.9695 32.818 48.5385 41.237 42.4673C49.657 36.3961 52.991 26.026 49.537 16.6601C46.085 7.2932 36.605 1 25.947 1H25.946Z" fill="#72AC47" stroke="white" stroke-width="1.35"/>
<path fill-rule="evenodd" clip-rule="evenodd" d="M6.0307 13.8786C6.5247 14.1982 7.1337 14.3217 7.7257 14.2223C8.3177 14.1248 8.8427 13.8118 9.1857 13.3529C10.5757 11.4961 12.3107 9.88445 14.3097 8.59517C15.3377 7.93009 15.5907 6.61852 14.8757 5.66363C14.1607 4.70874 12.7487 4.4728 11.7207 5.13695C9.2797 6.71233 7.1607 8.68063 5.4647 10.948C5.1207 11.406 4.9877 11.9726 5.0947 12.5225C5.2007 13.0724 5.5367 13.56 6.0307 13.8786Z" fill="#72AC47" stroke="white" stroke-width="1.35"/>
<path fill-rule="evenodd" clip-rule="evenodd" d="M26.0639 10.9551C24.8119 10.9551 23.7969 11.8979 23.7969 13.0609V24.1387C23.7969 24.278 23.8119 24.4155 23.8419 24.5511C23.8549 24.6133 23.8799 24.6719 23.8989 24.7313C23.9329 24.8799 23.9959 25.0193 24.0849 25.1456C24.1159 25.1995 24.1419 25.2552 24.1789 25.3063C24.2619 25.4224 24.3569 25.5301 24.4629 25.6295L29.9719 30.7467C30.8569 31.5688 32.2919 31.5688 33.1769 30.7467C34.0629 29.9237 34.0629 28.5917 33.1769 27.7687L28.3309 23.2665V13.0609C28.3309 11.8979 27.3159 10.9551 26.0639 10.9551Z" fill="#72AC47" stroke="white" stroke-width="1.35"/>
</svg>
