<svg width="26" height="22" viewBox="0 0 26 22" fill="none" xmlns="http://www.w3.org/2000/svg">
<path fill-rule="evenodd" clip-rule="evenodd" d="M12.3265 7.20141L12.2723 6.31085C12.11 4.00279 13.535 1.89461 15.7899 1.07685C16.6196 0.786041 18.0266 0.749689 18.9466 1.00415C19.3074 1.11321 19.9929 1.47661 20.4799 1.80378L21.3638 2.40353L22.3378 2.09459C22.8791 1.93096 23.6006 1.65837 23.9252 1.47662C24.2319 1.31309 24.5025 1.22215 24.5025 1.27673C24.5025 1.58567 23.8351 2.63976 23.2759 3.22128C22.5183 4.03914 22.7348 4.11184 24.268 3.56657C25.188 3.25763 25.206 3.25763 25.0257 3.60292C24.9174 3.78468 24.3582 4.42078 23.7629 5.0023C22.7527 6.00191 22.6987 6.11097 22.6987 6.94695C22.6987 8.23727 22.0853 10.927 21.472 12.399C20.3356 15.1615 17.9004 18.0147 15.4652 19.4504C12.0379 21.4678 7.47404 21.9766 3.63185 20.7953C2.35113 20.3954 0.150391 19.3777 0.150391 19.1961C0.150391 19.1415 0.817779 19.0688 1.62958 19.0506C3.32519 19.0143 5.02079 18.5417 6.46388 17.7057L7.43804 17.1242L6.31957 16.7426C4.73217 16.1973 3.30713 14.9433 2.94642 13.7621C2.8381 13.3804 2.87421 13.3622 3.88437 13.3622L4.93063 13.3441L4.04673 12.9261C3.00046 12.399 2.04446 11.5085 1.57543 10.5998C1.23265 9.94558 0.799833 8.29174 0.92609 8.16457C0.962087 8.11009 1.34096 8.21904 1.77389 8.36445C3.01851 8.81879 3.18088 8.70973 2.45933 7.94646C1.1064 6.56531 0.691521 4.5116 1.34096 2.56706L1.64764 1.69472L2.8381 2.87599C5.27341 5.25676 8.14153 6.67436 11.4245 7.09235L12.3265 7.20141Z" fill="#72AC47"/>
</svg>
