<svg width="53" height="53" viewBox="0 0 53 53" fill="none" xmlns="http://www.w3.org/2000/svg">
<g clip-path="url(#clip0_379_11599)">
<path d="M26.4884 37.5039C23.9553 37.5039 21.8945 39.558 21.8945 42.0815C21.8945 44.6058 23.9553 46.6608 26.4884 46.6608C29.0224 46.6608 31.0832 44.6058 31.0832 42.0815C31.0832 39.558 29.022 37.5039 26.4884 37.5039Z" fill="#7F7F7F"/>
<path d="M37.6973 31.267C34.7065 28.2778 30.7254 26.6309 26.4889 26.6309C22.2687 26.6309 18.2985 28.2669 15.3085 31.2373C14.1009 32.4391 14.0988 34.397 15.3035 35.6009C15.8887 36.1869 16.6679 36.5088 17.4972 36.5088C18.3227 36.5088 19.099 36.1886 19.6834 35.6076C21.5029 33.7993 23.9198 32.8031 26.4889 32.8031C29.0676 32.8031 31.4912 33.8055 33.312 35.6247C33.8973 36.2091 34.676 36.5318 35.5045 36.5318C36.3309 36.5318 37.1067 36.2116 37.6915 35.6305C38.9008 34.4287 38.9029 32.4717 37.6973 31.267Z" fill="#7F7F7F"/>
<path d="M52.0953 16.9161C45.2576 10.0952 36.163 6.33984 26.4887 6.33984C16.8273 6.33984 7.7419 10.0864 0.906238 16.8912C-0.301383 18.0929 -0.302219 20.0509 0.904566 21.2547C1.48936 21.8379 2.26727 22.1585 3.09492 22.1585C3.92216 22.1585 4.69923 21.8391 5.28402 21.2564C10.9501 15.6167 18.4805 12.51 26.4887 12.51C34.5085 12.51 42.0464 15.6229 47.7138 21.2777C48.2986 21.8613 49.0777 22.1831 49.905 22.1831C50.7318 22.1831 51.5089 21.8621 52.0932 21.2802C53.3013 20.0775 53.3025 18.1189 52.0953 16.9161Z" fill="#7F7F7F"/>
<path d="M44.7139 24.2702C39.8466 19.4142 33.3742 16.7402 26.4888 16.7402C19.6159 16.7402 13.1531 19.4059 8.29002 24.2447C7.7044 24.827 7.38211 25.6016 7.38086 26.4263C7.38086 27.2502 7.70189 28.0256 8.28668 28.6087C8.87147 29.1922 9.6498 29.5141 10.4775 29.5141C11.3039 29.5141 12.0809 29.1931 12.6666 28.612C16.3609 24.9365 21.27 22.9117 26.4888 22.9117C31.7185 22.9117 36.6342 24.9436 40.3311 28.6317C40.9167 29.2161 41.6946 29.5379 42.5227 29.5379C43.3495 29.5379 44.127 29.2169 44.711 28.635C45.2957 28.0527 45.6189 27.2782 45.6193 26.4535C45.6201 25.6287 45.2983 24.8542 44.7139 24.2702Z" fill="#7F7F7F"/>
</g>
<defs>
<clipPath id="clip0_379_11599">
<rect width="53" height="53" fill="white"/>
</clipPath>
</defs>
</svg>
