<svg width="40" height="40" viewBox="0 0 40 40" fill="none" xmlns="http://www.w3.org/2000/svg">
<path d="M36.0499 32.0148V31.9905C36.2401 31.7393 36.4222 31.483 36.5962 31.2219H36.5959C38.2612 28.7804 39.3582 25.9965 39.8064 23.0754V23.0174C39.8482 22.7337 39.8853 22.4484 39.9177 22.1618V21.954C39.9403 21.7058 39.9595 21.4576 39.9757 21.2094V20.9629C39.9757 20.6439 40 20.3249 40 19.9961C40 19.6673 40 19.2515 39.9663 18.8842C39.9663 18.7345 39.9663 18.5844 39.9326 18.4347C39.8988 18.2849 39.8988 18.0091 39.8745 17.8013C39.8503 17.5936 39.831 17.429 39.802 17.2405C39.773 17.052 39.7538 16.907 39.7295 16.7569C39.7053 16.6072 39.6618 16.3509 39.6233 16.1479C39.5845 15.9448 39.5606 15.8531 39.5316 15.7078C39.5026 15.5628 39.4398 15.2872 39.3866 15.0842C39.3333 14.8812 39.3093 14.8087 39.2706 14.6684C39.1933 14.3882 39.111 14.1076 39.0193 13.8321C38.9276 13.5565 38.8598 13.3485 38.7728 13.1019C38.7195 12.9617 38.6615 12.8217 38.6086 12.6861C38.5553 12.5509 38.4443 12.2703 38.3522 12.0673C38.2605 11.8643 38.2315 11.8016 38.1735 11.666C38.0767 11.4596 37.9786 11.2549 37.8788 11.0519C37.84 10.9794 37.811 10.9021 37.7725 10.8296L37.7483 10.7959L37.7466 10.7956C36.8202 9.018 35.6341 7.38848 34.2271 5.96097C34.2123 5.93736 34.1961 5.91477 34.1786 5.89318C34.0673 5.78189 33.9513 5.68545 33.84 5.57888C33.6515 5.40015 33.463 5.22108 33.2694 5.04706C33.0761 4.87304 32.9453 4.76175 32.7858 4.62146C32.4988 4.38304 32.2057 4.15102 31.906 3.92541L31.4709 3.61583C31.1937 3.42259 30.9118 3.23374 30.6248 3.05028L30.3395 2.86649C29.9574 2.63447 29.5659 2.41696 29.1646 2.21394L29.0348 2.11749H28.9865C27.6474 1.44167 26.2364 0.919623 24.7802 0.560826L24.6497 0.531823C24.3273 0.457631 24.0052 0.389849 23.6828 0.328804L23.4363 0.2853C23.1429 0.233702 22.8465 0.188513 22.5466 0.150069L22.2711 0.116345C21.9764 0.0826223 21.6813 0.0583403 21.3866 0.0340602H21.1158C20.7387 0.0340602 20.3566 0.000337236 19.9749 0.000337236H19.6704L19.67 0C18.5524 0.0165249 17.4382 0.12646 16.3391 0.328469H16.2956C15.9958 0.383101 15.6994 0.446166 15.406 0.516985L15.29 0.545987C14.9902 0.616806 14.6937 0.695722 14.4003 0.782728L14.3086 0.807009C13.9862 0.89739 13.68 0.995524 13.3899 1.10176H13.3511V1.10209C11.1092 1.8919 9.02511 3.07393 7.19658 4.59286L6.97435 4.7861C6.80034 4.93111 6.63104 5.08085 6.46175 5.23563C6.29246 5.39042 6.21523 5.46765 6.09416 5.58365L5.76063 5.90774C5.62034 6.04803 5.48511 6.19776 5.34482 6.34278L5.09358 6.61357C4.94856 6.77309 4.80827 6.93766 4.67304 7.09718L4.45553 7.35348C4.31524 7.52277 4.18473 7.69679 4.0495 7.86608L3.84648 8.13182C3.72069 8.3028 3.59659 8.47681 3.47417 8.65386L3.26644 8.95838L3.09243 9.21468H3.09209C3.07961 9.23661 3.06848 9.2592 3.05836 9.28247C0.33518 13.6297 -0.61819 18.8559 0.394835 23.8847C1.40786 28.9136 4.31019 33.3632 8.50439 36.3166C12.6982 39.2708 17.8654 40.5048 22.9418 39.7648C28.0182 39.0246 32.617 36.3669 35.7941 32.3385L35.8568 32.2758L36.0499 32.0148ZM38.5785 20.8952V21.1174C38.5785 21.3494 38.5495 21.601 38.5252 21.8135V21.9925C38.164 25.3069 36.9146 28.4621 34.9087 31.1256C34.5697 31.1503 34.2291 31.1358 33.8936 31.0821C33.3422 30.8784 32.9324 30.4087 32.8056 29.8347C33.1391 29.1677 33.1681 27.6106 33.1681 25.6432C33.1681 25.1596 33.6517 24.7293 34.4975 24.0912H34.4978C34.944 23.7648 35.3642 23.4046 35.7547 23.0131C36.0913 22.7278 36.2343 22.2745 36.1223 21.8479C35.9193 21.1903 35.1891 21.0308 34.4786 20.8811H34.4783C34.2348 20.8339 33.9944 20.7725 33.758 20.6973C33.8166 20.0714 33.6254 19.4475 33.2261 18.9616C32.6963 18.3674 31.9285 18.0409 31.1329 18.0723C30.7414 18.0723 30.0159 18.0723 29.8662 16.235C29.8484 15.8826 29.727 15.543 29.5172 15.2594C29.3071 14.9754 29.0184 14.7599 28.6866 14.6396C28.3065 14.5114 28.0276 14.1843 27.9612 13.7887C27.7774 13.0926 28.0627 12.8219 29.5856 12.2078L30.1707 11.971C30.6058 11.7825 32.003 11.6712 34.6232 11.9323C35.2808 11.9967 35.9432 11.9967 36.6008 11.9323H36.7458C36.8861 12.2176 37.0115 12.5076 37.1373 12.7976C37.2 12.9426 37.2533 13.0923 37.3113 13.2377C37.3693 13.3827 37.4273 13.5375 37.4853 13.6872C37.5433 13.8369 37.6111 14.045 37.6691 14.2288C37.7271 14.4126 37.7464 14.4706 37.7851 14.5913C37.8432 14.7846 37.9012 14.9829 37.9544 15.1811L38.0414 15.51C38.093 15.713 38.1396 15.9177 38.1817 16.1241C38.1817 16.2354 38.2252 16.3463 38.2495 16.4626C38.2883 16.6657 38.3267 16.8687 38.3608 17.0717C38.3608 17.2022 38.3996 17.328 38.4141 17.4585C38.4286 17.589 38.4674 17.8355 38.4866 18.0291C38.5058 18.2224 38.5156 18.3724 38.5301 18.5464C38.5446 18.7204 38.5591 18.851 38.5638 19.0058C38.5638 19.3393 38.5928 19.6681 38.5928 20.0067C38.5925 20.3446 38.5878 20.5958 38.5733 20.8859L38.5785 20.8952ZM27.1636 4.74236C27.5933 4.2591 28.1099 3.86082 28.6866 3.56781L28.7736 3.61132C28.9719 3.71755 29.1652 3.82883 29.3587 3.94484C29.6262 4.10267 29.8889 4.26387 30.1468 4.42844L30.3934 4.58796C30.5917 4.72319 30.7849 4.86348 30.9734 5.00377L31.1521 5.13428C31.3552 5.28907 31.5551 5.45027 31.7518 5.61788L31.8485 5.70017C31.9888 5.81618 32.1288 5.94197 32.2691 6.06269V6.06236C31.9699 6.15071 31.7224 6.36148 31.5872 6.64241C31.3032 7.10172 30.8159 7.39681 30.277 7.43525C29.7317 7.44705 29.1881 7.50506 28.6526 7.60926C28.2283 7.70739 27.7923 7.74651 27.3569 7.72561C26.792 7.60556 26.303 7.25483 26.0083 6.75843C26.0083 6.66164 26.0083 6.22189 27.1589 4.71339L27.1636 4.74236ZM20.2695 1.40173H21.0287L21.5123 1.44051C22.1213 1.49211 22.7273 1.57271 23.33 1.68231L23.5232 1.71604C22.9405 2.5173 22.2728 3.25353 21.5315 3.91078C21.314 4.10402 21.1882 4.08479 21.14 4.08007C20.8743 4.04635 20.5114 3.71754 20.1732 3.20026C20.1246 3.11797 20.0278 2.60065 20.2696 1.40178L20.2695 1.40173ZM16.2956 5.75271C17.1417 6.77757 17.5042 7.88003 17.34 8.12176C17.1758 8.36356 16.5715 9.11761 15.8315 9.11761H15.8312C15.4933 9.06466 15.1662 8.9554 14.8644 8.79386C14.3035 8.53756 13.448 8.15075 12.9307 8.85187C12.7358 9.20057 12.6343 9.59344 12.6356 9.99275C12.6265 10.3236 12.5611 10.6507 12.4424 10.9596C12.0087 10.9781 11.5739 10.9491 11.1467 10.8726C9.84126 10.7084 8.22183 10.5003 7.87383 11.7379C7.5258 12.9756 8.52166 13.9475 9.00021 14.4017C9.06293 14.4597 9.11622 14.5079 9.14522 14.542C9.60453 15.1126 10.7987 15.7796 12.6697 15.7796C13.187 15.7796 13.6365 15.7459 13.9751 15.7169C14.9035 15.6397 15.034 15.6491 15.324 16.0504H15.3237C15.5223 16.4561 15.6188 16.9043 15.6043 17.3559C15.6478 18.057 15.725 19.2269 16.8517 19.3621H16.8514C17.4877 19.3658 18.1157 19.2181 18.6839 18.9317C19.3705 18.6609 20.1344 18.3517 20.6176 18.5642C21.7585 19.0815 22.7206 20.1596 22.5948 20.7784C22.556 20.9767 22.5223 21.1844 22.4933 21.3972C22.4016 22.4224 22.2468 23.0365 21.2897 23.3556C19.2592 24.0324 18.7709 25.1203 18.6357 26.6527H18.6354C18.4971 27.6506 17.8513 28.5052 16.9289 28.9105C15.5074 29.6261 15.3914 30.6412 15.2656 31.7338V31.9223C15.2144 32.408 15.2471 32.8983 15.3624 33.3728C15.4009 33.5047 15.4187 33.6416 15.4154 33.7788C15.213 33.7812 15.0141 33.7276 14.84 33.6244C14.6593 33.5404 14.5224 33.3843 14.463 33.1941C14.4144 32.6005 14.4033 32.0047 14.4293 31.4101C14.4536 29.6794 14.4293 28.5092 14.1052 27.8519V27.8516C13.9066 27.3278 13.7609 26.7852 13.6702 26.2321C13.5093 25.2441 13.2014 24.286 12.7566 23.3892C12.3151 22.797 11.7553 22.303 11.1126 21.9387C10.431 21.4551 9.72986 21.0009 9.72986 20.5415C9.72986 19.0284 9.72986 16.7415 7.66565 15.3636C6.02196 14.271 4.32501 13.1348 4.32501 10.6983C4.32704 10.4153 4.34795 10.1327 4.38774 9.85213L4.50375 9.6734L4.65349 9.45116C4.77421 9.27715 4.89529 9.10314 5.02107 8.93384L5.17081 8.73554C5.30132 8.56626 5.43183 8.39696 5.5674 8.25194L5.73669 8.04893C5.8672 7.89413 6.00243 7.73462 6.138 7.56532L6.34573 7.33803L6.73254 6.932L6.99829 6.67098L7.35609 6.33239L7.68962 6.03259L8.00392 5.76179L8.40995 5.42826L8.67097 5.22524L9.15457 4.86744L9.34814 4.72748C9.52856 4.6017 9.71236 4.47928 9.89919 4.3599L10.0634 4.25366C10.2634 4.12788 10.4664 4.00546 10.6725 3.88608L10.803 3.80885C11.0188 3.68643 11.238 3.56705 11.4606 3.45105L11.5719 3.39304C11.8009 3.27703 12.0312 3.16574 12.2632 3.05951L12.3694 3.01129C12.6048 2.90506 12.8416 2.8049 13.08 2.71148L13.1862 2.66798C13.4247 2.57457 13.6648 2.48587 13.9066 2.40224L14.0273 2.36346C14.2657 2.28286 14.5075 2.20698 14.7524 2.13616L14.8781 2.10244C15.123 2.03162 15.3695 1.9672 15.6177 1.9092H15.6612V1.93348C15.6332 2.18944 15.3236 4.53424 16.2955 5.73314L16.2956 5.75271ZM19.9843 38.6186C15.8043 38.6233 11.7443 37.2205 8.45892 34.6358C5.17388 32.0512 2.85473 28.4354 1.87572 24.3718C0.896714 20.3081 1.3149 16.0329 3.06279 12.236C3.64285 14.4069 5.39783 15.5817 6.88197 16.587C8.26467 17.5103 8.26467 19.1881 8.26467 20.532C8.26467 21.7599 9.33813 22.4656 10.2807 23.128L10.281 23.1283C10.7427 23.3937 11.1534 23.7391 11.4944 24.1484C11.8421 24.9177 12.0826 25.7311 12.2101 26.5657C12.3183 27.2523 12.5116 27.9231 12.7854 28.5625C12.9786 28.9203 12.9547 30.5448 12.9402 31.4149H12.9398C12.9071 32.0967 12.9247 32.7803 12.9931 33.4599C13.1358 33.9728 13.441 34.4254 13.8628 34.7498C14.2851 35.0742 14.801 35.2526 15.3332 35.2583C15.806 35.2823 16.2595 35.0681 16.5418 34.6877C16.8639 34.2082 16.9442 33.6059 16.7593 33.0586C16.6811 32.7426 16.6565 32.4158 16.6868 32.0917V31.8985C16.7981 30.9074 16.8366 30.5738 17.5569 30.2113V30.2109C18.2449 29.9138 18.8414 29.4387 19.2849 28.8344C19.7284 28.2304 20.0032 27.5192 20.0808 26.7735C20.1725 25.7052 20.361 25.1879 21.7487 24.7238C23.6005 24.105 23.8082 22.6545 23.963 21.5909C23.992 21.4071 24.0163 21.2233 24.05 21.0493C24.3545 19.5362 22.8316 17.9504 21.2506 17.2301C20.2257 16.7465 19.0943 17.2301 18.1854 17.5687C17.8546 17.7164 17.5096 17.8297 17.1555 17.907C17.1177 17.6945 17.0938 17.4797 17.083 17.2639C17.0982 16.5392 16.907 15.8249 16.532 15.2044C15.7536 14.1263 14.893 14.1941 13.8924 14.276C13.5538 14.305 13.1674 14.334 12.703 14.334C10.9528 14.334 10.3195 13.6474 10.31 13.6379C10.225 13.5378 10.1346 13.4427 10.0392 13.353C9.76365 13.092 9.27062 12.6181 9.28983 12.2168C9.8601 12.174 10.4334 12.2033 10.9963 12.3038C11.633 12.4421 12.2906 12.4502 12.9303 12.3278C13.9312 11.9943 14.0374 10.8773 14.1099 10.1135V10.0218L14.2695 10.0943C14.749 10.3536 15.2778 10.5084 15.8215 10.5489C16.9374 10.4899 17.9525 9.88387 18.5335 8.92913C19.5439 7.47866 17.6392 5.06135 17.4165 4.81487C17.0105 4.33127 17.0007 2.95363 17.112 2.18001C17.1511 1.99014 17.1785 1.79792 17.1943 1.60468C17.7214 1.52745 18.2533 1.46945 18.7897 1.43539C18.4754 3.26287 18.8477 3.82369 18.983 4.02674C19.592 4.94066 20.2594 5.44821 20.9747 5.53989L20.975 5.54023C21.0505 5.54495 21.1264 5.54495 21.2023 5.54023C21.6889 5.53719 22.157 5.3507 22.5125 5.01785C23.4844 4.1633 24.3322 3.17724 25.0313 2.08824C25.753 2.28991 26.4618 2.53542 27.1535 2.82308C26.7175 3.10838 26.329 3.46079 26.0029 3.86718C24.9393 5.28355 24.3012 6.41503 24.659 7.29994C25.146 8.29077 26.0795 8.98713 27.168 9.17093C27.309 9.19016 27.4513 9.1996 27.5936 9.19993C28.032 9.18645 28.4688 9.13653 28.8991 9.0502C29.353 8.95679 29.8137 8.90181 30.2767 8.88563C31.3289 8.8536 32.292 8.28906 32.8343 7.38699C33.0396 7.30538 33.2494 7.23591 33.4629 7.17926C34.4213 8.18762 35.2647 9.3001 35.9766 10.4956C35.5706 10.5159 35.1635 10.5078 34.7585 10.4713C32.1527 10.215 30.4076 10.2683 29.5853 10.6261L29.0437 10.8484C27.8303 11.332 25.9978 12.057 26.5539 14.1502L26.5542 14.1506C26.7256 14.9492 27.2786 15.6125 28.0334 15.9248C28.372 16.0941 28.3865 16.0988 28.4104 16.3551C28.6279 18.9755 30.0058 19.5218 31.1225 19.5218H31.1228C31.4809 19.4941 31.8337 19.623 32.0896 19.8749C32.263 20.1002 32.3284 20.3898 32.2687 20.6677C32.0755 21.8281 33.4193 22.1182 34.1445 22.2776L34.3377 22.3211C34.1009 22.5289 33.8541 22.7322 33.5883 22.9255C32.6987 23.6121 31.6931 24.3759 31.6931 25.623C31.6931 26.4739 31.6931 28.7363 31.4854 29.1667V29.167C31.2753 29.6861 31.311 30.2725 31.5821 30.7625C31.9467 31.5863 32.6532 32.2099 33.5158 32.4689L33.7286 32.5124C31.9901 34.4326 29.8693 35.9677 27.5022 37.0192C25.1352 38.0711 22.5742 38.6157 19.9839 38.6187L19.9843 38.6186Z" fill="#007EC6" fill-opacity="0.6"/>
</svg>
