<svg width="44" height="49" viewBox="0 0 44 49" fill="none" xmlns="http://www.w3.org/2000/svg">
<path d="M39.6405 34.7408C39.3466 34.7408 39.1015 34.4957 39.1015 34.2018C39.1015 33.9078 39.3466 33.6628 39.6405 33.6628C40.9636 33.6628 42.0416 32.5848 42.0416 31.2617L42.0413 25.9208C42.0413 25.0878 41.6981 24.3526 41.0614 23.814L38.5625 21.756C38.3174 21.5601 38.2685 21.2169 38.4644 20.9719C38.6602 20.7268 39.0034 20.6779 39.2484 20.8738L41.7474 22.9318C42.6292 23.6666 43.1682 24.7447 43.1682 25.9208V31.2617C43.1193 33.173 41.5514 34.7408 39.6405 34.7408L39.6405 34.7408Z" fill="#9D9D9B"/>
<path d="M32.6336 48.9998H31.8495C30.1343 48.9998 28.7135 47.579 28.7135 45.8638L28.7138 28.4199L27.2438 29.3998C26.6559 29.7918 25.9698 29.9388 25.2839 29.7429C24.5979 29.596 24.01 29.155 23.6669 28.5668L21.0211 23.9119C20.678 23.3241 20.6291 22.638 20.8253 22.001C21.0211 21.3638 21.4624 20.8249 22.0503 20.5309C23.1772 19.943 24.5983 20.335 25.2843 21.4127L26.5093 23.5688L29.9392 20.7756C30.1843 20.5798 30.5271 20.6286 30.7233 20.8737C30.9192 21.1188 30.8703 21.4616 30.6252 21.6578L26.1661 25.2839L24.3041 22.0009C23.9609 21.413 23.1772 21.2168 22.5889 21.5599C22.2457 21.7069 22.0499 22.0009 21.9518 22.344C21.8537 22.6872 21.9029 23.03 22.0499 23.3732L24.6957 28.0281C24.8916 28.3713 25.1858 28.616 25.5775 28.6652C25.9696 28.7633 26.3124 28.6652 26.6555 28.4693L29.8403 26.3133V45.9132C29.8403 47.0401 30.7222 47.9223 31.8494 47.9223H32.6335C32.9274 47.9223 33.1725 48.1674 33.1725 48.4613C33.1725 48.7546 32.9278 48.9996 32.6335 48.9996L32.6336 48.9998Z" fill="#9D9D9B"/>
<path d="M36.9456 49C35.2304 49 33.8096 47.5792 33.8096 45.864V35.7211C33.8096 35.4271 34.0546 35.182 34.3486 35.182C34.6425 35.182 34.8876 35.4271 34.8876 35.7211V45.864C34.8876 46.9909 35.7694 47.8731 36.8967 47.8731C38.0236 47.8731 38.9058 46.9913 38.9058 45.864L38.9054 28.4691V26.7051C38.9054 26.4111 39.1505 26.1172 39.4444 26.1172C39.7384 26.1172 39.9835 26.3623 39.9835 26.6562V45.8642C40.0816 47.5793 38.6607 49.0002 36.9456 49.0002L36.9456 49Z" fill="#9D9D9B"/>
<path d="M34.3975 21.0207C31.2615 21.0207 28.6646 18.4726 28.6646 15.2877C28.6646 12.1028 31.2126 9.55469 34.3975 9.55469C37.5335 9.55469 40.1305 12.1028 40.1305 15.2877C40.1305 18.4728 37.5335 21.0207 34.3975 21.0207ZM34.3975 10.7307C31.8495 10.7307 29.7915 12.7887 29.7915 15.3368C29.7915 17.8848 31.8495 19.9428 34.3975 19.9428C36.9456 19.9428 39.0036 17.8848 39.0036 15.3368C38.9547 12.7887 36.8968 10.7307 34.3975 10.7307Z" fill="#9D9D9B"/>
<path d="M18.2278 22.1972H11.1225C10.8286 22.1972 10.5835 21.9521 10.5835 21.6582C10.5835 21.3642 10.8286 21.1191 11.1225 21.1191H18.2767C18.5706 21.1191 18.8157 21.3642 18.8157 21.6582C18.8157 21.9521 18.5217 22.1972 18.2278 22.1972H18.2278Z" fill="#9D9D9B"/>
<path d="M4.45869 29.4489C4.16475 29.4489 3.91968 29.2038 3.91968 28.9099V3.91992H34.9856V10.143C34.9856 10.4369 34.7405 10.682 34.4466 10.682C34.1526 10.682 33.9076 10.4369 33.9076 10.143L33.9079 5.04683H4.99798V28.9098C4.99798 29.2041 4.75325 29.4488 4.45897 29.4488L4.45869 29.4489Z" fill="#9D9D9B"/>
<path d="M23.8627 18.081C23.7157 18.081 23.5687 18.0322 23.4706 17.9341C23.2748 17.7382 23.2748 17.3462 23.4706 17.15C25.7248 14.8958 25.7248 11.2701 23.4706 9.01593C23.2748 8.82007 23.2748 8.42803 23.4706 8.23185C23.6665 8.036 24.0585 8.036 24.2547 8.23185C26.9498 10.9269 26.9498 15.2879 24.2547 17.9338C24.1566 18.0319 24.0096 18.0811 23.8627 18.0811L23.8627 18.081Z" fill="#9D9D9B"/>
<path d="M14.9448 18.081C14.7979 18.081 14.6509 18.0321 14.5528 17.934C13.2789 16.6601 12.5437 14.8961 12.5437 13.0829C12.5437 11.27 13.2786 9.50602 14.5528 8.23185C14.7486 8.036 15.1407 8.036 15.3369 8.23185C15.5327 8.4277 15.5327 8.81974 15.3369 9.01593C14.2589 10.0939 13.671 11.564 13.671 13.0829C13.671 14.6018 14.2588 16.0719 15.3369 17.1499C15.5327 17.3458 15.5327 17.7378 15.3369 17.934C15.2391 18.0317 15.0918 18.081 14.9448 18.081L14.9448 18.081Z" fill="#9D9D9B"/>
<path d="M10.1917 12.642C10.1917 13.1561 9.77501 13.5731 9.26092 13.5731C8.74652 13.5731 8.32983 13.1561 8.32983 12.642C8.32983 12.1279 8.74648 11.7109 9.26092 11.7109C9.77498 11.7109 10.1917 12.1279 10.1917 12.642Z" fill="#9D9D9B"/>
<path d="M19.4036 17.1008C18.1297 17.1008 17.1006 16.0716 17.1006 14.7978C17.1006 14.5038 17.3457 14.2588 17.6396 14.2588C17.9336 14.2588 18.1786 14.5038 18.1786 14.7978C18.1786 15.4349 18.7177 15.9739 19.3547 15.9739C19.9918 15.9739 20.5308 15.4349 20.5308 14.7978C20.5308 14.4546 20.3838 13.9648 19.1588 13.5728C18.5217 13.3769 17.052 12.8868 17.052 11.3186C17.052 10.0447 18.0812 9.01562 19.355 9.01562C20.6289 9.01562 21.658 10.0448 21.658 11.3186C21.658 11.6126 21.4129 11.8576 21.119 11.8576C20.8247 11.8576 20.5796 11.6126 20.5796 11.3186C20.5796 10.6815 20.0406 10.1425 19.4035 10.1425C18.7665 10.1425 18.2274 10.6816 18.2274 11.3186C18.2274 11.8088 18.4725 12.1516 19.5994 12.5436C20.1385 12.7395 21.7063 13.2296 21.7063 14.7978C21.7066 16.0717 20.6778 17.1008 19.4036 17.1008H19.4036Z" fill="#9D9D9B"/>
<path d="M19.4038 18.0814C19.1098 18.0814 18.8647 17.8363 18.8647 17.5424V16.5625C18.8647 16.2685 19.1098 16.0234 19.4038 16.0234C19.6977 16.0234 19.9428 16.2685 19.9428 16.5625V17.5424C19.9917 17.8363 19.7469 18.0814 19.4038 18.0814Z" fill="#9D9D9B"/>
<path d="M19.4038 10.1429C19.1098 10.1429 18.8647 9.89783 18.8647 9.60389V8.62398C18.8647 8.33003 19.1098 8.08496 19.4038 8.08496C19.6977 8.08496 19.9428 8.33003 19.9428 8.62398V9.60389C19.9917 9.89783 19.7469 10.1429 19.4038 10.1429Z" fill="#9D9D9B"/>
<path d="M4.45873 18.277H0V0H31.0659V4.50799C31.0659 4.80194 30.8209 5.047 30.5269 5.047C30.233 5.047 29.9879 4.80194 29.9879 4.50799V1.12691H1.07796V17.1499H4.40978C4.70373 17.1499 4.9488 17.3949 4.9488 17.6889C4.99767 18.0317 4.75294 18.2768 4.45866 18.2768L4.45873 18.277Z" fill="#9D9D9B"/>
<path d="M7.79073 27.2933C7.49678 27.2933 7.25171 27.0483 7.25171 26.7543V21.707C7.25171 21.413 7.49678 21.168 7.79073 21.168C8.08467 21.168 8.32974 21.413 8.32974 21.707V26.7051C8.32974 26.999 8.08467 27.2933 7.79073 27.2933V27.2933Z" fill="#9D9D9B"/>
<path d="M11.1228 25.0392C10.8288 25.0392 10.5837 24.7941 10.5837 24.5002V21.707C10.5837 21.413 10.8288 21.168 11.1228 21.168C11.4167 21.168 11.6618 21.413 11.6618 21.707V24.5002C11.6618 24.7941 11.4167 25.0392 11.1228 25.0392Z" fill="#9D9D9B"/>
</svg>
