<svg width="664" height="408" viewBox="0 0 664 408" fill="none" xmlns="http://www.w3.org/2000/svg">
<path d="M17.0524 379.462C8.15536 379.462 0.943359 372.248 0.943359 363.349C0.943359 362.809 1.01136 362.135 1.07836 361.461L1.55036 357.82H0.943359V172.141C0.943359 158.926 11.6604 148.206 24.8714 148.206H33.2964V120.563H0.943359V69.6599C0.943359 59.4119 9.23336 51.1189 19.4794 51.1189H224.383C234.628 51.1189 242.918 59.4119 242.918 69.6589V169.781H251.343C264.554 169.781 275.271 180.501 275.271 193.716V212.931H313.084C321.914 212.931 329.193 220.145 329.193 229.045C329.193 230.932 328.856 232.82 328.182 234.641L278.439 369.012C276.148 375.282 270.081 379.53 263.341 379.53H17.0534V379.462H17.0524ZM66.7964 217.65C62.0784 217.65 57.7654 220.617 56.1474 225.067L6.33636 359.438C5.86436 360.719 5.66236 362 5.66236 363.416C5.66236 369.686 10.7844 374.81 17.0524 374.81H263.409C268.127 374.81 272.44 371.844 274.058 367.394L323.801 233.023C324.273 231.742 324.475 230.46 324.475 229.045C324.475 222.774 319.353 217.65 313.152 217.65H66.7954H66.7964ZM24.8724 152.926C14.2904 152.926 5.66236 161.556 5.66236 172.141V347.774L33.2984 273.138V152.926H24.8724ZM35.4544 60.4229C37.1394 63.3899 38.0164 66.4909 38.0164 69.6599V260.396L51.6984 223.449C53.9904 217.178 60.0564 212.931 66.7964 212.931H238.201V69.6599C238.201 62.0409 232 55.8379 224.384 55.8379H32.7574L35.4534 60.4229H35.4544ZM242.919 212.931H270.554V193.716C270.554 183.13 261.927 174.501 251.344 174.501H242.919V212.931ZM19.4794 55.8379C11.8624 55.8379 5.66236 62.0409 5.66236 69.6599V115.844H33.2964V69.6599C33.2964 62.0409 27.0964 55.8379 19.4794 55.8379Z" fill="white"/>
<path d="M188.187 357.887L201.331 331.593H271.295L258.151 357.887H188.187ZM195.871 353.168H255.32L263.746 336.312H204.297L195.871 353.168ZM162.035 148.206H54.8652V152.926H162.035V148.206ZM221.349 169.781H54.8652V174.501H221.349V169.781ZM188.996 191.356H54.8662V196.075H188.996V191.356ZM221.349 191.356H205.847V196.075H221.349V191.356ZM73.5362 125.485L57.8312 86.3801H62.1452L75.9622 123.665L89.7802 86.3801H93.8242L78.1872 125.485H73.5362ZM134.265 125.215L130.154 115.169H107.102L102.991 125.215H99.5532L116.202 86.1111H121.257L137.905 125.215H134.265ZM108.181 112.473H129.143L118.695 86.9201L108.181 112.473ZM157.182 125.215V89.4151H143.5V86.3801H174.572V89.4141H160.957V125.215H157.182Z" fill="white"/>
<path fill-rule="evenodd" clip-rule="evenodd" d="M66.7951 217.65C62.0771 217.65 57.7641 220.617 56.1461 225.067L6.33611 359.438C5.86411 360.719 5.66211 362 5.66211 363.416C5.66211 369.686 10.7841 374.81 17.0521 374.81H263.409C268.127 374.81 272.44 371.844 274.058 367.394L323.801 233.023C324.273 231.742 324.475 230.46 324.475 229.045C324.475 222.774 319.353 217.65 313.152 217.65H66.7951ZM201.331 331.593L188.187 357.887H258.151L271.295 331.593H201.331Z" fill="white"/>
<path d="M195.872 353.168H255.321L263.747 336.312H204.298L195.872 353.168ZM24.8721 152.926C14.2901 152.926 5.66211 161.556 5.66211 172.141V347.774L33.2981 273.138V152.926H24.8721Z" fill="white"/>
<path fill-rule="evenodd" clip-rule="evenodd" d="M35.4538 60.4229C37.1388 63.3899 38.0158 66.4909 38.0158 69.6599V260.396L51.6978 223.449C53.9898 217.178 60.0558 212.931 66.7958 212.931H238.201V69.6599C238.201 62.0409 232 55.8379 224.384 55.8379H32.7578L35.4538 60.4229ZM162.036 148.206H54.8658V152.926H162.036V148.206ZM221.35 169.781H54.8658V174.501H221.35V169.781ZM188.997 191.356H54.8668V196.075H188.997V191.356ZM221.35 191.356H205.848V196.075H221.35V191.356ZM57.8318 86.3799L73.5368 125.485H78.1868L93.8258 86.3799H89.7798L75.9618 123.665L62.1458 86.3799H57.8318ZM130.155 115.169L134.266 125.215H137.906L121.258 86.1109H116.203L99.5538 125.215H102.992L107.103 115.169H130.155ZM157.183 89.4139V125.215H160.958V89.4149H174.573V86.3799H143.501V89.4139H157.183Z" fill="white"/>
<path d="M19.4791 55.8379C11.8621 55.8379 5.66211 62.0409 5.66211 69.6599V115.844H33.2961V69.6599C33.2961 62.0409 27.0961 55.8379 19.4791 55.8379ZM108.181 112.473H129.143L118.695 86.9199L108.181 112.473ZM242.918 212.931H270.553V193.716C270.553 183.13 261.926 174.501 251.343 174.501H242.918V212.931Z" fill="white"/>
<path d="M17.0524 379.462C8.15536 379.462 0.943359 372.248 0.943359 363.349C0.943359 362.809 1.01136 362.135 1.07836 361.461L1.55036 357.82H0.943359V172.141C0.943359 158.926 11.6604 148.206 24.8714 148.206H33.2964V120.563H0.943359V69.6599C0.943359 59.4119 9.23336 51.1189 19.4794 51.1189H224.383C234.628 51.1189 242.918 59.4119 242.918 69.6589V169.781H251.343C264.554 169.781 275.271 180.501 275.271 193.716V212.931H313.084C321.914 212.931 329.193 220.145 329.193 229.045C329.193 230.932 328.856 232.82 328.182 234.641L278.439 369.012C276.148 375.282 270.081 379.53 263.341 379.53H17.0534V379.462H17.0524ZM66.7964 217.65C62.0784 217.65 57.7654 220.617 56.1474 225.067L6.33636 359.438C5.86436 360.719 5.66236 362 5.66236 363.416C5.66236 369.686 10.7844 374.81 17.0524 374.81H263.409C268.127 374.81 272.44 371.844 274.058 367.394L323.801 233.023C324.273 231.742 324.475 230.46 324.475 229.045C324.475 222.774 319.353 217.65 313.152 217.65H66.7954H66.7964ZM24.8724 152.926C14.2904 152.926 5.66236 161.556 5.66236 172.141V347.774L33.2984 273.138V152.926H24.8724ZM35.4544 60.4229C37.1394 63.3899 38.0164 66.4909 38.0164 69.6599V260.396L51.6984 223.449C53.9904 217.178 60.0564 212.931 66.7964 212.931H238.201V69.6599C238.201 62.0409 232 55.8379 224.384 55.8379H32.7574L35.4534 60.4229H35.4544ZM242.919 212.931H270.554V193.716C270.554 183.13 261.927 174.501 251.344 174.501H242.919V212.931ZM19.4794 55.8379C11.8624 55.8379 5.66236 62.0409 5.66236 69.6599V115.844H33.2964V69.6599C33.2964 62.0409 27.0964 55.8379 19.4794 55.8379Z" fill="#FFADA0"/>
<path fill-rule="evenodd" clip-rule="evenodd" d="M66.7951 217.65C62.0771 217.65 57.7641 220.617 56.1461 225.067L6.33611 359.438C5.86411 360.719 5.66211 362 5.66211 363.416C5.66211 369.686 10.7841 374.81 17.0521 374.81H263.409C268.127 374.81 272.44 371.844 274.058 367.394L323.801 233.023C324.273 231.742 324.475 230.46 324.475 229.045C324.475 222.774 319.353 217.65 313.152 217.65H66.7951ZM201.331 331.593L188.187 357.887H258.151L271.295 331.593H201.331Z" fill="#B9B9B9"/>
<path d="M24.8721 152.926C14.2901 152.926 5.66211 161.556 5.66211 172.141V347.774L33.2981 273.138V152.926H24.8721ZM242.919 212.931H270.554V193.716C270.554 183.13 261.927 174.501 251.344 174.501H242.919V212.931Z" fill="#B9B9B9"/>
<path d="M17.0524 379.462C8.15536 379.462 0.943359 372.248 0.943359 363.349C0.943359 362.809 1.01136 362.135 1.07836 361.461L1.55036 357.82H0.943359V172.141C0.943359 158.926 11.6604 148.206 24.8714 148.206H33.2964V120.563H0.943359V69.6599C0.943359 59.4119 9.23336 51.1189 19.4794 51.1189H224.383C234.628 51.1189 242.918 59.4119 242.918 69.6589V169.781H251.343C264.554 169.781 275.271 180.501 275.271 193.716V212.931H313.084C321.914 212.931 329.193 220.145 329.193 229.045C329.193 230.932 328.856 232.82 328.182 234.641L278.439 369.012C276.148 375.282 270.081 379.53 263.341 379.53H17.0534V379.462H17.0524ZM66.7964 217.65C62.0784 217.65 57.7654 220.617 56.1474 225.067L6.33636 359.438C5.86436 360.719 5.66236 362 5.66236 363.416C5.66236 369.686 10.7844 374.81 17.0524 374.81H263.409C268.127 374.81 272.44 371.844 274.058 367.394L323.801 233.023C324.273 231.742 324.475 230.46 324.475 229.045C324.475 222.774 319.353 217.65 313.152 217.65H66.7954H66.7964ZM24.8724 152.926C14.2904 152.926 5.66236 161.556 5.66236 172.141V347.774L33.2984 273.138V152.926H24.8724ZM35.4544 60.4229C37.1394 63.3899 38.0164 66.4909 38.0164 69.6599V260.396L51.6984 223.449C53.9904 217.178 60.0564 212.931 66.7964 212.931H238.201V69.6599C238.201 62.0409 232 55.8379 224.384 55.8379H32.7574L35.4534 60.4229H35.4544ZM242.919 212.931H270.554V193.716C270.554 183.13 261.927 174.501 251.344 174.501H242.919V212.931ZM19.4794 55.8379C11.8624 55.8379 5.66236 62.0409 5.66236 69.6599V115.844H33.2964V69.6599C33.2964 62.0409 27.0964 55.8379 19.4794 55.8379Z" fill="#F3786E"/>
<path d="M195.871 353.168H255.32L263.746 336.312H204.297L195.871 353.168Z" fill="#72AC47"/>
<path d="M17.0524 379.462C8.15536 379.462 0.943359 372.248 0.943359 363.349C0.943359 362.809 1.01136 362.135 1.07836 361.461L1.55036 357.82H0.943359V172.141C0.943359 158.926 11.6604 148.206 24.8714 148.206H33.2964V120.563H0.943359V69.6599C0.943359 59.4119 9.23336 51.1189 19.4794 51.1189H224.382C234.628 51.1189 242.918 59.4119 242.918 69.6589V169.781H251.343C264.554 169.781 275.271 180.501 275.271 193.716V212.931H313.084C321.914 212.931 329.193 220.145 329.193 229.045C329.193 230.932 328.856 232.82 328.182 234.641L278.439 369.012C276.148 375.282 270.081 379.53 263.341 379.53H17.0534V379.462H17.0524ZM66.7964 217.65C62.0784 217.65 57.7654 220.617 56.1474 225.067L6.33636 359.438C5.86436 360.719 5.66236 362 5.66236 363.416C5.66236 369.686 10.7844 374.81 17.0524 374.81H263.409C268.127 374.81 272.44 371.844 274.058 367.394L323.801 233.023C324.273 231.742 324.475 230.46 324.475 229.045C324.475 222.774 319.353 217.65 313.152 217.65H66.7954H66.7964ZM24.8724 152.926C14.2904 152.926 5.66236 161.556 5.66236 172.141V347.774L33.2984 273.138V152.926H24.8724ZM35.4544 60.4229C37.1394 63.3899 38.0164 66.4909 38.0164 69.6599V260.396L51.6984 223.449C53.9904 217.178 60.0564 212.931 66.7964 212.931H238.201V69.6599C238.201 62.0409 232 55.8379 224.383 55.8379H32.7574L35.4534 60.4229H35.4544ZM242.919 212.931H270.554V193.716C270.554 183.13 261.927 174.501 251.344 174.501H242.919V212.931ZM19.4794 55.8379C11.8624 55.8379 5.66236 62.0409 5.66236 69.6599V115.844H33.2964V69.6599C33.2964 62.0409 27.0964 55.8379 19.4794 55.8379Z" fill="#5C5B59"/>
<path d="M378.124 179.341C371.33 179.341 365.626 174.725 364.032 168.431H368.394C369.904 172.375 373.678 175.145 378.04 175.145H379.969C385.673 175.145 390.286 170.529 390.286 164.823C390.286 160.879 388.105 157.354 384.582 155.592L371.497 149.046C366.549 146.528 363.445 141.577 363.445 136.039C363.445 127.982 369.988 121.521 377.956 121.521H379.885C386.679 121.521 392.383 126.136 393.977 132.43H389.615C388.105 128.486 384.331 125.717 379.969 125.717H378.04C376.685 125.716 375.343 125.983 374.09 126.501C372.838 127.02 371.7 127.78 370.742 128.739C369.784 129.698 369.024 130.836 368.506 132.089C367.988 133.341 367.722 134.684 367.723 136.039C367.715 137.957 368.245 139.839 369.254 141.471C370.262 143.103 371.708 144.419 373.427 145.27L386.512 151.815C391.46 154.333 394.564 159.284 394.564 164.823C394.564 172.879 388.021 179.341 380.053 179.341H378.124Z" fill="white"/>
<path d="M256.25 407.599V392.074C256.25 385.612 260.444 379.738 266.567 377.556L269.67 376.465V365.304C269.67 358.842 273.864 352.968 279.987 350.786L283.091 349.695V260.07L279.987 258.979C273.864 256.714 269.67 250.839 269.67 244.377V231.706L267.238 230.363C260.444 226.587 256.25 219.538 256.25 211.985C256.25 206.362 258.431 201.076 262.457 197.047L354.722 104.653C361.265 98.107 369.904 94.583 379.13 94.583C388.357 94.583 396.996 98.191 403.539 104.653L430.715 131.843V116.737C430.715 96.261 437.845 76.289 450.762 60.428C463.511 44.819 481.293 33.826 500.92 29.546L504.527 28.791V16.119C504.527 7.55899 511.489 0.593994 520.044 0.593994C528.6 0.593994 535.562 7.55899 535.562 16.119V28.791L539.169 29.546C558.712 33.826 576.578 44.819 589.327 60.428C602.244 76.288 609.374 96.261 609.374 116.737V161.718H622.207L650.474 246.475H636.215V376.549H647.538C656.094 376.549 663.056 383.514 663.056 392.074V407.599H256.25ZM271.767 380.745C265.56 380.745 260.444 385.864 260.444 392.074V403.403H658.862V392.074C658.862 385.864 653.745 380.745 647.538 380.745H271.767ZM408.068 244.377C408.068 250.839 403.874 256.714 397.751 258.895L394.648 259.986V349.527L397.751 350.618C403.958 352.8 408.068 358.674 408.068 365.22V376.549H430.715V365.22C430.715 358.758 434.909 352.884 441.032 350.702L444.135 349.611V260.07L441.032 258.979C434.825 256.797 430.715 250.923 430.715 244.461V233.048H408.068V244.377ZM327.546 244.377C327.546 250.839 323.352 256.714 317.229 258.895L314.125 259.986V349.527L317.229 350.618C323.436 352.8 327.546 358.674 327.546 365.22V376.549H350.193V365.22C350.193 358.758 354.387 352.884 360.51 350.702L363.613 349.611V260.07L360.51 258.979C354.303 256.797 350.193 250.923 350.193 244.461V233.048H327.546V244.377ZM487.584 249.58C486.797 251.736 485.548 253.694 483.925 255.317C482.303 256.941 480.346 258.19 478.19 258.979L475.086 260.07V349.611L478.19 350.702C484.397 352.884 488.507 358.758 488.507 365.22V376.549H631.937V246.475H488.758L487.584 249.58ZM446.232 353.891C440.025 353.891 434.909 359.01 434.909 365.22V376.549H484.397V365.22C484.397 359.01 479.28 353.891 473.073 353.891H446.232ZM365.71 353.891C359.503 353.891 354.387 359.01 354.387 365.22V376.549H403.874V365.22C403.874 359.01 398.758 353.891 392.551 353.891H365.71ZM285.188 353.891C278.981 353.891 273.864 359.01 273.864 365.22V376.549H323.352V365.22C323.352 359.01 318.235 353.891 312.028 353.891H285.188ZM448.329 349.695H470.976V259.902H448.329V349.695ZM367.807 349.695H390.454V259.902H367.807V349.695ZM287.285 349.695H309.932V259.902H287.285V349.695ZM434.909 244.377C434.909 250.587 440.025 255.706 446.232 255.706H473.073C479.28 255.706 484.397 250.587 484.397 244.377V233.048H434.909V244.377ZM354.387 244.377C354.387 250.587 359.503 255.706 365.71 255.706H392.551C398.758 255.706 403.874 250.587 403.874 244.377V233.048H354.387V244.377ZM273.864 244.377C273.864 250.587 278.981 255.706 285.188 255.706H312.028C318.235 255.706 323.352 250.587 323.352 244.377V233.048H273.864V244.377ZM602.077 242.28H644.602L619.188 165.914H576.662L602.077 242.28ZM555.105 242.28H597.631L572.216 165.914H529.69L555.105 242.28ZM495.804 197.047C499.83 200.992 502.011 206.362 502.011 211.985C502.011 219.621 497.817 226.671 491.023 230.363L488.59 231.706V242.28H550.66L525.245 165.914H464.685L495.804 197.047ZM260.612 210.39V210.642C260.528 210.978 260.528 211.397 260.528 211.985C260.444 221.3 267.993 228.853 277.303 228.853H480.874C490.184 228.853 497.733 221.3 497.733 211.985C497.733 211.397 497.649 210.978 497.649 210.642V210.39L497.314 206.195H260.947L260.612 210.39ZM379.13 98.779C370.994 98.779 363.445 101.968 357.742 107.674L263.38 201.999H494.797L400.519 107.674C394.816 101.968 387.267 98.779 379.13 98.779ZM582.533 161.718H605.18V116.821C605.18 112.374 604.761 107.758 603.922 102.639L603.251 98.779H436.838L436.167 102.639C435.328 107.758 434.909 112.374 434.909 116.821V136.123L457.556 158.781V121.437H502.011V161.718H538.078V121.437H582.533V161.718ZM542.272 161.718H578.339V125.633H542.272V161.718ZM461.75 161.718H497.817V125.633H461.75V161.718ZM537.91 42.386C547.724 52.708 559.886 69.491 561.983 90.471L562.403 94.667H602.328L600.147 88.541C590.837 62.274 569.281 42.218 542.44 34.833L526.503 30.469L537.91 42.385V42.386ZM517.193 34.329C507.882 41.714 485.823 61.939 482.384 89.379L481.712 94.583H558.46L557.789 89.38C554.266 61.939 532.207 41.714 522.896 34.33L520.044 32.064L517.193 34.329ZM497.565 34.749C470.725 42.134 449.168 62.19 439.858 88.457L437.677 94.583H477.603L478.022 90.387C480.119 69.491 492.281 52.707 502.095 42.302L513.502 30.302L497.565 34.749ZM520.044 27.448C521.89 27.448 523.735 27.616 525.748 27.7L531.368 28.12V16.118C531.368 9.90799 526.251 4.78899 520.044 4.78899C513.838 4.78899 508.721 9.90899 508.721 16.118V28.118L514.341 27.698C516.354 27.615 518.199 27.447 520.044 27.447V27.448Z" fill="white"/>
<path d="M511.236 353.891V269.133H595.953V353.891H511.236ZM555.691 349.695H591.759V313.61H555.691V349.695ZM515.43 349.695H551.498V313.61H515.43V349.695ZM555.691 309.414H591.759V273.329H555.691V309.414ZM515.43 309.414H551.498V273.329H515.43V309.414Z" fill="white"/>
<path fill-rule="evenodd" clip-rule="evenodd" d="M379.131 98.7791C370.995 98.7791 363.446 101.968 357.743 107.674L263.381 201.999H494.798L400.52 107.674C394.817 101.968 387.268 98.7791 379.131 98.7791ZM364.033 168.431C365.627 174.725 371.331 179.341 378.125 179.341H380.054C388.022 179.341 394.565 172.879 394.565 164.823C394.565 159.284 391.461 154.333 386.513 151.815L373.428 145.27C371.709 144.419 370.263 143.103 369.254 141.471C368.246 139.839 367.716 137.957 367.724 136.039C367.723 134.684 367.988 133.341 368.506 132.089C369.024 130.836 369.784 129.698 370.742 128.739C371.701 127.78 372.838 127.02 374.091 126.502C375.343 125.983 376.685 125.716 378.041 125.717H379.97C384.332 125.717 388.106 128.486 389.616 132.43H393.978C392.384 126.136 386.68 121.521 379.886 121.521H377.957C369.989 121.521 363.446 127.982 363.446 136.039C363.446 141.577 366.55 146.528 371.498 149.046L384.583 155.592C386.302 156.443 387.748 157.759 388.757 159.391C389.765 161.023 390.295 162.905 390.287 164.823C390.287 170.529 385.674 175.145 379.97 175.145H378.041C373.679 175.145 369.905 172.375 368.395 168.431H364.033Z" fill="white"/>
<path d="M434.908 244.377C434.908 250.587 440.024 255.706 446.231 255.706H473.072C479.279 255.706 484.396 250.587 484.396 244.377V233.048H434.908V244.377ZM448.328 349.695H470.975V259.902H448.328V349.695ZM367.806 349.695H390.453V259.902H367.806V349.695ZM354.386 244.377C354.386 250.587 359.502 255.706 365.709 255.706H392.55C398.757 255.706 403.873 250.587 403.873 244.377V233.048H354.386V244.377ZM273.863 244.377C273.863 250.587 278.98 255.706 285.187 255.706H312.027C318.234 255.706 323.351 250.587 323.351 244.377V233.048H273.863V244.377ZM287.284 349.695H309.931V259.902H287.284V349.695ZM260.611 210.39V210.642C260.527 210.978 260.527 211.397 260.527 211.985C260.443 221.3 267.992 228.853 277.302 228.853H480.873C490.183 228.853 497.732 221.3 497.732 211.985C497.732 211.397 497.648 210.978 497.648 210.642V210.39L497.313 206.195H260.946L260.611 210.39ZM285.187 353.891C278.98 353.891 273.863 359.01 273.863 365.22V376.549H323.351V365.22C323.351 359.01 318.234 353.891 312.027 353.891H285.187ZM271.766 380.745C265.559 380.745 260.443 385.864 260.443 392.074V403.403H658.861V392.074C658.861 385.864 653.744 380.745 647.537 380.745H271.766ZM365.709 353.891C359.502 353.891 354.386 359.01 354.386 365.22V376.549H403.873V365.22C403.873 359.01 398.757 353.891 392.55 353.891H365.709ZM446.231 353.891C440.024 353.891 434.908 359.01 434.908 365.22V376.549H484.396V365.22C484.396 359.01 479.279 353.891 473.072 353.891H446.231Z" fill="white"/>
<path fill-rule="evenodd" clip-rule="evenodd" d="M487.584 249.58C486.797 251.736 485.548 253.694 483.925 255.318C482.303 256.941 480.345 258.191 478.19 258.979L475.086 260.07V349.611L478.19 350.702C484.397 352.884 488.507 358.758 488.507 365.22V376.549H631.937V246.475H488.758L487.584 249.58ZM511.237 269.133V353.891H595.954V269.133H511.237Z" fill="white"/>
<path d="M495.804 197.047C499.83 200.992 502.011 206.362 502.011 211.985C502.011 219.621 497.817 226.671 491.023 230.363L488.59 231.706V242.28H550.66L525.245 165.914H464.685L495.804 197.047ZM555.105 242.28H597.631L572.216 165.914H529.69L555.105 242.28ZM602.077 242.28H644.602L619.188 165.914H576.662L602.077 242.28ZM582.533 161.718H605.18V116.821C605.18 112.374 604.761 107.758 603.922 102.639L603.251 98.779H436.838L436.167 102.639C435.328 107.758 434.909 112.374 434.909 116.821V136.123L457.556 158.781V121.437H502.011V161.718H538.078V121.437H582.533V161.718ZM408.068 244.377C408.068 250.839 403.874 256.714 397.751 258.895L394.648 259.986V349.527L397.751 350.618C403.958 352.8 408.068 358.674 408.068 365.22V376.549H430.715V365.22C430.715 358.758 434.909 352.884 441.032 350.702L444.135 349.611V260.07L441.032 258.979C434.825 256.797 430.715 250.923 430.715 244.461V233.048H408.068V244.377ZM327.546 244.377C327.546 250.839 323.352 256.714 317.229 258.895L314.125 259.986V349.527L317.229 350.618C323.436 352.8 327.546 358.674 327.546 365.22V376.549H350.193V365.22C350.193 358.758 354.387 352.884 360.51 350.702L363.613 349.611V260.07L360.51 258.979C354.303 256.797 350.193 250.923 350.193 244.461V233.048H327.546V244.377ZM517.193 34.33C507.882 41.714 485.823 61.939 482.384 89.38L481.712 94.583H558.46L557.789 89.38C554.266 61.939 532.207 41.714 522.896 34.33L520.044 32.064L517.193 34.329V34.33Z" fill="white"/>
<path d="M537.911 42.3861C547.725 52.7081 559.887 69.4911 561.984 90.4711L562.404 94.6671H602.329L600.148 88.5411C590.838 62.2741 569.282 42.2181 542.441 34.8331L526.504 30.4691L537.911 42.3851V42.3861ZM497.566 34.7491C470.726 42.1341 449.169 62.1901 439.859 88.4571L437.678 94.5831H477.604L478.023 90.3871C480.12 69.4911 492.282 52.7071 502.096 42.3021L513.503 30.3021L497.566 34.7491ZM461.751 161.718H497.818V125.633H461.751V161.718ZM542.273 161.718H578.34V125.633H542.273V161.718ZM520.045 27.4481C521.891 27.4481 523.736 27.6161 525.749 27.7001L531.369 28.1201V16.1181C531.369 9.90806 526.252 4.78906 520.045 4.78906C513.839 4.78906 508.722 9.90906 508.722 16.1181V28.1181L514.342 27.6981C516.355 27.6151 518.2 27.4481 520.045 27.4481ZM515.432 309.414H551.5V273.329H515.432V309.414ZM555.693 349.695H591.761V313.61H555.693V349.695ZM515.432 349.695H551.5V313.61H515.432V349.695ZM555.693 309.414H591.761V273.329H555.693V309.414Z" fill="#72AC47"/>
<path d="M378.124 179.341C371.33 179.341 365.626 174.725 364.032 168.431H368.394C369.904 172.375 373.678 175.145 378.04 175.145H379.969C385.673 175.145 390.286 170.529 390.286 164.823C390.286 160.879 388.105 157.354 384.582 155.592L371.497 149.046C366.549 146.528 363.445 141.577 363.445 136.039C363.445 127.982 369.988 121.521 377.956 121.521H379.885C386.679 121.521 392.383 126.136 393.977 132.43H389.615C388.105 128.486 384.331 125.717 379.969 125.717H378.04C376.685 125.716 375.343 125.983 374.09 126.501C372.838 127.02 371.7 127.78 370.742 128.739C369.784 129.698 369.024 130.836 368.506 132.089C367.988 133.341 367.722 134.684 367.723 136.039C367.715 137.957 368.245 139.839 369.254 141.471C370.262 143.103 371.708 144.419 373.427 145.27L386.512 151.815C391.46 154.333 394.564 159.284 394.564 164.823C394.564 172.879 388.021 179.341 380.053 179.341H378.124Z" fill="#FFADA0"/>
<path d="M256.25 407.599V392.074C256.25 385.612 260.444 379.738 266.567 377.556L269.67 376.465V365.304C269.67 358.842 273.864 352.968 279.987 350.786L283.091 349.695V260.07L279.987 258.979C273.864 256.714 269.67 250.839 269.67 244.377V231.706L267.238 230.363C260.444 226.587 256.25 219.538 256.25 211.985C256.25 206.362 258.431 201.076 262.457 197.047L354.722 104.653C361.265 98.107 369.904 94.583 379.13 94.583C388.357 94.583 396.996 98.191 403.539 104.653L430.715 131.843V116.737C430.715 96.261 437.845 76.289 450.762 60.428C463.511 44.819 481.293 33.826 500.92 29.546L504.527 28.791V16.119C504.527 7.55899 511.489 0.593994 520.044 0.593994C528.6 0.593994 535.562 7.55899 535.562 16.119V28.791L539.169 29.546C558.712 33.826 576.578 44.819 589.327 60.428C602.244 76.288 609.374 96.261 609.374 116.737V161.718H622.207L650.474 246.475H636.215V376.549H647.538C656.094 376.549 663.056 383.514 663.056 392.074V407.599H256.25ZM271.767 380.745C265.56 380.745 260.444 385.864 260.444 392.074V403.403H658.862V392.074C658.862 385.864 653.745 380.745 647.538 380.745H271.767ZM408.068 244.377C408.068 250.839 403.874 256.714 397.751 258.895L394.648 259.986V349.527L397.751 350.618C403.958 352.8 408.068 358.674 408.068 365.22V376.549H430.715V365.22C430.715 358.758 434.909 352.884 441.032 350.702L444.135 349.611V260.07L441.032 258.979C434.825 256.797 430.715 250.923 430.715 244.461V233.048H408.068V244.377ZM327.546 244.377C327.546 250.839 323.352 256.714 317.229 258.895L314.125 259.986V349.527L317.229 350.618C323.436 352.8 327.546 358.674 327.546 365.22V376.549H350.193V365.22C350.193 358.758 354.387 352.884 360.51 350.702L363.613 349.611V260.07L360.51 258.979C354.303 256.797 350.193 250.923 350.193 244.461V233.048H327.546V244.377ZM487.584 249.58C486.797 251.736 485.548 253.694 483.925 255.317C482.303 256.941 480.346 258.19 478.19 258.979L475.086 260.07V349.611L478.19 350.702C484.397 352.884 488.507 358.758 488.507 365.22V376.549H631.937V246.475H488.758L487.584 249.58ZM446.232 353.891C440.025 353.891 434.909 359.01 434.909 365.22V376.549H484.397V365.22C484.397 359.01 479.28 353.891 473.073 353.891H446.232ZM365.71 353.891C359.503 353.891 354.387 359.01 354.387 365.22V376.549H403.874V365.22C403.874 359.01 398.758 353.891 392.551 353.891H365.71ZM285.188 353.891C278.981 353.891 273.864 359.01 273.864 365.22V376.549H323.352V365.22C323.352 359.01 318.235 353.891 312.028 353.891H285.188ZM448.329 349.695H470.976V259.902H448.329V349.695ZM367.807 349.695H390.454V259.902H367.807V349.695ZM287.285 349.695H309.932V259.902H287.285V349.695ZM434.909 244.377C434.909 250.587 440.025 255.706 446.232 255.706H473.073C479.28 255.706 484.397 250.587 484.397 244.377V233.048H434.909V244.377ZM354.387 244.377C354.387 250.587 359.503 255.706 365.71 255.706H392.551C398.758 255.706 403.874 250.587 403.874 244.377V233.048H354.387V244.377ZM273.864 244.377C273.864 250.587 278.981 255.706 285.188 255.706H312.028C318.235 255.706 323.352 250.587 323.352 244.377V233.048H273.864V244.377ZM602.077 242.28H644.602L619.188 165.914H576.662L602.077 242.28ZM555.105 242.28H597.631L572.216 165.914H529.69L555.105 242.28ZM495.804 197.047C499.83 200.992 502.011 206.362 502.011 211.985C502.011 219.621 497.817 226.671 491.023 230.363L488.59 231.706V242.28H550.66L525.245 165.914H464.685L495.804 197.047ZM260.612 210.39V210.642C260.528 210.978 260.528 211.397 260.528 211.985C260.444 221.3 267.993 228.853 277.303 228.853H480.874C490.184 228.853 497.733 221.3 497.733 211.985C497.733 211.397 497.649 210.978 497.649 210.642V210.39L497.314 206.195H260.947L260.612 210.39ZM379.13 98.779C370.994 98.779 363.445 101.968 357.742 107.674L263.38 201.999H494.797L400.519 107.674C394.816 101.968 387.267 98.779 379.13 98.779ZM582.533 161.718H605.18V116.821C605.18 112.374 604.761 107.758 603.922 102.639L603.251 98.779H436.838L436.167 102.639C435.328 107.758 434.909 112.374 434.909 116.821V136.123L457.556 158.781V121.437H502.011V161.718H538.078V121.437H582.533V161.718ZM542.272 161.718H578.339V125.633H542.272V161.718ZM461.75 161.718H497.817V125.633H461.75V161.718ZM537.91 42.386C547.724 52.708 559.886 69.491 561.983 90.471L562.403 94.667H602.328L600.147 88.541C590.837 62.274 569.281 42.218 542.44 34.833L526.503 30.469L537.91 42.385V42.386ZM517.193 34.329C507.882 41.714 485.823 61.939 482.384 89.379L481.712 94.583H558.46L557.789 89.38C554.266 61.939 532.207 41.714 522.896 34.33L520.044 32.064L517.193 34.329ZM497.565 34.749C470.725 42.134 449.168 62.19 439.858 88.457L437.677 94.583H477.603L478.022 90.387C480.119 69.491 492.281 52.707 502.095 42.302L513.502 30.302L497.565 34.749ZM520.044 27.448C521.89 27.448 523.735 27.616 525.748 27.7L531.368 28.12V16.118C531.368 9.90799 526.251 4.78899 520.044 4.78899C513.838 4.78899 508.721 9.90899 508.721 16.118V28.118L514.341 27.698C516.354 27.615 518.199 27.447 520.044 27.447V27.448Z" fill="#FFADA0"/>
<path d="M511.237 353.891V269.133H595.954V353.891H511.237ZM555.692 349.695H591.76V313.61H555.692V349.695ZM515.431 349.695H551.499V313.61H515.431V349.695ZM555.692 309.414H591.76V273.329H555.692V309.414ZM515.431 309.414H551.499V273.329H515.431V309.414ZM287.285 349.695H309.932V259.902H287.285V349.695ZM273.864 244.377C273.864 250.587 278.981 255.706 285.188 255.706H312.028C318.235 255.706 323.352 250.587 323.352 244.377V233.048H273.864V244.377ZM285.188 353.891C278.981 353.891 273.864 359.01 273.864 365.22V376.549H323.352V365.22C323.352 359.01 318.235 353.891 312.028 353.891H285.188ZM367.807 349.695H390.454V259.902H367.807V349.695ZM365.71 353.891C359.503 353.891 354.387 359.01 354.387 365.22V376.549H403.874V365.22C403.874 359.01 398.758 353.891 392.551 353.891H365.71ZM354.387 244.377C354.387 250.587 359.503 255.706 365.71 255.706H392.551C398.758 255.706 403.874 250.587 403.874 244.377V233.048H354.387V244.377ZM260.612 210.39V210.642C260.528 210.978 260.528 211.397 260.528 211.985C260.444 221.3 267.993 228.853 277.303 228.853H480.874C490.184 228.853 497.733 221.3 497.733 211.985C497.733 211.397 497.649 210.978 497.649 210.642V210.39L497.314 206.195H260.947L260.612 210.39ZM434.909 244.377C434.909 250.587 440.025 255.706 446.232 255.706H473.073C479.28 255.706 484.397 250.587 484.397 244.377V233.048H434.909V244.377ZM448.329 349.695H470.976V259.902H448.329V349.695ZM446.232 353.891C440.025 353.891 434.909 359.01 434.909 365.22V376.549H484.397V365.22C484.397 359.01 479.28 353.891 473.073 353.891H446.232ZM582.533 161.718H605.18V116.821C605.18 112.374 604.761 107.758 603.922 102.639L603.251 98.7791H436.838L436.167 102.639C435.328 107.758 434.909 112.374 434.909 116.821V136.123L457.556 158.781V121.437H502.011V161.718H538.078V121.437H582.533V161.718Z" fill="#F6F9FF"/>
<path fill-rule="evenodd" clip-rule="evenodd" d="M487.584 249.58C486.797 251.736 485.548 253.694 483.925 255.318C482.303 256.941 480.345 258.191 478.19 258.979L475.086 260.07V349.611L478.19 350.702C484.397 352.884 488.507 358.758 488.507 365.22V376.549H631.937V246.475H488.758L487.584 249.58ZM511.237 269.133V353.891H595.954V269.133H511.237Z" fill="#F6F9FF"/>
<path d="M378.124 179.341C371.33 179.341 365.626 174.725 364.032 168.431H368.394C369.904 172.375 373.678 175.145 378.04 175.145H379.969C385.673 175.145 390.286 170.529 390.286 164.823C390.286 160.879 388.105 157.354 384.582 155.592L371.497 149.046C366.549 146.528 363.445 141.577 363.445 136.039C363.445 127.982 369.988 121.521 377.956 121.521H379.885C386.679 121.521 392.383 126.136 393.977 132.43H389.615C388.105 128.486 384.331 125.717 379.969 125.717H378.04C376.685 125.716 375.343 125.983 374.09 126.501C372.838 127.02 371.7 127.78 370.742 128.739C369.784 129.698 369.024 130.836 368.506 132.089C367.988 133.341 367.722 134.684 367.723 136.039C367.715 137.957 368.245 139.839 369.254 141.471C370.262 143.103 371.708 144.419 373.427 145.27L386.512 151.815C391.46 154.333 394.564 159.284 394.564 164.823C394.564 172.879 388.021 179.341 380.053 179.341H378.124Z" fill="#F3786E"/>
<path d="M256.25 407.599V392.074C256.25 385.612 260.444 379.738 266.567 377.556L269.67 376.465V365.304C269.67 358.842 273.864 352.968 279.987 350.786L283.091 349.695V260.07L279.987 258.979C273.864 256.714 269.67 250.839 269.67 244.377V231.706L267.238 230.363C260.444 226.587 256.25 219.538 256.25 211.985C256.25 206.362 258.431 201.076 262.457 197.047L354.722 104.653C361.265 98.107 369.904 94.583 379.13 94.583C388.357 94.583 396.996 98.191 403.539 104.653L430.715 131.843V116.737C430.715 96.261 437.845 76.289 450.762 60.428C463.511 44.819 481.293 33.826 500.92 29.546L504.527 28.791V16.119C504.527 7.55899 511.489 0.593994 520.044 0.593994C528.6 0.593994 535.562 7.55899 535.562 16.119V28.791L539.169 29.546C558.712 33.826 576.578 44.819 589.327 60.428C602.244 76.288 609.374 96.261 609.374 116.737V161.718H622.207L650.474 246.475H636.215V376.549H647.538C656.094 376.549 663.056 383.514 663.056 392.074V407.599H256.25ZM271.767 380.745C265.56 380.745 260.444 385.864 260.444 392.074V403.403H658.862V392.074C658.862 385.864 653.745 380.745 647.538 380.745H271.767ZM408.068 244.377C408.068 250.839 403.874 256.714 397.751 258.895L394.648 259.986V349.527L397.751 350.618C403.958 352.8 408.068 358.674 408.068 365.22V376.549H430.715V365.22C430.715 358.758 434.909 352.884 441.032 350.702L444.135 349.611V260.07L441.032 258.979C434.825 256.797 430.715 250.923 430.715 244.461V233.048H408.068V244.377ZM327.546 244.377C327.546 250.839 323.352 256.714 317.229 258.895L314.125 259.986V349.527L317.229 350.618C323.436 352.8 327.546 358.674 327.546 365.22V376.549H350.193V365.22C350.193 358.758 354.387 352.884 360.51 350.702L363.613 349.611V260.07L360.51 258.979C354.303 256.797 350.193 250.923 350.193 244.461V233.048H327.546V244.377ZM487.584 249.58C486.797 251.736 485.548 253.694 483.925 255.317C482.303 256.941 480.346 258.19 478.19 258.979L475.086 260.07V349.611L478.19 350.702C484.397 352.884 488.507 358.758 488.507 365.22V376.549H631.937V246.475H488.758L487.584 249.58ZM446.232 353.891C440.025 353.891 434.909 359.01 434.909 365.22V376.549H484.397V365.22C484.397 359.01 479.28 353.891 473.073 353.891H446.232ZM365.71 353.891C359.503 353.891 354.387 359.01 354.387 365.22V376.549H403.874V365.22C403.874 359.01 398.758 353.891 392.551 353.891H365.71ZM285.188 353.891C278.981 353.891 273.864 359.01 273.864 365.22V376.549H323.352V365.22C323.352 359.01 318.235 353.891 312.028 353.891H285.188ZM448.329 349.695H470.976V259.902H448.329V349.695ZM367.807 349.695H390.454V259.902H367.807V349.695ZM287.285 349.695H309.932V259.902H287.285V349.695ZM434.909 244.377C434.909 250.587 440.025 255.706 446.232 255.706H473.073C479.28 255.706 484.397 250.587 484.397 244.377V233.048H434.909V244.377ZM354.387 244.377C354.387 250.587 359.503 255.706 365.71 255.706H392.551C398.758 255.706 403.874 250.587 403.874 244.377V233.048H354.387V244.377ZM273.864 244.377C273.864 250.587 278.981 255.706 285.188 255.706H312.028C318.235 255.706 323.352 250.587 323.352 244.377V233.048H273.864V244.377ZM602.077 242.28H644.602L619.188 165.914H576.662L602.077 242.28ZM555.105 242.28H597.631L572.216 165.914H529.69L555.105 242.28ZM495.804 197.047C499.83 200.992 502.011 206.362 502.011 211.985C502.011 219.621 497.817 226.671 491.023 230.363L488.59 231.706V242.28H550.66L525.245 165.914H464.685L495.804 197.047ZM260.612 210.39V210.642C260.528 210.978 260.528 211.397 260.528 211.985C260.444 221.3 267.993 228.853 277.303 228.853H480.874C490.184 228.853 497.733 221.3 497.733 211.985C497.733 211.397 497.649 210.978 497.649 210.642V210.39L497.314 206.195H260.947L260.612 210.39ZM379.13 98.779C370.994 98.779 363.445 101.968 357.742 107.674L263.38 201.999H494.797L400.519 107.674C394.816 101.968 387.267 98.779 379.13 98.779ZM582.533 161.718H605.18V116.821C605.18 112.374 604.761 107.758 603.922 102.639L603.251 98.779H436.838L436.167 102.639C435.328 107.758 434.909 112.374 434.909 116.821V136.123L457.556 158.781V121.437H502.011V161.718H538.078V121.437H582.533V161.718ZM542.272 161.718H578.339V125.633H542.272V161.718ZM461.75 161.718H497.817V125.633H461.75V161.718ZM537.91 42.386C547.724 52.708 559.886 69.491 561.983 90.471L562.403 94.667H602.328L600.147 88.541C590.837 62.274 569.281 42.218 542.44 34.833L526.503 30.469L537.91 42.385V42.386ZM517.193 34.329C507.882 41.714 485.823 61.939 482.384 89.379L481.712 94.583H558.46L557.789 89.38C554.266 61.939 532.207 41.714 522.896 34.33L520.044 32.064L517.193 34.329ZM497.565 34.749C470.725 42.134 449.168 62.19 439.858 88.457L437.677 94.583H477.603L478.022 90.387C480.119 69.491 492.281 52.707 502.095 42.302L513.502 30.302L497.565 34.749ZM520.044 27.448C521.89 27.448 523.735 27.616 525.748 27.7L531.368 28.12V16.118C531.368 9.90799 526.251 4.78899 520.044 4.78899C513.838 4.78899 508.721 9.90899 508.721 16.118V28.118L514.341 27.698C516.354 27.615 518.199 27.447 520.044 27.447V27.448Z" fill="#F3786E"/>
<path d="M511.238 353.891V269.133H595.955V353.891H511.238ZM555.693 349.695H591.761V313.61H555.693V349.695ZM515.432 349.695H551.5V313.61H515.432V349.695ZM555.693 309.414H591.761V273.329H555.693V309.414ZM515.432 309.414H551.5V273.329H515.432V309.414ZM517.194 34.33C507.883 41.714 485.824 61.939 482.385 89.38L481.713 94.583H558.461L557.79 89.38C554.267 61.939 532.208 41.714 522.897 34.33L520.045 32.064L517.194 34.329V34.33Z" fill="#E6E6E6"/>
<path d="M537.911 42.3861C547.725 52.7081 559.887 69.4911 561.984 90.4711L562.404 94.6671H602.329L600.148 88.5411C590.838 62.2741 569.282 42.2181 542.441 34.8331L526.504 30.4691L537.911 42.3851V42.3861ZM497.566 34.7491C470.726 42.1341 449.169 62.1901 439.859 88.4571L437.678 94.5831H477.604L478.023 90.3871C480.12 69.4911 492.282 52.7071 502.096 42.3021L513.503 30.3021L497.566 34.7491ZM520.045 27.4481C521.891 27.4481 523.736 27.6161 525.749 27.7001L531.369 28.1201V16.1181C531.369 9.90806 526.252 4.78906 520.045 4.78906C513.839 4.78906 508.722 9.90906 508.722 16.1181V28.1181L514.342 27.6981C516.355 27.6151 518.2 27.4471 520.045 27.4471V27.4481Z" fill="#E6E6E6"/>
<path fill-rule="evenodd" clip-rule="evenodd" d="M379.131 98.7791C370.995 98.7791 363.446 101.968 357.743 107.674L263.381 201.999H494.798L400.52 107.674C394.817 101.968 387.268 98.7791 379.131 98.7791ZM364.033 168.431C365.627 174.725 371.331 179.341 378.125 179.341H380.054C388.022 179.341 394.565 172.879 394.565 164.823C394.565 159.284 391.461 154.333 386.513 151.815L373.428 145.27C371.709 144.419 370.263 143.103 369.254 141.471C368.246 139.839 367.716 137.957 367.724 136.039C367.723 134.684 367.988 133.341 368.506 132.089C369.024 130.836 369.784 129.698 370.742 128.739C371.701 127.78 372.838 127.02 374.091 126.502C375.343 125.983 376.685 125.716 378.041 125.717H379.97C384.332 125.717 388.106 128.486 389.616 132.43H393.978C392.384 126.136 386.68 121.521 379.886 121.521H377.957C369.989 121.521 363.446 127.982 363.446 136.039C363.446 141.577 366.55 146.528 371.498 149.046L384.583 155.592C386.302 156.443 387.748 157.759 388.757 159.391C389.765 161.023 390.295 162.905 390.287 164.823C390.287 170.529 385.674 175.145 379.97 175.145H378.041C373.679 175.145 369.905 172.375 368.395 168.431H364.033Z" fill="#E6E6E6"/>
<path d="M495.805 197.047C499.831 200.992 502.012 206.362 502.012 211.985C502.012 219.621 497.818 226.671 491.024 230.363L488.591 231.706V242.28H550.661L525.246 165.914H464.686L495.805 197.047ZM555.106 242.28H597.632L572.217 165.914H529.691L555.106 242.28ZM602.078 242.28H644.603L619.189 165.914H576.663L602.078 242.28Z" fill="#E6E6E6"/>
<path d="M378.124 179.341C371.33 179.341 365.626 174.725 364.032 168.431H368.394C369.904 172.375 373.678 175.145 378.04 175.145H379.969C385.673 175.145 390.286 170.529 390.286 164.823C390.286 160.879 388.105 157.354 384.582 155.592L371.497 149.046C366.549 146.528 363.445 141.577 363.445 136.039C363.445 127.982 369.988 121.521 377.956 121.521H379.885C386.679 121.521 392.383 126.136 393.977 132.43H389.615C388.105 128.486 384.331 125.717 379.969 125.717H378.04C376.685 125.716 375.343 125.983 374.09 126.501C372.838 127.02 371.7 127.78 370.742 128.739C369.784 129.698 369.024 130.836 368.506 132.089C367.988 133.341 367.722 134.684 367.723 136.039C367.715 137.957 368.245 139.839 369.254 141.471C370.262 143.103 371.708 144.419 373.427 145.27L386.512 151.815C391.46 154.333 394.564 159.284 394.564 164.823C394.564 172.879 388.021 179.341 380.053 179.341H378.124Z" fill="#72AC47"/>
<path d="M256.25 407.599V392.074C256.25 385.612 260.444 379.738 266.567 377.556L269.67 376.465V365.304C269.67 358.842 273.864 352.968 279.987 350.786L283.091 349.695V260.07L279.987 258.979C273.864 256.714 269.67 250.839 269.67 244.377V231.706L267.238 230.363C260.444 226.587 256.25 219.538 256.25 211.985C256.25 206.362 258.431 201.076 262.457 197.047L354.722 104.653C361.265 98.107 369.904 94.583 379.13 94.583C388.357 94.583 396.996 98.191 403.539 104.653L430.715 131.843V116.737C430.715 96.261 437.845 76.289 450.762 60.428C463.511 44.819 481.293 33.826 500.92 29.546L504.527 28.791V16.119C504.527 7.55899 511.489 0.593994 520.044 0.593994C528.6 0.593994 535.562 7.55899 535.562 16.119V28.791L539.169 29.546C558.712 33.826 576.578 44.819 589.327 60.428C602.244 76.288 609.374 96.261 609.374 116.737V161.718H622.207L650.474 246.475H636.215V376.549H647.538C656.094 376.549 663.056 383.514 663.056 392.074V407.599H256.25ZM271.767 380.745C265.56 380.745 260.444 385.864 260.444 392.074V403.403H658.862V392.074C658.862 385.864 653.745 380.745 647.538 380.745H271.767ZM408.068 244.377C408.068 250.839 403.874 256.714 397.751 258.895L394.648 259.986V349.527L397.751 350.618C403.958 352.8 408.068 358.674 408.068 365.22V376.549H430.715V365.22C430.715 358.758 434.909 352.884 441.032 350.702L444.135 349.611V260.07L441.032 258.979C434.825 256.797 430.715 250.923 430.715 244.461V233.048H408.068V244.377ZM327.546 244.377C327.546 250.839 323.352 256.714 317.229 258.895L314.125 259.986V349.527L317.229 350.618C323.436 352.8 327.546 358.674 327.546 365.22V376.549H350.193V365.22C350.193 358.758 354.387 352.884 360.51 350.702L363.613 349.611V260.07L360.51 258.979C354.303 256.797 350.193 250.923 350.193 244.461V233.048H327.546V244.377ZM487.584 249.58C486.797 251.736 485.548 253.694 483.925 255.317C482.303 256.941 480.346 258.19 478.19 258.979L475.086 260.07V349.611L478.19 350.702C484.397 352.884 488.507 358.758 488.507 365.22V376.549H631.937V246.475H488.758L487.584 249.58ZM446.232 353.891C440.025 353.891 434.909 359.01 434.909 365.22V376.549H484.397V365.22C484.397 359.01 479.28 353.891 473.073 353.891H446.232ZM365.71 353.891C359.503 353.891 354.387 359.01 354.387 365.22V376.549H403.874V365.22C403.874 359.01 398.758 353.891 392.551 353.891H365.71ZM285.188 353.891C278.981 353.891 273.864 359.01 273.864 365.22V376.549H323.352V365.22C323.352 359.01 318.235 353.891 312.028 353.891H285.188ZM448.329 349.695H470.976V259.902H448.329V349.695ZM367.807 349.695H390.454V259.902H367.807V349.695ZM287.285 349.695H309.932V259.902H287.285V349.695ZM434.909 244.377C434.909 250.587 440.025 255.706 446.232 255.706H473.073C479.28 255.706 484.397 250.587 484.397 244.377V233.048H434.909V244.377ZM354.387 244.377C354.387 250.587 359.503 255.706 365.71 255.706H392.551C398.758 255.706 403.874 250.587 403.874 244.377V233.048H354.387V244.377ZM273.864 244.377C273.864 250.587 278.981 255.706 285.188 255.706H312.028C318.235 255.706 323.352 250.587 323.352 244.377V233.048H273.864V244.377ZM602.077 242.28H644.602L619.188 165.914H576.662L602.077 242.28ZM555.105 242.28H597.631L572.216 165.914H529.69L555.105 242.28ZM495.804 197.047C499.83 200.992 502.011 206.362 502.011 211.985C502.011 219.621 497.817 226.671 491.023 230.363L488.59 231.706V242.28H550.66L525.245 165.914H464.685L495.804 197.047ZM260.612 210.39V210.642C260.528 210.978 260.528 211.397 260.528 211.985C260.444 221.3 267.993 228.853 277.303 228.853H480.874C490.184 228.853 497.733 221.3 497.733 211.985C497.733 211.397 497.649 210.978 497.649 210.642V210.39L497.314 206.195H260.947L260.612 210.39ZM379.13 98.779C370.994 98.779 363.445 101.968 357.742 107.674L263.38 201.999H494.797L400.519 107.674C394.816 101.968 387.267 98.779 379.13 98.779ZM582.533 161.718H605.18V116.821C605.18 112.374 604.761 107.758 603.922 102.639L603.251 98.779H436.838L436.167 102.639C435.328 107.758 434.909 112.374 434.909 116.821V136.123L457.556 158.781V121.437H502.011V161.718H538.078V121.437H582.533V161.718ZM542.272 161.718H578.339V125.633H542.272V161.718ZM461.75 161.718H497.817V125.633H461.75V161.718ZM537.91 42.386C547.724 52.708 559.886 69.491 561.983 90.471L562.403 94.667H602.328L600.147 88.541C590.837 62.274 569.281 42.218 542.44 34.833L526.503 30.469L537.91 42.385V42.386ZM517.193 34.329C507.882 41.714 485.823 61.939 482.384 89.379L481.712 94.583H558.46L557.789 89.38C554.266 61.939 532.207 41.714 522.896 34.33L520.044 32.064L517.193 34.329ZM497.565 34.749C470.725 42.134 449.168 62.19 439.858 88.457L437.677 94.583H477.603L478.022 90.387C480.119 69.491 492.281 52.707 502.095 42.302L513.502 30.302L497.565 34.749ZM520.044 27.448C521.89 27.448 523.735 27.616 525.748 27.7L531.368 28.12V16.118C531.368 9.90799 526.251 4.78899 520.044 4.78899C513.838 4.78899 508.721 9.90899 508.721 16.118V28.118L514.341 27.698C516.354 27.615 518.199 27.448 520.044 27.448Z" fill="#5C5B59"/>
<path d="M511.236 353.891V269.133H595.953V353.891H511.236ZM555.691 349.695H591.759V313.61H555.691V349.695ZM515.43 349.695H551.498V313.61H515.43V349.695ZM555.691 309.414H591.759V273.329H555.691V309.414ZM515.43 309.414H551.498V273.329H515.43V309.414Z" fill="black"/>
<path d="M71.0973 154V118.364H85.3658C87.9875 118.364 90.1741 118.752 91.9258 119.529C93.6774 120.307 94.9941 121.386 95.8757 122.766C96.7573 124.135 97.1982 125.712 97.1982 127.499C97.1982 128.891 96.9197 130.115 96.3629 131.17C95.8061 132.214 95.0405 133.073 94.0661 133.746C93.1032 134.407 92.0012 134.877 90.7599 135.155V135.503C92.1172 135.561 93.3874 135.944 94.5707 136.652C95.7655 137.359 96.7341 138.351 97.4766 139.627C98.219 140.892 98.5902 142.4 98.5902 144.151C98.5902 146.042 98.1204 147.73 97.1808 149.215C96.2527 150.688 94.8781 151.854 93.0568 152.712C91.2356 153.571 88.9909 154 86.3228 154H71.0973ZM78.6317 147.84H84.7741C86.8738 147.84 88.4051 147.44 89.3679 146.64C90.3307 145.828 90.8121 144.749 90.8121 143.403C90.8121 142.417 90.5743 141.547 90.0987 140.793C89.6231 140.039 88.9445 139.447 88.0629 139.018C87.1928 138.589 86.1546 138.374 84.9482 138.374H78.6317V147.84ZM78.6317 133.276H84.2173C85.2498 133.276 86.1662 133.096 86.9666 132.737C87.7786 132.365 88.4167 131.843 88.8807 131.17C89.3563 130.498 89.5941 129.691 89.5941 128.752C89.5941 127.464 89.1359 126.426 88.2195 125.637C87.3146 124.848 86.027 124.454 84.3565 124.454H78.6317V133.276ZM109.635 154H101.561L113.864 118.364H123.573L135.858 154H127.784L118.858 126.507H118.579L109.635 154ZM109.131 139.993H128.202V145.874H109.131V139.993ZM169.954 118.364V154H163.446L147.943 131.571H147.682V154H140.147V118.364H146.759L162.141 140.776H162.455V118.364H169.954ZM176.179 154V118.364H183.714V134.076H184.184L197.008 118.364H206.039L192.814 134.32L206.195 154H197.182L187.42 139.349L183.714 143.873V154H176.179Z" fill="#B9B9B9"/>
</svg>
